<svg width="226" height="224" fill="none" xmlns="http://www.w3.org/2000/svg"><path fill-rule="evenodd" clip-rule="evenodd" d="M203.636 129.238c29.485-29.565 29.485-77.5 0-107.064-29.485-29.565-77.289-29.565-106.774 0-24.576 24.642-28.668 62.045-12.277 90.937L5.862 187.657c-6.55 6.202-6.845 16.553-.66 23.121l6.684 7.096c6.185 6.567 16.509 6.863 23.058.661l80.09-75.84c28.508 15.08 64.617 10.594 88.602-13.457z" fill="#fff"/><g opacity=".4"><mask id="a" style="mask-type:alpha" maskUnits="userSpaceOnUse" x="91" y="17" width="118" height="118"><path d="M208.454 75.937c0 32.289-26.176 58.464-58.464 58.464-32.289 0-58.465-26.175-58.465-58.464s26.176-58.464 58.465-58.464c32.288 0 58.464 26.175 58.464 58.464z" fill="#C4C4C4"/></mask><g mask="url(#a)" fill="#1BC082"><path d="M155.453 17.473h76.344l-36.123 119.596h-81.028l40.807-119.596zm-19.776 0h16.761l-40.813 119.596H94.863l40.814-119.596zm-18.167 0h16.696L93.55 137.069H76.853L117.51 17.473zm-10.377 0h9.734L75.942 137.069h-9.758l40.949-119.596z"/></g></g><path d="M111.892 116.669a51.697 51.697 0 01-3.343-3.775l-22.181 21.684c-1.363 1.332-.894 4.026 1.049 6.017 1.942 1.991 4.621 2.525 5.984 1.192l22.182-21.684a53.498 53.498 0 01-3.691-3.434z" fill="#3D2B93"/><path d="M191.323 35.669c-22.115-22.672-58.514-22.99-81.3-.712-22.785 22.28-23.329 58.72-1.213 81.392 22.115 22.672 58.514 22.991 81.299.712 22.786-22.28 23.329-58.72 1.214-81.392zm-77.75 76.023c-19.562-20.055-19.081-52.288 1.073-71.995 20.155-19.707 52.352-19.425 71.914.63 19.562 20.054 19.081 52.287-1.074 71.994s-52.352 19.425-71.913-.629z" fill="#1BC082"/><path d="M17.48 211.826l-3.447-3.579a9.002 9.002 0 01.232-12.72l64.038-62.152a8.985 8.985 0 016.402-2.519 8.987 8.987 0 016.305 2.751l3.447 3.579a9.003 9.003 0 01-.232 12.721l-64.038 62.152a8.983 8.983 0 01-12.707-.233zM216.75 75.5c0 36.727-29.997 66.5-67 66.5s-67-29.773-67-66.5c0-36.727 29.997-66.5 67-66.5s67 29.773 67 66.5zm-123.663 0c0 31.06 25.369 56.24 56.663 56.24 31.294 0 56.663-25.18 56.663-56.24 0-31.06-25.369-56.24-56.663-56.24-31.294 0-56.663 25.18-56.663 56.24z" fill="#573CDA"/></svg>