<svg width="226" height="224" fill="none" xmlns="http://www.w3.org/2000/svg"><path d="M139.954 211.926L111.977 224l-19.935-8.703C50.696 197.247 24 156.62 24 111.752l1.023-88.99L112.758 0 202 23.778l-1.023 95.714c0 40.135-23.97 76.444-61.023 92.434z" fill="#fff"/><path d="M135.93 199.062l-24.096 10.665-17.168-7.687c-35.61-15.943-58.601-51.827-58.601-91.457l.88-78.601 75.509-19.26 76.912 20.157-.881 84.541c0 35.449-20.644 67.519-52.555 81.642z" fill="#3D2B93"/><path d="M112.456 12.722l-1.106.282V209.51l.486.218 24.096-10.665c31.911-14.123 52.556-46.193 52.556-81.643l.881-84.54-76.913-20.157z" fill="#573CDA"/><path d="M151.157 86.402c-9.315 0-15.583.322-15.494.086 1.471-3.934 3.68-7.229 6.387-9.527 2.707-2.299 5.81-3.514 8.973-3.514 3.163 0 6.266 1.215 8.974 3.514 2.707 2.298 4.916 5.593 6.387 9.527 0 0-6.514-.086-15.227-.086z" fill="#fff"/><path d="M150.358 103.323c-16.564 0-30.04-13.435-30.04-29.95s13.476-29.951 30.04-29.951 30.039 13.436 30.039 29.95c0 16.516-13.475 29.951-30.039 29.951zm0-59.14c-16.143 0-29.276 13.095-29.276 29.19s13.133 29.189 29.276 29.189c16.142 0 29.276-13.094 29.276-29.19 0-16.094-13.134-29.189-29.276-29.189z" fill="#fff"/><path d="M158.273 62.35c.709-4.36-2.26-8.469-6.634-9.176-4.373-.708-8.494 2.253-9.204 6.614-.709 4.36 2.261 8.469 6.634 9.176 4.373.708 8.494-2.253 9.204-6.614zm-81.995 98.284c-16.564 0-30.04-13.436-30.04-29.951 0-16.514 13.476-29.95 30.04-29.95 16.563 0 30.039 13.436 30.039 29.95 0 16.515-13.476 29.951-30.04 29.951zm0-59.14c-16.143 0-29.276 13.094-29.276 29.189 0 16.096 13.133 29.19 29.276 29.19 16.142 0 29.275-13.094 29.275-29.19 0-16.095-13.133-29.189-29.275-29.189z" fill="#fff"/><path d="M76.545 143.288c-9.314 0-15.583.322-15.493.086 1.47-3.934 3.68-7.229 6.387-9.528 2.707-2.298 5.81-3.513 8.973-3.513 3.163 0 6.266 1.215 8.973 3.513 2.708 2.299 4.916 5.594 6.387 9.528 0 0-6.513-.086-15.227-.086zm-.271-16.909c4.43 0 8.022-3.582 8.022-7.999 0-4.418-3.591-7.999-8.022-7.999-4.43 0-8.022 3.581-8.022 7.999 0 4.417 3.592 7.999 8.022 7.999z" fill="#fff"/><path d="M54.055 62.935l8.401 29.467L88.35 75.915l-7-2.65c1.9-6.138 5.658-14.705 13.247-22.581 15.264-15.841 32.828-11.235 37.421-11.438-5.868-3.709-24.899-14.703-47.579-.981-13.661 8.266-20.342 20.213-23.35 27.333l-7.034-2.663zm119.779 79.697l-8.401-29.467-25.894 16.488 7 2.649c-1.9 6.139-5.658 14.706-13.247 22.581-15.264 15.841-32.828 11.235-37.42 11.438 5.868 3.709 24.898 14.703 47.578.982 13.662-8.266 20.342-20.214 23.35-27.333l7.034 2.662z" fill="#1BC082"/></svg>