<svg width="226" height="224" fill="none" xmlns="http://www.w3.org/2000/svg"><path d="M224 112c0 61.856-50.144 112-112 112S0 173.856 0 112 50.144 0 112 0s112 50.144 112 112z" fill="#fff"/><path d="M113 208c52.467 0 95-42.533 95-95s-42.533-95-95-95-95 42.533-95 95 42.533 95 95 95z" fill="#3D2B93"/><path d="M113 193c44.183 0 80-35.817 80-80s-35.817-80-80-80-80 35.817-80 80 35.817 80 80 80z" fill="#573CDA"/><path d="M113 198c-46.869 0-85-38.131-85-85 0-46.87 38.131-85 85-85s85 38.13 85 85c0 46.869-38.131 85-85 85zm0-165.946c-44.634 0-80.946 36.312-80.946 80.946S68.366 193.945 113 193.945s80.945-36.311 80.945-80.945c0-44.634-36.311-80.946-80.945-80.946z" fill="#fff"/><path d="M148.069 148.022c19.34-19.34 19.34-50.696 0-70.036-19.34-19.34-50.697-19.34-70.037 0-19.34 19.34-19.34 50.696 0 70.036 19.34 19.34 50.697 19.34 70.037 0z" fill="#3D2B93"/><path d="M113 166c-29.224 0-53-23.776-53-53 0-29.225 23.776-53 53-53s53 23.775 53 53c0 29.224-23.776 53-53 53zm0-97.953c-24.787 0-44.953 20.166-44.953 44.953 0 24.787 20.166 44.953 44.953 44.953 24.787 0 44.953-20.166 44.953-44.953 0-24.787-20.166-44.953-44.953-44.953z" fill="#fff"/><path d="M126.584 126.594c7.493-7.492 7.493-19.641 0-27.134-7.493-7.493-19.641-7.493-27.134 0-7.493 7.493-7.493 19.642 0 27.134 7.493 7.493 19.641 7.493 27.134 0z" fill="url(#paint0_linear_968_39142)"/><path d="M113 136c-12.682 0-23-10.318-23-23s10.318-23 23-23 23 10.318 23 23-10.318 23-23 23zm0-37.952c-8.245 0-14.952 6.707-14.952 14.952 0 8.245 6.707 14.952 14.952 14.952 8.244 0 14.952-6.707 14.952-14.952 0-8.245-6.708-14.952-14.952-14.952z" fill="#fff"/><path d="M127.329 98.98l2.021 2.02 76.525-76.528-2.021-2.02-76.525 76.528z" fill="#2A206A"/><path d="M128.825 94.162c1.067-1.173 6.094 4.357 5.027 5.53l-18.645 16.125c-.689.595-1.582-.387-1.04-1.144l14.658-20.51z" fill="#2A206A"/><path d="M206.298 26l10.702.997-14.692 13.769a22.971 22.971 0 01-8.419 4.993A24.138 24.138 0 01184 46.896L206.298 26z" fill="#1BC082"/><path d="M204 22.378L202.956 12l-14.425 14.247a21.996 21.996 0 00-5.231 8.164A21.788 21.788 0 00182.109 44L204 22.378z" fill="url(#paint1_linear_968_39142)"/><defs><linearGradient id="paint0_linear_968_39142" x1="99.45" y1="99.46" x2="126.584" y2="126.594" gradientUnits="userSpaceOnUse"><stop stop-color="#1BC082"/><stop offset="1" stop-color="#23C89A"/></linearGradient><linearGradient id="paint1_linear_968_39142" x1="193" y1="12" x2="193" y2="44" gradientUnits="userSpaceOnUse"><stop stop-color="#1BC082"/><stop offset="1" stop-color="#23C89A"/></linearGradient></defs></svg>