<svg width="226" height="224" fill="none" xmlns="http://www.w3.org/2000/svg"><path d="M102.014 4.259a16.3 16.3 0 0121.972 0l16.962 15.453a16.307 16.307 0 0011.618 4.247l22.885-.89c8.409-.327 15.692 5.81 16.831 14.182l3.102 22.787a16.434 16.434 0 006.182 10.752l18.1 14.091c6.651 5.178 8.302 14.58 3.816 21.729l-12.21 19.457a16.475 16.475 0 00-2.147 12.227l4.846 22.478c1.781 8.259-2.972 16.527-10.985 19.108l-21.809 7.024a16.368 16.368 0 00-9.471 7.981l-10.675 20.347c-3.923 7.476-12.856 10.742-20.647 7.546l-21.202-8.696a16.288 16.288 0 00-12.364 0l-21.202 8.696c-7.79 3.196-16.724-.07-20.647-7.546l-10.675-20.347a16.367 16.367 0 00-9.471-7.981l-21.809-7.024c-8.013-2.581-12.766-10.849-10.985-19.108l4.846-22.478c.906-4.2.135-8.59-2.147-12.227L2.518 106.61c-4.486-7.15-2.835-16.551 3.816-21.729l18.1-14.09a16.433 16.433 0 006.182-10.753l3.102-22.787c1.14-8.372 8.422-14.509 16.83-14.182l22.886.89a16.308 16.308 0 0011.618-4.247L102.014 4.26z" fill="#fff"/><path d="M102.5 19.279a16.279 16.279 0 0122 0l12.637 11.552a16.296 16.296 0 0011.633 4.266l17.049-.665c8.42-.328 15.712 5.837 16.854 14.25l2.31 17.033a16.525 16.525 0 006.19 10.803l13.485 10.533c6.66 5.202 8.313 14.648 3.82 21.831l-9.096 14.545a16.603 16.603 0 00-2.15 12.284l3.611 16.803c1.783 8.298-2.977 16.605-11 19.198l-16.247 5.251a16.399 16.399 0 00-9.484 8.018l-7.953 15.21c-3.928 7.511-12.873 10.792-20.673 7.582l-15.796-6.501a16.255 16.255 0 00-12.38 0l-15.796 6.501c-7.8 3.21-16.745-.071-20.673-7.582l-7.953-15.21a16.398 16.398 0 00-9.484-8.018l-16.247-5.251c-8.023-2.593-12.783-10.9-11-19.198l3.61-16.803c.907-4.22.136-8.631-2.15-12.284l-9.095-14.545c-4.493-7.183-2.84-16.63 3.82-21.831l13.485-10.533a16.522 16.522 0 006.19-10.803l2.31-17.034c1.142-8.412 8.434-14.577 16.854-14.249l17.049.665a16.298 16.298 0 0011.633-4.266L102.5 19.279z" fill="#AB9DEC"/><path d="M102.451 31.268c6.268-5.69 15.83-5.69 22.098 0l9.516 8.64a16.436 16.436 0 0011.685 4.257l12.84-.497c8.457-.328 15.781 5.822 16.927 14.214l1.74 12.74a16.46 16.46 0 006.218 10.778l10.155 7.878c6.689 5.19 8.349 14.612 3.837 21.778l-6.85 10.879a16.466 16.466 0 00-2.159 12.255l2.719 12.568c1.791 8.278-2.99 16.564-11.049 19.151l-12.235 3.928a16.446 16.446 0 00-9.526 7.998l-5.989 11.377c-3.945 7.494-12.93 10.766-20.765 7.564l-11.896-4.863a16.438 16.438 0 00-12.434 0l-11.896 4.863c-7.835 3.202-16.82-.07-20.765-7.564l-5.99-11.377a16.443 16.443 0 00-9.525-7.998l-12.235-3.928c-8.06-2.587-12.84-10.873-11.049-19.151l2.72-12.568c.91-4.21.135-8.61-2.16-12.255l-6.85-10.879c-4.512-7.166-2.852-16.589 3.837-21.778l10.155-7.879a16.457 16.457 0 006.218-10.776l1.74-12.74c1.146-8.393 8.47-14.543 16.927-14.215l12.84.497a16.436 16.436 0 0011.685-4.256l9.516-8.64z" fill="#3D2B93"/><g clip-path="url(#clip0_968_39155)"><path d="M101.929 31.3c6.272-5.733 15.87-5.733 22.142 0l9.337 8.532a16.408 16.408 0 0011.71 4.287l12.61-.492c8.456-.33 15.779 5.831 16.919 14.234l1.73 12.749a16.469 16.469 0 006.181 10.768l10.11 7.895c6.646 5.19 8.297 14.577 3.822 21.731l-6.848 10.948a16.486 16.486 0 00-2.141 12.211l2.717 12.639c1.777 8.269-2.987 16.541-11.02 19.137l-12.096 3.908a16.444 16.444 0 00-9.511 8.026l-5.912 11.303c-3.937 7.528-12.945 10.815-20.791 7.587l-11.648-4.792a16.397 16.397 0 00-12.48 0l-11.648 4.792c-7.846 3.228-16.854-.059-20.791-7.587l-5.912-11.303a16.441 16.441 0 00-9.51-8.026l-12.097-3.908c-8.033-2.596-12.797-10.868-11.02-19.137l2.717-12.639a16.492 16.492 0 00-2.14-12.211l-6.849-10.948c-4.475-7.154-2.824-16.541 3.822-21.731l10.11-7.895a16.471 16.471 0 006.181-10.768l1.73-12.75c1.14-8.402 8.463-14.562 16.919-14.233l12.61.492a16.409 16.409 0 0011.71-4.287l9.337-8.533z" fill="#573CDA"/></g><path d="M87 163c-6.983 0-12.931-1.89-17.844-5.671-4.913-3.811-8.667-9.328-11.263-16.55C55.298 133.525 54 124.766 54 114.5c0-10.204 1.298-18.918 3.893-26.14 2.627-7.254 6.396-12.786 11.31-16.597C74.145 67.92 80.078 66 87 66c6.921 0 12.838 1.92 17.751 5.763 4.944 3.811 8.714 9.343 11.309 16.597 2.627 7.222 3.94 15.936 3.94 26.14 0 10.266-1.298 19.025-3.893 26.279-2.596 7.222-6.35 12.739-11.263 16.55C99.931 161.11 93.984 163 87 163zm0-10.143c6.921 0 12.298-3.319 16.129-9.958 3.832-6.639 5.747-16.105 5.747-28.399 0-8.176-.88-15.137-2.641-20.885-1.731-5.747-4.234-10.127-7.509-13.139-3.244-3.012-7.153-4.518-11.726-4.518-6.86 0-12.22 3.366-16.083 10.097-3.862 6.7-5.793 16.182-5.793 28.445 0 8.176.865 15.122 2.595 20.838 1.73 5.717 4.218 10.066 7.462 13.047 3.276 2.982 7.215 4.472 11.819 4.472zm61.22 1.723v-2.207c0-1.526.304-2.923.912-4.19a7.464 7.464 0 012.696-3.066c1.19-.776 2.63-1.165 4.322-1.165 1.718 0 3.158.389 4.321 1.165a7.238 7.238 0 012.637 3.066c.595 1.267.892 2.664.892 4.19v2.207c0 1.526-.304 2.929-.912 4.21a7.36 7.36 0 01-2.656 3.066c-1.163.763-2.591 1.144-4.282 1.144-1.718 0-3.165-.381-4.342-1.144a7.5 7.5 0 01-2.676-3.066c-.608-1.281-.912-2.684-.912-4.21zm4.044-2.207v2.207c0 1.267.291 2.405.873 3.413.581.994 1.585 1.492 3.013 1.492 1.387 0 2.365-.498 2.934-1.492.581-1.008.872-2.146.872-3.413v-2.207c0-1.267-.278-2.398-.833-3.393-.555-1.008-1.546-1.512-2.973-1.512-1.388 0-2.386.504-2.994 1.512-.594.995-.892 2.126-.892 3.393zM128 130.627v-2.207c0-1.526.304-2.922.912-4.189a7.464 7.464 0 012.696-3.066c1.189-.777 2.63-1.165 4.322-1.165 1.718 0 3.158.388 4.321 1.165a7.238 7.238 0 012.637 3.066c.594 1.267.892 2.663.892 4.189v2.207c0 1.526-.304 2.93-.912 4.21a7.349 7.349 0 01-2.657 3.066c-1.163.763-2.59 1.145-4.281 1.145-1.719 0-3.166-.382-4.342-1.145a7.494 7.494 0 01-2.676-3.066c-.608-1.28-.912-2.684-.912-4.21zm4.044-2.207v2.207c0 1.267.291 2.405.872 3.413.582.995 1.586 1.492 3.014 1.492 1.387 0 2.365-.497 2.933-1.492.582-1.008.873-2.146.873-3.413v-2.207c0-1.267-.278-2.398-.833-3.392-.555-1.009-1.546-1.513-2.973-1.513-1.388 0-2.386.504-2.994 1.513-.595.994-.892 2.125-.892 3.392zm-2.537 34.008l27.912-41.856h4.519l-27.912 41.856h-4.519z" fill="#1BC082"/><defs><clipPath id="clip0_968_39155"><path fill="#fff" transform="translate(13 16)" d="M0 0h100v192H0z"/></clipPath></defs></svg>