<svg width="40" height="72" fill="none" xmlns="http://www.w3.org/2000/svg"><path d="M21.073 63.544c-3.525 0-6.641-.53-9.349-1.59-2.707-1.061-5.032-2.484-6.973-4.27A23.598 23.598 0 010 51.656l5.21-4.605a21.018 21.018 0 003.68 5.359c1.481 1.563 3.27 2.791 5.364 3.684 2.094.893 4.495 1.34 7.203 1.34 3.78 0 6.769-.754 8.966-2.26 2.247-1.508 3.371-3.712 3.371-6.615 0-1.73-.536-3.265-1.61-4.605-1.02-1.395-2.962-2.455-5.823-3.18l-11.494-2.847c-3.065-.782-5.517-1.814-7.356-3.098-1.84-1.34-3.168-2.902-3.985-4.689-.817-1.841-1.226-3.823-1.226-5.944 0-2.902.715-5.553 2.145-7.953 1.482-2.4 3.576-4.326 6.284-5.777 2.759-1.451 6.054-2.177 9.885-2.177 4.291 0 7.995.95 11.111 2.847 3.167 1.898 5.773 4.744 7.816 8.54l-4.98 4.185c-1.789-3.46-3.858-5.916-6.208-7.367-2.298-1.451-5.082-2.177-8.352-2.177-2.656 0-4.828.419-6.513 1.256-1.686.782-2.938 1.842-3.755 3.181-.818 1.34-1.226 2.847-1.226 4.521 0 1.284.23 2.456.69 3.517.46 1.06 1.277 2.009 2.452 2.846 1.226.782 2.911 1.451 5.057 2.01l10.651 2.595c4.7 1.116 7.97 2.846 9.809 5.19 1.89 2.289 2.835 5.135 2.835 8.54 0 3.07-.792 5.777-2.376 8.121-1.532 2.344-3.729 4.186-6.59 5.526-2.81 1.283-6.13 1.925-9.961 1.925zM18.16 72V0h5.287v72H18.16z" fill="#573CDA"/></svg>