<svg width="928" height="619" fill="none" xmlns="http://www.w3.org/2000/svg"><path d="M529.718 618.04V381.72l-6.438.265V618.04h6.438zm-30.901-227.36h-6.438v227.36h6.438V390.68zm-27.039 15.68h-6.438v211.68h6.438V406.36zm-56.651 36.96h-6.438v174.72h6.438V443.32zm-29.613 31.36h-6.438v143.36h6.438V474.68zm55.363-52.64h-5.15v196h5.15v-196zm-112.015 106.4h-7.725v89.6h7.725v-89.6zM211.695 459h-7.725v159.04h7.725V459zm56.652 3.36h-6.438v155.68h6.438V462.36zm-142.917 0h-7.725v155.68h7.725V462.36zm56.651 81.76h-6.437v73.92h6.437v-73.92zm-88.84-54.88h-6.437v128.8h6.437v-128.8zm-24.462 62.72h-7.725v66.08h7.725v-66.08zm-32.188 36.96h-7.725v29.12h7.725v-29.12zm-24.464 0H5.69v29.12h6.438v-29.12zM241.308 431h-7.725v187.04h7.725V431zm59.228 144.48h-7.725v42.56h7.725v-42.56zm-145.491 0h-7.726v42.56h7.726v-42.56zM583.795 431h-7.726v187.04h7.726V431zm-27.039-36.96h-7.726v224h7.726v-224zm91.415 106.4h-6.438v117.6h6.438v-117.6zm-292.271 0h-6.438v117.6h6.438v-117.6zm319.31-4.48h-6.438v122.08h6.438V495.96zm52.789-107.52h-6.437v229.6h6.437v-229.6zm33.476 60.48h-6.438v169.12h6.438V448.92zm33.476 41.44h-7.725v127.68h7.725V490.36zm32.188-165.76h-5.15v293.44h5.15V324.6zm34.763 57.12h-7.725v236.32h7.725V381.72zm32.189-142.24h-6.438v378.56h6.438V239.48zm33.476 209.44h-6.438v169.12h6.438V448.92zM615.982 459h-7.725v159.04h7.725V459zm86.266 31.36h-7.726v127.68h7.726V490.36z" fill="#573CDA"/><path d="M527.142 80.44h-16.738v41.44h16.738V80.44z" fill="#AB9DEC"/><path d="M922.417.92H911.56v9.412h2.324L638.249 340.017l-118.6-204.199a.672.672 0 00-.257-.247.807.807 0 00-.738-.019.718.718 0 00-.279.227L297.819 456.572h-9.306v1.109l-110.065-83.108a.781.781 0 00-.487-.156.784.784 0 00-.483.168L10.783 507.828H.539v9.412h10.857v-8.188l166.589-133.158 110.528 83.46v6.63h10.857v-9.204l219.576-319.369 118.542 204.098a.666.666 0 00.243.24c.103.06.223.096.347.105a.817.817 0 00.364-.055.688.688 0 00.284-.204L915.682 10.332h6.735V.92z" fill="url(#paint0_linear_603_40451)"/><path d="M583 84.5a6.501 6.501 0 01-11.096 4.596 6.502 6.502 0 01.985-10A6.5 6.5 0 01583 84.5z" fill="#AB9DEC"/><path d="M471 333.5a6.5 6.5 0 11-13 .001 6.5 6.5 0 0113-.001z" fill="#1BC082"/><path d="M114 211.5a6.5 6.5 0 11-13 .001 6.5 6.5 0 0113-.001z" fill="#AB9DEC"/><path fill-rule="evenodd" clip-rule="evenodd" d="M25.003 518.36v-79.52h1.288v79.52h-1.288zm51.501-41.44v-78.4h1.287v78.4h-1.287zm104.291-43.68v-79.52h1.287v79.52h-1.287zM233.584 263v-80.64h1.288V263h-1.288zm51.501 129.92V282.04h1.287v110.88h-1.287zm52.789-25.76V256.28h1.288v110.88h-1.288zm51.502 72.8V329.08h2.575v110.88h-2.575zm104.29-81.76V247.32h2.575V358.2h-2.575zm105.578-163.52V68.12h1.288v126.56h-1.288zm51.502 19.04V87.16h1.288v126.56h-1.288zm104.291-71.68V17.72h2.575v124.32h-2.575zm104.29 71.68V87.16h1.288v126.56h-1.288zM702.248 324.6V220.44h1.288V324.6h-1.288z" fill="#1BC082"/><path d="M32.728 476.92h-15.45v43.68h15.45v-43.68zm52.789-53.76h-15.45v42.56h15.45v-42.56zm51.502-94.08h-15.451v104.16h15.451V329.08zm52.789-4.48h-15.451v42.56h15.451V324.6zm52.788-87.36h-16.738V347h16.738V237.24z" fill="#AB9DEC"/><path d="M292.811 353.72H277.36v56h15.451v-56zm54.076-5.6h-16.738V431h16.738v-82.88z" fill="#1BC082"/><path d="M398.389 269.72h-15.451V380.6h15.451V269.72z" fill="#AB9DEC"/><path d="M502.679 185.72h-15.45v109.76h15.45V185.72z" fill="#1BC082"/><path d="M608.258 159.96H591.52v40.32h16.738v-40.32z" fill="#AB9DEC"/><path d="M659.759 149.88h-16.738v110.88h16.738V149.88zm51.501 145.6h-16.738v41.44h16.738v-41.44zm51.502-185.92h-15.45v208.32h15.45V109.56zm104.29 64.96h-16.738v97.44h16.738v-97.44z" fill="#1BC082"/><path d="M393 175.5a6.5 6.5 0 11-13 .001 6.5 6.5 0 0113-.001z" fill="#AB9DEC"/><defs><linearGradient id="paint0_linear_603_40451" x1="881.204" y1="48.005" x2="253.516" y2="574.152" gradientUnits="userSpaceOnUse"><stop stop-color="#23C89A"/><stop offset=".38" stop-color="#1B9876"/><stop offset="1"/></linearGradient></defs></svg>