<svg width="733" height="766" fill="none" xmlns="http://www.w3.org/2000/svg"><path d="M182.639 552.658S31.129 519.155 58.536 432.424c32.221-101.968 61.694-88.438 107.274-151.18 83.246-114.589 141.423-132.369 303.131-68.514 114.788 32.009 127.621 43.973 166.965 67.396 66.655 62.707 36.318 98.437-17.044 172.898-53.362 74.461 18.262 106.368-44.626 157.271-62.889 50.903-391.597-57.637-391.597-57.637z" fill="#F6F4FF"/><path d="M480.019 244.889l-336.773 87.69 67.496 234.548 336.772-87.691-67.495-234.547z" fill="#A2A7D6"/><path d="M482.226 236.237l-336.773 87.691 67.496 234.548 336.772-87.691-67.495-234.548z" fill="#F5F5F5"/><path d="M451.77 266.442l-117.566 30.613 1.822 6.33 117.565-30.613-1.821-6.33zm4.215 14.646l-99.839 25.997.906 3.146 99.839-25.997-.906-3.146zm2.606 9.062l-117.566 30.613.906 3.146 117.565-30.612-.905-3.147zm2.609 9.062l-117.565 30.612.905 3.146 117.566-30.612-.906-3.146zm2.608 9.061l-117.566 30.613.906 3.146 117.565-30.612-.905-3.147zm2.608 9.062L348.85 347.947l.905 3.146 117.566-30.612-.905-3.146zm2.74 9.526l-117.565 30.613.905 3.146 117.566-30.612-.906-3.147zm2.607 9.063l-117.565 30.612.905 3.145 117.565-30.612-.905-3.145zm-27.595 16.927l-87.36 22.747.905 3.146 87.36-22.748-.905-3.145z" fill="#949AAA"/><path d="M257.819 500.824l-8.645 2.251 2.367 8.225 8.645-2.251-2.367-8.225z" fill="#23C89A"/><path d="M285.814 496.264l-19.58 5.099.906 3.146 19.579-5.099-.905-3.146z" fill="#917AFF"/><path d="M261.651 514.146l-8.644 2.251 2.366 8.224 8.645-2.25-2.367-8.225z" fill="#6045E2"/><path d="M314.71 503.061l-44.64 11.624.906 3.145 44.639-11.623-.905-3.146z" fill="#917AFF"/><path d="M305.524 478.779l-18.586 4.84.906 3.146 18.586-4.84-.906-3.146z" fill="#7867C8"/><path d="M220.566 435.279l-2.933.764 15.424 53.587 2.934-.764-15.425-53.587z" fill="#54BAE2"/><path d="M229.765 456.284l-2.935.765 9.159 31.816 2.935-.764-9.159-31.817z" fill="#F44D3B"/><path d="M233.543 440.902l-2.936.764 13.011 45.214 2.936-.764-13.011-45.214z" fill="#54BAE2"/><path d="M238.408 446.836l-2.933.763 11.073 38.518 2.933-.763-11.073-38.518z" fill="#F44D3B"/><path d="M249.888 458.246l-2.935.763 7.22 25.122 2.934-.763-7.219-25.122z" fill="#54BAE2"/><path d="M251.253 452.058l-2.935.765 8.799 30.542 2.935-.765-8.799-30.542z" fill="#F44D3B"/><path d="M257.401 444.907l-2.933.764 10.274 35.707 2.934-.763-10.275-35.708z" fill="#54BAE2"/><path d="M267.823 470.17l-2.933.764 2.785 9.681 2.934-.764-2.786-9.681z" fill="#F44D3B"/><path d="M264.586 430.419l-2.934.764 13.655 47.446 2.934-.764-13.655-47.446z" fill="#54BAE2"/><path d="M265.913 424.072l-2.934.764 15.266 53.028 2.934-.765-15.266-53.027z" fill="#F44D3B"/><path d="M280.774 447.205l-2.934.764 8.029 27.91 2.934-.764-8.029-27.91z" fill="#54BAE2"/><path d="M277.447 424.669l-2.933.763 14.282 49.684 2.934-.763-14.283-49.684z" fill="#F44D3B"/><path d="M289.242 437.198l-2.934.765 10.125 35.166 2.934-.765-10.125-35.166z" fill="#54BAE2"/><path d="M292.864 438.824l-2.933.765 9.439 32.774 2.933-.764-9.439-32.775z" fill="#F44D3B"/><path d="M303.83 448.418l-2.935.765 6.099 21.194 2.935-.764-6.099-21.195z" fill="#54BAE2"/><path d="M308.31 453.028l-2.935.764 4.55 15.822 2.935-.764-4.55-15.822z" fill="#F44D3B"/><path d="M317.116 455.141l-2.933.764 3.374 11.722 2.933-.764-3.374-11.722z" fill="#75CF33"/><path d="M312.337 427.584l-2.934.765 11.09 38.514 2.933-.765-11.089-38.514z" fill="#F2274D"/><path d="M318.846 421.69l-2.934.764 12.213 42.422 2.933-.764-12.212-42.422z" fill="#75CF33"/><path d="M317.932 407.528l-2.934.763 16.05 55.823 2.934-.763-16.05-55.823z" fill="#F2274D"/><path d="M334.064 435.128l-2.933.765 7.554 26.234 2.933-.765-7.554-26.234z" fill="#75CF33"/><path d="M338.171 438.426l-2.935.764 6.379 22.172 2.935-.764-6.379-22.172z" fill="#F2274D"/><path d="M347.681 442.983l-2.933.764 4.498 15.629 2.933-.764-4.498-15.629z" fill="#75CF33"/><path d="M352.557 448.971l-2.935.763 2.553 8.877 2.935-.764-2.553-8.876z" fill="#F2274D"/><path d="M221.641 386.069l-8.645 2.251 2.367 8.224 8.645-2.25-2.367-8.225z" fill="#317AB0"/><path d="M285.77 372.1l-55.715 14.507.905 3.146 55.715-14.507-.905-3.146z" fill="#949AAA"/><path d="M225.474 399.392l-8.646 2.251 2.366 8.223 8.646-2.25-2.366-8.224z" fill="#F2274D"/><path d="M253.469 394.831l-19.582 5.099.905 3.146 19.582-5.099-.905-3.146z" fill="#949AAA"/><path d="M229.309 412.713l-8.645 2.251 2.367 8.223 8.644-2.251-2.366-8.223z" fill="#FFD121"/><path d="M282.364 401.63l-44.64 11.624.905 3.146 44.64-11.624-.905-3.146zm-10.498-39.821l-18.586 4.839.906 3.146 18.585-4.839-.905-3.146z" fill="#949AAA"/><path d="M230.025 357.652l13.132-15.505 18.692 7.218 23.771-39.659 26.4 23.806-80.59 25.633-1.405-1.493z" fill="#F2274D"/><path d="M318.709 326.192l-11.916-10.842-28.838 18.664-21.563-4.397-13.421 25.696-27.256-3.232-7.176 15.814 111.585-29.985-1.415-11.718z" fill="#FFD121"/><path d="M195.768 375.405l10.692-18.125 11.085 4.552 10.401-14.795 16.377 5.962 24.555-26.033 22.256 5.005 27.813-15.138 7.094 24.65-130.273 33.922z" fill="#317AB0"/><path d="M402.573 463.134l-8.645 2.251 2.366 8.224 8.646-2.251-2.367-8.224z" fill="#6B2D6E"/><path d="M466.702 449.167l-55.714 14.507.906 3.146 55.714-14.507-.906-3.146z" fill="#949AAA"/><path d="M406.407 476.456l-8.646 2.251 2.366 8.224 8.646-2.251-2.366-8.224z" fill="#F2274D"/><path d="M434.406 471.896l-19.582 5.099.906 3.146 19.581-5.099-.905-3.146zm12.136-31.394l-18.585 4.84.905 3.146 18.585-4.839-.905-3.147z" fill="#949AAA"/><path d="M484.408 405.733c.115.399.102.822-.035 1.215a2.103 2.103 0 01-.739.991 2.297 2.297 0 01-2.439.164 2.138 2.138 0 01-.877-.883 2.004 2.004 0 01.307-2.307 2.212 2.212 0 011.082-.646 2.293 2.293 0 011.669.201c.507.275.878.73 1.032 1.265zm-22.434-7.822c.115.4.103.823-.034 1.216a2.099 2.099 0 01-.739.991 2.297 2.297 0 01-2.44.165 2.143 2.143 0 01-.878-.884 2.004 2.004 0 01-.214-1.198c.055-.411.236-.797.522-1.11a2.224 2.224 0 011.082-.646 2.3 2.3 0 011.67.201c.506.275.877.73 1.031 1.265zm-21.252 18.735c.115.399.103.822-.035 1.215a2.095 2.095 0 01-.738.991 2.297 2.297 0 01-2.439.164 2.14 2.14 0 01-.878-.883 2.002 2.002 0 01-.214-1.197 2.04 2.04 0 01.521-1.109 2.21 2.21 0 011.081-.647 2.308 2.308 0 011.671.2c.251.137.471.318.648.536.177.217.307.465.383.73zm-18.058-1.897c.115.399.102.822-.035 1.215a2.099 2.099 0 01-.739.991 2.263 2.263 0 01-1.193.434 2.288 2.288 0 01-1.246-.269 2.14 2.14 0 01-.878-.883 2.004 2.004 0 01-.215-1.198c.055-.41.236-.796.521-1.109a2.215 2.215 0 011.081-.647 2.275 2.275 0 011.672.2c.251.136.471.318.648.535.177.217.308.466.384.731zm-5.354 15.135a2 2 0 01-.034 1.215 2.107 2.107 0 01-.738.993 2.263 2.263 0 01-1.193.434 2.291 2.291 0 01-1.247-.269 2.138 2.138 0 01-.878-.882 2.001 2.001 0 01-.215-1.199c.054-.41.236-.797.521-1.109a2.223 2.223 0 011.082-.648 2.303 2.303 0 011.669.201c.507.275.878.729 1.033 1.264zm-25.593.88c.115.399.103.822-.035 1.215a2.09 2.09 0 01-.738.991 2.293 2.293 0 01-2.438.166 2.146 2.146 0 01-.879-.882 1.995 1.995 0 01-.215-1.197c.054-.411.235-.797.52-1.11a2.221 2.221 0 011.08-.648 2.3 2.3 0 011.672.2c.507.275.878.73 1.033 1.265z" fill="#F2274D"/><path d="M377.138 445.065c.115.399.103.822-.034 1.214a2.101 2.101 0 01-.739.992 2.293 2.293 0 01-2.438.165 2.138 2.138 0 01-.878-.882 1.998 1.998 0 01-.215-1.198c.054-.411.235-.797.52-1.11a2.223 2.223 0 011.081-.647 2.291 2.291 0 011.671.2c.251.136.472.318.649.535.177.217.307.466.383.731zm8.962-41.197c.115.399.103.822-.035 1.215a2.101 2.101 0 01-.739.992 2.288 2.288 0 01-2.439.164 2.138 2.138 0 01-.878-.882 1.997 1.997 0 01-.215-1.198c.054-.411.235-.797.521-1.11a2.21 2.21 0 011.081-.647 2.291 2.291 0 011.671.2c.251.136.472.318.649.535.177.217.308.466.384.731zm24.103 14.125a1.99 1.99 0 01-.036 1.214 2.096 2.096 0 01-.739.99 2.294 2.294 0 01-2.437.163 2.135 2.135 0 01-.877-.882 2.01 2.01 0 01.308-2.306 2.216 2.216 0 011.081-.646 2.305 2.305 0 011.67.201c.25.137.47.319.647.536.177.217.307.465.383.73zm14.004-24.185a1.99 1.99 0 01-.035 1.214 2.098 2.098 0 01-.738.991 2.263 2.263 0 01-1.193.434 2.286 2.286 0 01-1.246-.269 2.152 2.152 0 01-.878-.883 2.004 2.004 0 01-.214-1.198 2.04 2.04 0 01.522-1.109 2.213 2.213 0 011.081-.646 2.295 2.295 0 011.67.201c.506.274.877.73 1.031 1.265zm16.803 10.162a2 2 0 01-.034 1.215 2.09 2.09 0 01-.738.991 2.293 2.293 0 01-2.438.167 2.134 2.134 0 01-.879-.882 1.997 1.997 0 01-.216-1.198c.054-.41.235-.797.519-1.11a2.22 2.22 0 011.081-.648 2.298 2.298 0 011.671.2c.508.275.879.73 1.034 1.265zm10.19-25.453c.115.399.103.822-.035 1.215a2.09 2.09 0 01-.738.991 2.297 2.297 0 01-2.439.165 2.138 2.138 0 01-.878-.882 2.007 2.007 0 01.307-2.308 2.216 2.216 0 011.081-.646 2.3 2.3 0 011.67.2c.506.275.878.73 1.032 1.265zm19.317 7.43c.115.4.103.823-.034 1.216a2.106 2.106 0 01-.738.992 2.293 2.293 0 01-2.441.166 2.14 2.14 0 01-.878-.883 2.001 2.001 0 01-.215-1.199c.054-.411.236-.797.521-1.11a2.218 2.218 0 011.082-.647 2.3 2.3 0 011.67.201c.507.275.878.73 1.033 1.264zm13.444-7.561a2 2 0 01-.036 1.215 2.09 2.09 0 01-.738.991 2.297 2.297 0 01-2.439.164 2.135 2.135 0 01-.877-.882 1.998 1.998 0 01-.215-1.198c.055-.411.236-.797.521-1.109a2.215 2.215 0 011.081-.647 2.276 2.276 0 011.671.201c.251.136.471.318.648.535.177.217.308.465.384.73z" fill="#6B2D6E"/><path d="M375.532 446.157l-1.433-.293 9.566-42.452 24.046 14.189 14.388-24.003 16.471 10.059 9.31-25.429 20.824 7.827 12.67-7.533.779 1.182-13.299 7.908-20.092-7.553-9.418 25.728-16.736-10.22-14.375 23.983-23.571-13.909-9.13 40.516z" fill="#6B2D6E"/><path d="M379.385 451.33a1.99 1.99 0 01-.036 1.214 2.1 2.1 0 01-.738.99 2.286 2.286 0 01-2.438.163 2.135 2.135 0 01-.877-.882 2.002 2.002 0 01-.214-1.197c.055-.411.236-.797.521-1.109a2.225 2.225 0 011.081-.646 2.308 2.308 0 011.67.201c.251.136.471.318.648.535.177.218.307.466.383.731z" fill="#F2274D"/><path d="M377.387 453.084l-1.274-.691 12.645-21.778 26.076-.83 5.383-15.305 17.73 2.712 21.67-20.159 22.707 8.84-.556 1.292-21.816-8.493-21.506 20.009-17.258-2.64-5.307 15.104-26.253.836-12.241 21.103z" fill="#F2274D"/><path d="M599.042 218.088l-242.267-36.032-11.603 64.037-.046.249-43.935 243.013 251.393 41.829 51.735-312.092-5.277-1.004z" fill="#9196C0"/><path d="M366.732 179.302l-55.584 306.775 236.126 38.712 55.584-306.775-236.126-38.712z" fill="#F1F2F2"/><path d="M360.938 211.296l-5.851 32.293L591.212 282.3l5.851-32.292-236.125-38.712zm58.599-12.307l-1.806 9.964 145.723 23.891 1.805-9.965-145.722-23.89z" fill="#7867C8"/><path d="M412.739 240.124l-1.017 5.612 144.44 23.681 1.017-5.613-144.44-23.68zm-15.56-13.587l-1.017 5.613 179.443 29.419 1.017-5.613-179.443-29.419z" fill="#fff"/><path d="M315.485 462.149l-.761 4.205 236.124 38.712.762-4.205-236.125-38.712z" fill="#7867C8"/><path d="M431.202 330.862l.971 44.313c8.405-.457 16.579-2.794 23.856-6.822l-24.827-37.491z" fill="#6B2D6E"/><path d="M433.095 326.739l26.244 39.629c11.459-7.415 19.446-18.77 22.279-31.675l-48.523-7.954z" fill="#FFD121"/><path d="M482.282 331.025c1.813-12.779-1.524-25.738-9.343-36.273-7.818-10.534-19.538-17.864-32.805-20.516l-8.777 48.44 50.925 8.349z" fill="#75CF33"/><path d="M427.22 327.912l-39.457 28.845c8.157 9.397 19.589 15.695 32.217 17.748 2.735.448 5.502.696 8.277.741l-1.037-47.334z" fill="#F2274D"/><path d="M376.207 315.523c-1.749 9.561-.583 19.398 3.361 28.348l1.641 3.379a51.168 51.168 0 004.17 6.555l41.799-29.974.166-.917 3.595-19.839 5.339-29.471c-13.77-1.769-27.725 1.611-38.928 9.429-11.204 7.818-18.783 19.465-21.143 32.49z" fill="#317AB0"/><path d="M375.573 383.225l-11.487 63.397 11.693 1.917 11.488-63.397-11.694-1.917z" fill="#2E97CC"/><path d="M389.632 407.673l-7.592 41.893 11.692 1.918 7.592-41.894-11.692-1.917z" fill="#BCD81A"/><path d="M405.337 422.431l-5.447 30.062 11.691 1.917 5.447-30.062-11.691-1.917z" fill="#FFC022"/><path d="M421.481 434.464l-3.795 20.947 11.693 1.917 3.795-20.947-11.693-1.917z" fill="#8A379B"/><path d="M441.971 422.838l-6.431 35.499 11.694 1.917 6.431-35.499-11.694-1.917z" fill="#F44D3B"/><path d="M501.401 307.889l-1.32 7.283 7.656 1.255 1.32-7.283-7.656-1.255z" fill="#317AB0"/><path d="M515.453 312.509l-.505 2.786 49.342 8.089.505-2.786-49.342-8.089z" fill="#917AFF"/><path d="M499.262 319.687l-1.32 7.282 7.657 1.255 1.319-7.282-7.656-1.255z" fill="#75CF33"/><path d="M513.317 324.307l-.505 2.786 17.341 2.843.505-2.787-17.341-2.842z" fill="#917AFF"/><path d="M497.123 331.486l-1.319 7.283 7.656 1.255 1.32-7.283-7.657-1.255z" fill="#FFD121"/><path d="M511.181 336.104l-.505 2.787 39.532 6.481.505-2.787-39.532-6.481z" fill="#917AFF"/><path d="M494.983 343.283l-1.32 7.283 7.657 1.255 1.32-7.283-7.657-1.255z" fill="#6B2D6E"/><path d="M509.04 347.902l-.505 2.786 29.486 4.835.504-2.786-29.485-4.835z" fill="#917AFF"/><path d="M492.801 355.338l-1.32 7.283 7.657 1.256 1.32-7.283-7.657-1.256z" fill="#F2274D"/><path d="M506.856 359.957l-.504 2.786 44.729 7.333.505-2.786-44.73-7.333z" fill="#917AFF"/><path d="M362.74 289.189a3.499 3.499 0 01-.973 1.845c-.51.51-1.166.865-1.887 1.02a3.922 3.922 0 01-2.165-.149 3.718 3.718 0 01-1.712-1.269 3.434 3.434 0 01-.683-1.959 3.423 3.423 0 01.576-1.99 3.689 3.689 0 011.642-1.35 3.904 3.904 0 012.153-.255 3.765 3.765 0 012.418 1.453c.572.77.798 1.725.631 2.654zm-16.681 92.071a3.49 3.49 0 01-.972 1.845 3.79 3.79 0 01-1.887 1.02 3.91 3.91 0 01-2.164-.149 3.722 3.722 0 01-1.713-1.267 3.442 3.442 0 01-.683-1.959 3.423 3.423 0 01.576-1.99 3.674 3.674 0 011.641-1.35 3.913 3.913 0 012.153-.256 3.767 3.767 0 012.418 1.453c.572.77.799 1.724.631 2.653z" fill="#3D2B93"/><path d="M476.659 399.799l-1.015 5.605 71.661 11.749 1.015-5.605-71.661-11.749z" fill="#7867C8"/><path d="M485.117 414.54l-.505 2.787 60.856 9.977.505-2.787-60.856-9.977zm-12.262 6.253l-.505 2.788 71.661 11.748.505-2.787-71.661-11.749zm-1.454 8.026l-.505 2.786 71.662 11.748.505-2.785-71.662-11.749zm-1.453 8.026l-.505 2.787 71.662 11.749.505-2.787-71.662-11.749zm-1.456 8.025l-.505 2.786 71.662 11.748.505-2.785-71.662-11.749zm-1.453 8.025l-.505 2.786 53.249 8.731.505-2.787-53.249-8.73z" fill="#917AFF"/><path d="M410.131 381.997l-.505 2.786 16.459 2.698.505-2.786-16.459-2.698z" fill="#949AAA"/><path d="M396.232 458.712l-.504 2.786 16.459 2.698.505-2.786-16.46-2.698z" fill="#5A5A7A"/><path d="M182.664 146.554l-30.443 252.213 369.724 32.17 16.186-253.489-355.467-30.894z" fill="#9196C0"/><path d="M181.784 145.439l-22.886 247.859 355.886 29.733 22.886-247.859-355.886-29.733z" fill="#F6F4FF"/><path d="M372.922 183.476l-.617 6.689 124.237 10.38.618-6.689-124.238-10.38z" fill="#7867C8"/><path d="M390.225 200.517l-.307 3.325 105.505 8.814.307-3.324-105.505-8.815zm-19.614 8.011l-.307 3.326 124.237 10.379.307-3.325-124.237-10.38zm-.883 9.577l-.307 3.325 124.237 10.379.307-3.324-124.237-10.38zm-.884 9.575l-.307 3.325 124.238 10.379.307-3.325-124.238-10.379zm-.889 9.576l-.307 3.324 124.238 10.38.306-3.325-124.237-10.379zm-.928 10.066l-.307 3.325 124.237 10.38.307-3.326-124.237-10.379zm-.884 9.578l-.307 3.325 124.236 10.379.307-3.324-124.236-10.38zm-.884 9.576l-.307 3.324 92.319 7.713.307-3.325-92.319-7.712z" fill="#917AFF"/><path d="M214.353 352.394l-.802 8.69 9.135.763.802-8.69-9.135-.763z" fill="#75CF33"/><path d="M231.362 356.517l-.307 3.325 20.691 1.729.307-3.325-20.691-1.729z" fill="#949AAA"/><path d="M213.055 366.469l-.803 8.692 9.135.764.803-8.692-9.135-.764z" fill="#F2274D"/><path d="M230.061 370.596l-.307 3.324 47.174 3.941.306-3.324-47.173-3.941z" fill="#949AAA"/><path d="M257.863 346.496l-.307 3.325 19.64 1.64.307-3.324-19.64-1.641z" fill="#5A5A7A"/><path d="M209.147 277.416l-5.229 56.628 3.1.259 5.229-56.628-3.1-.259z" fill="#BCD81A"/><path d="M210.124 300.68l-3.104 33.623 3.101.259 3.104-33.623-3.101-.259z" fill="#F95130"/><path d="M219.493 287.195l-4.419 47.78 3.103.259 4.419-47.779-3.103-.26z" fill="#BCD81A"/><path d="M221.94 294.533l-3.764 40.702 3.1.259 3.764-40.701-3.1-.26z" fill="#F95130"/><path d="M228.694 309.364l-2.452 26.544 3.1.26 2.452-26.545-3.1-.259z" fill="#BCD81A"/><path d="M232.318 303.891l-2.978 32.277 3.102.259 2.979-32.277-3.103-.259z" fill="#F95130"/><path d="M240.881 299.107l-3.475 37.735 3.101.258 3.475-37.734-3.101-.259z" fill="#BCD81A"/><path d="M241.446 326.87l-.943 10.23 3.099.258.943-10.229-3.099-.259z" fill="#F95130"/><path d="M253.193 287.634l-4.623 50.14 3.1.258 4.623-50.14-3.1-.258z" fill="#BCD81A"/><path d="M256.84 281.995l-5.175 56.038 3.101.26 5.175-56.039-3.101-.259z" fill="#F95130"/><path d="M262.457 309.212l-2.732 29.493 3.1.26 2.732-29.493-3.1-.26z" fill="#BCD81A"/><path d="M267.677 286.467l-4.85 52.5 3.1.259 4.849-52.499-3.099-.26z" fill="#F95130"/><path d="M274.32 302.478l-3.427 37.163 3.101.259 3.427-37.163-3.101-.259z" fill="#BCD81A"/><path d="M277.19 305.262l-3.201 34.637 3.1.259 3.202-34.637-3.101-.259z" fill="#F95130"/><path d="M284.12 318.175l-2.065 22.398 3.102.258 2.065-22.397-3.102-.259z" fill="#BCD81A"/><path d="M286.702 324.111l-1.551 16.719 3.101.26 1.551-16.719-3.101-.26z" fill="#F95130"/><path d="M294.362 329.116l-1.143 12.388 3.099.259 1.143-12.388-3.099-.259z" fill="#BCD81A"/><path d="M300.071 301.062l-3.759 40.702 3.1.259 3.759-40.702-3.1-.259z" fill="#F95130"/><path d="M308.523 297.606l-4.152 44.83 3.101.26 4.152-44.83-3.101-.26z" fill="#BCD81A"/><path d="M312.923 283.71l-5.444 58.988 3.1.258 5.444-58.987-3.1-.259z" fill="#F95130"/><path d="M318.095 315.647l-2.554 27.724 3.102.259 2.554-27.725-3.102-.258z" fill="#BCD81A"/><path d="M320.802 320.199l-2.163 23.429 3.1.259 2.164-23.429-3.101-.259z" fill="#F95130"/><path d="M328.226 327.786l-1.523 16.516 3.099.259 1.523-16.517-3.099-.258z" fill="#BCD81A"/><path d="M330.67 335.181l-.866 9.38 3.101.259.867-9.38-3.102-.259z" fill="#F95130"/><path d="M222.529 230.057l-.802 8.691 9.135.763.803-8.69-9.136-.764z" fill="#23C89A"/><path d="M239.535 234.182l-.306 3.324 58.876 4.919.307-3.324-58.877-4.919z" fill="#917AFF"/><path d="M221.224 244.136l-.802 8.69 9.135.763.803-8.69-9.136-.763z" fill="#6045E2"/><path d="M238.236 248.26l-.307 3.325 20.693 1.729.307-3.325-20.693-1.729z" fill="#917AFF"/><path d="M219.927 258.214l-.802 8.69 9.136.763.802-8.69-9.136-.763z" fill="#3D2B93"/><path d="M236.932 262.339l-.307 3.325 47.174 3.941.307-3.325-47.174-3.941z" fill="#917AFF"/><path d="M269.276 222.886l-.307 3.324 19.64 1.641.307-3.324-19.64-1.641z" fill="#7867C8"/><path d="M367.319 365.172l-.802 8.69 9.135.763.802-8.691-9.135-.762z" fill="#6B2D6E"/><path d="M384.332 369.297l-.307 3.324 58.875 4.919.307-3.324-58.875-4.919z" fill="#949AAA"/><path d="M366.021 379.25l-.802 8.69 9.135.764.803-8.691-9.136-.763z" fill="#F2274D"/><path d="M383.031 383.376l-.306 3.324 20.692 1.728.307-3.324-20.693-1.728z" fill="#949AAA"/><path d="M407.462 357.449l-.307 3.324 19.64 1.641.307-3.325-19.64-1.64z" fill="#5A5A7A"/><path d="M472.767 339.276a2.712 2.712 0 01-1.175-.266 2.6 2.6 0 01-.796-.595 2.45 2.45 0 01-.496-.839 2.333 2.333 0 01-.12-.955 2.423 2.423 0 01.825-1.617 2.675 2.675 0 011.958-.653c.668.049 1.29.342 1.736.818.446.476.68 1.097.655 1.734a2.412 2.412 0 01-.791 1.682 2.666 2.666 0 01-1.796.691z" fill="#FF365C"/><path d="M472.762 334.72a2.236 2.236 0 011.642.699c.378.403.578.93.556 1.47a2.047 2.047 0 01-.67 1.426 2.262 2.262 0 01-1.693.58 2.246 2.246 0 01-1.472-.693 2.028 2.028 0 01-.557-1.47 2.05 2.05 0 01.671-1.427 2.256 2.256 0 011.523-.585zm0-.751a3.083 3.083 0 00-2.025.76 2.806 2.806 0 00-.951 1.863c-.03.372.017.747.139 1.101.122.355.316.684.572.967.255.283.567.516.917.685a3.113 3.113 0 001.353.306 3.081 3.081 0 002.025-.761 2.8 2.8 0 00.95-1.864 2.752 2.752 0 00-.71-2.066 3.044 3.044 0 00-2.27-.991zm-18.331-9.233a2.644 2.644 0 01-1.938-.825 2.394 2.394 0 01-.656-1.735 2.414 2.414 0 01.792-1.684 2.669 2.669 0 011.998-.682c.668.05 1.29.343 1.735.819.446.475.681 1.097.655 1.733a2.412 2.412 0 01-.791 1.682 2.665 2.665 0 01-1.795.692z" fill="#FF365C"/><path d="M454.427 320.178a2.24 2.24 0 011.641.701c.378.403.577.929.555 1.469a2.043 2.043 0 01-.67 1.426 2.257 2.257 0 01-1.691.58 2.241 2.241 0 01-1.474-.693 2.028 2.028 0 01-.556-1.471c.021-.54.262-1.052.671-1.427.41-.375.956-.584 1.524-.585zm0-.75a3.089 3.089 0 00-2.027.761 2.804 2.804 0 00-.951 1.865 2.75 2.75 0 00.713 2.066 3.044 3.044 0 002.27.991 3.092 3.092 0 001.609-.451 2.89 2.89 0 001.101-1.205 2.719 2.719 0 00.243-1.579 2.778 2.778 0 00-.689-1.455 2.945 2.945 0 00-.916-.687 3.087 3.087 0 00-1.353-.306zm-26.612 16.127a2.642 2.642 0 01-1.97-.86 2.391 2.391 0 01-.617-1.793 2.432 2.432 0 01.825-1.618 2.676 2.676 0 011.958-.654 2.649 2.649 0 011.737.817c.446.476.681 1.098.656 1.735a2.413 2.413 0 01-.792 1.683 2.661 2.661 0 01-1.797.69z" fill="#FF365C"/><path d="M427.811 330.998a2.239 2.239 0 011.643.699c.378.403.577.93.556 1.47a2.05 2.05 0 01-.671 1.427 2.256 2.256 0 01-1.694.579 2.246 2.246 0 01-1.472-.693 2.034 2.034 0 01-.556-1.471c.022-.54.262-1.051.671-1.426a2.256 2.256 0 011.523-.585zm0-.751a3.074 3.074 0 00-2.07.795 2.787 2.787 0 00-.913 1.939 2.76 2.76 0 00.756 1.998 3.041 3.041 0 002.231.951 3.088 3.088 0 002.026-.76c.551-.486.89-1.151.951-1.864a2.759 2.759 0 00-.711-2.067 3.047 3.047 0 00-2.27-.992zm-16.314-2.26a2.69 2.69 0 01-1.175-.266 2.585 2.585 0 01-.796-.594 2.45 2.45 0 01-.496-.839 2.367 2.367 0 01-.12-.955 2.43 2.43 0 01.825-1.618 2.68 2.68 0 013.726.201 2.39 2.39 0 01.617 1.794 2.426 2.426 0 01-.824 1.616 2.676 2.676 0 01-1.757.661z" fill="#FF365C"/><path d="M411.492 323.43a2.241 2.241 0 011.642.699c.378.403.577.93.555 1.47a2.043 2.043 0 01-.67 1.426 2.26 2.26 0 01-1.693.58 2.24 2.24 0 01-1.471-.694 2.027 2.027 0 01-.556-1.47 2.049 2.049 0 01.67-1.426 2.256 2.256 0 011.523-.585zm0-.751a3.081 3.081 0 00-2.025.761 2.8 2.8 0 00-.95 1.864c-.031.372.017.746.139 1.101.121.354.316.682.571.966.255.283.567.515.917.684a3.088 3.088 0 001.353.307 3.086 3.086 0 002.024-.761 2.8 2.8 0 00.95-1.864 2.752 2.752 0 00-.71-2.066 3.045 3.045 0 00-2.269-.992zm-10.391 17.832a2.64 2.64 0 01-1.937-.824 2.394 2.394 0 01-.656-1.735c.025-.637.309-1.24.792-1.683a2.665 2.665 0 011.997-.682 2.647 2.647 0 011.738.817c.446.476.681 1.098.656 1.735a2.413 2.413 0 01-.792 1.682 2.66 2.66 0 01-1.798.69z" fill="#FF365C"/><path d="M401.097 335.956a2.24 2.24 0 011.643.698c.379.403.578.93.557 1.471a2.044 2.044 0 01-.671 1.426 2.265 2.265 0 01-1.694.578 2.231 2.231 0 01-1.473-.692 2.028 2.028 0 01-.557-1.47 2.05 2.05 0 01.671-1.427c.41-.374.956-.584 1.524-.584zm0-.751a3.087 3.087 0 00-2.026.76 2.801 2.801 0 00-.951 1.863c-.06.752.196 1.495.712 2.067a3.046 3.046 0 002.27.991 3.087 3.087 0 002.026-.76 2.8 2.8 0 00.95-1.864 2.752 2.752 0 00-.711-2.066 3.046 3.046 0 00-2.27-.991zm-24.382-2.063a2.691 2.691 0 01-1.174-.266 2.57 2.57 0 01-.796-.594 2.44 2.44 0 01-.496-.838 2.355 2.355 0 01-.121-.956 2.428 2.428 0 01.825-1.617 2.675 2.675 0 011.958-.653 2.64 2.64 0 011.738.817c.447.476.682 1.098.657 1.735a2.417 2.417 0 01-.793 1.683 2.665 2.665 0 01-1.798.689z" fill="#FF365C"/><path d="M376.711 328.587a2.245 2.245 0 011.644.698c.378.403.578.931.556 1.471a2.046 2.046 0 01-.671 1.427 2.26 2.26 0 01-1.695.578 2.24 2.24 0 01-1.472-.692 2.031 2.031 0 01-.556-1.471c.021-.54.261-1.051.67-1.426.41-.375.955-.585 1.524-.585zm0-.751a3.084 3.084 0 00-2.026.761 2.806 2.806 0 00-.951 1.863c-.03.372.018.746.14 1.101.122.355.316.683.572.966.255.283.567.516.917.684a3.11 3.11 0 001.352.307 3.088 3.088 0 002.027-.76 2.807 2.807 0 00.952-1.864 2.757 2.757 0 00-.713-2.066 3.047 3.047 0 00-2.27-.992z" fill="#FF365C"/><path d="M356.495 333.085l24.528-37.642 17.693 21.158 22.029-17.976 11.886 14.672 17.698-20.874 16.977 14.163 14.776-3.07.481 2.095-15.886 3.301-16.07-13.404-18.018 21.252-12.176-15.034-22.005 17.953-17.156-20.517-22.84 35.054-1.917-1.131z" fill="#7A3C7D"/><path d="M450.376 292.963l16.818 14.031 14.586-3.031.312 1.362-15.306 3.18-16.229-13.537-17.963 21.185-12.124-14.97-22.009 17.958-17.251-20.63-22.927 35.188-1.246-.735 24.025-36.87 17.599 21.046 22.024-17.972 11.937 14.736 17.754-20.941zm-.098-1.08l-.516.609-17.126 20.199-11.326-13.981-.508-.627-.631.515-21.402 17.465-17.09-20.437-.698-.834-.59.906-24.025 36.871-.416.638.671.396 1.246.734.671.395.416-.638 22.336-34.281 16.553 19.795.51.61.621-.507 21.379-17.443 11.616 14.344.611.754.628-.741 17.447-20.576 15.61 13.02.3.25.389-.081 15.307-3.18.771-.16-.169-.733-.312-1.362-.169-.733-.771.16-14.196 2.949-16.518-13.78-.619-.516z" fill="#7A3C7D"/><path d="M357.843 348.542a2.7 2.7 0 01-1.175-.267 2.565 2.565 0 01-.795-.594 2.416 2.416 0 01-.495-.839 2.333 2.333 0 01-.12-.955 2.43 2.43 0 01.824-1.617 2.675 2.675 0 011.956-.653c.686.05 1.322.357 1.769.853.448.497.67 1.142.617 1.794a2.43 2.43 0 01-.824 1.617 2.676 2.676 0 01-1.757.661z" fill="#FF365C"/><path d="M357.838 343.985a2.239 2.239 0 011.641.7c.378.403.578.93.556 1.47a2.047 2.047 0 01-.67 1.426 2.262 2.262 0 01-1.693.58 2.244 2.244 0 01-1.471-.694 2.035 2.035 0 01-.555-1.47 2.05 2.05 0 01.67-1.425 2.265 2.265 0 011.522-.587zm0-.75a3.068 3.068 0 00-2.069.796 2.778 2.778 0 00-.911 1.938 2.76 2.76 0 00.754 1.998 3.043 3.043 0 002.23.951 3.088 3.088 0 002.025-.762 2.8 2.8 0 00.95-1.864 2.748 2.748 0 00-.711-2.066 3.04 3.04 0 00-2.268-.991z" fill="#FF365C"/><path d="M357.499 347.622a.413.413 0 01-.272-.131l-.953-1.058a.358.358 0 01-.094-.27.372.372 0 01.132-.256l19.601-16.436a.415.415 0 01.381-.076l24.562 7.488 10.309-12.468a.41.41 0 01.5-.097l15.546 8.136 27.338-11.947a.419.419 0 01.224-.03.401.401 0 01.204.092l18.23 15.585a.363.363 0 01.03.53l-.978 1.037a.403.403 0 01-.272.125h-.022a.408.408 0 01-.264-.096l-17.322-14.809-27.077 11.833a.405.405 0 01-.355-.012l-15.009-7.854-10.128 12.258a.41.41 0 01-.431.126l-24.779-7.555-18.812 15.791a.404.404 0 01-.262.094h-.027z" fill="#FF365C"/><path d="M454.714 320.848l18.229 15.585-.978 1.037-17.515-14.974-27.312 11.937-15.304-8.008-10.334 12.509-24.993-7.62-18.981 15.933-.953-1.059 19.601-16.436 24.823 7.568 10.478-12.674 15.72 8.228 27.519-12.026zm0-.751a.83.83 0 00-.33.068l-27.157 11.868-15.372-8.045a.83.83 0 00-.537-.078.795.795 0 00-.463.272l-10.139 12.264-24.301-7.409a.821.821 0 00-.763.152l-19.601 16.436a.743.743 0 00-.265.511.73.73 0 00.188.541l.953 1.058a.812.812 0 00.599.262.81.81 0 00.523-.188l18.644-15.65 24.566 7.49a.824.824 0 00.472.003.792.792 0 00.389-.254l9.921-12.008 14.716 7.701a.826.826 0 00.71.024l26.841-11.731 17.13 14.645a.808.808 0 00.527.192l.043-.001a.806.806 0 00.545-.248l.978-1.038a.732.732 0 00.2-.542.737.737 0 00-.26-.517l-18.23-15.586a.812.812 0 00-.527-.192z" fill="#FF365C"/><path d="M250.482 205.313l17.413-13.886 16.203 16.796 34.047-34.426 24.934 36.277-91.843-2.525-.754-2.236z" fill="#23C89A"/><path d="M347.669 201.715l-17.327-19.655-25.101 17.743-18.625-15.508-22.769 22.401-24.596-15.578-13.247 17.01 118.249 9.025 3.416-15.438z" fill="#3D2B93"/><path d="M347.669 201.715l-17.327-19.655-25.101 17.743-18.625-15.508-22.769 22.401-24.596-15.578-13.247 17.01" stroke="#fff" stroke-width="3.773" stroke-linecap="round" stroke-linejoin="round"/><path d="M210.941 210.97l17.071-13.723 8.909 8.142 15.542-10.631 13.444 11.295 29.96-17.098 22.245 18.91 32.929-11.02-2.491 26.038-137.609-11.913z" fill="#6045E2"/><path d="M228.018 197.248l8.908 8.141 15.542-10.631 13.445 11.295 29.96-17.098 22.245 18.91 32.929-11.02" stroke="#fff" stroke-width="3.773" stroke-linecap="round" stroke-linejoin="round"/><path d="M360.19 333.184a2.028 2.028 0 01-.461 1.133 2.206 2.206 0 01-1.047.698 2.31 2.31 0 01-1.277.028 2.227 2.227 0 01-1.078-.653 2.045 2.045 0 01-.514-1.113 2 2 0 01.222-1.196c.197-.37.504-.675.884-.878a2.288 2.288 0 011.247-.262 2.239 2.239 0 011.501.723c.379.421.568.967.523 1.52zm23.007-35.881a2.04 2.04 0 01-.462 1.132 2.203 2.203 0 01-1.046.697 2.307 2.307 0 01-1.276.027 2.218 2.218 0 01-1.078-.652 2.045 2.045 0 01-.514-1.112 1.993 1.993 0 01.221-1.196c.196-.369.503-.675.882-.878a2.289 2.289 0 011.247-.263 2.239 2.239 0 011.502.723c.38.421.568.968.524 1.522zm17.675 21.002a2.033 2.033 0 01-.464 1.13 2.202 2.202 0 01-1.045.695 2.309 2.309 0 01-1.274.025 2.218 2.218 0 01-1.075-.653 2.04 2.04 0 01-.512-1.11c-.052-.41.026-.826.222-1.194.197-.369.504-.673.883-.876a2.29 2.29 0 012.07-.041c.257.124.486.295.674.503a2.01 2.01 0 01.521 1.521zm21.732-18.267a2.04 2.04 0 01-.462 1.133 2.198 2.198 0 01-1.046.698 2.301 2.301 0 01-1.277.027 2.218 2.218 0 01-1.078-.652 2.045 2.045 0 01-.514-1.112 2.004 2.004 0 01.222-1.197c.196-.369.504-.674.883-.877.38-.203.814-.295 1.247-.263a2.24 2.24 0 011.5.724c.38.42.568.967.525 1.519zm12.21 14.941a2.025 2.025 0 01-.463 1.131 2.196 2.196 0 01-1.045.696 2.303 2.303 0 01-1.275.027 2.22 2.22 0 01-1.076-.652 2.042 2.042 0 01-.514-1.11 1.995 1.995 0 01.22-1.195c.197-.369.503-.675.882-.878a2.292 2.292 0 011.245-.264 2.244 2.244 0 011.501.724c.38.421.569.968.525 1.521zm18.59-20.681a2.025 2.025 0 01-.463 1.13 2.204 2.204 0 01-1.045.696 2.303 2.303 0 01-1.275.025 2.207 2.207 0 01-1.076-.652 2.05 2.05 0 01-.513-1.111 1.998 1.998 0 01.223-1.195c.196-.369.503-.673.882-.876a2.285 2.285 0 012.071-.042c.258.124.487.295.674.504.188.208.331.45.421.711.089.261.124.536.101.81zm15.542 13.174a2.04 2.04 0 01-.462 1.133 2.197 2.197 0 01-1.047.697 2.301 2.301 0 01-1.277.026 2.212 2.212 0 01-1.077-.653 2.051 2.051 0 01-.514-1.113 2.002 2.002 0 01.224-1.196c.197-.37.505-.675.885-.877a2.288 2.288 0 011.247-.261c.581.043 1.12.303 1.499.724s.567.968.522 1.52zm15.327-2.808a2.028 2.028 0 01-.463 1.131 2.196 2.196 0 01-1.045.696 2.307 2.307 0 01-1.276.027 2.212 2.212 0 01-1.076-.652 2.008 2.008 0 01-.293-2.307c.196-.369.504-.674.882-.877a2.296 2.296 0 011.246-.263 2.244 2.244 0 011.501.724c.379.421.568.968.524 1.521z" fill="#F7F7F7" stroke="#7A3C7D" stroke-width="2.829" stroke-miterlimit="10"/><path d="M536.599 442.856L508.67 254.775c-.41-2.755-1.953-5.243-4.29-6.915-2.337-1.673-5.277-2.394-8.173-2.005l-304.616 40.931c-2.896.39-5.51 1.857-7.269 4.08-1.759 2.223-2.517 5.02-2.108 7.774l27.93 188.082c.409 2.755 1.952 5.242 4.289 6.914 2.337 1.673 5.277 2.394 8.173 2.005l304.616-40.932a11.386 11.386 0 004.061-1.351 10.856 10.856 0 003.208-2.728 10.275 10.275 0 001.867-3.687 9.981 9.981 0 00.241-4.087z" fill="#A2B2D6"/><path d="M545.327 436.435a10.11 10.11 0 01-.285 4.13 10.42 10.42 0 01-1.926 3.711 10.993 10.993 0 01-3.272 2.728 11.53 11.53 0 01-4.12 1.329l-308.44 38.571c-2.932.367-5.898-.39-8.244-2.103s-3.881-4.242-4.267-7.032l-26.319-190.443c-.385-2.789.411-5.61 2.212-7.841 1.801-2.232 4.46-3.691 7.392-4.058l308.44-38.57c2.932-.367 5.898.39 8.244 2.103s3.881 4.242 4.266 7.031l26.319 190.444z" fill="#573CDA"/><path opacity=".3" d="M507.965 240.436a7.523 7.523 0 014.798 1.73c1.327 1.109 2.187 2.638 2.42 4.304l26.319 190.443c.252 1.825-.269 3.669-1.447 5.129-1.178 1.459-2.917 2.413-4.834 2.653l-308.439 38.57a7.525 7.525 0 01-5.764-1.669c-1.327-1.11-2.186-2.639-2.419-4.305L192.28 286.848a6.695 6.695 0 011.449-5.126c1.178-1.459 2.915-2.414 4.832-2.656L507 240.497c.32-.041.642-.061.965-.061zm0-2.622c-.443.001-.885.028-1.324.083l-308.439 38.57c-2.641.333-5.036 1.649-6.658 3.659-1.623 2.01-2.341 4.551-1.997 7.064l26.319 190.443c.322 2.296 1.507 4.403 3.337 5.932 1.829 1.528 4.179 2.375 6.614 2.382.442 0 .885-.028 1.323-.082l308.44-38.571c2.642-.33 5.038-1.645 6.661-3.656 1.623-2.011 2.34-4.552 1.993-7.066l-26.319-190.443c-.321-2.296-1.507-4.404-3.336-5.932-1.829-1.529-4.179-2.375-6.614-2.383z" fill="#231F20"/><path d="M545.327 436.435a10.11 10.11 0 01-.285 4.13 10.42 10.42 0 01-1.926 3.711 10.993 10.993 0 01-3.272 2.728 11.53 11.53 0 01-4.12 1.329l-308.44 38.571c-2.932.367-5.898-.39-8.244-2.103s-3.881-4.242-4.267-7.032l-26.319-190.443c-.385-2.789.411-5.61 2.212-7.841 1.801-2.232 4.46-3.691 7.392-4.058l308.44-38.57c2.932-.367 5.898.39 8.244 2.103s3.881 4.242 4.266 7.031l26.319 190.444z" stroke="#BFC9D8" stroke-width="5.659" stroke-miterlimit="10"/><path opacity=".3" d="M342.96 475.061l-87.157 10.174 50.31-225.02 87.158-10.172-50.311 225.018z" fill="#fff"/><path d="M356.656 268.096a2.465 2.465 0 01-.255 1.474c-.237.456-.61.836-1.074 1.09a2.822 2.822 0 01-2.998-.187 2.578 2.578 0 01-.915-1.214 2.449 2.449 0 01-.051-1.493c.138-.491.427-.933.829-1.268a2.812 2.812 0 013.43-.107 2.548 2.548 0 011.034 1.705z" fill="#3F4751"/><path d="M492.786 262.632l-274.485 34.325 22.625 163.709 274.485-34.325-22.625-163.709z" fill="#fff"/><path d="M466.011 347.602a.858.858 0 01-.485-.15.797.797 0 01-.301-.392l-7.483-21.754a.752.752 0 01.005-.502.795.795 0 01.323-.397.86.86 0 01.999.06l18.192 14.97c.084.07.152.154.201.249a.755.755 0 01.035.614.788.788 0 01-.172.268c-3.051 3.117-6.828 5.51-11.029 6.986a.888.888 0 01-.285.048z" fill="#23C89A"/><path d="M458.529 325.061l18.192 14.971c-2.959 3.031-6.628 5.355-10.709 6.783l-7.483-21.754zm-.001-1.573c-.261 0-.518.059-.751.172a1.63 1.63 0 00-.587.478 1.518 1.518 0 00-.233 1.412l7.483 21.754c.069.201.18.386.326.545.146.16.325.289.524.381a1.74 1.74 0 001.292.061c4.322-1.518 8.21-3.98 11.349-7.188.152-.155.269-.337.344-.535a1.5 1.5 0 00-.07-1.229 1.577 1.577 0 00-.402-.497l-18.193-14.97a1.699 1.699 0 00-1.082-.384z" fill="#fff"/><path d="M478.041 339.365a.85.85 0 01-.541-.192l-19.229-15.825a.757.757 0 01.008-1.196.85.85 0 01.43-.179l25.229-3.011a.852.852 0 01.661.2.775.775 0 01.266.51c.665 6.984-1.551 13.941-6.18 19.399a.865.865 0 01-.57.291l-.074.003z" fill="#A4A4A4"/><path d="M484.042 319.742c.639 6.781-1.512 13.533-6.001 18.836l-19.228-15.825 25.229-3.011zm0-1.573c-.069 0-.138.004-.206.012l-25.229 3.011a1.696 1.696 0 00-.86.358 1.567 1.567 0 00-.517.746 1.506 1.506 0 00-.006.894c.089.292.265.553.507.752l19.228 15.825a1.703 1.703 0 001.232.377c.221-.019.436-.08.632-.18.196-.1.368-.237.508-.402 4.763-5.616 7.043-12.774 6.358-19.96a1.55 1.55 0 00-.531-1.021 1.703 1.703 0 00-1.116-.412z" fill="#fff"/><path d="M457.312 321.78a.851.851 0 01-.548-.196.776.776 0 01-.273-.492l-3.32-25.188a.77.77 0 01.431-.792.87.87 0 01.317-.09 30.672 30.672 0 012.552-.108c6.778-.02 13.34 2.267 18.5 6.447 5.16 4.181 8.578 9.979 9.636 16.347a.756.756 0 01-.154.597.853.853 0 01-.559.309l-26.479 3.16a.902.902 0 01-.103.006z" fill="#3D2B93"/><path d="M456.47 295.701c6.573.008 12.93 2.239 17.934 6.293 5.004 4.055 8.331 9.669 9.386 15.84l-26.48 3.16-3.319-25.188c.832-.07 1.658-.105 2.479-.105zm0-1.573c-.871 0-1.755.037-2.626.111-.222.019-.437.08-.633.18a1.627 1.627 0 00-.508.4 1.554 1.554 0 00-.303.557 1.49 1.49 0 00-.05.626l3.319 25.188c.05.38.245.73.547.984a1.705 1.705 0 001.3.381l26.479-3.16c.221-.026.433-.095.625-.201.192-.106.36-.248.493-.417a1.507 1.507 0 00.309-1.194c-1.118-6.54-4.643-12.49-9.946-16.787-5.304-4.296-12.04-6.659-19.006-6.668z" fill="#fff"/><path d="M456.398 349.221c-5.582.002-11.041-1.563-15.693-4.498a.813.813 0 01-.234-.222.764.764 0 01-.117-.605.758.758 0 01.134-.286l14.933-19.895a.818.818 0 01.295-.242.862.862 0 01.913.099.791.791 0 01.251.356l7.994 23.237a.766.766 0 01-.265.856.874.874 0 01-.293.145 30.279 30.279 0 01-7.917 1.055h-.001z" fill="#9196C0"/><path d="M456.095 324.173l7.994 23.237a29.405 29.405 0 01-7.69 1.025c-5.42-.001-10.72-1.52-15.238-4.368l14.934-19.894zm0-1.573c-.264 0-.523.059-.757.174a1.637 1.637 0 00-.589.485l-14.933 19.894a1.51 1.51 0 00-.033 1.783c.122.176.281.327.466.443 4.788 3.021 10.405 4.631 16.15 4.629a31.107 31.107 0 008.145-1.086c.214-.058.413-.157.586-.29a1.538 1.538 0 00.607-1.087 1.51 1.51 0 00-.076-.625l-7.995-23.237a1.58 1.58 0 00-.601-.784 1.707 1.707 0 00-.97-.299z" fill="#fff"/><path d="M439.519 343.737a.855.855 0 01-.505-.163 28.252 28.252 0 01-3.189-2.722l-1.364-1.456c-3.208-3.682-5.337-8.106-6.171-12.822a25.917 25.917 0 011.422-14.038c1.766-4.479 4.743-8.434 8.632-11.466 3.889-3.032 8.551-5.033 13.514-5.801a.848.848 0 01.847.381.782.782 0 01.105.298l3.442 26.117a.758.758 0 01-.152.561l-15.913 20.788a.82.82 0 01-.551.315.767.767 0 01-.117.008z" fill="#6045E2"/><path d="M451.987 296.046l2.02 15.325 1.359 10.315.063.477-15.913 20.788a27.367 27.367 0 01-3.096-2.642l-1.344-1.435c-3.11-3.578-5.171-7.872-5.977-12.451a25.165 25.165 0 011.39-13.623c1.716-4.346 4.608-8.183 8.382-11.125 3.775-2.942 8.3-4.884 13.116-5.629zm0-1.573c-.088 0-.177.006-.264.02-5.104.79-9.899 2.847-13.899 5.965-4.001 3.117-7.065 7.184-8.883 11.789a26.664 26.664 0 00-1.472 14.437c.853 4.852 3.038 9.403 6.334 13.194l.038.042 1.344 1.435.041.042a29.008 29.008 0 003.281 2.8 1.72 1.72 0 001.862.102c.19-.109.354-.252.484-.422l15.913-20.788c.248-.324.356-.725.304-1.122l-.063-.477-1.359-10.315-2.02-15.325a1.55 1.55 0 00-.547-.984 1.705 1.705 0 00-1.094-.393z" fill="#fff"/><path d="M444.453 367.992l-8.154 1.297 1.387 7.781 8.155-1.297-1.388-7.781z" fill="#23C89A"/><path d="M443.553 369.2l1.017 5.711-5.981.952-1.018-5.712 5.982-.951zm1.8-2.418l-2.17.346-5.981.951-2.17.345.369 2.072 1.018 5.712.369 2.072 2.17-.345 5.982-.952 2.17-.345-.37-2.072-1.017-5.712-.37-2.072z" fill="#fff"/><path d="M488.341 363.83l-38.626 6.187.386 2.18 38.626-6.187-.386-2.18z" fill="#917AFF"/><path d="M446.276 377.197l-8.155 1.296 1.387 7.781 8.155-1.296-1.387-7.781z" fill="#3D2B93"/><path d="M445.375 378.404l1.018 5.711-5.982.952-1.017-5.712 5.981-.951zm1.801-2.418l-2.17.346-5.982.951-2.169.345.369 2.072 1.017 5.712.37 2.072 2.17-.345 5.981-.952 2.17-.345-.369-2.072-1.018-5.712-.369-2.072z" fill="#fff"/><path d="M464.925 377.078l-13.575 2.174.386 2.181 13.575-2.174-.386-2.181z" fill="#917AFF"/><path d="M448.093 386.398l-8.155 1.296 1.388 7.782 8.155-1.297-1.388-7.781z" fill="#777AA3"/><path d="M447.189 387.605l1.018 5.712-5.981.951-1.018-5.712 5.981-.951zm1.801-2.418l-2.17.346-5.981.951-2.17.346.369 2.072 1.018 5.712.369 2.072 2.17-.346 5.981-.951 2.17-.345-.369-2.072-1.018-5.712-.369-2.073z" fill="#fff"/><path d="M483.937 383.531l-30.949 4.957.386 2.181 30.949-4.957-.386-2.181z" fill="#917AFF"/><path d="M450.001 396.042l-8.154 1.297 1.387 7.781 8.155-1.297-1.388-7.781z" fill="#9196C0"/><path d="M449.098 397.249l1.017 5.712-5.981.952-1.018-5.712 5.982-.952zm1.8-2.417l-2.17.345-5.981.952-2.17.345.369 2.072 1.018 5.712.369 2.072 2.17-.345 5.982-.952 2.17-.345-.37-2.072-1.017-5.712-.37-2.072z" fill="#fff"/><path d="M485.493 393.062l-30.948 4.957.386 2.181 30.948-4.957-.386-2.181z" fill="#917AFF"/><path opacity=".6" d="M254.635 397.605c26.278-3.26 11.308-61.829 49.129-64.74 41.181-3.17 33.124 75.337 101.195 66.892 4.303-.534 8.36-1.168 12.172-1.9l1.081 9.255L259.34 427.3l-4.705-29.695z" fill="#C0B3F7"/><path d="M251.427 375.173c17.605-2.185 29.302 8.126 36.449 14.715 11.036 10.174 31.577 12.596 42.958-4.78 18.222-27.82 39.772-28.02 59.408-12.043 7.766 6.319 16.392 9.272 24.548 8.355l2.773 24.918-158.958 19.912-7.178-51.077z" fill="#23C89A"/><path d="M416.394 396.808c-3.816.727-7.873 1.36-12.172 1.899-32.718 4.059-47.848-11.969-59.312-29.361-4.843 3.676-9.562 8.87-14.077 15.763-11.381 17.376-31.922 14.954-42.958 4.78-4.195-3.867-9.959-9.013-17.563-12.166-3.057 9.667-7.112 17.383-15.893 18.749l4.185 29.779 158.807-19.768-1.017-9.675z" fill="#6045E2"/><path d="M351.501 414.539l-6.434-44.956c-8.596-12.993-15.108-26.793-25.351-33.581l10.862 81.175 20.923-2.638z" fill="#777AA3"/><path d="M345.082 369.586l.177 1.288" stroke="#fff" stroke-width="2.337" stroke-miterlimit="10" stroke-linecap="round"/><path d="M345.803 374.816l5.136 37.455" stroke="#fff" stroke-width="2.337" stroke-miterlimit="10" stroke-linecap="round" stroke-dasharray="4.77 7.15"/><path d="M351.209 414.243l.177 1.288m20.341-53.617l.176 1.288" stroke="#fff" stroke-width="2.337" stroke-miterlimit="10" stroke-linecap="round"/><path d="M372.419 366.965l5.762 42.019" stroke="#fff" stroke-width="2.337" stroke-miterlimit="10" stroke-linecap="round" stroke-dasharray="4.55 6.83"/><path d="M378.438 410.865l.177 1.288m-58.844-74.801l.176 1.288" stroke="#fff" stroke-width="2.337" stroke-miterlimit="10" stroke-linecap="round"/><path d="M320.493 342.627l9.749 71.098" stroke="#fff" stroke-width="2.337" stroke-miterlimit="10" stroke-linecap="round" stroke-dasharray="4.82 7.23"/><path d="M330.517 415.719l.176 1.288m-60.096-38.179l.176 1.288" stroke="#fff" stroke-width="2.337" stroke-miterlimit="10" stroke-linecap="round"/><path d="M271.314 384.059l5.136 37.454" stroke="#fff" stroke-width="2.337" stroke-miterlimit="10" stroke-linecap="round" stroke-dasharray="4.77 7.15"/><path d="M276.722 423.484l.176 1.289" stroke="#fff" stroke-width="2.337" stroke-miterlimit="10" stroke-linecap="round"/><path d="M376.496 396.65c7.585 2.504 16.646 3.432 27.723 2.058 4.303-.534 8.36-1.167 12.172-1.9m-162.495-.252c26.279-3.26 11.309-61.829 49.13-64.74 34.48-2.654 34.442 51.95 73.472 64.834" stroke="#6045E2" stroke-width="3.116" stroke-miterlimit="10"/><path d="M344.954 369.312c14.694-11.124 30.532-8.253 45.29 3.754 7.766 6.319 16.392 9.272 24.547 8.355" stroke="#3D2B93" stroke-width="2.472" stroke-miterlimit="10"/><path d="M326.844 390.064a31.55 31.55 0 003.987-4.954c4.527-6.913 9.26-12.12 14.118-15.798" stroke="#fff" stroke-width="2.472" stroke-miterlimit="10"/><path d="M251.427 375.173c17.605-2.184 29.302 8.127 36.449 14.716 9.844 9.074 27.249 11.982 38.972.175" stroke="#3D2B93" stroke-width="2.472" stroke-miterlimit="10"/><path d="M245.305 329.265l13.299 96.985 160.188-19.874" stroke="#9196C0" stroke-width="3.895" stroke-miterlimit="10"/><path d="M244.472 323.201l-2.498 9 3.392-2.483 3.947 1.572-4.841-8.089zm180.695 82.384l-8.504 4.606 1.654-3.756-2.611-3.226 9.461 2.376z" fill="#9196C0"/><path d="M268.071 377.978a2.174 2.174 0 01.228-1.302c.209-.403.54-.738.949-.963a2.495 2.495 0 012.65.169c.375.274.656.648.807 1.074.152.426.167.885.044 1.319a2.26 2.26 0 01-.734 1.12 2.49 2.49 0 01-3.031.091 2.298 2.298 0 01-.614-.668 2.178 2.178 0 01-.299-.84zm-18.685-2.34a2.174 2.174 0 01.228-1.302c.21-.403.54-.738.95-.962a2.485 2.485 0 012.65.168c.375.274.655.648.807 1.074.151.426.166.885.044 1.319a2.262 2.262 0 01-.735 1.12 2.455 2.455 0 01-1.264.544 2.537 2.537 0 01-.931-.059 2.453 2.453 0 01-.836-.394 2.312 2.312 0 01-.614-.668 2.195 2.195 0 01-.299-.84zm93.32-5.756a2.174 2.174 0 01.227-1.302c.21-.403.54-.738.95-.962a2.494 2.494 0 012.65.168c.375.274.656.648.807 1.074.152.426.167.885.044 1.319a2.256 2.256 0 01-.734 1.12 2.48 2.48 0 01-3.032.091 2.251 2.251 0 01-.912-1.508z" fill="#fff" stroke="#3D2B93" stroke-width="2.337" stroke-miterlimit="10"/><path d="M317.316 336.081a2.176 2.176 0 01.228-1.302c.209-.403.54-.738.95-.962a2.49 2.49 0 012.65.168c.374.274.655.648.807 1.074.151.426.166.885.043 1.319a2.258 2.258 0 01-.734 1.121 2.49 2.49 0 01-3.031.091 2.298 2.298 0 01-.614-.668 2.2 2.2 0 01-.299-.841z" fill="#6045E2"/><path d="M369.756 363.468a2.182 2.182 0 01.228-1.302c.21-.403.54-.738.95-.962a2.485 2.485 0 012.65.168c.375.274.655.648.807 1.074.151.426.167.885.044 1.319a2.262 2.262 0 01-.735 1.12 2.443 2.443 0 01-1.264.544 2.538 2.538 0 01-.931-.059 2.453 2.453 0 01-.836-.394 2.321 2.321 0 01-.614-.667 2.222 2.222 0 01-.299-.841z" fill="#3D2B93"/><path d="M274.715 355.027a2.174 2.174 0 01.228-1.302c.21-.403.54-.738.95-.963a2.493 2.493 0 012.65.168c.375.275.656.648.807 1.074.151.426.167.886.044 1.32a2.262 2.262 0 01-.735 1.12 2.494 2.494 0 01-3.031.091 2.312 2.312 0 01-.614-.668 2.2 2.2 0 01-.299-.84z" fill="#6045E2"/><path d="M274.58 424.333a2.181 2.181 0 01.227-1.302c.21-.403.541-.738.95-.962a2.493 2.493 0 012.65.168c.375.274.656.648.807 1.074.152.426.167.885.044 1.319a2.263 2.263 0 01-.734 1.121 2.449 2.449 0 01-1.265.543 2.518 2.518 0 01-.931-.059 2.451 2.451 0 01-.836-.393 2.34 2.34 0 01-.614-.668 2.203 2.203 0 01-.298-.841zm74.48-9.242a2.174 2.174 0 01.228-1.302c.209-.403.54-.738.95-.962a2.492 2.492 0 012.65.168c.374.274.655.648.807 1.074.151.426.166.885.043 1.319a2.26 2.26 0 01-.734 1.12 2.45 2.45 0 01-1.265.544 2.533 2.533 0 01-.93-.059 2.453 2.453 0 01-.836-.394 2.307 2.307 0 01-.614-.667 2.205 2.205 0 01-.299-.841zm27.391-3.396a2.181 2.181 0 01.227-1.302c.21-.404.541-.738.95-.963a2.493 2.493 0 012.65.168c.375.275.656.648.807 1.074.152.426.167.886.044 1.32a2.26 2.26 0 01-.734 1.12 2.49 2.49 0 01-3.031.091 2.316 2.316 0 01-.615-.668 2.199 2.199 0 01-.298-.84zm-47.93 5.946a2.174 2.174 0 01.228-1.302c.209-.403.54-.738.95-.962a2.482 2.482 0 012.65.168c.374.274.655.648.807 1.074.151.426.166.885.043 1.319a2.253 2.253 0 01-.734 1.12 2.478 2.478 0 01-3.031.091 2.249 2.249 0 01-.913-1.508z" fill="#9196C0"/><path d="M252.42 396.66a2.186 2.186 0 01.228-1.303c.21-.403.54-.738.95-.962a2.493 2.493 0 012.65.168c.375.274.656.648.807 1.074.151.426.167.885.044 1.32a2.267 2.267 0 01-.734 1.12 2.485 2.485 0 01-3.032.091 2.255 2.255 0 01-.913-1.508z" fill="#fff" stroke="#6045E2" stroke-width="2.337" stroke-miterlimit="10"/><path d="M321.745 322.26l.823 8.987 9.282-.78-2.766-4.957-7.339-3.25z" fill="#6045E2"/><path d="M330.753 329.751c-2.126-.001-4.17-.788-5.697-2.195-1.528-1.407-2.421-3.324-2.49-5.346-.069-2.022.691-3.99 2.12-5.489 1.428-1.498 3.413-2.41 5.536-2.541 2.122-.132 4.215.526 5.836 1.836 1.621 1.309 2.643 3.166 2.851 5.18.208 2.013-.416 4.024-1.738 5.608-1.323 1.584-3.241 2.617-5.35 2.88a8.472 8.472 0 01-1.068.067z" fill="#fff"/><path d="M330.771 314.952c1.914 0 3.752.709 5.127 1.975 1.375 1.267 2.179 2.993 2.241 4.812.062 1.82-.622 3.591-1.908 4.94-1.286 1.349-3.073 2.169-4.983 2.288a7.624 7.624 0 01-5.252-1.653c-1.46-1.178-2.38-2.85-2.567-4.662a6.777 6.777 0 011.565-5.048c1.19-1.426 2.916-2.355 4.814-2.592.319-.04.641-.06.963-.06zm0-1.557c-.393 0-.785.024-1.175.072-2.267.282-4.337 1.373-5.789 3.053-1.453 1.68-2.18 3.822-2.032 5.993.147 2.17 1.156 4.206 2.823 5.695 1.667 1.488 3.867 2.318 6.154 2.32 2.388.002 4.678-.899 6.368-2.504 1.69-1.605 2.641-3.782 2.643-6.054.003-2.271-.943-4.45-2.629-6.059-1.687-1.608-3.976-2.513-6.363-2.516z" fill="#6045E2"/><path d="M374.106 350.916l.823 8.988 9.281-.781-2.764-4.957-7.34-3.25z" fill="#3D2B93"/><path d="M383.116 358.406c-2.129-.001-4.174-.788-5.703-2.197-1.529-1.408-2.423-3.327-2.492-5.351-.069-2.023.692-3.993 2.122-5.493 1.43-1.5 3.417-2.412 5.541-2.544 2.124-.131 4.219.528 5.841 1.838 1.623 1.311 2.646 3.17 2.854 5.185.207 2.015-.417 4.028-1.741 5.613-1.324 1.586-3.244 2.619-5.354 2.882a8.472 8.472 0 01-1.068.067z" fill="#fff"/><path d="M383.133 343.608c1.914.001 3.752.71 5.127 1.976 1.374 1.267 2.177 2.992 2.239 4.812.062 1.819-.623 3.59-1.909 4.938-1.285 1.349-3.072 2.168-4.982 2.287a7.623 7.623 0 01-5.251-1.653c-1.459-1.179-2.379-2.85-2.565-4.662a6.773 6.773 0 011.565-5.047c1.19-1.425 2.917-2.354 4.814-2.591.319-.04.64-.06.962-.06zm.001-1.557h-.001c-.392 0-.785.024-1.174.073-2.315.289-4.422 1.423-5.875 3.162-1.452 1.74-2.137 3.949-1.909 6.16.228 2.211 1.351 4.251 3.131 5.689 1.78 1.438 4.078 2.161 6.409 2.017 2.331-.145 4.511-1.146 6.08-2.791 1.569-1.646 2.404-3.807 2.329-6.027-.076-2.221-1.056-4.326-2.733-5.872-1.678-1.546-3.922-2.41-6.257-2.411z" fill="#3D2B93"/><path d="M327.752 321.675a1.29 1.29 0 01-.411-.394 1.22 1.22 0 01-.193-.524 1.211 1.211 0 01.049-.554c.059-.177.155-.34.284-.479.136-.147.3-.268.483-.357a2.086 2.086 0 011.314-.163c.201.042.393.119.564.227.162.103.299.237.403.394a1.255 1.255 0 01-.138 1.558c.235.1.439.259.588.459.15.2.242.434.265.679a1.483 1.483 0 01-.357 1.193 1.81 1.81 0 01-.542.414 2.44 2.44 0 01-1.525.189 1.86 1.86 0 01-.635-.268 1.514 1.514 0 01-.448-.461 1.494 1.494 0 01-.22-.605 1.455 1.455 0 01.073-.725c.09-.23.244-.431.446-.583zm.53-.953a.47.47 0 00.07.19.558.558 0 00.32.243.537.537 0 00.409-.046.515.515 0 00.157-.136.482.482 0 00.106-.383.505.505 0 00-.206-.352.545.545 0 00-.751.093.492.492 0 00-.105.391zm.107 2.013a.737.737 0 00.092.268.657.657 0 00.182.204.827.827 0 00.241.121.672.672 0 00.531-.066.783.783 0 00.204-.176.647.647 0 00.121-.238.704.704 0 00.016-.285.692.692 0 00-.271-.48.671.671 0 00-.519-.142.643.643 0 00-.26.088.702.702 0 00-.337.706zm4.04 1.077c-.467.059-.724-.085-.771-.429a.761.761 0 01.183-.509c.141-.202.336-.472.583-.811.354-.487.625-.888.812-1.203a1.27 1.27 0 00.241-.761.474.474 0 00-.173-.325.453.453 0 00-.626.074.928.928 0 00-.193.408c-.03.159-.086.312-.166.454a.434.434 0 01-.328.18.583.583 0 01-.437-.103.57.57 0 01-.219-.395 1.293 1.293 0 01.033-.455c.039-.172.108-.337.205-.488.137-.218.325-.404.549-.543.224-.138.479-.226.745-.255.231-.032.466-.024.694.025.202.044.393.126.562.242.161.111.296.254.395.419a1.494 1.494 0 01.155 1.154c-.062.22-.151.431-.266.63a6.288 6.288 0 01-.473.709c-.19.252-.407.528-.65.828l1.076-.133c.554-.069.854.069.901.412.047.344-.206.55-.759.618l-2.073.257z" fill="#573CDA"/><path d="M381.398 351.98l-1.812.225c-.182.034-.37.021-.545-.037a.374.374 0 01-.156-.124.346.346 0 01-.066-.184.644.644 0 01.04-.347c.045-.103.093-.212.146-.326l1.216-2.491c.073-.173.185-.329.327-.457a.901.901 0 01.467-.18.886.886 0 01.699.196c.224.221.356.511.373.817l.245 1.793c.034-.009.064-.016.094-.022.026-.005.052-.01.078-.013a.733.733 0 01.489.079.445.445 0 01.213.323c.047.344-.163.544-.63.602l-.109.014.071.515a.61.61 0 01-.09.462.55.55 0 01-.398.206c-.332.041-.527-.149-.586-.57l-.066-.481zm-.134-.983l-.257-1.868-.949 2.018 1.206-.15zm3.098-1.034a1.29 1.29 0 01-.412-.393 1.22 1.22 0 01-.192-.524 1.202 1.202 0 01.049-.555c.058-.176.155-.339.283-.479.136-.146.3-.267.484-.356a2.086 2.086 0 011.314-.164c.201.042.393.119.564.227.162.104.299.238.403.394a1.254 1.254 0 01-.139 1.558c.235.101.439.259.589.459.15.2.241.434.265.679.03.213.014.431-.048.638a1.506 1.506 0 01-.31.556c-.151.169-.335.31-.542.413a2.429 2.429 0 01-1.524.189 1.863 1.863 0 01-.636-.267 1.573 1.573 0 01-.448-.461 1.544 1.544 0 01-.146-1.331c.089-.23.244-.431.446-.583zm.529-.953a.458.458 0 00.071.19.567.567 0 00.32.244.548.548 0 00.409-.047.538.538 0 00.251-.317.475.475 0 00.011-.202.51.51 0 00-.206-.352.532.532 0 00-.4-.104.52.52 0 00-.456.588zm.108 2.013a.701.701 0 00.274.472.786.786 0 00.24.121.656.656 0 00.531-.066.765.765 0 00.204-.176.657.657 0 00.137-.523.703.703 0 00-.271-.48.683.683 0 00-.519-.142.658.658 0 00-.459.267.689.689 0 00-.137.527z" fill="#3D2B93"/><path d="M327.141 392.932a3.163 3.163 0 01-2.101-.792 2.866 2.866 0 01-.963-1.943 2.828 2.828 0 01.693-2.046 3.118 3.118 0 011.976-1.041 3.162 3.162 0 012.501.767c.569.508.913 1.203.963 1.943a2.832 2.832 0 01-.693 2.046 3.118 3.118 0 01-1.976 1.041 3.159 3.159 0 01-.4.025z" fill="#fff"/><path d="M327.145 387.735c.621 0 1.217.23 1.663.641.445.411.706.971.726 1.561a2.214 2.214 0 01-.62 1.601 2.441 2.441 0 01-1.616.741 2.469 2.469 0 01-1.703-.536 2.245 2.245 0 01-.832-1.512 2.2 2.2 0 01.508-1.637 2.429 2.429 0 011.874-.859zm0-1.299c-.995 0-1.95.376-2.653 1.045a3.481 3.481 0 00-1.099 2.524c0 .947.395 1.855 1.099 2.524a3.848 3.848 0 002.653 1.046c.995 0 1.95-.376 2.654-1.046a3.485 3.485 0 001.099-2.524c0-.947-.396-1.855-1.099-2.524a3.856 3.856 0 00-2.654-1.045z" fill="#3D2B93"/><path d="M376.473 399.475a3.163 3.163 0 01-2.101-.792 2.866 2.866 0 01-.963-1.944 2.83 2.83 0 01.693-2.045 3.12 3.12 0 011.976-1.041 3.162 3.162 0 012.501.767c.569.508.913 1.203.963 1.943a2.829 2.829 0 01-.693 2.045 3.114 3.114 0 01-1.976 1.042 3.147 3.147 0 01-.4.025z" fill="#fff"/><path d="M376.478 394.277a2.46 2.46 0 011.633.617c.442.395.71.935.749 1.511a2.203 2.203 0 01-.539 1.591 2.426 2.426 0 01-1.537.81 2.456 2.456 0 01-1.999-.65 2.217 2.217 0 01-.696-1.607c0-.603.252-1.18.7-1.606a2.459 2.459 0 011.689-.666zm0-1.298c-.995 0-1.95.376-2.653 1.045a3.481 3.481 0 00-1.099 2.524c0 .947.395 1.854 1.099 2.524a3.852 3.852 0 002.653 1.045c.995 0 1.95-.376 2.653-1.045a3.483 3.483 0 001.099-2.524c0-.947-.395-1.855-1.099-2.524a3.852 3.852 0 00-2.653-1.045z" fill="#6045E2"/></svg>