<svg width="250" height="250" fill="none" xmlns="http://www.w3.org/2000/svg"><path d="M113.577 10.364c6.481-5.88 16.366-5.88 22.846 0l17.637 16.001a16.999 16.999 0 0012.08 4.397l23.796-.921c8.744-.338 16.316 6.015 17.501 14.685l3.225 23.595a17.003 17.003 0 006.428 11.133l18.821 14.59c6.916 5.361 8.632 15.096 3.967 22.499l-12.696 20.147a17.003 17.003 0 00-2.232 12.661l5.039 23.275c1.852 8.552-3.091 17.112-11.423 19.785l-22.676 7.273a17.003 17.003 0 00-9.848 8.263l-11.1 21.069c-4.079 7.741-13.368 11.122-21.468 7.814l-22.046-9.005a17.008 17.008 0 00-12.856 0l-22.046 9.005c-8.1 3.308-17.39-.073-21.468-7.814l-11.1-21.069a17 17 0 00-9.848-8.263l-22.676-7.273c-8.332-2.673-13.275-11.233-11.423-19.785l5.039-23.275a17 17 0 00-2.233-12.661l-12.695-20.147c-4.665-7.403-2.949-17.138 3.967-22.499l18.82-14.59a17 17 0 006.429-11.133l3.225-23.595c1.185-8.67 8.757-15.023 17.5-14.685l23.797.921a17 17 0 0012.08-4.397l17.637-16.001z" fill="#fff"/><path d="M114.077 26.364c6.48-5.88 16.366-5.88 22.846 0l13.122 11.905a17 17 0 0012.081 4.397l17.704-.685c8.744-.339 16.316 6.015 17.501 14.685l2.4 17.555a16.994 16.994 0 006.428 11.133l14.003 10.855c6.915 5.361 8.632 15.096 3.967 22.499l-9.446 14.99a16.999 16.999 0 00-2.232 12.661l3.749 17.317c1.852 8.552-3.091 17.112-11.423 19.785l-16.871 5.411a17 17 0 00-9.849 8.264l-8.258 15.675c-4.079 7.741-13.368 11.122-21.468 7.814l-16.403-6.7a17.008 17.008 0 00-12.856 0l-16.403 6.7c-8.1 3.308-17.389-.073-21.468-7.814l-8.258-15.675a16.998 16.998 0 00-9.849-8.264l-16.871-5.411c-8.332-2.673-13.275-11.233-11.423-19.785l3.75-17.317c.941-4.35.14-8.895-2.233-12.661l-9.446-14.99c-4.665-7.403-2.948-17.138 3.967-22.499l14.003-10.855a17 17 0 006.428-11.133l2.4-17.555c1.185-8.67 8.757-15.024 17.5-14.685l17.706.685a17 17 0 0012.08-4.397l13.122-11.905z" fill="#AB9DEC"/><path d="M114.077 38.364c6.48-5.88 16.366-5.88 22.846 0l9.839 8.926a17 17 0 0012.08 4.397l13.275-.514c8.743-.338 16.316 6.016 17.501 14.685l1.799 13.163a16.999 16.999 0 006.428 11.133l10.499 8.14c6.916 5.36 8.632 15.095 3.967 22.498l-7.082 11.239a17.004 17.004 0 00-2.233 12.661l2.812 12.984c1.851 8.552-3.091 17.112-11.423 19.785l-12.65 4.057a16.996 16.996 0 00-9.848 8.264l-6.193 11.753c-4.078 7.741-13.367 11.122-21.468 7.813l-12.298-5.023a17.008 17.008 0 00-12.856 0l-12.298 5.023c-8.1 3.309-17.39-.072-21.468-7.813l-6.193-11.753a16.998 16.998 0 00-9.848-8.264l-12.65-4.057c-8.332-2.673-13.274-11.233-11.423-19.785l2.812-12.984c.941-4.35.14-8.895-2.233-12.661l-7.082-11.239c-4.665-7.403-2.949-17.138 3.967-22.499l10.5-8.139a17 17 0 006.427-11.133l1.8-13.163c1.184-8.67 8.757-15.023 17.5-14.685l13.275.514a17 17 0 0012.08-4.397l9.839-8.926z" fill="#3D2B93"/><g clip-path="url(#clip0_959_39056)"><path d="M113.545 38.447c6.49-5.919 16.42-5.919 22.91 0l9.661 8.811a17.001 17.001 0 0012.117 4.427l13.049-.508c8.749-.34 16.326 6.02 17.506 14.697l1.79 13.164c.598 4.4 2.893 8.39 6.395 11.119l10.462 8.152c6.877 5.359 8.585 15.052 3.954 22.439l-7.086 11.303a17 17 0 00-2.215 12.609l2.811 13.051c1.839 8.538-3.09 17.08-11.402 19.76l-12.517 4.035a17.002 17.002 0 00-9.84 8.288l-6.117 11.671c-4.074 7.773-13.396 11.167-21.514 7.834l-12.052-4.948a16.997 16.997 0 00-12.914 0l-12.052 4.948c-8.118 3.333-17.44-.061-21.514-7.834l-6.117-11.671a17 17 0 00-9.84-8.288l-12.517-4.035c-8.312-2.68-13.241-11.222-11.402-19.76l2.81-13.051a17 17 0 00-2.214-12.609l-7.086-11.303c-4.631-7.387-2.923-17.08 3.954-22.44l10.462-8.151a17 17 0 006.395-11.12l1.79-13.163c1.18-8.677 8.757-15.037 17.506-14.697l13.05.508a17.002 17.002 0 0012.116-4.427l9.661-8.81z" fill="#573CDA"/></g><path d="M98.5 176c-7.3 0-13.519-1.988-18.655-5.963-5.136-4.008-9.061-9.809-11.775-17.404C65.357 145.006 64 135.795 64 125c0-10.73 1.357-19.893 4.07-27.488 2.746-7.627 6.687-13.445 11.823-17.452C85.062 76.02 91.264 74 98.5 74c7.236 0 13.422 2.02 18.558 6.06 5.169 4.007 9.11 9.825 11.823 17.452C131.627 105.107 133 114.27 133 125c0 10.795-1.357 20.006-4.07 27.633-2.714 7.595-6.639 13.396-11.775 17.404C112.019 174.012 105.801 176 98.5 176zm0-10.665c7.236 0 12.857-3.491 16.862-10.472 4.006-6.981 6.009-16.935 6.009-29.863 0-8.597-.921-15.917-2.762-21.961-1.809-6.044-4.426-10.65-7.85-13.817-3.392-3.167-7.478-4.75-12.259-4.75-7.171 0-12.776 3.538-16.814 10.616-4.038 7.046-6.057 17.017-6.057 29.912 0 8.597.905 15.901 2.714 21.913 1.809 6.011 4.41 10.584 7.801 13.719 3.424 3.135 7.543 4.703 12.356 4.703zm63.844 1.853v-2.31c0-1.597.32-3.058.962-4.384a7.831 7.831 0 012.846-3.208c1.255-.813 2.776-1.219 4.562-1.219 1.813 0 3.334.406 4.561 1.219a7.582 7.582 0 012.783 3.208c.628 1.326.942 2.787.942 4.384v2.31c0 1.597-.321 3.066-.963 4.406a7.702 7.702 0 01-2.804 3.208c-1.227.799-2.734 1.198-4.519 1.198-1.814 0-3.341-.399-4.583-1.198a7.865 7.865 0 01-2.825-3.208c-.642-1.34-.962-2.809-.962-4.406zm4.268-2.31v2.31c0 1.326.307 2.517.921 3.572.614 1.041 1.674 1.561 3.181 1.561 1.464 0 2.497-.52 3.097-1.561.613-1.055.92-2.246.92-3.572v-2.31c0-1.326-.293-2.509-.879-3.55-.585-1.055-1.632-1.583-3.138-1.583-1.465 0-2.518.528-3.16 1.583-.628 1.041-.942 2.224-.942 3.55zM141 142.122v-2.31c0-1.597.321-3.059.963-4.385a7.835 7.835 0 012.845-3.208c1.256-.813 2.776-1.219 4.562-1.219 1.814 0 3.334.406 4.562 1.219a7.601 7.601 0 012.783 3.208c.628 1.326.941 2.788.941 4.385v2.31c0 1.597-.32 3.065-.962 4.406a7.722 7.722 0 01-2.804 3.208c-1.228.798-2.734 1.197-4.52 1.197-1.813 0-3.341-.399-4.583-1.197a7.862 7.862 0 01-2.824-3.208c-.642-1.341-.963-2.809-.963-4.406zm4.269-2.31v2.31c0 1.326.307 2.516.92 3.571.614 1.041 1.674 1.562 3.181 1.562 1.465 0 2.497-.521 3.097-1.562.614-1.055.921-2.245.921-3.571v-2.31c0-1.326-.293-2.51-.879-3.551-.586-1.055-1.632-1.582-3.139-1.582-1.465 0-2.518.527-3.16 1.582-.627 1.041-.941 2.225-.941 3.551zm-2.679 35.589l29.463-43.802h4.771l-29.463 43.802h-4.771z" fill="#1BC082"/><defs><clipPath id="clip0_959_39056"><path fill="#fff" transform="translate(25 28)" d="M0 0h100v192H0z"/></clipPath></defs></svg>