<svg width="733" height="766" fill="none" xmlns="http://www.w3.org/2000/svg"><path d="M146.134 523.785s-78.598-61.753-42.781-142.343c35.817-80.591 100.646 42.415 145.835-71.336 45.189-113.75 55.311-200.83 175.61-164.909 120.298 35.92 70.985 130.188 133.946 139.655 62.96 9.468 112.706 43.607 83.853 117.427-28.852 73.82 24.842 92.979-13.344 146.93-38.187 53.951-483.119-25.424-483.119-25.424z" fill="#F6F4FF"/><path d="M349.556 309.839l-15.599 200.356s-1.634 12.145 6.729 12.167c13.75.035 68.439 0 68.439 0s-10.349-2.529-10.223-8.217c.147-6.705 18.231-206.202 18.231-206.202l-67.577 1.896z" fill="#3D2B93"/><path d="M413.701 518.266c-2.703.009-54.906.185-68.288 0-5.832-.078-6.855-5.577-6.903-9.136-.018-.992.041-1.985.177-2.967l.405-5.182 1.034-13.206.912-11.667 1.173-14.993.988-12.655 11.077-141.652 67.536-1.885s-7.612 83.069-12.996 143.537a12018.26 12018.26 0 00-1.701 19.228 10056.664 10056.664 0 00-1.85 21.253c-.209 2.445-.402 4.717-.577 6.798-.687 8.155-1.089 13.362-1.095 14.352a8.894 8.894 0 00.132 1.614c1.108 6.353 8.961 6.561 9.976 6.561z" fill="#917AFF"/><path d="M509.986 201.229H185.004l38.059 164.573 5.211 22.539L246 464.994h329.321l-65.335-263.765z" fill="#917AFF"/><path d="M184.674 201.229l-5.289 1.895 59.424 267.91 7.033-5.731-61.168-264.074zm54.614 269.805h326.998l9.03-6.04H246.295l-7.007 6.04zm114.196 51.343h71.137v-4.026h-71.137v4.026zm53.347-51.343l-.368 2.747-67.025 14.368.92-11.603.439-5.512h66.034z" fill="#3D2B93"/><path d="M413.388 518.268c-2.692.009-54.679.181-68.007 0-5.808-.076-6.826-5.462-6.874-8.948l65.905-13.117c-.684 7.987-1.085 13.088-1.09 14.058-.005.53.039 1.059.131 1.581 1.104 6.223 8.924 6.426 9.935 6.426z" fill="#573CDA"/><path opacity=".2" d="M386.246 413.681L245.68 464.994l-12.004-51.344 152.57.031z" fill="#573CDA"/><path d="M509.746 201.229H185.004l48.943 212.354 328.27.067-52.471-212.421z" fill="#573CDA"/><path d="M419.775 440.329c-.937-5.282-5.604-9.564-10.424-9.564-4.82 0-7.968 4.282-7.031 9.564.937 5.282 5.604 9.564 10.424 9.564 4.82 0 7.967-4.282 7.031-9.564z" fill="#3D2B93"/><path d="M547.238 404.589H242.772l-34.48-147.651-2.643-11.324-2.256-9.657-5.288-22.647h300.077l5.808 22.647 2.477 9.657 2.903 11.324 37.868 147.651z" fill="#fff"/><path d="M498.37 213.31H198.105l5.291 22.148h300.785l-5.811-22.148z" fill="#917AFF"/><path d="M212.981 220.357c-1.254 0-2.017 1.353-1.704 3.021.313 1.668 1.582 3.02 2.836 3.02 1.254 0 2.017-1.352 1.704-3.02-.313-1.668-1.582-3.021-2.836-3.021zm8.777 0c-1.505 0-2.42 1.353-2.045 3.021s1.899 3.02 3.403 3.02 2.42-1.352 2.045-3.02-1.899-3.021-3.403-3.021zm12.766 3.021c-.375-1.668-1.898-3.021-3.403-3.021-1.504 0-2.42 1.353-2.045 3.021s1.899 3.02 3.403 3.02c1.505 0 2.42-1.352 2.045-3.02z" fill="#E9F3FE"/><path d="M295.072 276.734c-1.622 1.459-4.903 4.195-6.213 5.358l3.32 44.064-34.17-16.211-6.213 5.358a46.857 46.857 0 00-.632 18.578c1.032 6.171 3.289 12.037 6.62 17.212 3.331 5.174 7.661 9.538 12.701 12.801 5.041 3.263 10.678 5.352 16.537 6.127 5.86.775 11.807.219 17.449-1.631 5.641-1.85 10.848-4.951 15.274-9.099 4.426-4.148 7.97-9.248 10.398-14.96a46.51 46.51 0 003.684-18.175c0-24.413-15.753-49.422-38.755-49.422z" fill="#3D2B93"/><path d="M281.385 272.707c-8.535.743-16.641 4.361-23.184 10.348-6.542 5.987-11.192 14.043-13.298 23.038l39.75 10.911 6.115-5.386-9.383-38.911z" fill="#1BC082"/><path d="M298.266 276.734c-1.105 0-2.199.047-3.282.14l3.282 44.152-39.927-10.875c-2.108 8.947-1.565 18.378 1.554 26.976 3.118 8.599 8.655 15.935 15.838 20.984 7.184 5.049 15.654 7.559 24.228 7.178 8.573-.38 16.822-3.631 23.595-9.299 6.772-5.668 11.729-13.47 14.179-22.315a47.482 47.482 0 00-.517-27.022c-2.785-8.73-8.036-16.306-15.019-21.67-6.983-5.364-15.35-8.248-23.931-8.249z" fill="#573CDA"/><path d="M287.539 267.674c-8.441.742-16.459 4.36-22.929 10.347-6.47 5.987-11.069 14.043-13.152 23.039l39.312 10.91-3.231-44.296z" fill="#23C89A"/><path d="M282.899 284.789a.515.515 0 01-.305-.102.597.597 0 01-.202-.27.664.664 0 01-.031-.348.623.623 0 01.15-.309l24.717-27.16h158.969c.145 0 .285.064.387.177a.63.63 0 01.161.425c0 .16-.058.313-.161.426a.523.523 0 01-.387.177H307.682l-24.396 26.807a.54.54 0 01-.178.131.505.505 0 01-.209.046zm48.664 49.33a.516.516 0 01-.303-.102.597.597 0 01-.202-.27.66.66 0 01-.031-.347.617.617 0 01.15-.307l26.545-29.176h116.894a.52.52 0 01.386.176c.103.112.16.265.16.425a.632.632 0 01-.16.425.523.523 0 01-.386.176H358.175l-26.225 28.823a.513.513 0 01-.387.177z" fill="#163560"/><path d="M469.548 252.573H307.165l-3.291-5.034h162.382l3.292 5.034zm4.683 48.323H356.778l-3.293-6.04h117.453l3.293 6.04zm-35.57 97.653h-42.955l-20.694-79.532h42.954l20.695 79.532zm54.29 0h-42.955l-20.694-79.532h42.955l20.694 79.532z" fill="#917AFF"/><path d="M85.785 521.371h158.683l33.2-145.976H118.985l-33.2 145.976z" fill="#8770F9"/><path d="M311.365 521.371H151.908l-33.361-145.976h159.457l33.361 145.976z" fill="#917AFF"/><path d="M300.133 513.317H159.254l-29.475-129.869h140.88l29.474 129.869z" fill="#fff"/><path d="M85.785 521.371l33.703-7.047 32.754 7.047H85.785z" fill="#7867C8"/><path d="M147.089 360.293c-3.776.005-7.401 1.59-10.108 4.42-2.707 2.829-4.283 6.68-4.395 10.738h5.805a9.826 9.826 0 011.666-5.075c1.006-1.48 2.393-2.61 3.99-3.251a8.135 8.135 0 014.995-.351c1.661.411 3.174 1.337 4.35 2.664a9.637 9.637 0 012.267 4.798 10.02 10.02 0 01-.565 5.348c-.671 1.684-1.788 3.12-3.211 4.129a8.278 8.278 0 01-4.794 1.547c-.381 0-.759.081-1.111.238a2.89 2.89 0 00-.942.676c-.269.29-.483.634-.629 1.013a3.318 3.318 0 000 2.388c.146.379.36.723.629 1.013.27.289.59.519.942.676.352.157.73.238 1.111.238 3.849 0 7.541-1.644 10.262-4.571 2.722-2.926 4.251-6.895 4.251-11.034 0-4.138-1.529-8.107-4.251-11.034-2.721-2.926-6.413-4.57-10.262-4.57zm36.97.001c-3.898.005-7.64 1.59-10.434 4.42-2.795 2.829-4.422 6.68-4.537 10.738h5.993a9.617 9.617 0 011.719-5.075 9.044 9.044 0 014.119-3.251 8.65 8.65 0 015.156-.351 8.903 8.903 0 014.49 2.664 9.505 9.505 0 012.34 4.798 9.732 9.732 0 01-.583 5.348 9.284 9.284 0 01-3.314 4.129 8.735 8.735 0 01-4.949 1.547c-.394 0-.784.081-1.147.238a2.966 2.966 0 00-.972.676c-.278.29-.499.634-.65 1.013a3.24 3.24 0 000 2.388c.151.379.372.723.65 1.013.278.289.608.519.972.676.363.157.753.238 1.147.238 3.973 0 7.784-1.644 10.593-4.571 2.81-2.926 4.388-6.895 4.388-11.034 0-4.138-1.578-8.107-4.388-11.034-2.809-2.926-6.62-4.57-10.593-4.57zm37.439 0c-3.897.005-7.639 1.59-10.434 4.419-2.794 2.83-4.421 6.681-4.537 10.739h5.993a9.613 9.613 0 011.72-5.076 9.038 9.038 0 014.118-3.25 8.652 8.652 0 015.156-.351 8.908 8.908 0 014.49 2.663 9.508 9.508 0 012.34 4.799 9.71 9.71 0 01-.583 5.347 9.282 9.282 0 01-3.314 4.13 8.733 8.733 0 01-4.949 1.547c-.393 0-.783.08-1.147.237a3.006 3.006 0 00-.972.677c-.278.29-.499.634-.649 1.012a3.23 3.23 0 00.649 3.401c.279.29.609.52.972.677.364.157.754.237 1.147.237 3.973 0 7.784-1.644 10.594-4.57 2.809-2.926 4.388-6.895 4.388-11.034 0-4.138-1.579-8.107-4.388-11.034-2.81-2.926-6.621-4.57-10.594-4.57zm36.976 0c-3.776.005-7.401 1.59-10.108 4.42-2.707 2.829-4.284 6.68-4.395 10.738h5.805a9.817 9.817 0 011.666-5.075c1.005-1.48 2.393-2.61 3.99-3.251a8.135 8.135 0 014.995-.351c1.661.411 3.173 1.337 4.35 2.664a9.628 9.628 0 012.266 4.798 10.01 10.01 0 01-.565 5.348c-.671 1.684-1.787 3.12-3.21 4.129a8.278 8.278 0 01-4.794 1.547c-.382 0-.759.081-1.111.238a2.89 2.89 0 00-.942.676c-.269.29-.483.634-.629 1.013a3.318 3.318 0 000 2.388c.146.379.36.723.629 1.013.27.289.59.519.942.676.352.157.729.238 1.111.238 3.849 0 7.54-1.644 10.262-4.571 2.722-2.926 4.251-6.895 4.251-11.034 0-4.138-1.529-8.107-4.251-11.034-2.722-2.926-6.413-4.57-10.262-4.57z" fill="#2FB590"/><path d="M182.192 429.758h-31.699l-5.741-23.155h31.699l5.741 23.155zm44.932 0h-31.699l-5.741-23.154h31.699l5.741 23.154zm43.055 0H238.48l-5.742-23.155h31.699l5.742 23.155zm-79.561 31.209h-31.699l-5.741-22.148h31.699l5.741 22.148zm44.928 0h-31.699l-5.742-22.149h31.7l5.741 22.149zm43.055 0h-31.699l-5.742-22.148h31.699l5.742 22.148zm-79.559 33.222h-31.699l-5.741-23.155h31.699l5.741 23.155zm44.926 0h-31.699l-5.742-23.155h31.699l5.742 23.155zm43.058 0h-31.699l-5.741-23.155h31.699l5.741 23.155z" fill="#573CDA"/><path d="M119.037 375.395l.445 139.035-33.697 6.941 33.252-145.976z" fill="#917AFF"/></svg>