<svg width="733" height="766" fill="none" xmlns="http://www.w3.org/2000/svg"><path d="M576.485 282.013s142.201 62.1 98.578 141.916c-51.287 93.837-77.596 74.875-134.423 127.645-103.788 96.378-164.302 102.602-310.655 8.751-106.456-53.55-116.74-67.766-150.827-98.339-53.306-74.387-16.647-103.593 50.077-166.362 66.725-62.768 2.6-107.892 74.127-145.708s373.123 132.097 373.123 132.097z" fill="#F6F4FF"/><path d="M309.376 178.305c-.026-5.241-6.544-9.503-14.56-9.52-8.016-.016-14.494 4.219-14.469 9.46.023 4.797 5.49 8.762 12.56 9.415l.012 2.657c-1.34.232-2.329 1.022-2.324 1.973l.043 9.068c.005 1.135 1.418 2.059 3.154 2.062l2.379.005c1.736.004 3.14-.914 3.134-2.049l-.043-9.068c-.005-.951-1.001-1.746-2.344-1.983l-.013-2.657c7.065-.623 12.493-4.567 12.471-9.363z" fill="#fff"/><path d="M485.079 549.329l-252.018-164.87c-9.757-6.379-17.666-23.493-17.666-38.225V86.613c0-14.733 7.909-21.504 17.666-15.125l252.018 164.87c9.757 6.379 17.667 23.493 17.667 38.225v259.622c0 14.732-7.91 21.503-17.667 15.124z" fill="#F6F4FF"/><path d="M492.064 232.27L240.045 67.401c-3.86-2.524-7.431-2.99-10.337-1.718-.37.162-7.274 4.2-7.621 4.418l-.017.012c3.01-1.655 6.828-1.346 10.99 1.375l252.018 164.87c9.757 6.379 17.667 23.493 17.667 38.225v259.622c0 9.193-3.081 15.285-7.769 17.017a2.714 2.714 0 001.547-.596c.224-.146 7.548-4.637 7.761-4.807 3.356-2.661 5.446-8.13 5.446-15.702V270.496c0-14.732-7.91-31.846-17.666-38.226z" fill="#3D2B93"/><path d="M490.085 233.346L238.067 68.476c-3.86-2.524-7.431-2.99-10.337-1.718-.37.162-5.296 3.125-5.643 3.343l-.017.012c3.01-1.656 6.828-1.346 10.99 1.375l252.018 164.87 5.007-3.012z" fill="#3D2B93"/><path d="M485.927 235.878L233.909 71.008c-4.001-2.616-7.679-2.989-10.64-1.54 2.985-.38 5.995.418 8.521 2.26l252.018 164.87c9.757 6.379 17.666 23.493 17.666 38.226v259.621c0 8.691-2.764 14.579-7.025 16.664 5.45-.979 9.145-7.32 9.145-17.384V274.104c0-14.733-7.91-31.847-17.667-38.226z" fill="#fff"/><path d="M225.316 109.696v236.538c0 11.554 4.857 22.846 12.709 28.497l249.329 163.091.413.268a3.084 3.084 0 001.688.503 3.085 3.085 0 001.684-.518 3.635 3.635 0 001.232-1.399c.295-.58.451-1.239.452-1.909v-250.07L225.316 109.696z" fill="#2A206A"/><path d="M492.466 535.961l-.413-.267-249.329-163.092c-7.852-5.65-12.709-16.942-12.709-28.497V112.77l-4.699-3.074v236.538c0 11.554 4.857 22.846 12.709 28.497l249.329 163.091.413.268c.43.276.907.442 1.4.486.492.044.987-.035 1.45-.232a3.357 3.357 0 001.226-.905c.346-.4.609-.881.773-1.409-.05-.029-.101-.037-.15-.069z" fill="#212650"/><path d="M478.79 256.294a13.34 13.34 0 001.428 5.407c.845 1.65 2.022 3.052 3.434 4.09 2.685 1.756 4.862.351 4.862-3.139a13.332 13.332 0 00-1.428-5.407c-.845-1.65-2.021-3.051-3.434-4.09-2.685-1.755-4.862-.35-4.862 3.139z" fill="#A4A4A4"/><path d="M466.248 248.045a13.348 13.348 0 001.428 5.407c.845 1.65 2.021 3.051 3.434 4.09 2.685 1.755 4.862.35 4.862-3.14a13.323 13.323 0 00-1.428-5.406c-.845-1.65-2.021-3.052-3.434-4.09-2.685-1.756-4.862-.351-4.862 3.139z" fill="#1BC082"/><path d="M453.708 239.795a13.323 13.323 0 001.428 5.407c.845 1.65 2.021 3.052 3.434 4.09 2.685 1.756 4.862.351 4.862-3.139a13.344 13.344 0 00-1.428-5.407c-.845-1.65-2.021-3.051-3.434-4.09-2.685-1.755-4.862-.35-4.862 3.139z" fill="#573CDA"/><path d="M389.756 231.91l-18.287-11.956c-1.847-1.208-3.345-.241-3.345 2.16a9.164 9.164 0 00.983 3.72 8.005 8.005 0 002.362 2.814l18.287 11.956c1.847 1.208 3.345.241 3.345-2.16a9.168 9.168 0 00-.983-3.72 8.005 8.005 0 00-2.362-2.814zm30.106 19.684l-18.287-11.956c-1.847-1.208-3.345-.241-3.345 2.16a9.184 9.184 0 00.983 3.72 8.005 8.005 0 002.362 2.814l18.287 11.956c1.847 1.208 3.345.241 3.345-2.16a9.164 9.164 0 00-.983-3.72 8.005 8.005 0 00-2.362-2.814zm30.106 19.684l-18.287-11.956c-1.847-1.208-3.345-.241-3.345 2.159a9.176 9.176 0 00.983 3.72 7.988 7.988 0 002.362 2.814l18.287 11.956c1.848 1.208 3.345.242 3.345-2.159a9.164 9.164 0 00-.983-3.72 7.997 7.997 0 00-2.362-2.814zm30.106 19.684l-18.287-11.957c-1.847-1.208-3.345-.24-3.345 2.16a9.18 9.18 0 00.983 3.72 8.005 8.005 0 002.362 2.814l18.287 11.956c1.848 1.208 3.345.241 3.345-2.16a9.183 9.183 0 00-.982-3.72 8.006 8.006 0 00-2.363-2.813z" fill="#A08DFC"/><path d="M317.195 248.999v89.122l8.608-5.707v-89.375l-8.608 5.96z" fill="#917AFF"/><path d="M317.228 248.999v89.122L145.524 226.615V137.24l171.704 111.759z" fill="#A08DFC"/><path d="M145.524 137.239l171.704 111.759 8.575-5.959-171.758-111.67-8.521 5.87z" fill="#917AFF"/><path opacity=".7" d="M145.524 137.24l171.704 111.759 8.575-5.96-8.599 4.603-171.68-110.402z" fill="#fff"/><path d="M292.08 305.796v-3.783l-54.19-34.886v3.783l54.19 34.886zm-77.657-109.053v3.784l91.09 59.012v-3.784l-91.09-59.012zm32.073 52.422l-32.073-20.972v3.786l32.073 20.969v-3.783zm21.705 29.916v3.784l13.249 8.118v-3.784l-13.249-8.118zm-2.057-32.796l-51.721-33.816v3.783l51.721 33.818v-3.785zm-32.777-13.567l-18.944-12.387v3.785l18.944 12.386v-3.784zm-4.815 24.223l36.359 23.773v-3.784l-36.359-23.773v3.784zm8.104-22.073v3.784l51.048 32.833V267.7l-51.048-32.832zm13.129 16.447v3.784l25.523 16.688v-3.784l-25.523-16.688zm-24.524-.307l-10.838-7.087v3.783l10.838 7.087v-3.783zm44.173 1.212l36.078 23.044v-3.784l-36.078-23.043v3.783zm21.562 21.415l14.518 9.491v-3.783l-14.518-9.491v3.783zm-76.573-65.246l91.09 59.012v-3.783l-91.09-59.012v3.783zm64.175 65.548l26.915 17.054v-3.785l-26.915-17.052v3.783zm-43.997-8.961l-20.178-13.193v3.784l20.178 13.193v-3.784zm60.771 42.973l10.142 6.63v-3.784l-10.142-6.632v3.786zm-10.634-14.816l20.774 13.583v-3.784l-20.774-13.582v3.783zm-70.315-53.292l91.09 59.012v-3.785l-91.09-59.01v3.783z" fill="#fff"/><path d="M195.39 181.777l-29.946-19.617c-5.236-3.423-9.48.21-9.48 8.116v39.253c0 7.905 4.244 17.089 9.48 20.512l29.946 19.617c5.235 3.423 9.48-.211 9.48-8.116v-39.253c0-7.906-4.245-17.089-9.48-20.512z" fill="#EFECFF"/><path d="M199.09 246.465l-29.946-19.617c-5.235-3.423-9.48-12.606-9.48-20.511v-39.254a14.31 14.31 0 011.173-6.126c-2.906.546-4.873 3.94-4.873 9.319v39.254c0 7.905 4.244 17.088 9.479 20.511l29.947 19.617c3.58 2.341 6.695 1.379 8.307-1.989-1.612.218-3.242-.208-4.607-1.204z" fill="#D5D1E8"/><path d="M172.128 192.754l-29.946-19.617c-5.236-3.424-9.48.21-9.48 8.115v39.254c0 7.905 4.244 17.088 9.48 20.511l29.946 19.617c5.236 3.424 9.48-.21 9.48-8.115v-39.254c0-7.905-4.244-17.088-9.48-20.511z" fill="#573CDA"/><path d="M177.013 189.51l-29.946-19.617a5.767 5.767 0 00-2.879-1.222 5.54 5.54 0 00-3.043.496l-.052-.063-5.181 3.444.019.072a5.44 5.44 0 013.189-.735 5.598 5.598 0 013.061 1.251l29.947 19.617c5.235 3.423 9.48 12.606 9.48 20.512v39.253c0 3.843-1.009 6.664-2.64 8.168l2.889-2.154c1.488-.86 2.72-2.196 3.544-3.841a10.712 10.712 0 001.091-5.416v-39.254c0-7.905-4.244-17.089-9.479-20.511z" fill="#3D2B93"/><path opacity=".7" d="M172.661 192.25l-29.946-19.617c-2.601-1.7-4.955-1.656-6.668-.216a5.695 5.695 0 012.85-.256 6 6 0 012.665 1.175l29.946 19.617c5.235 3.424 9.48 12.607 9.48 20.512v39.254c0 3.978-1.077 6.872-2.812 8.331 2.397-1.03 3.965-4.239 3.965-9.034v-39.254c0-7.905-4.244-17.088-9.48-20.512z" fill="#fff"/><path d="M140.646 183.968v44.935l32.475 21.241V205.21l-32.475-21.242zm30.394 62.094l-28.312-18.521v-39.489l28.312 18.518v39.492z" fill="#fff"/><path d="M165.987 213.199c0 2.944-1.837 4.13-4.103 2.649-1.191-.877-2.184-2.059-2.897-3.451a11.277 11.277 0 01-1.205-4.562c0-2.944 1.837-4.13 4.102-2.649 1.192.877 2.185 2.059 2.898 3.451a11.268 11.268 0 011.205 4.562zm-24.252 3.765l8.456-12.374 8.586 24.601 6.243-5.745 6.896 21.214-.132 2.148-29.919-18.12-.13-11.724z" fill="#fff"/><path d="M529.393 414.705v108.839l8.608-5.706V408.745l-8.608 5.96z" fill="#917AFF"/><path d="M529.425 414.705v108.839L341.51 401.512V292.421l187.915 122.284z" fill="#A08DFC"/><path d="M341.51 292.421l187.915 122.284 8.576-5.959-187.972-122.195-8.519 5.87z" fill="#917AFF"/><path opacity=".7" d="M341.51 292.421l187.915 122.284 8.576-5.959-8.599 4.602L341.51 292.421z" fill="#fff"/><path d="M509.509 483.727c11.444-7.576 11.327-31.914-.261-54.361-11.587-22.447-30.258-34.502-41.701-26.926-11.444 7.576-11.327 31.914.261 54.361 11.587 22.447 30.258 34.502 41.701 26.926z" fill="#F6F4FF"/><path d="M491.347 478.609c-16.286-10.648-29.488-36.435-29.488-57.598 0-7.896 1.839-14.03 4.989-18.068-4.846 3.66-7.809 10.841-7.809 20.862 0 21.162 13.202 46.95 29.488 57.598 10.21 6.675 19.206 5.813 24.499-.971-5.388 4.069-13.105 3.784-21.679-1.823z" fill="#fff"/><path d="M459.519 428.935c.387-15.996 10.654-22.355 23.25-14.12 6.484 4.24 12.353 11.546 16.579 19.885l4.647-1.323c-5.294-10.874-12.848-20.464-21.226-25.942-15.852-10.364-28.764-2.171-28.957 18.242l3.717 3.823 1.99-.565zm34.924 49.914c-4.119.219-8.196-1.008-11.675-3.514-11.931-7.8-21.783-25.967-23.119-41.888l-5.686-3.245c.009.116-1.9.554-1.891.671 1.645 19.817 15.841 42.13 30.696 51.843 5.394 3.527 9.045 5.381 13.375 4.86.182-.022 1.763-.532 1.942-.56l-3.642-8.167zm7.105-39.313c2.797 6.476 4.334 13.558 4.507 20.765 0 9.561-3.439 15.837-8.784 17.892l3.6 8.071c6.617-2.577 10.864-10.39 10.864-22.25-.207-8.95-2.106-17.746-5.569-25.794l-4.618 1.316z" fill="#3D2B93"/><path d="M490.763 452.796a22.036 22.036 0 01-4.083-5.537c-.675-1.28-.652-2.668.005-3.101.916-.617 1.643-1.535 2.085-2.633.715.224 1.603-.075 1.603-1.186.001-1.11-.368-2.179-1.034-2.993.043-2.644-.544-5.253-1.699-7.551-1.156-2.298-2.837-4.201-4.868-5.509-1.159-.937-2.57-1.387-3.991-1.274-.225.049-2.179.632-2.37.739-1.335.752-.106 2.377-.205 5.008-.592-.148-1.034.507-1.034 1.641.168 1.277.738 2.443 1.603 3.283a28.28 28.28 0 002.084 5.358c.658 1.292.681 2.712.006 3.109a4.802 4.802 0 01-4.083.197 2.723 2.723 0 00-1.706-.077c-.144.045-1.899.56-2.03.634-.916.517.129 1.273.129 3.034v5.003c.026.529.162 1.044.397 1.503.235.458.562.847.954 1.136l18.934 14.191c.328.215 2.187-.534 2.421-.633a.95.95 0 00.391-.427c.088-.185.122-.397.098-.605v-5.003a13.197 13.197 0 00-1.062-4.566 11.85 11.85 0 00-2.545-3.741z" fill="#3D2B93"/><path d="M458.245 429.347c.387-15.996 10.654-22.355 23.25-14.119 6.485 4.239 12.353 11.545 16.58 19.884l4.646-1.323c-5.293-10.874-12.847-20.464-21.226-25.942-15.851-10.364-28.763-2.171-28.957 18.242l5.707 3.258zm34.925 49.914c-4.118.219-8.196-1.008-11.675-3.513-11.931-7.801-21.782-25.968-23.119-41.888l-5.686-3.246c1.528 19.899 13.863 42.745 28.805 52.514 5.622 3.675 10.871 5.009 15.318 4.3l-3.643-8.167zm7.105-39.314c2.797 6.477 4.334 13.558 4.507 20.765 0 9.562-3.44 15.837-8.785 17.892l3.6 8.072c6.617-2.578 10.864-10.391 10.864-22.25-.206-8.95-2.105-17.746-5.569-25.794l-4.617 1.315z" fill="#fff"/><path d="M489.491 453.208a22.06 22.06 0 01-4.083-5.537c-.675-1.28-.652-2.668.005-3.101.916-.617 1.643-1.535 2.085-2.633.715.224 1.603-.075 1.603-1.186.001-1.11-.368-2.179-1.034-2.993.044-2.644-.544-5.253-1.699-7.551-1.156-2.298-2.837-4.201-4.868-5.509-4.928-3.222-6.391-.15-6.566 4.473-.592-.148-1.034.507-1.034 1.641.168 1.277.738 2.443 1.603 3.283a28.28 28.28 0 002.084 5.358c.658 1.292.681 2.712.006 3.109a4.802 4.802 0 01-4.083.197c-2.069-.708-3.607.705-3.607 3.591v5.003c.026.529.162 1.044.397 1.502.235.459.562.848.954 1.137l20.493 13.398c.746.488 1.351.097 1.351-.872v-5.003a13.197 13.197 0 00-1.062-4.566 11.85 11.85 0 00-2.545-3.741z" fill="#fff"/><path d="M457.519 429.553c.386-15.996 10.654-22.355 23.25-14.119 6.484 4.239 12.353 11.545 16.579 19.885l4.647-1.324c-5.294-10.874-12.848-20.464-21.226-25.942-15.852-10.364-28.764-2.171-28.957 18.242l5.707 3.258zm34.925 49.914c-4.119.219-8.196-1.008-11.675-3.514-11.931-7.8-21.783-25.967-23.119-41.887l-5.686-3.246c1.527 19.899 13.862 42.744 28.805 52.514 5.621 3.675 10.87 5.008 15.318 4.3l-3.643-8.167zm7.105-39.314c2.797 6.477 4.334 13.558 4.507 20.766 0 9.561-3.439 15.837-8.785 17.891l3.601 8.072c6.617-2.577 10.864-10.39 10.864-22.25-.207-8.95-2.106-17.746-5.569-25.794l-4.618 1.315z" fill="#573CDA"/><path d="M488.763 453.414a22.039 22.039 0 01-4.084-5.537c-.675-1.28-.651-2.668.006-3.101.916-.617 1.643-1.536 2.084-2.634.716.224 1.604-.074 1.604-1.185.001-1.11-.368-2.179-1.034-2.993.043-2.644-.544-5.253-1.7-7.551-1.155-2.298-2.837-4.201-4.867-5.509-4.928-3.222-6.392-.15-6.567 4.473-.591-.149-1.033.507-1.033 1.641.168 1.277.737 2.443 1.603 3.283a28.28 28.28 0 002.084 5.358c.657 1.292.681 2.712.006 3.109a4.808 4.808 0 01-4.084.197c-2.068-.708-3.606.705-3.606 3.591v5.003c.026.529.162 1.044.397 1.502.234.459.561.848.954 1.137l20.492 13.398c.746.488 1.351.097 1.351-.872v-5.003a13.184 13.184 0 00-1.061-4.567 11.873 11.873 0 00-2.545-3.74z" fill="#573CDA"/><path d="M342.554 387.359v45.576l6.75-4.2v-45.83l-6.75 4.454z" fill="#3D2B93"/><path d="M342.585 387.359v45.576l-148.932-97.37v-45.829l148.932 97.623z" fill="#573CDA"/><path d="M193.655 289.736l148.932 97.623 6.717-4.454-148.986-97.534-6.663 4.365z" fill="#3D2B93"/><path opacity=".7" d="M193.653 289.736l148.932 97.623 6.717-4.454-6.579 3.257-149.07-96.426z" fill="#fff"/><path d="M335.013 419.134l-134.011-88.572v-26.853l134.011 88.571v26.854z" fill="#fff"/><path d="M206.617 311.298l2.71 1.772 1.253 14.659.051.033 1.33-12.97 3.068 2.006 1.33 14.709.051.033 1.253-13.02 2.429 1.588-1.815 18.035-3.503-2.29-1.279-12.482-.051-.034-1.279 10.811-3.733-2.441-1.815-20.409zm16.042 10.561l2.71 1.772 1.253 14.659.051.033 1.33-12.97 3.068 2.006 1.33 14.709.051.033 1.253-13.02 2.429 1.588-1.815 18.035-3.503-2.29-1.279-12.482-.051-.034-1.278 10.811-3.734-2.441-1.815-20.409zm16.172 10.415l2.71 1.772 1.253 14.659.051.033 1.33-12.97 3.068 2.006 1.33 14.709.051.034 1.253-13.021 2.429 1.588-1.815 18.035-3.504-2.29-1.278-12.482-.051-.034-1.279 10.811-3.733-2.441-1.815-20.409z" fill="#573CDA"/><path d="M261.268 152.806v31.781l4.233-2.639v-32.03l-4.233 2.888z" fill="#23C89A"/><path d="M261.297 152.806v31.781l-24.983-16.344v-32.029l24.983 16.592z" fill="#1BC082"/><path d="M236.314 136.213l24.983 16.592 4.202-2.888-25.038-16.504-4.147 2.8z" fill="#23C89A"/><path d="M236.314 136.214l24.983 16.592 4.202-2.888-4.414 1.357-24.771-15.061z" fill="#fff"/><path d="M283.235 142.205v51.464l6.855-4.275v-51.865l-6.855 4.676z" fill="#3D2B93"/><path d="M242.829 115.336l40.456 26.869 6.804-4.676-40.544-26.727-6.716 4.534z" fill="#3D2B93"/><path opacity=".7" d="M242.829 115.336l40.456 26.869 6.803-4.676-6.62 3.571-40.639-25.764z" fill="#fff"/><path d="M242.829 115.336v21.345l21.41 14.22v30.307l19.046 12.46v-51.465l-40.456-26.867z" fill="#573CDA"/><path d="M369.712 266.477v35.531l4.731-2.952v-35.807l-4.731 3.228z" fill="#3D2B93"/><path d="M369.744 266.478v35.531l-27.931-18.275v-35.807l27.931 18.551z" fill="#573CDA"/><path d="M341.815 247.926l27.931 18.551 4.697-3.228-27.991-18.452-4.637 3.129z" fill="#3D2B93"/><path opacity=".7" d="M341.813 247.927l27.931 18.551 4.697-3.228-4.934 1.515-27.694-16.838z" fill="#fff"/><path d="M405.94 290.026v35.531l4.732-2.952v-35.807l-4.732 3.228z" fill="#3D2B93"/><path d="M405.974 290.026v35.531l-27.93-18.274v-35.808l27.93 18.551z" fill="#573CDA"/><path d="M378.045 271.475l27.93 18.551 4.697-3.228-27.99-18.452-4.637 3.129z" fill="#3D2B93"/><path opacity=".7" d="M378.044 271.475l27.93 18.551 4.698-3.228-4.935 1.515-27.693-16.838z" fill="#fff"/><path d="M442.661 314.427v35.531l4.731-2.952v-35.807l-4.731 3.228z" fill="#3D2B93"/><path d="M442.695 314.428v35.531l-27.93-18.275v-35.807l27.93 18.551z" fill="#573CDA"/><path d="M414.767 295.877l27.93 18.55 4.697-3.228-27.991-18.451-4.636 3.129z" fill="#3D2B93"/><path opacity=".7" d="M414.765 295.877l27.93 18.551 4.697-3.228-4.934 1.515-27.693-16.838z" fill="#fff"/><path d="M478.584 337.021v35.531l4.731-2.952v-35.807l-4.731 3.228z" fill="#3D2B93"/><path d="M478.618 337.022v35.531l-27.93-18.275v-35.807l27.93 18.551z" fill="#573CDA"/><path d="M450.689 318.47l27.931 18.551 4.697-3.228-27.991-18.452-4.637 3.129z" fill="#3D2B93"/><path opacity=".7" d="M450.688 318.471l27.93 18.551 4.697-3.229-4.934 1.515-27.693-16.837z" fill="#fff"/><path d="M434.42 329.153a13.972 13.972 0 01-2.584-3.504c-.427-.81-.412-1.689.004-1.963a3.624 3.624 0 001.319-1.666c.453.142 1.015-.047 1.015-.75 0-.702-.233-1.379-.655-1.894a10.286 10.286 0 00-1.075-4.778c-.731-1.455-1.795-2.659-3.08-3.486-3.119-2.039-4.045-.095-4.155 2.83-.374-.094-.655.321-.655 1.038.107.809.467 1.546 1.015 2.078a17.826 17.826 0 001.319 3.39c.416.818.431 1.716.003 1.968a3.038 3.038 0 01-2.583.125c-1.31-.449-2.283.446-2.283 2.272v3.166c.017.335.103.66.252.95.148.291.355.537.603.72l12.968 8.478c.472.309.855.061.855-.552v-3.166a8.344 8.344 0 00-.672-2.889 7.495 7.495 0 00-1.611-2.367zm21.462 22.856l4.527 2.959v-9.191l-4.527-2.96v9.192zm7.167 4.686l4.527 2.96v-16.851l-4.527-2.96v16.851zm7.168-19.824v24.51l4.527 2.96V339.83l-4.527-2.959zm-70.497-32.769a13.303 13.303 0 00-.091-1.453l2.139-.306a24.242 24.242 0 00-.969-3.667l-2.437-.834a20.155 20.155 0 00-1.517-2.963l.584-2.785a21.211 21.211 0 00-2.334-2.785l-1.312 1.921c-.342-.297-.7-.57-1.072-.818a7.86 7.86 0 00-1.072-.584l-1.312-3.636a5.77 5.77 0 00-2.334-.267l.584 3.548a3.28 3.28 0 00-1.517.98l-2.436-2.352a7.674 7.674 0 00-.97 2.399l2.139 3.103c-.059.441-.089.887-.091 1.334.004.486.034.971.091 1.452l-2.139.307c.228 1.251.553 2.478.97 3.666l2.436.835a20.194 20.194 0 001.517 2.962l-.584 2.785a21.211 21.211 0 002.334 2.785l1.312-1.921c.342.297.7.571 1.072.819.345.223.703.418 1.072.583l1.312 3.637a5.769 5.769 0 002.334.266l-.584-3.548a3.282 3.282 0 001.517-.979l2.437 2.351c.45-.725.779-1.538.969-2.399l-2.139-3.102c.059-.442.089-.888.091-1.334zm-7.009-.925a6.733 6.733 0 01-1.988-2.368 7.727 7.727 0 01-.827-3.13c0-2.021 1.26-2.834 2.815-1.818a6.742 6.742 0 011.988 2.368c.489.956.772 2.028.827 3.131 0 2.02-1.26 2.833-2.815 1.817zm-45.719-41.119l8.991 15.909 8.99-4.153.007.013a3.676 3.676 0 00-1.067-1.177l-15.861-10.37a1.273 1.273 0 00-.514-.236 1.207 1.207 0 00-.554.017l.008-.003z" fill="#fff"/><path d="M365 273.863l-9.018 5.823-2.554-4.987-6.437 2.973-.028-.047 5.985-3.864-5.984-11.69a1.19 1.19 0 00-.539.545c-.122.244-.17.526-.136.803v12.167c.034.69.211 1.361.517 1.96a4.21 4.21 0 001.245 1.482l15.861 10.37c.973.637 1.763.127 1.763-1.138v-12.166a4.578 4.578 0 00-.675-2.231zm-.028 15.565l-6.438-11.391.481-.31 5.985 11.69-.028.011z" fill="#fff"/><path d="M229.049 370.364v45.576l6.354-4.094v-45.829l-6.354 4.347z" fill="#917AFF"/><path d="M229.081 370.364v45.576L121 345.296v-45.83l108.081 70.898z" fill="#A08DFC"/><path d="M121 299.466l108.081 70.898 6.323-4.347-108.138-70.807-6.266 4.256z" fill="#917AFF"/><path opacity=".7" d="M121 299.466l108.081 70.898 6.323-4.347-6.58 2.99L121 299.466z" fill="#fff"/><path d="M162.765 334.305l-19.758-12.919c-1.213-.792-2.196-.157-2.196 1.418v15.156c.043.86.264 1.696.645 2.441a5.26 5.26 0 001.551 1.847l12.349 8.074 6.175 12.061v-8.024l1.234.807c1.213.793 2.196.159 2.196-1.417v-15.156a6.032 6.032 0 00-.645-2.441 5.26 5.26 0 00-1.551-1.847zm-13.929 2.837c-.643.415-1.685-.267-2.328-1.523-.643-1.256-.643-2.61 0-3.025.643-.416 1.685.266 2.328 1.522.643 1.256.643 2.611 0 3.026zm5.352 3.498c-.643.416-1.686-.266-2.329-1.522-.643-1.256-.643-2.611 0-3.026.643-.415 1.686.267 2.329 1.523.643 1.255.643 2.61 0 3.025zm5.351 3.499c-.643.415-1.685-.266-2.328-1.522-.644-1.256-.643-2.611 0-3.026.642-.415 1.685.266 2.328 1.522.643 1.256.643 2.611 0 3.026zm-20.374-7.256V324.58l-7.547-4.934c-1.212-.792-2.195-.158-2.195 1.418v15.156a6 6 0 00.645 2.441 5.247 5.247 0 001.55 1.847l1.235.807v8.024l6.175-3.987 12.349 8.074c1.212.793 2.195.158 2.195-1.417v-.714l-10.565-6.907c-1.116-.822-2.045-1.93-2.712-3.233a10.536 10.536 0 01-1.13-4.272zm30.294 5.046v3.784l51.634 33.76v-3.784l-51.634-33.76zm35.303 38.829l-35.303-23.104v3.784l35.303 23.104v-3.784zm-35.303-27.183l51.634 33.761v-3.784l-51.634-33.76v3.783z" fill="#fff"/><path opacity=".2" d="M301.073 465.638l-33.564-21.34c2.898-2.407 4.599-5.27 4.599-8.352 0-8.502-12.814-15.395-28.621-15.395-15.807 0-28.62 6.893-28.62 15.395 0 8.502 12.813 15.395 28.62 15.395a51.089 51.089 0 009.39-.865l36.143 22.986a9.106 9.106 0 004.597 1.012 9.235 9.235 0 004.507-1.44c2.985-1.716 6.531-5.002 2.949-7.396z" fill="#A4A4A4"/><path d="M300.957 461.44a9.694 9.694 0 01.885 4.95c-.144 1.713-.733 3.339-1.693 4.673-.96 1.333-2.248 2.315-3.7 2.82a6.825 6.825 0 01-4.46.017c-1.456-.494-2.749-1.466-3.717-2.792-.968-1.326-1.567-2.948-1.721-4.66a9.685 9.685 0 01.856-4.957c.711-1.52 1.805-2.767 3.143-3.583a7.035 7.035 0 012.865-.996 6.823 6.823 0 012.984.321 7.424 7.424 0 012.648 1.59 8.565 8.565 0 011.91 2.617z" fill="#2A206A"/><path d="M276.648 406.737l-16.631 10.148 24.809 51.83.003-.002c.011.025.021.052.033.077 1.441 3.029 6.332 3.212 10.925.41 4.592-2.803 7.147-7.53 5.706-10.558-.012-.026-.026-.049-.039-.074l.003-.002-24.809-51.829z" fill="#573CDA"/><path d="M276.666 406.774c1.442 3.029-1.113 7.756-5.706 10.558-4.593 2.803-9.484 2.619-10.925-.409-1.441-3.029 1.114-7.756 5.706-10.558 4.593-2.803 9.484-2.619 10.925.409z" fill="#3D2B93"/><path d="M265.757 392.986l-9.893 6.037 7.034 14.783.002-.001.02.046c.857 1.801 3.766 1.91 6.498.244 2.732-1.667 4.252-4.479 3.394-6.28l-.023-.044.002-.001-7.034-14.784z" fill="#2A206A"/><path d="M237.83 274.156c-12.316-8.052-23.486-8.975-31.659-3.963-.229.14-11.958 7.551-12.327 8.193 8.317-7.105 20.629-6.997 34.369 1.987 25.047 16.376 45.352 56.036 45.352 88.584 0 16.607-5.289 28.15-13.794 33.301a9.649 9.649 0 002.213-1.102c.242-.153 8.24-5.641 8.477-5.805 7.875-5.451 12.72-16.712 12.72-32.611 0-32.547-20.304-72.208-45.351-88.584z" fill="#23C89A"/><path d="M228.214 280.373c-25.047-16.376-45.352-3.266-45.352 29.281 0 32.548 20.305 72.208 45.352 88.584 25.047 16.376 45.351 3.266 45.351-29.281 0-32.548-20.304-72.208-45.351-88.584zm-.681 110.093c-21.254-13.896-38.485-47.552-38.485-75.172 0-27.62 17.231-38.744 38.485-24.848 21.255 13.897 38.485 47.553 38.485 75.172 0 27.62-17.23 38.745-38.485 24.848z" fill="#1BC082"/><path d="M235.501 385.425c-21.255-13.896-38.485-47.552-38.485-75.171 0-11.267 2.869-19.786 7.707-24.984-9.504 2.892-15.673 13.503-15.673 30.025 0 27.619 17.23 61.275 38.485 75.171 12.584 8.228 23.756 7.682 30.778.137-6.384 1.943-14.272.406-22.812-5.178z" fill="#23DEAA"/><path d="M230.39 279.141c-12.007-7.85-22.916-8.908-31.029-4.314 7.563-2.396 18.687-1.1 28.852 5.546 25.047 16.376 45.352 56.036 45.352 88.584 0 16.945-7.253 29.099-16.065 34.088 11.072-3.506 18.241-15.982 18.241-35.32 0-32.548-20.304-72.208-45.351-88.584z" fill="#fff"/></svg>