<svg width="226" height="224" viewBox="0 0 226 224" fill="none" xmlns="http://www.w3.org/2000/svg">
<path fill-rule="evenodd" clip-rule="evenodd" d="M203.636 129.238C233.121 99.6731 233.121 51.7388 203.636 22.1738C174.151 -7.39125 126.347 -7.39125 96.8616 22.1738C72.2863 46.8157 68.1941 84.2188 84.5851 113.111L5.86204 187.657C-0.687481 193.859 -0.98279 204.21 5.20246 210.778L11.8859 217.874C18.0712 224.441 28.3948 224.737 34.9443 218.535L115.034 142.695C143.542 157.775 179.651 153.289 203.636 129.238Z" fill="white"/>
<g opacity="0.4">
<mask id="mask0_966_39019" style="mask-type:alpha" maskUnits="userSpaceOnUse" x="91" y="17" width="118" height="118">
<path d="M208.454 75.9368C208.454 108.226 182.278 134.401 149.99 134.401C117.701 134.401 91.5254 108.226 91.5254 75.9368C91.5254 43.648 117.701 17.4727 149.99 17.4727C182.278 17.4727 208.454 43.648 208.454 75.9368Z" fill="#C4C4C4"/>
</mask>
<g mask="url(#mask0_966_39019)">
<path d="M155.453 17.4727H231.797L195.674 137.069H114.646L155.453 17.4727Z" fill="#1BC082"/>
<path d="M135.677 17.4727H152.438L111.625 137.069H94.8633L135.677 17.4727Z" fill="#1BC082"/>
<path d="M117.51 17.4727H134.206L93.5501 137.069H76.8535L117.51 17.4727Z" fill="#1BC082"/>
<path d="M107.133 17.4727H116.867L75.942 137.069H66.1836L107.133 17.4727Z" fill="#1BC082"/>
</g>
</g>
<path d="M111.892 116.669C110.699 115.445 109.584 114.187 108.549 112.894L86.368 134.578C85.0048 135.91 85.4743 138.604 87.4165 140.595C89.3587 142.586 92.0382 143.12 93.4013 141.787L115.583 120.103C114.32 119.036 113.089 117.891 111.892 116.669Z" fill="#3D2B93"/>
<path d="M191.323 35.6688C169.208 12.9967 132.809 12.6781 110.023 34.9574C87.2379 57.2366 86.6944 93.6769 108.81 116.349C130.925 139.021 167.324 139.34 190.109 117.061C212.895 94.7812 213.438 58.3409 191.323 35.6688ZM113.573 111.692C94.0109 91.6371 94.4915 59.4039 114.646 39.6969C134.801 19.9898 166.998 20.2716 186.56 40.3261C206.122 60.3807 205.641 92.6139 185.486 112.321C165.331 132.028 133.134 131.746 113.573 111.692Z" fill="#1BC082"/>
<path d="M17.4798 211.826L14.0326 208.247C12.3784 206.529 11.4736 204.224 11.5171 201.839C11.5607 199.453 12.5491 197.183 14.2649 195.527L78.303 133.375C80.0189 131.719 82.3216 130.813 84.7046 130.856C87.0876 130.9 89.3557 131.89 91.01 133.607L94.4572 137.186C96.1114 138.904 97.0162 141.209 96.9727 143.595C96.9291 145.98 95.9407 148.251 94.2249 149.907L30.1868 212.059C29.3372 212.879 28.3345 213.523 27.2362 213.955C26.1378 214.387 24.9651 214.599 23.7852 214.577C22.6052 214.555 21.441 214.301 20.3592 213.829C19.2773 213.357 18.2989 212.677 17.4798 211.826V211.826Z" fill="#573CDA"/>
<path d="M216.75 75.5C216.75 112.227 186.753 142 149.75 142C112.747 142 82.75 112.227 82.75 75.5C82.75 38.7731 112.747 9 149.75 9C186.753 9 216.75 38.7731 216.75 75.5ZM93.0873 75.5C93.0873 106.56 118.456 131.74 149.75 131.74C181.044 131.74 206.413 106.56 206.413 75.5C206.413 44.4396 181.044 19.2601 149.75 19.2601C118.456 19.2601 93.0873 44.4396 93.0873 75.5Z" fill="#573CDA"/>
</svg>
