<svg width="226" height="224" viewBox="0 0 226 224" fill="none" xmlns="http://www.w3.org/2000/svg">
<path d="M224 112C224 173.856 173.856 224 112 224C50.1441 224 0 173.856 0 112C0 50.1441 50.1441 0 112 0C173.856 0 224 50.1441 224 112Z" fill="white"/>
<path d="M113 208C165.467 208 208 165.467 208 113C208 60.533 165.467 18 113 18C60.533 18 18 60.533 18 113C18 165.467 60.533 208 113 208Z" fill="#3D2B93"/>
<path d="M113 193C157.183 193 193 157.183 193 113C193 68.8172 157.183 33 113 33C68.8172 33 33 68.8172 33 113C33 157.183 68.8172 193 113 193Z" fill="#573CDA"/>
<path d="M113 198C66.131 198 28 159.869 28 113C28 66.1305 66.131 28 113 28C159.869 28 198 66.1305 198 113C198 159.869 159.869 198 113 198ZM113 32.0545C68.3664 32.0545 32.0545 68.3662 32.0545 113C32.0545 157.634 68.3664 193.945 113 193.945C157.634 193.945 193.945 157.634 193.945 113C193.945 68.3662 157.634 32.0545 113 32.0545V32.0545Z" fill="white"/>
<path d="M148.069 148.022C167.409 128.682 167.409 97.3256 148.069 77.9855C128.729 58.6454 97.3722 58.6454 78.032 77.9855C58.6919 97.3257 58.6919 128.682 78.032 148.022C97.3722 167.362 128.729 167.362 148.069 148.022Z" fill="#3D2B93"/>
<path d="M113 166C83.7757 166 60 142.224 60 113C60 83.7753 83.7757 60 113 60C142.224 60 166 83.7753 166 113C166 142.224 142.224 166 113 166ZM113 68.0473C88.213 68.0473 68.0473 88.2127 68.0473 113C68.0473 137.787 88.213 157.953 113 157.953C137.787 157.953 157.953 137.787 157.953 113C157.953 88.2127 137.787 68.0473 113 68.0473Z" fill="white"/>
<path d="M126.584 126.594C134.077 119.102 134.077 106.953 126.584 99.4602C119.091 91.9673 106.943 91.9673 99.45 99.4602C91.957 106.953 91.957 119.102 99.45 126.594C106.943 134.087 119.091 134.087 126.584 126.594Z" fill="url(#paint0_linear_968_39142)"/>
<path d="M113 136C100.318 136 90 125.682 90 113C90 100.318 100.318 90 113 90C125.682 90 136 100.318 136 113C136 125.682 125.682 136 113 136ZM113 98.0477C104.755 98.0477 98.0478 104.755 98.0478 113C98.0478 121.245 104.755 127.952 113 127.952C121.244 127.952 127.952 121.245 127.952 113C127.952 104.755 121.244 98.0477 113 98.0477V98.0477Z" fill="white"/>
<path d="M127.329 98.9796L129.35 101L205.875 24.4725L203.854 22.4516L127.329 98.9796Z" fill="#2A206A"/>
<path d="M128.825 94.1623C129.892 92.9893 134.919 98.5193 133.852 99.6923L115.207 115.817C114.518 116.412 113.625 115.43 114.167 114.673L128.825 94.1623Z" fill="#2A206A"/>
<path d="M206.298 26L217 26.9968L202.308 40.7656C199.93 42.9934 197.055 44.6989 193.889 45.7589C190.723 46.819 187.345 47.2072 184 46.8956L206.298 26Z" fill="#1BC082"/>
<path d="M204 22.3782L202.956 12L188.531 26.2472C186.197 28.5524 184.411 31.3407 183.3 34.4107C182.19 37.4807 181.783 40.7559 182.109 44V44L204 22.3782Z" fill="url(#paint1_linear_968_39142)"/>
<defs>
<linearGradient id="paint0_linear_968_39142" x1="99.45" y1="99.4602" x2="126.584" y2="126.594" gradientUnits="userSpaceOnUse">
<stop stop-color="#1BC082"/>
<stop offset="1" stop-color="#23C89A"/>
</linearGradient>
<linearGradient id="paint1_linear_968_39142" x1="193" y1="12" x2="193" y2="44" gradientUnits="userSpaceOnUse">
<stop stop-color="#1BC082"/>
<stop offset="1" stop-color="#23C89A"/>
</linearGradient>
</defs>
</svg>
