<svg width="226" height="224" viewBox="0 0 226 224" fill="none" xmlns="http://www.w3.org/2000/svg">
<path d="M139.954 211.926L111.977 224L92.0424 215.297C50.6965 197.247 24 156.62 24 111.752L25.023 22.7618L112.758 0L202 23.7782L200.977 119.492C200.977 159.627 177.007 195.936 139.954 211.926Z" fill="white"/>
<path d="M135.93 199.062L111.834 209.727L94.6658 202.04C59.0568 186.097 36.0645 150.213 36.0645 110.583L36.9455 31.9817L112.454 12.7222L189.366 32.8794L188.485 117.42C188.485 152.869 167.841 184.939 135.93 199.062Z" fill="#3D2B93"/>
<path d="M112.456 12.7222L111.35 13.0043V209.509L111.836 209.727L135.932 199.062C167.843 184.939 188.488 152.869 188.488 117.419L189.369 32.8795L112.456 12.7222Z" fill="#573CDA"/>
<path d="M151.157 86.4022C141.842 86.4022 135.574 86.7242 135.663 86.4883C137.134 82.5538 139.343 79.2592 142.05 76.9607C144.757 74.6622 147.86 73.4472 151.023 73.4472C154.186 73.4472 157.289 74.6622 159.997 76.9607C162.704 79.2592 164.913 82.5538 166.384 86.4883C166.384 86.4883 159.87 86.4022 151.157 86.4022Z" fill="white"/>
<path d="M150.358 103.323C133.794 103.323 120.318 89.8876 120.318 73.3728C120.318 56.8576 133.794 43.4219 150.358 43.4219C166.922 43.4219 180.397 56.8576 180.397 73.3728C180.397 89.8876 166.922 103.323 150.358 103.323ZM150.358 44.1832C134.215 44.1832 121.082 57.2777 121.082 73.3728C121.082 89.4679 134.215 102.562 150.358 102.562C166.5 102.562 179.634 89.4679 179.634 73.3728C179.634 57.2777 166.5 44.1832 150.358 44.1832Z" fill="white"/>
<path d="M158.273 62.3502C158.982 57.9898 156.013 53.8813 151.639 53.1737C147.266 52.4661 143.145 55.4273 142.435 59.7878C141.726 64.1482 144.696 68.2567 149.069 68.9643C153.442 69.6719 157.563 66.7107 158.273 62.3502Z" fill="white"/>
<path d="M76.2775 160.634C59.7138 160.634 46.2383 147.198 46.2383 130.683C46.2383 114.169 59.7138 100.733 76.2775 100.733C92.8411 100.733 106.317 114.169 106.317 130.683C106.317 147.198 92.8411 160.634 76.2775 160.634ZM76.2775 101.494C60.1347 101.494 47.0018 114.588 47.0018 130.683C47.0018 146.779 60.1347 159.873 76.2775 159.873C92.4202 159.873 105.553 146.779 105.553 130.683C105.553 114.588 92.4202 101.494 76.2775 101.494Z" fill="white"/>
<path d="M76.5453 143.288C67.2312 143.288 60.9622 143.61 61.0517 143.374C62.5227 139.44 64.7313 136.145 67.4385 133.846C70.1458 131.548 73.2488 130.333 76.412 130.333C79.5751 130.333 82.6781 131.548 85.3854 133.846C88.0927 136.145 90.3012 139.44 91.7722 143.374C91.7722 143.374 85.2587 143.288 76.5453 143.288Z" fill="white"/>
<path d="M76.2742 126.379C80.7048 126.379 84.2965 122.797 84.2965 118.38C84.2965 113.962 80.7048 110.381 76.2742 110.381C71.8436 110.381 68.252 113.962 68.252 118.38C68.252 122.797 71.8436 126.379 76.2742 126.379Z" fill="white"/>
<path d="M54.0547 62.9354L62.456 92.4023L88.3498 75.9145L81.3502 73.2656C83.2499 67.1266 87.0083 58.5597 94.5971 50.684C109.861 34.843 127.425 39.4492 132.018 39.2465C126.15 35.5375 107.119 24.5429 84.4395 38.2648C70.7776 46.5306 64.0967 58.4782 61.0891 65.5977L54.0547 62.9354Z" fill="#1BC082"/>
<path d="M173.834 142.632L165.433 113.165L139.539 129.653L146.539 132.302C144.639 138.441 140.881 147.008 133.292 154.883C118.028 170.724 100.464 166.118 95.8711 166.321C101.74 170.03 120.77 181.024 143.45 167.303C157.112 159.037 163.792 147.089 166.8 139.97L173.834 142.632Z" fill="#1BC082"/>
</svg>
