<svg width="226" height="224" viewBox="0 0 226 224" fill="none" xmlns="http://www.w3.org/2000/svg">
<path d="M102.014 4.2587C108.247 -1.41957 117.753 -1.41956 123.986 4.2587L140.948 19.7123C144.117 22.6004 148.289 24.125 152.566 23.9587L175.451 23.0691C183.86 22.7423 191.143 28.8787 192.282 37.2514L195.384 60.0382C195.964 64.2967 198.183 68.1571 201.566 70.7905L219.666 84.8812C226.317 90.0586 227.968 99.4602 223.482 106.61L211.272 126.067C208.99 129.704 208.219 134.094 209.125 138.294L213.971 160.772C215.752 169.031 210.999 177.299 202.986 179.88L181.177 186.904C177.102 188.217 173.701 191.082 171.706 194.885L161.031 215.232C157.108 222.708 148.175 225.974 140.384 222.778L119.182 214.082C115.22 212.457 110.78 212.457 106.818 214.082L85.6159 222.778C77.8253 225.974 68.892 222.708 64.9694 215.232L54.2939 194.885C52.2988 191.082 48.8983 188.217 44.8227 186.904L23.0144 179.88C15.0013 177.299 10.2479 169.031 12.0287 160.772L16.8751 138.294C17.7808 134.094 17.01 129.704 14.7281 126.067L2.51826 106.61C-1.96812 99.4602 -0.317297 90.0586 6.33358 84.8812L24.4342 70.7905C27.817 68.1571 30.0365 64.2967 30.6161 60.0382L33.7177 37.2514C34.8574 28.8787 42.1399 22.7423 50.5489 23.0691L73.4343 23.9587C77.7112 24.125 81.8825 22.6004 85.0524 19.7123L102.014 4.2587Z" fill="white"/>
<path d="M102.5 19.2788C108.74 13.5738 118.26 13.5737 124.5 19.2787L137.137 30.8307C140.311 33.7323 144.487 35.2641 148.77 35.0971L165.819 34.4321C174.239 34.1037 181.531 40.269 182.673 48.6812L184.983 65.7148C185.564 69.9934 187.786 73.872 191.173 76.5177L204.658 87.0508C211.318 92.2527 212.971 101.699 208.478 108.882L199.382 123.427C197.097 127.08 196.326 131.491 197.232 135.711L200.843 152.514C202.626 160.812 197.866 169.119 189.843 171.712L173.596 176.963C169.515 178.281 166.11 181.16 164.112 184.981L156.159 200.191C152.231 207.702 143.286 210.983 135.486 207.773L119.69 201.272C115.722 199.639 111.278 199.639 107.31 201.272L91.5145 207.773C83.7138 210.983 74.7687 207.702 70.841 200.191L62.8878 184.981C60.8901 181.16 57.4851 178.281 53.4042 176.963L37.1572 171.712C29.1335 169.119 24.374 160.812 26.157 152.514L29.7676 135.711C30.6745 131.491 29.9027 127.08 27.6178 123.427L18.5216 108.882C14.0293 101.699 15.6823 92.2527 22.3419 87.0508L35.8267 76.5177C39.2139 73.872 41.4363 69.9934 42.0167 65.7148L44.3274 48.6812C45.4685 40.269 52.7606 34.1037 61.1806 34.4321L78.23 35.0971C82.5126 35.2641 86.6894 33.7323 89.8634 30.8307L102.5 19.2788Z" fill="#AB9DEC"/>
<path d="M102.451 31.2684C108.719 25.5772 118.281 25.5772 124.549 31.2684L134.065 39.9089C137.253 42.8035 141.448 44.3316 145.75 44.165L158.59 43.6676C167.047 43.34 174.371 49.4904 175.517 57.8822L177.257 70.6228C177.84 74.891 180.073 78.7602 183.475 81.3995L193.63 89.278C200.319 94.4672 201.979 103.89 197.467 111.056L190.617 121.935C188.322 125.58 187.547 129.98 188.458 134.19L191.177 146.758C192.968 155.036 188.187 163.322 180.128 165.909L167.893 169.837C163.794 171.152 160.374 174.024 158.367 177.835L152.378 189.212C148.433 196.706 139.448 199.978 131.613 196.776L119.717 191.913C115.732 190.285 111.268 190.285 107.283 191.913L95.3872 196.776C87.552 199.978 78.5674 196.706 74.6224 189.212L68.6329 177.835C66.6264 174.024 63.2064 171.152 59.1074 169.837L46.8719 165.909C38.8128 163.322 34.0322 155.036 35.8232 146.758L38.5423 134.19C39.4532 129.98 38.678 125.58 36.383 121.935L29.5327 111.056C25.0206 103.89 26.6809 94.4672 33.3699 89.278L43.5252 81.3995C46.9274 78.7602 49.1596 74.891 49.7425 70.6228L51.4827 57.8822C52.6289 49.4904 59.9532 43.34 68.4103 43.6676L81.2501 44.165C85.5516 44.3316 89.7468 42.8035 92.9349 39.9089L102.451 31.2684Z" fill="#3D2B93"/>
<g clip-path="url(#clip0_968_39155)">
<path d="M101.929 31.2993C108.201 25.5669 117.799 25.5669 124.071 31.2993L133.408 39.8323C136.597 42.7474 140.804 44.2873 145.118 44.1191L157.728 43.6274C166.184 43.2977 173.507 49.458 174.647 57.8606L176.377 70.6097C176.955 74.8703 179.173 78.7351 182.558 81.378L192.668 89.273C199.314 94.463 200.965 103.85 196.49 111.004L189.642 121.952C187.367 125.587 186.599 129.968 187.501 134.163L190.218 146.802C191.995 155.071 187.231 163.343 179.198 165.939L167.102 169.847C163.005 171.171 159.59 174.053 157.591 177.873L151.679 189.176C147.742 196.704 138.734 199.991 130.888 196.763L119.24 191.971C115.242 190.326 110.758 190.326 106.76 191.971L95.1122 196.763C87.2663 199.991 78.2579 196.704 74.3205 189.176L68.4087 177.873C66.4103 174.053 62.9954 171.171 58.8984 169.847L46.8019 165.939C38.7689 163.343 34.0051 155.071 35.7823 146.802L38.4991 134.163C39.4006 129.968 38.6325 125.587 36.3583 121.952L29.5101 111.004C25.0347 103.85 26.6856 94.463 33.3319 89.273L43.4422 81.378C46.8267 78.7351 49.0451 74.8703 49.6232 70.6097L51.3532 57.8606C52.4933 49.458 59.8159 43.2977 68.2716 43.6274L80.8824 44.1191C85.1961 44.2873 89.4026 42.7474 92.5922 39.8323L101.929 31.2993Z" fill="#573CDA"/>
</g>
<path d="M87 163C80.0169 163 74.0688 161.11 69.1559 157.329C64.243 153.518 60.4888 148.001 57.8933 140.779C55.2978 133.525 54 124.766 54 114.5C54 104.296 55.2978 95.5825 57.8933 88.3598C60.5197 81.1063 64.2893 75.574 69.2022 71.7628C74.1461 67.9209 80.0787 66 87 66C93.9214 66 99.8385 67.9209 104.751 71.7628C109.695 75.574 113.465 81.1063 116.06 88.3598C118.687 95.5825 120 104.296 120 114.5C120 124.766 118.702 133.525 116.107 140.779C113.511 148.001 109.757 153.518 104.844 157.329C99.9312 161.11 93.9831 163 87 163ZM87 152.857C93.9214 152.857 99.2978 149.538 103.129 142.899C106.961 136.26 108.876 126.794 108.876 114.5C108.876 106.324 107.996 99.363 106.235 93.6155C104.504 87.868 102.001 83.4883 98.7261 80.4762C95.4817 77.4642 91.573 75.9582 87 75.9582C80.1405 75.9582 74.7795 79.3237 70.9171 86.0547C67.0548 92.7549 65.1236 102.237 65.1236 114.5C65.1236 122.676 65.9888 129.622 67.7191 135.338C69.4494 141.055 71.9368 145.404 75.1812 148.385C78.4565 151.367 82.3961 152.857 87 152.857Z" fill="#1BC082"/>
<path d="M148.22 154.58V152.373C148.22 150.847 148.524 149.45 149.132 148.183C149.753 146.902 150.652 145.88 151.828 145.117C153.018 144.341 154.458 143.952 156.15 143.952C157.868 143.952 159.308 144.341 160.471 145.117C161.634 145.88 162.513 146.902 163.108 148.183C163.703 149.45 164 150.847 164 152.373V154.58C164 156.106 163.696 157.509 163.088 158.79C162.493 160.057 161.608 161.079 160.432 161.856C159.269 162.619 157.841 163 156.15 163C154.432 163 152.985 162.619 151.808 161.856C150.632 161.079 149.74 160.057 149.132 158.79C148.524 157.509 148.22 156.106 148.22 154.58ZM152.264 152.373V154.58C152.264 155.847 152.555 156.985 153.137 157.993C153.718 158.987 154.722 159.485 156.15 159.485C157.537 159.485 158.515 158.987 159.084 157.993C159.665 156.985 159.956 155.847 159.956 154.58V152.373C159.956 151.106 159.678 149.975 159.123 148.98C158.568 147.972 157.577 147.468 156.15 147.468C154.762 147.468 153.764 147.972 153.156 148.98C152.562 149.975 152.264 151.106 152.264 152.373ZM128 130.627V128.42C128 126.894 128.304 125.498 128.912 124.231C129.533 122.95 130.432 121.928 131.608 121.165C132.797 120.388 134.238 120 135.93 120C137.648 120 139.088 120.388 140.251 121.165C141.414 121.928 142.293 122.95 142.888 124.231C143.482 125.498 143.78 126.894 143.78 128.42V130.627C143.78 132.153 143.476 133.557 142.868 134.837C142.273 136.105 141.388 137.126 140.211 137.903C139.048 138.666 137.621 139.048 135.93 139.048C134.211 139.048 132.764 138.666 131.588 137.903C130.412 137.126 129.52 136.105 128.912 134.837C128.304 133.557 128 132.153 128 130.627ZM132.044 128.42V130.627C132.044 131.894 132.335 133.032 132.916 134.04C133.498 135.035 134.502 135.532 135.93 135.532C137.317 135.532 138.295 135.035 138.863 134.04C139.445 133.032 139.736 131.894 139.736 130.627V128.42C139.736 127.153 139.458 126.022 138.903 125.028C138.348 124.019 137.357 123.515 135.93 123.515C134.542 123.515 133.544 124.019 132.936 125.028C132.341 126.022 132.044 127.153 132.044 128.42ZM129.507 162.428L157.419 120.572H161.938L134.026 162.428H129.507Z" fill="#1BC082"/>
<defs>
<clipPath id="clip0_968_39155">
<rect width="100" height="192" fill="white" transform="translate(13 16)"/>
</clipPath>
</defs>
</svg>
