<svg width="1479" height="701" viewBox="0 0 1479 701" fill="none" xmlns="http://www.w3.org/2000/svg">
<g opacity="0.4">
<path d="M842.152 700.259V262.757L830.973 263.246V700.259H842.152Z" fill="url(#paint0_linear_232_496)" style="mix-blend-mode:multiply"/>
<path d="M791.584 278.719H780.404V700.258H791.584V278.719Z" fill="url(#paint1_linear_232_496)" style="mix-blend-mode:multiply"/>
<path d="M748.871 309.031H737.691V700.259H748.871V309.031Z" fill="url(#paint2_linear_232_496)" style="mix-blend-mode:multiply"/>
<path d="M658.138 378.373H646.959V700.259H658.138V378.373Z" fill="url(#paint3_linear_232_496)" style="mix-blend-mode:multiply"/>
<path d="M610.654 435.496H599.475V700.26H610.654V435.496Z" fill="url(#paint4_linear_232_496)" style="mix-blend-mode:multiply"/>
<path d="M699.884 336.624H688.705V700.259H699.884V336.624Z" fill="url(#paint5_linear_232_496)" style="mix-blend-mode:multiply"/>
<path d="M517.933 534.982H506.754V700.259H517.933V534.982Z" fill="url(#paint6_linear_232_496)" style="mix-blend-mode:multiply"/>
<path d="M330.533 407.452H319.354V700.259H330.533V407.452Z" fill="url(#paint7_linear_232_496)" style="mix-blend-mode:multiply"/>
<path d="M421.945 413.637H410.766V700.258H421.945V413.637Z" fill="url(#paint8_linear_232_496)" style="mix-blend-mode:multiply"/>
<path d="M193.047 413.637H181.867V700.258H193.047V413.637Z" fill="url(#paint9_linear_232_496)" style="mix-blend-mode:multiply"/>
<path d="M284.164 563.354H272.984V700.258H284.164V563.354Z" fill="url(#paint10_linear_232_496)" style="mix-blend-mode:multiply"/>
<path d="M142.843 462.099H131.664V700.259H142.843V462.099Z" fill="url(#paint11_linear_232_496)" style="mix-blend-mode:multiply"/>
<path d="M101.174 578.67H89.9941V700.259H101.174V578.67Z" fill="url(#paint12_linear_232_496)" style="mix-blend-mode:multiply"/>
<path d="M51.0446 646.317H39.8652V700.258H51.0446V646.317Z" fill="url(#paint13_linear_232_496)" style="mix-blend-mode:multiply"/>
<path d="M11.1792 646.317H0V700.258H11.1792V646.317Z" fill="url(#paint14_linear_232_496)" style="mix-blend-mode:multiply"/>
<path d="M378.291 352.914H367.111V700.259H378.291V352.914Z" fill="url(#paint15_linear_232_496)" style="mix-blend-mode:multiply"/>
<path d="M473.273 622.268H462.094V700.259H473.273V622.268Z" fill="url(#paint16_linear_232_496)" style="mix-blend-mode:multiply"/>
<path d="M239.672 622.268H228.492V700.259H239.672V622.268Z" fill="url(#paint17_linear_232_496)" style="mix-blend-mode:multiply"/>
<path d="M926.64 352.914H915.461V700.259H926.64V352.914Z" fill="url(#paint18_linear_232_496)" style="mix-blend-mode:multiply"/>
<path d="M884.392 285.513H873.213V700.259H884.392V285.513Z" fill="url(#paint19_linear_232_496)" style="mix-blend-mode:multiply"/>
<path d="M1031.08 484.815H1019.9V700.26H1031.08V484.815Z" fill="url(#paint20_linear_232_496)" style="mix-blend-mode:multiply"/>
<path d="M563.178 484.815H551.998V700.26H563.178V484.815Z" fill="url(#paint21_linear_232_496)" style="mix-blend-mode:multiply"/>
<path d="M1074.39 476.006H1063.21V700.259H1074.39V476.006Z" fill="url(#paint22_linear_232_496)" style="mix-blend-mode:multiply"/>
<path d="M1159.53 274.943H1148.35V700.26H1159.53V274.943Z" fill="url(#paint23_linear_232_496)" style="mix-blend-mode:multiply"/>
<path d="M1212.74 388.922H1201.56V700.259H1212.74V388.922Z" fill="url(#paint24_linear_232_496)" style="mix-blend-mode:multiply"/>
<path d="M1265.95 464.151H1254.78V700.259H1265.95V464.151Z" fill="url(#paint25_linear_232_496)" style="mix-blend-mode:multiply"/>
<path d="M1319.16 157.883H1307.98V700.259H1319.16V157.883Z" fill="url(#paint26_linear_232_496)" style="mix-blend-mode:multiply"/>
<path d="M1372.38 262.758H1361.2V700.26H1372.38V262.758Z" fill="url(#paint27_linear_232_496)" style="mix-blend-mode:multiply"/>
<path d="M1425.59 0.504883H1414.41V700.259H1425.59V0.504883Z" fill="url(#paint28_linear_232_496)" style="mix-blend-mode:multiply"/>
<path d="M1478.81 388.922H1467.63V700.259H1478.81V388.922Z" fill="url(#paint29_linear_232_496)" style="mix-blend-mode:multiply"/>
<path d="M978.853 407.452H967.674V700.259H978.853V407.452Z" fill="url(#paint30_linear_232_496)" style="mix-blend-mode:multiply"/>
<path d="M1117.71 464.151H1106.53V700.259H1117.71V464.151Z" fill="url(#paint31_linear_232_496)" style="mix-blend-mode:multiply"/>
</g>
<defs>
<linearGradient id="paint0_linear_232_496" x1="839.46" y1="255.849" x2="816.306" y2="256.957" gradientUnits="userSpaceOnUse">
<stop stop-color="#F6F4FF"/>
<stop offset="1" stop-color="#E5DDFA"/>
</linearGradient>
<linearGradient id="paint1_linear_232_496" x1="788.892" y1="272.063" x2="765.742" y2="273.213" gradientUnits="userSpaceOnUse">
<stop stop-color="#F6F4FF"/>
<stop offset="1" stop-color="#E5DDFA"/>
</linearGradient>
<linearGradient id="paint2_linear_232_496" x1="746.179" y1="302.854" x2="723.039" y2="304.092" gradientUnits="userSpaceOnUse">
<stop stop-color="#F6F4FF"/>
<stop offset="1" stop-color="#E5DDFA"/>
</linearGradient>
<linearGradient id="paint3_linear_232_496" x1="655.446" y1="373.291" x2="632.338" y2="374.794" gradientUnits="userSpaceOnUse">
<stop stop-color="#F6F4FF"/>
<stop offset="1" stop-color="#E5DDFA"/>
</linearGradient>
<linearGradient id="paint4_linear_232_496" x1="607.962" y1="431.316" x2="584.899" y2="433.139" gradientUnits="userSpaceOnUse">
<stop stop-color="#F6F4FF"/>
<stop offset="1" stop-color="#E5DDFA"/>
</linearGradient>
<linearGradient id="paint5_linear_232_496" x1="697.193" y1="330.882" x2="674.063" y2="332.214" gradientUnits="userSpaceOnUse">
<stop stop-color="#F6F4FF"/>
<stop offset="1" stop-color="#E5DDFA"/>
</linearGradient>
<linearGradient id="paint6_linear_232_496" x1="515.241" y1="532.373" x2="492.401" y2="535.266" gradientUnits="userSpaceOnUse">
<stop stop-color="#F6F4FF"/>
<stop offset="1" stop-color="#E5DDFA"/>
</linearGradient>
<linearGradient id="paint7_linear_232_496" x1="327.841" y1="402.829" x2="304.752" y2="404.48" gradientUnits="userSpaceOnUse">
<stop stop-color="#F6F4FF"/>
<stop offset="1" stop-color="#E5DDFA"/>
</linearGradient>
<linearGradient id="paint8_linear_232_496" x1="419.253" y1="409.111" x2="396.17" y2="410.797" gradientUnits="userSpaceOnUse">
<stop stop-color="#F6F4FF"/>
<stop offset="1" stop-color="#E5DDFA"/>
</linearGradient>
<linearGradient id="paint9_linear_232_496" x1="190.355" y1="409.111" x2="167.271" y2="410.797" gradientUnits="userSpaceOnUse">
<stop stop-color="#F6F4FF"/>
<stop offset="1" stop-color="#E5DDFA"/>
</linearGradient>
<linearGradient id="paint10_linear_232_496" x1="281.472" y1="561.192" x2="258.795" y2="564.66" gradientUnits="userSpaceOnUse">
<stop stop-color="#F6F4FF"/>
<stop offset="1" stop-color="#E5DDFA"/>
</linearGradient>
<linearGradient id="paint11_linear_232_496" x1="140.151" y1="458.338" x2="117.123" y2="460.363" gradientUnits="userSpaceOnUse">
<stop stop-color="#F6F4FF"/>
<stop offset="1" stop-color="#E5DDFA"/>
</linearGradient>
<linearGradient id="paint12_linear_232_496" x1="98.4817" y1="576.75" x2="75.943" y2="580.631" gradientUnits="userSpaceOnUse">
<stop stop-color="#F6F4FF"/>
<stop offset="1" stop-color="#E5DDFA"/>
</linearGradient>
<linearGradient id="paint13_linear_232_496" x1="48.3527" y1="645.466" x2="28.1845" y2="653.294" gradientUnits="userSpaceOnUse">
<stop stop-color="#F6F4FF"/>
<stop offset="1" stop-color="#E5DDFA"/>
</linearGradient>
<linearGradient id="paint14_linear_232_496" x1="8.48738" y1="645.466" x2="-11.6807" y2="653.294" gradientUnits="userSpaceOnUse">
<stop stop-color="#F6F4FF"/>
<stop offset="1" stop-color="#E5DDFA"/>
</linearGradient>
<linearGradient id="paint15_linear_232_496" x1="375.599" y1="347.43" x2="352.476" y2="348.823" gradientUnits="userSpaceOnUse">
<stop stop-color="#F6F4FF"/>
<stop offset="1" stop-color="#E5DDFA"/>
</linearGradient>
<linearGradient id="paint16_linear_232_496" x1="470.581" y1="621.036" x2="448.934" y2="626.847" gradientUnits="userSpaceOnUse">
<stop stop-color="#F6F4FF"/>
<stop offset="1" stop-color="#E5DDFA"/>
</linearGradient>
<linearGradient id="paint17_linear_232_496" x1="236.98" y1="621.036" x2="215.333" y2="626.847" gradientUnits="userSpaceOnUse">
<stop stop-color="#F6F4FF"/>
<stop offset="1" stop-color="#E5DDFA"/>
</linearGradient>
<linearGradient id="paint18_linear_232_496" x1="923.948" y1="347.43" x2="900.826" y2="348.823" gradientUnits="userSpaceOnUse">
<stop stop-color="#F6F4FF"/>
<stop offset="1" stop-color="#E5DDFA"/>
</linearGradient>
<linearGradient id="paint19_linear_232_496" x1="881.7" y1="278.964" x2="858.552" y2="280.133" gradientUnits="userSpaceOnUse">
<stop stop-color="#F6F4FF"/>
<stop offset="1" stop-color="#E5DDFA"/>
</linearGradient>
<linearGradient id="paint20_linear_232_496" x1="1028.38" y1="481.414" x2="1005.39" y2="483.648" gradientUnits="userSpaceOnUse">
<stop stop-color="#F6F4FF"/>
<stop offset="1" stop-color="#E5DDFA"/>
</linearGradient>
<linearGradient id="paint21_linear_232_496" x1="560.486" y1="481.414" x2="537.496" y2="483.648" gradientUnits="userSpaceOnUse">
<stop stop-color="#F6F4FF"/>
<stop offset="1" stop-color="#E5DDFA"/>
</linearGradient>
<linearGradient id="paint22_linear_232_496" x1="1071.7" y1="472.465" x2="1048.69" y2="474.613" gradientUnits="userSpaceOnUse">
<stop stop-color="#F6F4FF"/>
<stop offset="1" stop-color="#E5DDFA"/>
</linearGradient>
<linearGradient id="paint23_linear_232_496" x1="1156.84" y1="268.228" x2="1133.68" y2="269.368" gradientUnits="userSpaceOnUse">
<stop stop-color="#F6F4FF"/>
<stop offset="1" stop-color="#E5DDFA"/>
</linearGradient>
<linearGradient id="paint24_linear_232_496" x1="1210.04" y1="384.006" x2="1186.94" y2="385.56" gradientUnits="userSpaceOnUse">
<stop stop-color="#F6F4FF"/>
<stop offset="1" stop-color="#E5DDFA"/>
</linearGradient>
<linearGradient id="paint25_linear_232_496" x1="1263.26" y1="460.423" x2="1240.24" y2="462.465" gradientUnits="userSpaceOnUse">
<stop stop-color="#F6F4FF"/>
<stop offset="1" stop-color="#E5DDFA"/>
</linearGradient>
<linearGradient id="paint26_linear_232_496" x1="1316.47" y1="149.319" x2="1293.3" y2="150.213" gradientUnits="userSpaceOnUse">
<stop stop-color="#F6F4FF"/>
<stop offset="1" stop-color="#E5DDFA"/>
</linearGradient>
<linearGradient id="paint27_linear_232_496" x1="1369.68" y1="255.85" x2="1346.53" y2="256.958" gradientUnits="userSpaceOnUse">
<stop stop-color="#F6F4FF"/>
<stop offset="1" stop-color="#E5DDFA"/>
</linearGradient>
<linearGradient id="paint28_linear_232_496" x1="1422.9" y1="-10.5439" x2="1399.72" y2="-9.85011" gradientUnits="userSpaceOnUse">
<stop stop-color="#F6F4FF"/>
<stop offset="1" stop-color="#E5DDFA"/>
</linearGradient>
<linearGradient id="paint29_linear_232_496" x1="1476.12" y1="384.006" x2="1453.02" y2="385.56" gradientUnits="userSpaceOnUse">
<stop stop-color="#F6F4FF"/>
<stop offset="1" stop-color="#E5DDFA"/>
</linearGradient>
<linearGradient id="paint30_linear_232_496" x1="976.161" y1="402.829" x2="953.072" y2="404.48" gradientUnits="userSpaceOnUse">
<stop stop-color="#F6F4FF"/>
<stop offset="1" stop-color="#E5DDFA"/>
</linearGradient>
<linearGradient id="paint31_linear_232_496" x1="1115.01" y1="460.423" x2="1091.99" y2="462.465" gradientUnits="userSpaceOnUse">
<stop stop-color="#F6F4FF"/>
<stop offset="1" stop-color="#E5DDFA"/>
</linearGradient>
</defs>
</svg>
