<svg width="733" height="766" viewBox="0 0 733 766" fill="none" xmlns="http://www.w3.org/2000/svg">
<path d="M182.639 552.658C182.639 552.658 31.1297 519.155 58.5363 432.424C90.7574 330.456 120.23 343.986 165.81 281.244C249.056 166.655 307.233 148.875 468.941 212.73C583.729 244.739 596.562 256.703 635.906 280.126C702.561 342.833 672.224 378.563 618.862 453.024C565.5 527.485 637.124 559.392 574.236 610.295C511.347 661.198 182.639 552.658 182.639 552.658Z" fill="#F6F4FF"/>
<g style="mix-blend-mode:multiply">
<g style="mix-blend-mode:multiply">
<path d="M480.019 244.889L143.246 332.579L210.742 567.127L547.514 479.436L480.019 244.889Z" fill="#A2A7D6"/>
</g>
</g>
<path d="M482.226 236.237L145.453 323.928L212.949 558.476L549.721 470.785L482.226 236.237Z" fill="#F5F5F5"/>
<path d="M451.77 266.442L334.204 297.055L336.026 303.385L453.591 272.772L451.77 266.442Z" fill="#949AAA"/>
<path d="M455.985 281.088L356.146 307.085L357.052 310.231L456.891 284.234L455.985 281.088Z" fill="#949AAA"/>
<path d="M458.591 290.15L341.025 320.763L341.931 323.909L459.496 293.297L458.591 290.15Z" fill="#949AAA"/>
<path d="M461.2 299.212L343.635 329.824L344.54 332.97L462.106 302.358L461.2 299.212Z" fill="#949AAA"/>
<path d="M463.808 308.273L346.242 338.886L347.148 342.032L464.713 311.42L463.808 308.273Z" fill="#949AAA"/>
<path d="M466.416 317.335L348.85 347.947L349.755 351.093L467.321 320.481L466.416 317.335Z" fill="#949AAA"/>
<path d="M469.156 326.861L351.591 357.474L352.496 360.62L470.062 330.008L469.156 326.861Z" fill="#949AAA"/>
<path d="M471.763 335.924L354.198 366.536L355.103 369.681L472.668 339.069L471.763 335.924Z" fill="#949AAA"/>
<path d="M444.168 352.851L356.808 375.598L357.713 378.744L445.073 355.996L444.168 352.851Z" fill="#949AAA"/>
<path d="M257.819 500.824L249.174 503.075L251.541 511.3L260.186 509.049L257.819 500.824Z" fill="#23C89A"/>
<path d="M285.814 496.264L266.234 501.363L267.14 504.509L286.719 499.41L285.814 496.264Z" fill="#917AFF"/>
<path d="M261.651 514.146L253.007 516.397L255.373 524.621L264.018 522.371L261.651 514.146Z" fill="#6045E2"/>
<path d="M314.71 503.061L270.07 514.685L270.976 517.83L315.615 506.207L314.71 503.061Z" fill="#917AFF"/>
<path d="M305.524 478.779L286.938 483.619L287.844 486.765L306.43 481.925L305.524 478.779Z" fill="#7867C8"/>
<path d="M220.566 435.279L217.633 436.043L233.057 489.63L235.991 488.866L220.566 435.279Z" fill="#54BAE2"/>
<path d="M229.765 456.284L226.83 457.049L235.989 488.865L238.924 488.101L229.765 456.284Z" fill="#F44D3B"/>
<path d="M233.543 440.902L230.607 441.666L243.618 486.88L246.554 486.116L233.543 440.902Z" fill="#54BAE2"/>
<path d="M238.408 446.836L235.475 447.599L246.548 486.117L249.481 485.354L238.408 446.836Z" fill="#F44D3B"/>
<path d="M249.888 458.246L246.953 459.009L254.173 484.131L257.107 483.368L249.888 458.246Z" fill="#54BAE2"/>
<path d="M251.253 452.058L248.318 452.823L257.117 483.365L260.052 482.6L251.253 452.058Z" fill="#F44D3B"/>
<path d="M257.401 444.907L254.468 445.671L264.742 481.378L267.676 480.615L257.401 444.907Z" fill="#54BAE2"/>
<path d="M267.823 470.17L264.89 470.934L267.675 480.615L270.609 479.851L267.823 470.17Z" fill="#F44D3B"/>
<path d="M264.586 430.419L261.652 431.183L275.307 478.629L278.241 477.865L264.586 430.419Z" fill="#54BAE2"/>
<path d="M265.913 424.072L262.979 424.836L278.245 477.864L281.179 477.099L265.913 424.072Z" fill="#F44D3B"/>
<path d="M280.774 447.205L277.84 447.969L285.869 475.879L288.803 475.115L280.774 447.205Z" fill="#54BAE2"/>
<path d="M277.447 424.669L274.514 425.432L288.796 475.116L291.73 474.353L277.447 424.669Z" fill="#F44D3B"/>
<path d="M289.242 437.198L286.308 437.963L296.433 473.129L299.367 472.364L289.242 437.198Z" fill="#54BAE2"/>
<path d="M292.864 438.824L289.931 439.589L299.37 472.363L302.303 471.599L292.864 438.824Z" fill="#F44D3B"/>
<path d="M303.83 448.418L300.895 449.183L306.994 470.377L309.929 469.613L303.83 448.418Z" fill="#54BAE2"/>
<path d="M308.31 453.028L305.375 453.792L309.925 469.614L312.86 468.85L308.31 453.028Z" fill="#F44D3B"/>
<path d="M317.116 455.141L314.183 455.905L317.557 467.627L320.49 466.863L317.116 455.141Z" fill="#75CF33"/>
<path d="M312.337 427.584L309.403 428.349L320.493 466.863L323.426 466.098L312.337 427.584Z" fill="#F2274D"/>
<path d="M318.846 421.69L315.912 422.454L328.125 464.876L331.058 464.112L318.846 421.69Z" fill="#75CF33"/>
<path d="M317.932 407.528L314.998 408.291L331.048 464.114L333.982 463.351L317.932 407.528Z" fill="#F2274D"/>
<path d="M334.064 435.128L331.131 435.893L338.685 462.127L341.618 461.362L334.064 435.128Z" fill="#75CF33"/>
<path d="M338.171 438.426L335.236 439.19L341.615 461.362L344.55 460.598L338.171 438.426Z" fill="#F2274D"/>
<path d="M347.681 442.983L344.748 443.747L349.246 459.376L352.179 458.612L347.681 442.983Z" fill="#75CF33"/>
<path d="M352.557 448.971L349.622 449.734L352.175 458.611L355.11 457.847L352.557 448.971Z" fill="#F2274D"/>
<path d="M221.641 386.069L212.996 388.32L215.363 396.544L224.008 394.294L221.641 386.069Z" fill="#317AB0"/>
<path d="M285.77 372.1L230.055 386.607L230.96 389.753L286.675 375.246L285.77 372.1Z" fill="#949AAA"/>
<path d="M225.474 399.392L216.828 401.643L219.194 409.866L227.84 407.616L225.474 399.392Z" fill="#F2274D"/>
<path d="M253.469 394.831L233.887 399.93L234.792 403.076L254.374 397.977L253.469 394.831Z" fill="#949AAA"/>
<path d="M229.309 412.713L220.664 414.964L223.031 423.187L231.675 420.936L229.309 412.713Z" fill="#FFD121"/>
<path d="M282.364 401.63L237.724 413.254L238.629 416.4L283.269 404.776L282.364 401.63Z" fill="#949AAA"/>
<path d="M271.866 361.809L253.28 366.648L254.186 369.794L272.771 364.955L271.866 361.809Z" fill="#949AAA"/>
<path d="M230.025 357.652L243.157 342.147L261.849 349.365L285.62 309.706L312.02 333.512L231.43 359.145L230.025 357.652Z" fill="#F2274D"/>
<path d="M318.709 326.192L306.793 315.35L277.955 334.014L256.392 329.617L242.971 355.313L215.715 352.081L208.539 367.895L320.124 337.91L318.709 326.192Z" fill="#FFD121"/>
<path d="M195.768 375.405L206.46 357.28L217.545 361.832L227.946 347.037L244.323 352.999L268.878 326.966L291.134 331.971L318.947 316.833L326.041 341.483L195.768 375.405Z" fill="#317AB0"/>
<path d="M402.573 463.134L393.928 465.385L396.294 473.609L404.94 471.358L402.573 463.134Z" fill="#6B2D6E"/>
<path d="M466.702 449.167L410.988 463.674L411.894 466.82L467.608 452.313L466.702 449.167Z" fill="#949AAA"/>
<path d="M406.407 476.456L397.761 478.707L400.127 486.931L408.773 484.68L406.407 476.456Z" fill="#F2274D"/>
<path d="M434.406 471.896L414.824 476.995L415.73 480.141L435.311 475.042L434.406 471.896Z" fill="#949AAA"/>
<path d="M446.542 440.502L427.957 445.342L428.862 448.488L447.447 443.649L446.542 440.502Z" fill="#949AAA"/>
<path d="M484.408 405.733C484.523 406.132 484.51 406.555 484.373 406.948C484.235 407.34 483.978 407.685 483.634 407.939C483.29 408.193 482.875 408.344 482.441 408.373C482.007 408.402 481.573 408.308 481.195 408.103C480.817 407.898 480.512 407.59 480.318 407.22C480.123 406.85 480.049 406.433 480.103 406.022C480.158 405.611 480.34 405.225 480.625 404.913C480.91 404.6 481.287 404.376 481.707 404.267C482.269 404.12 482.87 404.193 483.376 404.468C483.883 404.743 484.254 405.198 484.408 405.733Z" fill="#F2274D"/>
<path d="M461.974 397.911C462.089 398.311 462.077 398.734 461.94 399.127C461.802 399.519 461.545 399.865 461.201 400.118C460.857 400.372 460.441 400.523 460.007 400.553C459.573 400.582 459.139 400.488 458.761 400.283C458.383 400.077 458.077 399.77 457.883 399.399C457.689 399.029 457.614 398.612 457.669 398.201C457.724 397.79 457.905 397.404 458.191 397.091C458.477 396.779 458.853 396.554 459.273 396.445C459.836 396.299 460.436 396.371 460.943 396.646C461.449 396.921 461.82 397.376 461.974 397.911Z" fill="#F2274D"/>
<path d="M440.722 416.646C440.837 417.045 440.825 417.468 440.687 417.861C440.55 418.253 440.293 418.598 439.949 418.852C439.605 419.106 439.19 419.257 438.756 419.286C438.322 419.315 437.888 419.221 437.51 419.016C437.132 418.811 436.827 418.504 436.632 418.133C436.438 417.763 436.363 417.346 436.418 416.936C436.472 416.525 436.654 416.139 436.939 415.827C437.224 415.514 437.6 415.289 438.02 415.18C438.299 415.107 438.59 415.088 438.876 415.122C439.163 415.156 439.44 415.244 439.691 415.38C439.942 415.517 440.162 415.698 440.339 415.916C440.516 416.133 440.646 416.381 440.722 416.646Z" fill="#F2274D"/>
<path d="M422.664 414.749C422.779 415.148 422.766 415.571 422.629 415.964C422.491 416.356 422.234 416.702 421.89 416.955C421.546 417.209 421.131 417.36 420.697 417.389C420.263 417.419 419.829 417.325 419.451 417.12C419.073 416.915 418.768 416.608 418.573 416.237C418.378 415.867 418.304 415.45 418.358 415.039C418.413 414.629 418.594 414.243 418.879 413.93C419.164 413.617 419.541 413.392 419.96 413.283C420.239 413.21 420.53 413.19 420.817 413.224C421.104 413.259 421.381 413.346 421.632 413.483C421.883 413.619 422.103 413.801 422.28 414.018C422.457 414.235 422.588 414.484 422.664 414.749Z" fill="#F2274D"/>
<path d="M417.31 429.884C417.425 430.283 417.413 430.706 417.276 431.099C417.138 431.492 416.882 431.837 416.538 432.092C416.194 432.346 415.779 432.497 415.345 432.526C414.91 432.556 414.477 432.462 414.098 432.257C413.72 432.052 413.414 431.745 413.22 431.375C413.025 431.004 412.95 430.587 413.005 430.176C413.059 429.766 413.241 429.379 413.526 429.067C413.811 428.754 414.188 428.529 414.608 428.419C415.17 428.273 415.771 428.346 416.277 428.62C416.784 428.895 417.155 429.349 417.31 429.884Z" fill="#F2274D"/>
<path d="M391.717 430.764C391.832 431.163 391.82 431.586 391.682 431.979C391.545 432.371 391.288 432.717 390.944 432.97C390.601 433.224 390.185 433.375 389.751 433.405C389.317 433.434 388.884 433.341 388.506 433.136C388.128 432.931 387.822 432.624 387.627 432.254C387.432 431.884 387.357 431.467 387.412 431.057C387.466 430.646 387.647 430.26 387.932 429.947C388.217 429.634 388.593 429.409 389.012 429.299C389.575 429.152 390.176 429.224 390.684 429.499C391.191 429.774 391.562 430.229 391.717 430.764Z" fill="#F2274D"/>
<path d="M377.138 445.065C377.253 445.464 377.241 445.887 377.104 446.279C376.966 446.672 376.709 447.017 376.365 447.271C376.022 447.525 375.607 447.676 375.172 447.705C374.738 447.734 374.305 447.641 373.927 447.436C373.549 447.231 373.243 446.924 373.049 446.554C372.854 446.183 372.779 445.767 372.834 445.356C372.888 444.945 373.069 444.559 373.354 444.246C373.639 443.934 374.016 443.708 374.435 443.599C374.714 443.526 375.005 443.506 375.292 443.541C375.578 443.575 375.855 443.663 376.106 443.799C376.357 443.935 376.578 444.117 376.755 444.334C376.932 444.551 377.062 444.8 377.138 445.065Z" fill="#6B2D6E"/>
<path d="M386.1 403.868C386.215 404.267 386.203 404.69 386.065 405.083C385.927 405.476 385.67 405.821 385.326 406.075C384.982 406.329 384.567 406.48 384.133 406.509C383.699 406.538 383.265 406.445 382.887 406.239C382.509 406.034 382.203 405.727 382.009 405.357C381.814 404.987 381.739 404.57 381.794 404.159C381.848 403.748 382.029 403.362 382.315 403.049C382.6 402.736 382.976 402.511 383.396 402.402C383.675 402.329 383.966 402.309 384.253 402.344C384.539 402.378 384.816 402.466 385.067 402.602C385.318 402.738 385.539 402.92 385.716 403.137C385.893 403.354 386.024 403.603 386.1 403.868Z" fill="#6B2D6E"/>
<path d="M410.203 417.993C410.318 418.392 410.305 418.815 410.167 419.207C410.029 419.599 409.772 419.944 409.428 420.197C409.085 420.451 408.67 420.602 408.236 420.63C407.802 420.659 407.369 420.565 406.991 420.36C406.613 420.155 406.308 419.848 406.114 419.478C405.92 419.108 405.846 418.691 405.9 418.281C405.955 417.87 406.137 417.484 406.422 417.172C406.707 416.86 407.083 416.635 407.503 416.526C407.781 416.454 408.072 416.434 408.359 416.469C408.645 416.503 408.922 416.591 409.173 416.727C409.423 416.864 409.643 417.046 409.82 417.263C409.997 417.48 410.127 417.728 410.203 417.993Z" fill="#6B2D6E"/>
<path d="M424.207 393.808C424.322 394.207 424.31 394.629 424.172 395.022C424.034 395.415 423.777 395.76 423.434 396.013C423.09 396.267 422.675 396.418 422.241 396.447C421.806 396.477 421.373 396.383 420.995 396.178C420.617 395.972 420.312 395.665 420.117 395.295C419.923 394.925 419.848 394.508 419.903 394.097C419.958 393.686 420.139 393.3 420.425 392.988C420.71 392.675 421.087 392.451 421.506 392.342C422.069 392.195 422.669 392.268 423.176 392.543C423.682 392.817 424.053 393.273 424.207 393.808Z" fill="#6B2D6E"/>
<path d="M441.01 403.97C441.125 404.369 441.113 404.792 440.976 405.185C440.839 405.577 440.582 405.923 440.238 406.176C439.894 406.43 439.479 406.582 439.045 406.611C438.611 406.641 438.178 406.547 437.8 406.343C437.421 406.138 437.115 405.831 436.921 405.461C436.726 405.091 436.65 404.674 436.705 404.263C436.759 403.853 436.94 403.466 437.224 403.153C437.509 402.84 437.885 402.615 438.305 402.505C438.868 402.358 439.469 402.43 439.976 402.705C440.484 402.98 440.855 403.435 441.01 403.97Z" fill="#6B2D6E"/>
<path d="M451.2 378.517C451.315 378.916 451.303 379.339 451.165 379.732C451.028 380.124 450.771 380.47 450.427 380.723C450.083 380.977 449.668 381.128 449.234 381.158C448.8 381.187 448.366 381.093 447.988 380.888C447.61 380.683 447.304 380.376 447.11 380.006C446.915 379.635 446.841 379.218 446.895 378.808C446.95 378.397 447.131 378.011 447.417 377.698C447.702 377.386 448.078 377.161 448.498 377.052C449.061 376.905 449.661 376.978 450.168 377.252C450.674 377.527 451.046 377.982 451.2 378.517Z" fill="#6B2D6E"/>
<path d="M470.517 385.947C470.632 386.347 470.62 386.77 470.483 387.163C470.345 387.556 470.088 387.901 469.745 388.155C469.401 388.41 468.985 388.561 468.551 388.59C468.117 388.62 467.683 388.526 467.304 388.321C466.926 388.116 466.62 387.808 466.426 387.438C466.231 387.067 466.156 386.65 466.211 386.239C466.265 385.828 466.447 385.442 466.732 385.129C467.018 384.816 467.394 384.591 467.814 384.482C468.377 384.336 468.978 384.408 469.484 384.683C469.991 384.958 470.362 385.413 470.517 385.947Z" fill="#6B2D6E"/>
<path d="M483.961 378.386C484.075 378.786 484.063 379.208 483.925 379.601C483.788 379.994 483.531 380.338 483.187 380.592C482.843 380.846 482.428 380.997 481.994 381.026C481.56 381.055 481.126 380.961 480.748 380.756C480.37 380.551 480.065 380.244 479.871 379.874C479.676 379.503 479.601 379.087 479.656 378.676C479.711 378.265 479.892 377.879 480.177 377.567C480.462 377.254 480.839 377.029 481.258 376.92C481.537 376.847 481.828 376.828 482.115 376.862C482.401 376.897 482.678 376.984 482.929 377.121C483.18 377.257 483.4 377.439 483.577 377.656C483.754 377.873 483.885 378.121 483.961 378.386Z" fill="#6B2D6E"/>
<path d="M375.532 446.157L374.099 445.864L383.665 403.412L407.711 417.601L422.099 393.598L438.57 403.657L447.88 378.228L468.704 386.055L481.374 378.522L482.153 379.704L468.854 387.612L448.762 380.059L439.344 405.787L422.608 395.567L408.233 419.55L384.662 405.641L375.532 446.157Z" fill="#6B2D6E"/>
<path d="M379.385 451.33C379.5 451.729 379.487 452.151 379.349 452.544C379.211 452.936 378.954 453.281 378.611 453.534C378.267 453.788 377.852 453.939 377.418 453.968C376.984 453.997 376.551 453.903 376.173 453.697C375.795 453.492 375.49 453.185 375.296 452.815C375.102 452.445 375.027 452.028 375.082 451.618C375.137 451.207 375.318 450.821 375.603 450.509C375.889 450.197 376.265 449.972 376.684 449.863C376.963 449.79 377.254 449.771 377.54 449.805C377.827 449.84 378.103 449.928 378.354 450.064C378.605 450.2 378.825 450.382 379.002 450.599C379.179 450.817 379.309 451.065 379.385 451.33Z" fill="#F2274D"/>
<path d="M377.387 453.084L376.113 452.393L388.758 430.615L414.834 429.785L420.217 414.48L437.947 417.192L459.617 397.033L482.324 405.873L481.768 407.165L459.952 398.672L438.446 418.681L421.188 416.041L415.881 431.145L389.628 431.981L377.387 453.084Z" fill="#F2274D"/>
<g style="mix-blend-mode:multiply">
<path d="M599.042 218.088L356.775 182.056L345.172 246.093L345.126 246.342L301.191 489.355L552.584 531.184L604.319 219.092L599.042 218.088Z" fill="#9196C0"/>
</g>
<path d="M366.732 179.302L311.148 486.077L547.274 524.789L602.858 218.014L366.732 179.302Z" fill="#F1F2F2"/>
<path d="M360.938 211.296L355.087 243.589L591.212 282.3L597.063 250.008L360.938 211.296Z" fill="#7867C8"/>
<path d="M419.537 198.989L417.731 208.953L563.454 232.844L565.259 222.879L419.537 198.989Z" fill="#7867C8"/>
<path d="M412.739 240.124L411.722 245.736L556.162 269.417L557.179 263.804L412.739 240.124Z" fill="white"/>
<path d="M397.179 226.537L396.162 232.15L575.605 261.569L576.622 255.956L397.179 226.537Z" fill="white"/>
<path d="M315.485 462.149L314.724 466.354L550.848 505.066L551.61 500.861L315.485 462.149Z" fill="#7867C8"/>
<path d="M431.202 330.862L432.173 375.175C440.578 374.718 448.752 372.381 456.029 368.353L431.202 330.862Z" fill="#6B2D6E"/>
<path d="M433.095 326.739L459.339 366.368C470.798 358.953 478.785 347.598 481.618 334.693L433.095 326.739Z" fill="#FFD121"/>
<path d="M482.282 331.025C484.095 318.246 480.758 305.287 472.939 294.752C465.121 284.218 453.401 276.888 440.134 274.236L431.357 322.676L482.282 331.025Z" fill="#75CF33"/>
<path d="M427.22 327.912L387.763 356.757C395.92 366.154 407.352 372.452 419.98 374.505C422.715 374.953 425.482 375.201 428.257 375.246L427.22 327.912Z" fill="#F2274D"/>
<path d="M376.207 315.523C374.458 325.084 375.624 334.921 379.568 343.871L381.209 347.25C382.426 349.53 383.82 351.721 385.379 353.805L427.178 323.831L427.344 322.914L430.939 303.075L436.278 273.604C422.508 271.835 408.553 275.215 397.35 283.033C386.146 290.851 378.567 302.498 376.207 315.523Z" fill="#317AB0"/>
<path d="M375.573 383.225L364.086 446.622L375.779 448.539L387.267 385.142L375.573 383.225Z" fill="#2E97CC"/>
<path d="M389.632 407.673L382.04 449.566L393.732 451.484L401.324 409.59L389.632 407.673Z" fill="#BCD81A"/>
<path d="M405.337 422.431L399.89 452.493L411.581 454.41L417.028 424.348L405.337 422.431Z" fill="#FFC022"/>
<path d="M421.481 434.464L417.686 455.411L429.379 457.328L433.174 436.381L421.481 434.464Z" fill="#8A379B"/>
<path d="M441.971 422.838L435.54 458.337L447.234 460.254L453.665 424.755L441.971 422.838Z" fill="#F44D3B"/>
<path d="M501.401 307.889L500.081 315.172L507.737 316.427L509.057 309.144L501.401 307.889Z" fill="#317AB0"/>
<path d="M515.453 312.509L514.948 315.295L564.29 323.384L564.795 320.598L515.453 312.509Z" fill="#917AFF"/>
<path d="M499.262 319.687L497.942 326.969L505.599 328.224L506.918 320.942L499.262 319.687Z" fill="#75CF33"/>
<path d="M513.317 324.307L512.812 327.093L530.153 329.936L530.658 327.149L513.317 324.307Z" fill="#917AFF"/>
<path d="M497.123 331.486L495.804 338.769L503.46 340.024L504.78 332.741L497.123 331.486Z" fill="#FFD121"/>
<path d="M511.181 336.104L510.676 338.891L550.208 345.372L550.713 342.585L511.181 336.104Z" fill="#917AFF"/>
<path d="M494.983 343.283L493.663 350.566L501.32 351.821L502.64 344.538L494.983 343.283Z" fill="#6B2D6E"/>
<path d="M509.04 347.902L508.535 350.688L538.021 355.523L538.525 352.737L509.04 347.902Z" fill="#917AFF"/>
<path d="M492.801 355.338L491.481 362.621L499.138 363.877L500.458 356.594L492.801 355.338Z" fill="#F2274D"/>
<path d="M506.856 359.957L506.352 362.743L551.081 370.076L551.586 367.29L506.856 359.957Z" fill="#917AFF"/>
<path d="M362.74 289.189C362.614 289.882 362.276 290.524 361.767 291.034C361.257 291.544 360.601 291.899 359.88 292.054C359.158 292.209 358.405 292.157 357.715 291.905C357.025 291.652 356.429 291.211 356.003 290.636C355.576 290.062 355.339 289.38 355.32 288.677C355.301 287.974 355.501 287.281 355.896 286.687C356.291 286.092 356.862 285.623 357.538 285.337C358.213 285.051 358.963 284.962 359.691 285.082C360.668 285.243 361.538 285.765 362.109 286.535C362.681 287.305 362.907 288.26 362.74 289.189Z" fill="#3D2B93"/>
<path d="M346.059 381.26C345.934 381.953 345.596 382.595 345.087 383.105C344.578 383.615 343.921 383.97 343.2 384.125C342.479 384.28 341.726 384.229 341.036 383.976C340.346 383.724 339.75 383.283 339.323 382.709C338.897 382.135 338.659 381.453 338.64 380.75C338.621 380.047 338.821 379.354 339.216 378.76C339.61 378.165 340.181 377.695 340.857 377.41C341.532 377.124 342.282 377.035 343.01 377.154C343.987 377.315 344.856 377.837 345.428 378.607C346 379.377 346.227 380.331 346.059 381.26Z" fill="#3D2B93"/>
<path d="M476.659 399.799L475.644 405.404L547.305 417.153L548.32 411.548L476.659 399.799Z" fill="#7867C8"/>
<path d="M485.117 414.54L484.612 417.327L545.468 427.304L545.973 424.517L485.117 414.54Z" fill="#917AFF"/>
<path d="M472.855 420.793L472.35 423.581L544.011 435.329L544.516 432.542L472.855 420.793Z" fill="#917AFF"/>
<path d="M471.401 428.819L470.896 431.605L542.558 443.353L543.063 440.568L471.401 428.819Z" fill="#917AFF"/>
<path d="M469.948 436.845L469.443 439.632L541.105 451.381L541.61 448.594L469.948 436.845Z" fill="#917AFF"/>
<path d="M468.492 444.87L467.987 447.656L539.649 459.404L540.154 456.619L468.492 444.87Z" fill="#917AFF"/>
<path d="M467.039 452.895L466.534 455.681L519.783 464.412L520.288 461.625L467.039 452.895Z" fill="#917AFF"/>
<path d="M410.131 381.997L409.626 384.783L426.085 387.481L426.59 384.695L410.131 381.997Z" fill="#949AAA"/>
<path d="M396.232 458.712L395.728 461.498L412.187 464.196L412.692 461.41L396.232 458.712Z" fill="#5A5A7A"/>
<g style="mix-blend-mode:multiply">
<path d="M182.664 146.554L152.221 398.767L521.945 430.937L538.131 177.448L182.664 146.554Z" fill="#9196C0"/>
</g>
<path d="M181.784 145.439L158.898 393.298L514.784 423.031L537.67 175.172L181.784 145.439Z" fill="#F6F4FF"/>
<path d="M372.922 183.476L372.305 190.165L496.542 200.545L497.16 193.856L372.922 183.476Z" fill="#7867C8"/>
<path d="M390.225 200.517L389.918 203.842L495.423 212.656L495.73 209.332L390.225 200.517Z" fill="#917AFF"/>
<path d="M370.611 208.528L370.304 211.854L494.541 222.233L494.848 218.908L370.611 208.528Z" fill="#917AFF"/>
<path d="M369.728 218.105L369.421 221.43L493.658 231.809L493.965 228.485L369.728 218.105Z" fill="#917AFF"/>
<path d="M368.844 227.68L368.537 231.005L492.775 241.384L493.082 238.059L368.844 227.68Z" fill="#917AFF"/>
<path d="M367.955 237.256L367.648 240.58L491.886 250.96L492.192 247.635L367.955 237.256Z" fill="#917AFF"/>
<path d="M367.027 247.322L366.72 250.647L490.957 261.027L491.264 257.701L367.027 247.322Z" fill="#917AFF"/>
<path d="M366.143 256.9L365.836 260.225L490.072 270.604L490.379 267.28L366.143 256.9Z" fill="#917AFF"/>
<path d="M365.259 266.476L364.952 269.8L457.271 277.513L457.578 274.188L365.259 266.476Z" fill="#917AFF"/>
<path d="M214.353 352.394L213.551 361.084L222.686 361.847L223.488 353.157L214.353 352.394Z" fill="#75CF33"/>
<path d="M231.362 356.517L231.055 359.842L251.746 361.571L252.053 358.246L231.362 356.517Z" fill="#949AAA"/>
<path d="M213.055 366.469L212.252 375.161L221.387 375.925L222.19 367.233L213.055 366.469Z" fill="#F2274D"/>
<path d="M230.061 370.596L229.754 373.92L276.928 377.861L277.234 374.537L230.061 370.596Z" fill="#949AAA"/>
<path d="M257.863 346.496L257.556 349.821L277.196 351.461L277.503 348.137L257.863 346.496Z" fill="#5A5A7A"/>
<path d="M209.147 277.416L203.918 334.044L207.018 334.303L212.247 277.675L209.147 277.416Z" fill="#BCD81A"/>
<path d="M210.124 300.68L207.02 334.303L210.121 334.562L213.225 300.939L210.124 300.68Z" fill="#F95130"/>
<path d="M219.493 287.195L215.074 334.975L218.177 335.234L222.596 287.455L219.493 287.195Z" fill="#BCD81A"/>
<path d="M221.94 294.533L218.176 335.235L221.276 335.494L225.04 294.793L221.94 294.533Z" fill="#F95130"/>
<path d="M228.694 309.364L226.242 335.908L229.342 336.168L231.794 309.623L228.694 309.364Z" fill="#BCD81A"/>
<path d="M232.318 303.891L229.34 336.168L232.442 336.427L235.421 304.15L232.318 303.891Z" fill="#F95130"/>
<path d="M240.881 299.107L237.406 336.842L240.507 337.1L243.982 299.366L240.881 299.107Z" fill="#BCD81A"/>
<path d="M241.446 326.87L240.503 337.1L243.602 337.358L244.545 327.129L241.446 326.87Z" fill="#F95130"/>
<path d="M253.193 287.634L248.57 337.774L251.67 338.032L256.293 287.892L253.193 287.634Z" fill="#BCD81A"/>
<path d="M256.84 281.995L251.665 338.033L254.766 338.293L259.941 282.254L256.84 281.995Z" fill="#F95130"/>
<path d="M262.457 309.212L259.725 338.705L262.825 338.965L265.557 309.472L262.457 309.212Z" fill="#BCD81A"/>
<path d="M267.677 286.467L262.827 338.967L265.927 339.226L270.776 286.727L267.677 286.467Z" fill="#F95130"/>
<path d="M274.32 302.478L270.893 339.641L273.994 339.9L277.421 302.737L274.32 302.478Z" fill="#BCD81A"/>
<path d="M277.19 305.262L273.989 339.899L277.089 340.158L280.291 305.521L277.19 305.262Z" fill="#F95130"/>
<path d="M284.12 318.175L282.055 340.573L285.157 340.831L287.222 318.434L284.12 318.175Z" fill="#BCD81A"/>
<path d="M286.702 324.111L285.151 340.83L288.252 341.09L289.803 324.371L286.702 324.111Z" fill="#F95130"/>
<path d="M294.362 329.116L293.219 341.504L296.318 341.763L297.461 329.375L294.362 329.116Z" fill="#BCD81A"/>
<path d="M300.071 301.062L296.312 341.764L299.412 342.023L303.171 301.321L300.071 301.062Z" fill="#F95130"/>
<path d="M308.523 297.606L304.371 342.436L307.472 342.696L311.624 297.866L308.523 297.606Z" fill="#BCD81A"/>
<path d="M312.923 283.71L307.479 342.698L310.579 342.956L316.023 283.969L312.923 283.71Z" fill="#F95130"/>
<path d="M318.095 315.647L315.541 343.371L318.643 343.63L321.197 315.905L318.095 315.647Z" fill="#BCD81A"/>
<path d="M320.802 320.199L318.639 343.628L321.739 343.887L323.903 320.458L320.802 320.199Z" fill="#F95130"/>
<path d="M328.226 327.786L326.703 344.302L329.802 344.561L331.325 328.044L328.226 327.786Z" fill="#BCD81A"/>
<path d="M330.67 335.181L329.804 344.561L332.905 344.82L333.772 335.44L330.67 335.181Z" fill="#F95130"/>
<path d="M222.529 230.057L221.727 238.748L230.862 239.511L231.665 230.821L222.529 230.057Z" fill="#23C89A"/>
<path d="M239.535 234.182L239.229 237.506L298.105 242.425L298.412 239.101L239.535 234.182Z" fill="#917AFF"/>
<path d="M221.224 244.136L220.422 252.826L229.557 253.589L230.36 244.899L221.224 244.136Z" fill="#6045E2"/>
<path d="M238.236 248.26L237.929 251.585L258.622 253.314L258.929 249.989L238.236 248.26Z" fill="#917AFF"/>
<path d="M219.927 258.214L219.125 266.904L228.261 267.667L229.063 258.977L219.927 258.214Z" fill="#3D2B93"/>
<path d="M236.932 262.339L236.625 265.664L283.799 269.605L284.106 266.28L236.932 262.339Z" fill="#917AFF"/>
<path d="M269.276 222.886L268.969 226.21L288.609 227.851L288.916 224.527L269.276 222.886Z" fill="#7867C8"/>
<path d="M367.319 365.172L366.517 373.862L375.652 374.625L376.454 365.934L367.319 365.172Z" fill="#6B2D6E"/>
<path d="M384.332 369.297L384.025 372.621L442.9 377.54L443.207 374.216L384.332 369.297Z" fill="#949AAA"/>
<path d="M366.021 379.25L365.219 387.94L374.354 388.704L375.157 380.013L366.021 379.25Z" fill="#F2274D"/>
<path d="M383.031 383.376L382.725 386.7L403.417 388.428L403.724 385.104L383.031 383.376Z" fill="#949AAA"/>
<path d="M407.462 357.449L407.155 360.773L426.795 362.414L427.102 359.089L407.462 357.449Z" fill="#5A5A7A"/>
<path d="M472.767 339.276C472.701 339.276 472.634 339.273 472.567 339.269C472.227 339.244 471.896 339.156 471.592 339.01C471.289 338.863 471.018 338.661 470.796 338.415C470.575 338.169 470.406 337.884 470.3 337.576C470.194 337.268 470.153 336.944 470.18 336.621C470.232 336.002 470.526 335.425 471.005 335.004C471.483 334.582 472.11 334.347 472.762 334.344C472.829 334.344 472.895 334.346 472.963 334.351C473.631 334.4 474.253 334.693 474.699 335.169C475.145 335.645 475.379 336.266 475.354 336.903C475.329 337.54 475.045 338.143 474.563 338.585C474.081 339.027 473.437 339.275 472.767 339.276Z" fill="#FF365C"/>
<path d="M472.762 334.72C472.819 334.72 472.875 334.722 472.933 334.726C473.499 334.767 474.027 335.016 474.404 335.419C474.782 335.822 474.982 336.349 474.96 336.889C474.939 337.429 474.698 337.94 474.29 338.315C473.881 338.69 473.335 338.9 472.767 338.901C472.711 338.901 472.654 338.899 472.597 338.895C472.031 338.853 471.503 338.605 471.125 338.202C470.746 337.799 470.547 337.272 470.568 336.732C470.59 336.192 470.83 335.68 471.239 335.305C471.648 334.93 472.194 334.72 472.762 334.72ZM472.762 333.969C472.011 333.972 471.288 334.243 470.737 334.729C470.186 335.215 469.847 335.88 469.786 336.592C469.756 336.964 469.803 337.339 469.925 337.693C470.047 338.048 470.241 338.377 470.497 338.66C470.752 338.943 471.064 339.176 471.414 339.345C471.764 339.513 472.146 339.615 472.537 339.643C472.614 339.649 472.691 339.651 472.767 339.651C473.519 339.648 474.241 339.376 474.792 338.89C475.343 338.404 475.682 337.739 475.742 337.026C475.803 336.275 475.547 335.532 475.032 334.96C474.516 334.388 473.783 334.035 472.993 333.977C472.916 333.972 472.839 333.969 472.762 333.969Z" fill="#FF365C"/>
<path d="M454.431 324.736C454.365 324.736 454.298 324.733 454.231 324.728C453.563 324.68 452.94 324.387 452.493 323.911C452.047 323.435 451.811 322.813 451.837 322.176C451.862 321.538 452.146 320.935 452.629 320.492C453.113 320.05 453.757 319.803 454.428 319.803C454.494 319.803 454.56 319.805 454.627 319.81C455.295 319.86 455.917 320.153 456.362 320.629C456.808 321.104 457.043 321.726 457.017 322.362C456.992 322.999 456.708 323.602 456.226 324.044C455.744 324.487 455.101 324.734 454.431 324.736Z" fill="#FF365C"/>
<path d="M454.427 320.178C454.484 320.178 454.54 320.18 454.597 320.185C455.163 320.227 455.69 320.475 456.068 320.879C456.446 321.282 456.645 321.808 456.623 322.348C456.602 322.888 456.362 323.399 455.953 323.774C455.545 324.149 454.999 324.359 454.432 324.36C454.375 324.36 454.319 324.358 454.262 324.354C453.695 324.313 453.167 324.065 452.788 323.661C452.41 323.258 452.21 322.731 452.232 322.19C452.253 321.65 452.494 321.138 452.903 320.763C453.313 320.388 453.859 320.179 454.427 320.178ZM454.427 319.428C453.675 319.431 452.952 319.703 452.4 320.189C451.849 320.675 451.509 321.341 451.449 322.054C451.389 322.805 451.645 323.548 452.162 324.12C452.678 324.692 453.411 325.045 454.201 325.103C454.279 325.108 454.355 325.111 454.432 325.111C455.003 325.11 455.561 324.954 456.041 324.66C456.522 324.367 456.903 323.948 457.142 323.455C457.38 322.962 457.464 322.413 457.385 321.876C457.306 321.338 457.067 320.833 456.696 320.421C456.441 320.136 456.13 319.903 455.78 319.734C455.43 319.565 455.049 319.464 454.657 319.436C454.58 319.43 454.504 319.428 454.427 319.428Z" fill="#FF365C"/>
<path d="M427.815 335.555C427.749 335.555 427.682 335.553 427.615 335.548C426.929 335.498 426.293 335.191 425.845 334.695C425.398 334.199 425.176 333.554 425.228 332.902C425.28 332.283 425.575 331.706 426.053 331.284C426.531 330.862 427.158 330.626 427.811 330.623C427.877 330.623 427.944 330.626 428.011 330.63C428.679 330.679 429.302 330.972 429.748 331.447C430.194 331.923 430.429 332.545 430.404 333.182C430.379 333.819 430.095 334.422 429.612 334.865C429.13 335.307 428.486 335.555 427.815 335.555Z" fill="#FF365C"/>
<path d="M427.811 330.998C427.867 330.998 427.924 331 427.981 331.004C428.548 331.045 429.075 331.293 429.454 331.697C429.832 332.1 430.031 332.627 430.01 333.167C429.988 333.707 429.748 334.219 429.339 334.594C428.93 334.969 428.384 335.179 427.815 335.179C427.759 335.179 427.702 335.177 427.645 335.173C427.079 335.131 426.551 334.883 426.173 334.48C425.795 334.076 425.596 333.55 425.617 333.009C425.639 332.469 425.879 331.958 426.288 331.583C426.697 331.208 427.243 330.998 427.811 330.998ZM427.811 330.247H427.811C427.039 330.248 426.297 330.533 425.741 331.042C425.185 331.552 424.858 332.247 424.828 332.981C424.799 333.715 425.07 334.431 425.584 334.979C426.098 335.528 426.815 335.865 427.585 335.921C427.662 335.927 427.739 335.93 427.815 335.93C428.567 335.927 429.29 335.655 429.841 335.17C430.392 334.684 430.731 334.019 430.792 333.306C430.852 332.555 430.596 331.811 430.081 331.239C429.565 330.667 428.831 330.313 428.041 330.255C427.964 330.25 427.887 330.247 427.811 330.247Z" fill="#FF365C"/>
<path d="M411.497 327.987C411.43 327.987 411.363 327.984 411.296 327.979C410.957 327.955 410.626 327.867 410.322 327.721C410.018 327.574 409.748 327.373 409.526 327.127C409.305 326.881 409.136 326.596 409.03 326.288C408.925 325.98 408.884 325.656 408.91 325.333C408.962 324.715 409.256 324.137 409.735 323.715C410.213 323.294 410.84 323.058 411.492 323.055C411.558 323.055 411.625 323.057 411.692 323.062C412.378 323.112 413.014 323.419 413.461 323.916C413.909 324.412 414.13 325.058 414.078 325.71C414.026 326.328 413.732 326.905 413.254 327.326C412.776 327.748 412.149 327.984 411.497 327.987Z" fill="#FF365C"/>
<path d="M411.492 323.43C411.548 323.43 411.605 323.432 411.662 323.436C412.228 323.477 412.756 323.726 413.134 324.129C413.512 324.532 413.711 325.059 413.689 325.599C413.668 326.139 413.428 326.65 413.019 327.025C412.61 327.4 412.065 327.61 411.497 327.611C411.44 327.611 411.383 327.609 411.326 327.605C410.76 327.563 410.233 327.315 409.855 326.911C409.477 326.508 409.277 325.981 409.299 325.441C409.32 324.902 409.561 324.39 409.969 324.015C410.378 323.64 410.924 323.43 411.492 323.43ZM411.492 322.679C410.74 322.682 410.018 322.954 409.467 323.44C408.916 323.926 408.577 324.591 408.517 325.304C408.486 325.676 408.534 326.05 408.656 326.405C408.777 326.759 408.972 327.087 409.227 327.371C409.482 327.654 409.794 327.886 410.144 328.055C410.494 328.224 410.875 328.325 411.266 328.353C411.343 328.359 411.42 328.362 411.497 328.362C412.248 328.358 412.97 328.087 413.521 327.601C414.072 327.115 414.411 326.45 414.471 325.737C414.532 324.986 414.276 324.243 413.761 323.671C413.245 323.099 412.512 322.745 411.722 322.687C411.645 322.682 411.568 322.679 411.492 322.679Z" fill="#FF365C"/>
<path d="M401.101 340.511C401.035 340.511 400.969 340.508 400.902 340.503C400.233 340.455 399.611 340.163 399.164 339.687C398.718 339.211 398.482 338.589 398.508 337.952C398.533 337.315 398.817 336.712 399.3 336.269C399.783 335.827 400.427 335.58 401.098 335.58C401.164 335.58 401.23 335.583 401.297 335.587C401.966 335.636 402.588 335.928 403.035 336.404C403.481 336.88 403.716 337.502 403.691 338.139C403.665 338.776 403.382 339.379 402.899 339.821C402.416 340.264 401.772 340.511 401.101 340.511Z" fill="#FF365C"/>
<path d="M401.097 335.956C401.153 335.956 401.21 335.958 401.267 335.962C401.834 336.003 402.362 336.251 402.74 336.654C403.119 337.057 403.318 337.584 403.297 338.125C403.276 338.665 403.035 339.176 402.626 339.551C402.216 339.926 401.67 340.135 401.102 340.136C401.046 340.136 400.989 340.133 400.932 340.129C400.365 340.089 399.837 339.841 399.459 339.437C399.08 339.034 398.881 338.507 398.902 337.967C398.924 337.427 399.164 336.915 399.573 336.54C399.983 336.166 400.529 335.956 401.097 335.956ZM401.097 335.205H401.097C400.346 335.208 399.623 335.479 399.071 335.965C398.52 336.451 398.18 337.116 398.12 337.828C398.06 338.58 398.316 339.323 398.832 339.895C399.348 340.467 400.082 340.82 400.872 340.878C400.949 340.884 401.026 340.886 401.102 340.886C401.853 340.883 402.576 340.612 403.128 340.126C403.679 339.64 404.018 338.975 404.078 338.262C404.139 337.511 403.882 336.768 403.367 336.196C402.851 335.624 402.117 335.271 401.328 335.213C401.25 335.208 401.173 335.205 401.097 335.205Z" fill="#FF365C"/>
<path d="M376.715 333.142C376.649 333.142 376.582 333.14 376.515 333.135C376.176 333.11 375.845 333.022 375.541 332.876C375.237 332.73 374.967 332.528 374.745 332.282C374.523 332.036 374.355 331.751 374.249 331.444C374.143 331.136 374.102 330.811 374.128 330.488C374.18 329.87 374.474 329.293 374.953 328.871C375.431 328.449 376.058 328.214 376.711 328.211C376.777 328.211 376.844 328.213 376.911 328.218C377.58 328.266 378.203 328.559 378.649 329.035C379.096 329.511 379.331 330.133 379.306 330.77C379.28 331.407 378.996 332.011 378.513 332.453C378.03 332.895 377.386 333.142 376.715 333.142Z" fill="#FF365C"/>
<path d="M376.711 328.587C376.767 328.587 376.824 328.589 376.881 328.593C377.448 328.634 377.976 328.882 378.355 329.285C378.733 329.688 378.933 330.216 378.911 330.756C378.89 331.296 378.649 331.808 378.24 332.183C377.83 332.558 377.284 332.767 376.715 332.767C376.659 332.767 376.602 332.765 376.545 332.761C375.979 332.72 375.451 332.472 375.073 332.069C374.695 331.665 374.495 331.138 374.517 330.598C374.538 330.058 374.778 329.547 375.187 329.172C375.597 328.797 376.142 328.587 376.711 328.587ZM376.711 327.836H376.711C375.959 327.839 375.236 328.111 374.685 328.597C374.134 329.083 373.795 329.748 373.734 330.46C373.704 330.832 373.752 331.206 373.874 331.561C373.996 331.916 374.19 332.244 374.446 332.527C374.701 332.81 375.013 333.043 375.363 333.211C375.713 333.38 376.094 333.481 376.485 333.51C376.562 333.515 376.639 333.518 376.715 333.518C377.467 333.515 378.19 333.244 378.742 332.758C379.293 332.272 379.633 331.607 379.694 330.894C379.753 330.143 379.497 329.399 378.981 328.828C378.465 328.256 377.731 327.902 376.941 327.844C376.864 327.839 376.787 327.836 376.711 327.836Z" fill="#FF365C"/>
<path d="M356.495 333.085L381.023 295.443L398.716 316.601L420.745 298.625L432.631 313.297L450.329 292.423L467.306 306.586L482.082 303.516L482.563 305.611L466.677 308.912L450.607 295.508L432.589 316.76L420.413 301.726L398.408 319.679L381.252 299.162L358.412 334.216L356.495 333.085Z" fill="#7A3C7D"/>
<path d="M450.376 292.963L467.194 306.994L481.78 303.963L482.092 305.325L466.786 308.505L450.557 294.968L432.594 316.153L420.47 301.183L398.461 319.141L381.21 298.511L358.283 333.699L357.037 332.964L381.062 296.094L398.661 317.14L420.685 299.168L432.622 313.904L450.376 292.963ZM450.278 291.883L449.762 292.492L432.636 312.691L421.31 298.71L420.802 298.083L420.171 298.598L398.769 316.063L381.679 295.626L380.981 294.792L380.391 295.698L356.366 332.569L355.95 333.207L356.621 333.603L357.867 334.337L358.538 334.732L358.954 334.094L381.29 299.813L397.843 319.608L398.353 320.218L398.974 319.711L420.353 302.268L431.969 316.612L432.58 317.366L433.208 316.625L450.655 296.049L466.265 309.069L466.565 309.319L466.954 309.238L482.261 306.058L483.032 305.898L482.863 305.165L482.551 303.803L482.382 303.07L481.611 303.23L467.415 306.179L450.897 292.399L450.278 291.883Z" fill="#7A3C7D"/>
<path d="M357.843 348.542C357.776 348.542 357.709 348.54 357.642 348.535C357.303 348.51 356.972 348.422 356.668 348.275C356.365 348.129 356.094 347.927 355.873 347.681C355.651 347.435 355.483 347.15 355.378 346.842C355.272 346.534 355.231 346.21 355.258 345.887C355.31 345.269 355.604 344.692 356.082 344.27C356.559 343.849 357.186 343.613 357.838 343.61C357.904 343.61 357.971 343.612 358.038 343.617C358.724 343.667 359.36 343.974 359.807 344.47C360.255 344.967 360.477 345.612 360.424 346.264C360.372 346.882 360.078 347.459 359.6 347.881C359.122 348.303 358.495 348.539 357.843 348.542Z" fill="#FF365C"/>
<path d="M357.838 343.985C357.894 343.985 357.951 343.987 358.008 343.992C358.574 344.033 359.101 344.282 359.479 344.685C359.857 345.088 360.057 345.615 360.035 346.155C360.014 346.695 359.773 347.206 359.365 347.581C358.956 347.956 358.41 348.166 357.842 348.167C357.786 348.167 357.729 348.165 357.672 348.161C357.106 348.119 356.579 347.87 356.201 347.467C355.824 347.064 355.625 346.537 355.646 345.997C355.668 345.458 355.908 344.947 356.316 344.572C356.725 344.197 357.27 343.987 357.838 343.985ZM357.838 343.235C357.066 343.236 356.325 343.521 355.769 344.031C355.213 344.541 354.887 345.235 354.858 345.969C354.828 346.702 355.099 347.418 355.612 347.967C356.126 348.515 356.842 348.853 357.612 348.909C357.689 348.915 357.766 348.918 357.842 348.918C358.594 348.914 359.316 348.642 359.867 348.156C360.418 347.67 360.757 347.005 360.817 346.292C360.878 345.541 360.622 344.798 360.106 344.226C359.591 343.654 358.858 343.301 358.068 343.243C357.991 343.237 357.914 343.235 357.838 343.235Z" fill="#FF365C"/>
<path d="M357.499 347.622C357.447 347.618 357.396 347.605 357.349 347.582C357.302 347.56 357.261 347.529 357.227 347.491L356.274 346.433C356.206 346.358 356.172 346.261 356.18 346.163C356.187 346.064 356.235 345.973 356.312 345.907L375.913 329.471C375.964 329.428 376.026 329.398 376.093 329.385C376.16 329.372 376.229 329.375 376.294 329.395L400.856 336.883L411.165 324.415C411.223 324.345 411.305 324.296 411.396 324.279C411.488 324.261 411.583 324.275 411.665 324.318L427.211 332.454L454.549 320.507C454.619 320.477 454.697 320.466 454.773 320.477C454.849 320.488 454.92 320.52 454.977 320.569L473.207 336.154C473.285 336.22 473.331 336.314 473.337 336.413C473.343 336.512 473.307 336.61 473.237 336.684L472.259 337.721C472.189 337.796 472.091 337.84 471.987 337.846L471.965 337.846C471.868 337.846 471.774 337.812 471.701 337.75L454.379 322.941L427.302 334.774C427.246 334.799 427.185 334.81 427.123 334.808C427.062 334.806 427.001 334.79 426.947 334.762L411.938 326.908L401.81 339.166C401.773 339.211 401.726 339.247 401.672 339.272C401.618 339.297 401.559 339.31 401.5 339.31C401.459 339.31 401.418 339.304 401.379 339.292L376.6 331.737L357.788 347.528C357.716 347.589 357.623 347.622 357.526 347.622C357.517 347.622 357.508 347.622 357.499 347.622Z" fill="#FF365C"/>
<path d="M454.714 320.848L472.943 336.433L471.965 337.47L454.45 322.496L427.138 334.433L411.834 326.425L401.5 338.934L376.507 331.314L357.526 347.247L356.573 346.188L376.174 329.752L400.997 337.32L411.475 324.646L427.195 332.874L454.714 320.848ZM454.714 320.097C454.6 320.097 454.488 320.12 454.384 320.165L427.227 332.033L411.855 323.988C411.691 323.903 411.501 323.875 411.318 323.91C411.134 323.946 410.97 324.042 410.855 324.182L400.716 336.446L376.415 329.037C376.285 328.997 376.146 328.99 376.012 329.017C375.878 329.044 375.754 329.103 375.652 329.189L356.051 345.625C355.896 345.756 355.801 345.939 355.786 346.136C355.772 346.333 355.839 346.527 355.974 346.677L356.927 347.735C356.995 347.811 357.078 347.872 357.172 347.917C357.265 347.962 357.367 347.988 357.472 347.995C357.49 347.997 357.508 347.997 357.526 347.997C357.719 347.997 357.904 347.931 358.049 347.809L376.693 332.159L401.259 339.649C401.412 339.696 401.577 339.697 401.731 339.652C401.885 339.607 402.021 339.518 402.12 339.398L412.041 327.39L426.757 335.091C426.865 335.147 426.986 335.179 427.109 335.183C427.232 335.187 427.355 335.164 427.467 335.115L454.308 323.384L471.438 338.029C471.582 338.153 471.77 338.221 471.965 338.221C471.979 338.221 471.993 338.221 472.008 338.22C472.111 338.215 472.213 338.19 472.306 338.148C472.4 338.105 472.483 338.045 472.553 337.972L473.531 336.934C473.67 336.786 473.742 336.591 473.731 336.392C473.72 336.194 473.626 336.008 473.471 335.875L455.241 320.289C455.096 320.165 454.908 320.097 454.714 320.097Z" fill="#FF365C"/>
<path d="M250.482 205.313L267.895 191.427L284.098 208.223L318.145 173.797L343.079 210.074L251.236 207.549L250.482 205.313Z" fill="#23C89A"/>
<path d="M347.669 201.715L330.342 182.06L305.241 199.803L286.616 184.295L263.847 206.696L239.251 191.118L226.004 208.128L344.253 217.153L347.669 201.715Z" fill="#3D2B93"/>
<path d="M347.669 201.715L330.342 182.06L305.241 199.803L286.616 184.295L263.847 206.696L239.251 191.118L226.004 208.128" stroke="white" stroke-width="3.77266" stroke-linecap="round" stroke-linejoin="round"/>
<path d="M210.941 210.97L228.012 197.247L236.921 205.389L252.463 194.758L265.907 206.053L295.867 188.955L318.112 207.865L351.041 196.845L348.55 222.883L210.941 210.97Z" fill="#6045E2"/>
<path d="M228.018 197.248L236.926 205.389L252.468 194.758L265.913 206.053L295.873 188.955L318.118 207.865L351.047 196.845" stroke="white" stroke-width="3.77266" stroke-linecap="round" stroke-linejoin="round"/>
<path d="M360.19 333.184C360.158 333.597 359.997 333.992 359.729 334.317C359.46 334.643 359.096 334.886 358.682 335.015C358.269 335.144 357.824 335.154 357.405 335.043C356.986 334.931 356.611 334.704 356.327 334.39C356.044 334.076 355.865 333.689 355.813 333.277C355.761 332.866 355.838 332.45 356.035 332.081C356.232 331.711 356.539 331.406 356.919 331.203C357.298 331 357.732 330.909 358.166 330.941C358.747 330.983 359.287 331.243 359.667 331.664C360.046 332.085 360.235 332.631 360.19 333.184Z" fill="#F7F7F7" stroke="#7A3C7D" stroke-width="2.8295" stroke-miterlimit="10"/>
<path d="M383.197 297.303C383.164 297.715 383.003 298.109 382.735 298.435C382.467 298.76 382.103 299.003 381.689 299.132C381.276 299.261 380.832 299.27 380.413 299.159C379.994 299.048 379.619 298.821 379.335 298.507C379.052 298.193 378.873 297.806 378.821 297.395C378.768 296.984 378.845 296.568 379.042 296.199C379.238 295.83 379.545 295.524 379.924 295.321C380.303 295.118 380.737 295.026 381.171 295.058C381.753 295.1 382.293 295.36 382.673 295.781C383.053 296.202 383.241 296.749 383.197 297.303Z" fill="#F7F7F7" stroke="#7A3C7D" stroke-width="2.8295" stroke-miterlimit="10"/>
<path d="M400.872 318.305C400.838 318.717 400.677 319.11 400.408 319.435C400.14 319.76 399.776 320.001 399.363 320.13C398.951 320.258 398.507 320.266 398.089 320.155C397.671 320.043 397.297 319.816 397.014 319.502C396.732 319.188 396.553 318.802 396.502 318.392C396.45 317.982 396.528 317.566 396.724 317.198C396.921 316.829 397.228 316.525 397.607 316.322C397.985 316.12 398.419 316.029 398.852 316.061C399.139 316.082 399.42 316.156 399.677 316.281C399.934 316.405 400.163 316.576 400.351 316.784C400.539 316.993 400.681 317.235 400.771 317.495C400.86 317.756 400.894 318.032 400.872 318.305Z" fill="#F7F7F7" stroke="#7A3C7D" stroke-width="2.8295" stroke-miterlimit="10"/>
<path d="M422.604 300.038C422.571 300.451 422.41 300.845 422.142 301.171C421.874 301.497 421.51 301.74 421.096 301.869C420.683 301.998 420.238 302.008 419.819 301.896C419.4 301.785 419.025 301.558 418.741 301.244C418.458 300.93 418.279 300.543 418.227 300.132C418.175 299.721 418.252 299.304 418.449 298.935C418.645 298.566 418.953 298.261 419.332 298.058C419.712 297.855 420.146 297.763 420.579 297.795C421.16 297.838 421.7 298.098 422.079 298.519C422.459 298.939 422.647 299.486 422.604 300.038Z" fill="#F7F7F7" stroke="#7A3C7D" stroke-width="2.8295" stroke-miterlimit="10"/>
<path d="M434.814 314.979C434.781 315.392 434.62 315.785 434.351 316.11C434.083 316.435 433.719 316.678 433.306 316.806C432.893 316.935 432.45 316.944 432.031 316.833C431.613 316.721 431.238 316.495 430.955 316.181C430.672 315.867 430.493 315.481 430.441 315.071C430.388 314.66 430.465 314.244 430.661 313.876C430.858 313.507 431.164 313.201 431.543 312.998C431.921 312.795 432.355 312.703 432.788 312.734C433.369 312.777 433.909 313.037 434.289 313.458C434.669 313.879 434.858 314.426 434.814 314.979Z" fill="#F7F7F7" stroke="#7A3C7D" stroke-width="2.8295" stroke-miterlimit="10"/>
<path d="M453.404 294.298C453.371 294.71 453.21 295.103 452.941 295.428C452.673 295.753 452.309 295.995 451.896 296.124C451.483 296.252 451.039 296.261 450.621 296.149C450.202 296.038 449.828 295.811 449.545 295.497C449.263 295.183 449.084 294.796 449.032 294.386C448.98 293.975 449.058 293.56 449.255 293.191C449.451 292.822 449.758 292.518 450.137 292.315C450.516 292.112 450.949 292.021 451.383 292.053C451.67 292.074 451.951 292.149 452.208 292.273C452.466 292.397 452.695 292.568 452.882 292.777C453.07 292.985 453.213 293.227 453.303 293.488C453.392 293.749 453.427 294.024 453.404 294.298Z" fill="#F7F7F7" stroke="#7A3C7D" stroke-width="2.8295" stroke-miterlimit="10"/>
<path d="M468.946 307.472C468.913 307.885 468.752 308.279 468.484 308.605C468.215 308.931 467.851 309.174 467.437 309.302C467.023 309.431 466.579 309.44 466.16 309.328C465.741 309.217 465.366 308.989 465.083 308.675C464.8 308.36 464.621 307.973 464.569 307.562C464.518 307.151 464.595 306.735 464.793 306.366C464.99 305.996 465.298 305.691 465.678 305.489C466.057 305.286 466.491 305.196 466.925 305.228C467.506 305.271 468.045 305.531 468.424 305.952C468.803 306.373 468.991 306.92 468.946 307.472Z" fill="#F7F7F7" stroke="#7A3C7D" stroke-width="2.8295" stroke-miterlimit="10"/>
<path d="M484.273 304.664C484.24 305.076 484.079 305.47 483.81 305.795C483.542 306.12 483.178 306.363 482.765 306.491C482.352 306.62 481.908 306.629 481.489 306.518C481.071 306.407 480.696 306.18 480.413 305.866C480.13 305.552 479.951 305.165 479.899 304.755C479.847 304.344 479.924 303.928 480.12 303.559C480.316 303.19 480.624 302.885 481.002 302.682C481.381 302.479 481.815 302.388 482.248 302.419C482.829 302.462 483.369 302.722 483.749 303.143C484.128 303.564 484.317 304.111 484.273 304.664Z" fill="#F7F7F7" stroke="#7A3C7D" stroke-width="2.8295" stroke-miterlimit="10"/>
<g style="mix-blend-mode:multiply">
<path d="M536.599 442.856L508.67 254.775C508.26 252.02 506.717 249.532 504.38 247.86C502.043 246.187 499.103 245.466 496.207 245.855L191.591 286.786C188.695 287.176 186.081 288.643 184.322 290.866C182.563 293.089 181.805 295.886 182.214 298.64L210.144 486.722C210.553 489.477 212.096 491.964 214.433 493.636C216.77 495.309 219.71 496.03 222.606 495.641L527.222 454.709C528.656 454.517 530.036 454.058 531.283 453.358C532.53 452.658 533.621 451.731 534.491 450.63C535.362 449.53 535.996 448.277 536.358 446.943C536.72 445.609 536.802 444.22 536.599 442.856Z" fill="#A2B2D6"/>
</g>
<path d="M545.327 436.435C545.518 437.816 545.421 439.219 545.042 440.565C544.662 441.91 544.008 443.171 543.116 444.276C542.224 445.381 541.113 446.308 539.844 447.004C538.576 447.7 537.176 448.152 535.724 448.333L227.284 486.904C224.352 487.271 221.386 486.514 219.04 484.801C216.694 483.088 215.159 480.559 214.773 477.769L188.454 287.326C188.069 284.537 188.865 281.716 190.666 279.485C192.467 277.253 195.126 275.794 198.058 275.427L506.498 236.857C509.43 236.49 512.396 237.247 514.742 238.96C517.088 240.673 518.623 243.202 519.008 245.991L545.327 436.435Z" fill="#573CDA"/>
<g opacity="0.3">
<path opacity="0.3" d="M507.965 240.436C509.732 240.442 511.436 241.056 512.763 242.166C514.09 243.275 514.95 244.804 515.183 246.47L541.502 436.913C541.754 438.738 541.233 440.582 540.055 442.042C538.877 443.501 537.138 444.455 535.221 444.695L226.782 483.265C226.462 483.305 226.139 483.325 225.817 483.325C224.05 483.32 222.345 482.705 221.018 481.596C219.691 480.486 218.832 478.957 218.599 477.291L192.28 286.848C192.03 285.024 192.551 283.181 193.729 281.722C194.907 280.263 196.644 279.308 198.561 279.066L507 240.497C507.32 240.456 507.642 240.436 507.965 240.436ZM507.965 237.814C507.522 237.815 507.08 237.842 506.641 237.897L198.202 276.467C195.561 276.8 193.166 278.116 191.544 280.126C189.921 282.136 189.203 284.677 189.547 287.19L215.866 477.633C216.188 479.929 217.373 482.036 219.203 483.565C221.032 485.093 223.382 485.94 225.817 485.947C226.259 485.947 226.702 485.919 227.14 485.865L535.58 447.294C538.222 446.964 540.618 445.649 542.241 443.638C543.864 441.627 544.581 439.086 544.234 436.572L517.915 246.129C517.594 243.833 516.408 241.725 514.579 240.197C512.75 238.668 510.4 237.822 507.965 237.814Z" fill="#231F20"/>
</g>
<path d="M545.327 436.435C545.518 437.816 545.421 439.219 545.042 440.565C544.662 441.91 544.008 443.171 543.116 444.276C542.224 445.381 541.113 446.308 539.844 447.004C538.576 447.7 537.176 448.152 535.724 448.333L227.284 486.904C224.352 487.271 221.386 486.514 219.04 484.801C216.694 483.088 215.159 480.559 214.773 477.769L188.454 287.326C188.069 284.537 188.865 281.716 190.666 279.485C192.467 277.253 195.126 275.794 198.058 275.427L506.498 236.857C509.43 236.49 512.396 237.247 514.742 238.96C517.088 240.673 518.623 243.202 519.008 245.991L545.327 436.435Z" stroke="#BFC9D8" stroke-width="5.659" stroke-miterlimit="10"/>
<g opacity="0.3">
<path opacity="0.3" d="M342.96 475.061L255.803 485.235L306.113 260.215L393.271 250.043L342.96 475.061Z" fill="white"/>
</g>
<path d="M356.656 268.096C356.726 268.601 356.637 269.114 356.401 269.57C356.164 270.026 355.791 270.406 355.327 270.66C354.864 270.914 354.332 271.032 353.798 270.999C353.264 270.966 352.753 270.783 352.329 270.473C351.904 270.163 351.586 269.741 351.414 269.259C351.242 268.777 351.224 268.258 351.363 267.766C351.501 267.275 351.79 266.833 352.192 266.498C352.594 266.162 353.092 265.948 353.622 265.881C354.333 265.792 355.052 265.976 355.622 266.391C356.191 266.807 356.563 267.42 356.656 268.096Z" fill="#3F4751"/>
<path d="M492.786 262.632L218.301 296.957L240.926 460.666L515.411 426.341L492.786 262.632Z" fill="white"/>
<path d="M466.011 347.602C465.837 347.602 465.667 347.549 465.526 347.452C465.385 347.355 465.28 347.217 465.225 347.06L457.742 325.306C457.686 325.143 457.688 324.966 457.747 324.804C457.806 324.642 457.92 324.502 458.07 324.407C458.221 324.312 458.4 324.266 458.58 324.277C458.761 324.288 458.932 324.355 459.069 324.467L477.261 339.437C477.345 339.507 477.413 339.591 477.462 339.686C477.511 339.781 477.54 339.884 477.546 339.99C477.552 340.095 477.535 340.201 477.497 340.3C477.459 340.399 477.401 340.49 477.325 340.568C474.274 343.685 470.497 346.078 466.296 347.554C466.205 347.585 466.108 347.602 466.011 347.602Z" fill="#23C89A"/>
<path d="M458.529 325.061L476.721 340.032C473.762 343.063 470.093 345.387 466.012 346.815L458.529 325.061ZM458.528 323.488C458.267 323.488 458.01 323.547 457.777 323.66C457.544 323.773 457.343 323.937 457.19 324.138C457.036 324.339 456.935 324.572 456.895 324.818C456.854 325.063 456.876 325.314 456.957 325.55L464.44 347.304C464.509 347.505 464.62 347.69 464.766 347.849C464.912 348.009 465.091 348.138 465.29 348.23C465.49 348.322 465.708 348.375 465.929 348.386C466.151 348.396 466.373 348.364 466.582 348.291C470.904 346.773 474.792 344.311 477.931 341.103C478.083 340.948 478.2 340.766 478.275 340.568C478.351 340.369 478.384 340.158 478.372 339.947C478.36 339.736 478.303 339.529 478.205 339.339C478.108 339.15 477.971 338.98 477.803 338.842L459.61 323.872C459.31 323.624 458.926 323.488 458.528 323.488Z" fill="white"/>
<path d="M478.041 339.365C477.842 339.365 477.65 339.297 477.5 339.173L458.271 323.348C458.15 323.248 458.062 323.118 458.018 322.972C457.974 322.826 457.975 322.67 458.021 322.525C458.067 322.379 458.157 322.25 458.279 322.152C458.401 322.054 458.551 321.992 458.709 321.973L483.938 318.962C483.972 318.958 484.007 318.956 484.041 318.956C484.248 318.956 484.447 319.03 484.599 319.162C484.752 319.295 484.846 319.477 484.865 319.672C485.53 326.656 483.314 333.613 478.685 339.071C478.616 339.153 478.529 339.221 478.431 339.271C478.333 339.321 478.226 339.352 478.115 339.362C478.091 339.363 478.065 339.365 478.041 339.365Z" fill="#A4A4A4"/>
<path d="M484.042 319.742C484.681 326.523 482.53 333.275 478.041 338.578L458.813 322.753L484.042 319.742ZM484.042 318.169C483.973 318.169 483.904 318.173 483.836 318.181L458.607 321.192C458.29 321.23 457.991 321.354 457.747 321.55C457.502 321.746 457.323 322.005 457.23 322.296C457.138 322.587 457.135 322.898 457.224 323.19C457.313 323.482 457.489 323.743 457.731 323.942L476.959 339.767C477.26 340.015 477.644 340.151 478.041 340.151C478.091 340.151 478.141 340.149 478.191 340.144C478.412 340.125 478.627 340.064 478.823 339.964C479.019 339.864 479.191 339.727 479.331 339.562C484.094 333.946 486.374 326.788 485.689 319.602C485.652 319.211 485.463 318.847 485.158 318.581C484.853 318.316 484.455 318.169 484.042 318.169Z" fill="white"/>
<path d="M457.312 321.78C457.11 321.78 456.915 321.711 456.764 321.584C456.613 321.457 456.516 321.282 456.491 321.092L453.171 295.904C453.158 295.799 453.166 295.692 453.196 295.591C453.227 295.489 453.278 295.394 453.348 295.312C453.418 295.23 453.504 295.162 453.602 295.112C453.7 295.062 453.808 295.032 453.919 295.022C454.766 294.951 455.624 294.914 456.471 294.914C463.249 294.894 469.811 297.181 474.971 301.361C480.131 305.542 483.549 311.34 484.607 317.708C484.625 317.813 484.62 317.919 484.594 318.022C484.567 318.124 484.519 318.221 484.453 318.305C484.386 318.39 484.302 318.461 484.206 318.514C484.11 318.567 484.004 318.601 483.894 318.614L457.415 321.774C457.38 321.778 457.346 321.78 457.312 321.78Z" fill="#3D2B93"/>
<path d="M456.47 295.701C463.043 295.709 469.4 297.94 474.404 301.994C479.408 306.049 482.735 311.663 483.79 317.834L457.31 320.994L453.991 295.806C454.823 295.736 455.649 295.701 456.47 295.701ZM456.47 294.128C455.599 294.128 454.715 294.165 453.844 294.239C453.622 294.258 453.407 294.319 453.211 294.419C453.015 294.518 452.843 294.654 452.703 294.819C452.564 294.983 452.461 295.173 452.4 295.376C452.339 295.579 452.322 295.792 452.35 296.002L455.669 321.19C455.719 321.57 455.914 321.92 456.216 322.174C456.518 322.427 456.907 322.567 457.31 322.567C457.379 322.567 457.448 322.563 457.516 322.555L483.995 319.395C484.216 319.369 484.428 319.3 484.62 319.194C484.812 319.088 484.98 318.946 485.113 318.777C485.246 318.608 485.342 318.415 485.395 318.21C485.448 318.005 485.457 317.792 485.422 317.583C484.304 311.043 480.779 305.093 475.476 300.796C470.172 296.5 463.436 294.137 456.47 294.128Z" fill="white"/>
<path d="M456.398 349.221C450.816 349.223 445.357 347.658 440.705 344.723C440.612 344.665 440.533 344.589 440.471 344.501C440.41 344.413 440.368 344.314 440.348 344.21C440.328 344.106 440.33 343.999 440.354 343.896C440.378 343.793 440.423 343.696 440.488 343.61L455.421 323.715C455.498 323.613 455.599 323.53 455.716 323.473C455.833 323.416 455.962 323.386 456.094 323.386C456.136 323.386 456.178 323.389 456.219 323.395C456.37 323.417 456.512 323.478 456.629 323.572C456.745 323.666 456.832 323.789 456.88 323.928L464.874 347.165C464.909 347.265 464.922 347.371 464.912 347.477C464.902 347.582 464.871 347.685 464.819 347.778C464.766 347.871 464.695 347.954 464.609 348.021C464.522 348.087 464.423 348.136 464.316 348.166C461.741 348.865 459.076 349.22 456.399 349.221H456.398Z" fill="#9196C0"/>
<path d="M456.095 324.173L464.089 347.41C461.588 348.089 459 348.434 456.399 348.435C450.979 348.434 445.679 346.915 441.161 344.067L456.095 324.173ZM456.095 322.6C455.831 322.6 455.572 322.659 455.338 322.774C455.104 322.889 454.902 323.055 454.749 323.259L439.816 343.153C439.687 343.325 439.595 343.52 439.547 343.726C439.499 343.933 439.495 344.146 439.535 344.354C439.576 344.562 439.66 344.759 439.783 344.936C439.905 345.112 440.064 345.263 440.249 345.379C445.037 348.4 450.654 350.01 456.399 350.008C459.154 350.007 461.895 349.642 464.544 348.922C464.758 348.864 464.957 348.765 465.13 348.632C465.303 348.499 465.445 348.334 465.55 348.147C465.654 347.96 465.717 347.755 465.737 347.545C465.756 347.334 465.73 347.122 465.661 346.92L457.666 323.683C457.558 323.368 457.347 323.094 457.065 322.899C456.783 322.704 456.443 322.6 456.095 322.6Z" fill="white"/>
<path d="M439.519 343.737C439.336 343.737 439.159 343.68 439.014 343.574C437.881 342.743 436.815 341.834 435.825 340.852L434.461 339.396C431.253 335.714 429.124 331.29 428.29 326.574C427.456 321.857 427.947 317.014 429.712 312.536C431.478 308.057 434.455 304.102 438.344 301.07C442.233 298.038 446.895 296.037 451.858 295.269C451.967 295.252 452.079 295.256 452.187 295.282C452.295 295.307 452.396 295.352 452.485 295.416C452.574 295.479 452.649 295.559 452.705 295.65C452.76 295.742 452.796 295.843 452.81 295.948L456.252 322.065C456.278 322.264 456.224 322.464 456.1 322.626L440.187 343.414C440.122 343.499 440.04 343.57 439.945 343.625C439.851 343.679 439.745 343.714 439.636 343.729C439.597 343.735 439.558 343.737 439.519 343.737Z" fill="#6045E2"/>
<path d="M451.987 296.046L454.007 311.371L455.366 321.686L455.429 322.163L439.516 342.951C438.416 342.145 437.381 341.262 436.42 340.309L435.076 338.874C431.966 335.296 429.905 331.002 429.099 326.423C428.294 321.845 428.773 317.145 430.489 312.8C432.205 308.454 435.097 304.617 438.871 301.675C442.646 298.733 447.171 296.791 451.987 296.046ZM451.987 294.473C451.899 294.473 451.81 294.479 451.723 294.493C446.619 295.283 441.824 297.34 437.824 300.458C433.823 303.575 430.759 307.642 428.941 312.247C427.123 316.852 426.615 321.832 427.469 326.684C428.322 331.536 430.507 336.087 433.803 339.878C433.816 339.892 433.828 339.906 433.841 339.92L435.185 341.355C435.198 341.369 435.212 341.383 435.226 341.397C436.245 342.407 437.341 343.343 438.507 344.197C438.682 344.325 438.882 344.419 439.096 344.472C439.309 344.526 439.532 344.538 439.751 344.508C439.97 344.478 440.18 344.407 440.369 344.299C440.559 344.19 440.723 344.047 440.853 343.877L456.766 323.089C457.014 322.765 457.122 322.364 457.07 321.967L457.007 321.49L455.648 311.175L453.628 295.85C453.578 295.47 453.384 295.12 453.081 294.866C452.779 294.613 452.39 294.473 451.987 294.473Z" fill="white"/>
<path d="M444.453 367.992L436.299 369.289L437.686 377.07L445.841 375.773L444.453 367.992Z" fill="#23C89A"/>
<path d="M443.553 369.2L444.57 374.911L438.589 375.863L437.571 370.151L443.553 369.2ZM445.353 366.782L443.183 367.128L437.202 368.079L435.032 368.424L435.401 370.496L436.419 376.208L436.788 378.28L438.958 377.935L444.94 376.983L447.11 376.638L446.74 374.566L445.723 368.854L445.353 366.782Z" fill="white"/>
<path d="M488.341 363.83L449.715 370.017L450.101 372.197L488.727 366.01L488.341 363.83Z" fill="#917AFF"/>
<path d="M446.276 377.197L438.121 378.493L439.508 386.274L447.663 384.978L446.276 377.197Z" fill="#3D2B93"/>
<path d="M445.375 378.404L446.393 384.115L440.411 385.067L439.394 379.355L445.375 378.404ZM447.176 375.986L445.006 376.332L439.024 377.283L436.855 377.628L437.224 379.7L438.241 385.412L438.611 387.484L440.781 387.139L446.762 386.187L448.932 385.842L448.563 383.77L447.545 378.058L447.176 375.986Z" fill="white"/>
<path d="M464.925 377.078L451.35 379.252L451.736 381.433L465.311 379.259L464.925 377.078Z" fill="#917AFF"/>
<path d="M448.093 386.398L439.938 387.694L441.326 395.476L449.481 394.179L448.093 386.398Z" fill="#777AA3"/>
<path d="M447.189 387.605L448.207 393.317L442.226 394.268L441.208 388.556L447.189 387.605ZM448.99 385.187L446.82 385.533L440.839 386.484L438.669 386.83L439.038 388.902L440.056 394.614L440.425 396.686L442.595 396.34L448.576 395.389L450.746 395.044L450.377 392.972L449.359 387.26L448.99 385.187Z" fill="white"/>
<path d="M483.937 383.531L452.988 388.488L453.374 390.669L484.323 385.712L483.937 383.531Z" fill="#917AFF"/>
<path d="M450.001 396.042L441.847 397.339L443.234 405.12L451.389 403.823L450.001 396.042Z" fill="#9196C0"/>
<path d="M449.098 397.249L450.115 402.961L444.134 403.913L443.116 398.201L449.098 397.249ZM450.898 394.832L448.728 395.177L442.747 396.129L440.577 396.474L440.946 398.546L441.964 404.258L442.333 406.33L444.503 405.985L450.485 405.033L452.655 404.688L452.285 402.616L451.268 396.904L450.898 394.832Z" fill="white"/>
<path d="M485.493 393.062L454.545 398.019L454.931 400.2L485.879 395.243L485.493 393.062Z" fill="#917AFF"/>
<path opacity="0.6" d="M254.635 397.605C280.913 394.345 265.943 335.776 303.764 332.865C344.945 329.695 336.888 408.202 404.959 399.757C409.262 399.223 413.319 398.589 417.131 397.857L418.212 407.112L259.34 427.3L254.635 397.605Z" fill="#C0B3F7"/>
<path d="M251.427 375.173C269.032 372.988 280.729 383.299 287.876 389.888C298.912 400.062 319.453 402.484 330.834 385.108C349.056 357.288 370.606 357.088 390.242 373.065C398.008 379.384 406.634 382.337 414.79 381.42L417.563 406.338L258.605 426.25L251.427 375.173Z" fill="#23C89A"/>
<path d="M416.394 396.808C412.578 397.535 408.521 398.168 404.222 398.707C371.504 402.766 356.374 386.738 344.91 369.346C340.067 373.022 335.348 378.216 330.833 385.109C319.452 402.485 298.911 400.063 287.875 389.889C283.68 386.022 277.916 380.876 270.312 377.723C267.255 387.39 263.2 395.106 254.419 396.472L258.604 426.251L417.411 406.483L416.394 396.808Z" fill="#6045E2"/>
<path d="M351.501 414.539L345.067 369.583C336.471 356.59 329.959 342.79 319.716 336.002L330.578 417.177L351.501 414.539Z" fill="#777AA3"/>
<path d="M345.082 369.586L345.259 370.874" stroke="white" stroke-width="2.33685" stroke-miterlimit="10" stroke-linecap="round"/>
<path d="M345.803 374.816L350.939 412.271" stroke="white" stroke-width="2.33685" stroke-miterlimit="10" stroke-linecap="round" stroke-dasharray="4.77 7.15"/>
<path d="M351.209 414.243L351.386 415.531" stroke="white" stroke-width="2.33685" stroke-miterlimit="10" stroke-linecap="round"/>
<path d="M371.727 361.914L371.903 363.202" stroke="white" stroke-width="2.33685" stroke-miterlimit="10" stroke-linecap="round"/>
<path d="M372.419 366.965L378.181 408.984" stroke="white" stroke-width="2.33685" stroke-miterlimit="10" stroke-linecap="round" stroke-dasharray="4.55 6.83"/>
<path d="M378.438 410.865L378.615 412.153" stroke="white" stroke-width="2.33685" stroke-miterlimit="10" stroke-linecap="round"/>
<path d="M319.771 337.352L319.947 338.64" stroke="white" stroke-width="2.33685" stroke-miterlimit="10" stroke-linecap="round"/>
<path d="M320.493 342.627L330.242 413.725" stroke="white" stroke-width="2.33685" stroke-miterlimit="10" stroke-linecap="round" stroke-dasharray="4.82 7.23"/>
<path d="M330.517 415.719L330.693 417.007" stroke="white" stroke-width="2.33685" stroke-miterlimit="10" stroke-linecap="round"/>
<path d="M270.597 378.828L270.773 380.116" stroke="white" stroke-width="2.33685" stroke-miterlimit="10" stroke-linecap="round"/>
<path d="M271.314 384.059L276.45 421.513" stroke="white" stroke-width="2.33685" stroke-miterlimit="10" stroke-linecap="round" stroke-dasharray="4.77 7.15"/>
<path d="M276.722 423.484L276.898 424.773" stroke="white" stroke-width="2.33685" stroke-miterlimit="10" stroke-linecap="round"/>
<path d="M376.496 396.65C384.081 399.154 393.142 400.082 404.219 398.708C408.522 398.174 412.579 397.541 416.391 396.808" stroke="#6045E2" stroke-width="3.1158" stroke-miterlimit="10"/>
<path d="M253.896 396.556C280.175 393.296 265.205 334.727 303.026 331.816C337.506 329.162 337.468 383.766 376.498 396.65" stroke="#6045E2" stroke-width="3.1158" stroke-miterlimit="10"/>
<path d="M344.954 369.312C359.648 358.188 375.486 361.059 390.244 373.066C398.01 379.385 406.636 382.338 414.791 381.421" stroke="#3D2B93" stroke-width="2.47178" stroke-miterlimit="10"/>
<path d="M326.844 390.064C328.343 388.543 329.679 386.883 330.831 385.11C335.358 378.197 340.091 372.99 344.949 369.312" stroke="white" stroke-width="2.47178" stroke-miterlimit="10"/>
<path d="M251.427 375.173C269.032 372.989 280.729 383.3 287.876 389.889C297.72 398.963 315.125 401.871 326.848 390.064" stroke="#3D2B93" stroke-width="2.47178" stroke-miterlimit="10"/>
<path d="M245.305 329.265L258.604 426.25L418.792 406.376" stroke="#9196C0" stroke-width="3.89474" stroke-miterlimit="10"/>
<path d="M244.472 323.201L241.974 332.201L245.366 329.718L249.313 331.29L244.472 323.201Z" fill="#9196C0"/>
<path d="M425.167 405.585L416.663 410.191L418.317 406.435L415.706 403.209L425.167 405.585Z" fill="#9196C0"/>
<path d="M268.071 377.978C268.01 377.532 268.089 377.079 268.299 376.676C268.508 376.273 268.839 375.938 269.248 375.713C269.658 375.489 270.129 375.385 270.6 375.415C271.072 375.445 271.524 375.607 271.898 375.882C272.273 376.156 272.554 376.53 272.705 376.956C272.857 377.382 272.872 377.841 272.749 378.275C272.626 378.709 272.371 379.099 272.015 379.395C271.659 379.691 271.219 379.88 270.75 379.938C270.439 379.977 270.123 379.957 269.82 379.879C269.517 379.802 269.232 379.668 268.984 379.486C268.735 379.304 268.526 379.077 268.37 378.818C268.213 378.56 268.111 378.274 268.071 377.978Z" fill="white" stroke="#3D2B93" stroke-width="2.33685" stroke-miterlimit="10"/>
<path d="M249.386 375.638C249.325 375.192 249.404 374.739 249.614 374.336C249.824 373.933 250.154 373.598 250.564 373.374C250.974 373.149 251.444 373.045 251.916 373.075C252.387 373.105 252.839 373.268 253.214 373.542C253.589 373.816 253.869 374.19 254.021 374.616C254.172 375.042 254.187 375.501 254.065 375.935C253.942 376.369 253.686 376.759 253.33 377.055C252.975 377.351 252.534 377.54 252.066 377.599C251.754 377.637 251.438 377.617 251.135 377.54C250.832 377.462 250.548 377.328 250.299 377.146C250.05 376.964 249.842 376.737 249.685 376.478C249.528 376.22 249.427 375.934 249.386 375.638Z" fill="white" stroke="#3D2B93" stroke-width="2.33685" stroke-miterlimit="10"/>
<path d="M342.706 369.882C342.644 369.436 342.724 368.983 342.933 368.58C343.143 368.177 343.473 367.842 343.883 367.618C344.293 367.393 344.763 367.29 345.235 367.319C345.707 367.349 346.158 367.512 346.533 367.786C346.908 368.06 347.189 368.434 347.34 368.86C347.492 369.286 347.507 369.745 347.384 370.179C347.261 370.614 347.006 371.003 346.65 371.299C346.294 371.596 345.854 371.785 345.385 371.843C344.756 371.921 344.121 371.758 343.618 371.39C343.116 371.023 342.788 370.48 342.706 369.882Z" fill="white" stroke="#3D2B93" stroke-width="2.33685" stroke-miterlimit="10"/>
<path d="M317.316 336.081C317.255 335.636 317.334 335.182 317.544 334.779C317.753 334.376 318.084 334.041 318.494 333.817C318.903 333.593 319.374 333.489 319.845 333.519C320.317 333.549 320.769 333.711 321.144 333.985C321.518 334.259 321.799 334.633 321.951 335.059C322.102 335.485 322.117 335.944 321.994 336.378C321.871 336.813 321.616 337.203 321.26 337.499C320.904 337.795 320.464 337.984 319.995 338.042C319.684 338.081 319.368 338.061 319.065 337.983C318.762 337.905 318.478 337.772 318.229 337.59C317.98 337.408 317.771 337.181 317.615 336.922C317.458 336.663 317.357 336.378 317.316 336.081Z" fill="#6045E2"/>
<path d="M369.756 363.468C369.695 363.022 369.775 362.569 369.984 362.166C370.194 361.763 370.524 361.428 370.934 361.204C371.344 360.979 371.814 360.875 372.286 360.905C372.757 360.935 373.209 361.098 373.584 361.372C373.959 361.646 374.239 362.02 374.391 362.446C374.542 362.872 374.558 363.331 374.435 363.765C374.312 364.199 374.056 364.589 373.7 364.885C373.345 365.181 372.905 365.371 372.436 365.429C372.125 365.467 371.808 365.447 371.505 365.37C371.202 365.292 370.918 365.158 370.669 364.976C370.42 364.794 370.212 364.567 370.055 364.309C369.899 364.05 369.797 363.764 369.756 363.468Z" fill="#3D2B93"/>
<path d="M274.715 355.027C274.654 354.581 274.733 354.128 274.943 353.725C275.153 353.322 275.483 352.987 275.893 352.762C276.303 352.538 276.773 352.434 277.245 352.464C277.717 352.494 278.168 352.656 278.543 352.93C278.918 353.205 279.199 353.578 279.35 354.004C279.501 354.43 279.517 354.89 279.394 355.324C279.271 355.758 279.015 356.148 278.659 356.444C278.304 356.74 277.864 356.929 277.395 356.987C277.083 357.026 276.767 357.006 276.464 356.928C276.161 356.851 275.877 356.717 275.628 356.535C275.379 356.353 275.171 356.126 275.014 355.867C274.857 355.608 274.756 355.323 274.715 355.027Z" fill="#6045E2"/>
<path d="M274.58 424.333C274.519 423.887 274.598 423.434 274.807 423.031C275.017 422.628 275.348 422.293 275.757 422.069C276.167 421.845 276.637 421.741 277.109 421.771C277.581 421.801 278.032 421.963 278.407 422.237C278.782 422.511 279.063 422.885 279.214 423.311C279.366 423.737 279.381 424.196 279.258 424.63C279.135 425.065 278.88 425.454 278.524 425.751C278.168 426.047 277.728 426.236 277.259 426.294C276.948 426.333 276.632 426.312 276.328 426.235C276.025 426.157 275.741 426.024 275.492 425.842C275.244 425.659 275.035 425.433 274.878 425.174C274.722 424.915 274.62 424.629 274.58 424.333Z" fill="#9196C0"/>
<path d="M349.06 415.091C348.999 414.645 349.078 414.192 349.288 413.789C349.497 413.386 349.828 413.051 350.238 412.827C350.647 412.602 351.118 412.499 351.59 412.528C352.061 412.558 352.513 412.721 352.888 412.995C353.262 413.269 353.543 413.643 353.695 414.069C353.846 414.495 353.861 414.954 353.738 415.388C353.615 415.822 353.36 416.212 353.004 416.508C352.648 416.804 352.208 416.994 351.739 417.052C351.428 417.09 351.112 417.07 350.809 416.993C350.506 416.915 350.222 416.781 349.973 416.599C349.724 416.417 349.515 416.19 349.359 415.932C349.202 415.673 349.101 415.387 349.06 415.091Z" fill="#9196C0"/>
<path d="M376.451 411.695C376.39 411.249 376.469 410.796 376.678 410.393C376.888 409.989 377.219 409.655 377.628 409.43C378.038 409.206 378.508 409.102 378.98 409.132C379.452 409.162 379.904 409.324 380.278 409.598C380.653 409.873 380.934 410.246 381.085 410.672C381.237 411.098 381.252 411.558 381.129 411.992C381.006 412.426 380.751 412.816 380.395 413.112C380.039 413.408 379.599 413.597 379.13 413.655C378.819 413.694 378.503 413.674 378.2 413.596C377.896 413.519 377.612 413.385 377.364 413.203C377.115 413.021 376.906 412.794 376.749 412.535C376.593 412.276 376.491 411.991 376.451 411.695Z" fill="#9196C0"/>
<path d="M328.521 417.641C328.46 417.195 328.539 416.742 328.749 416.339C328.958 415.936 329.289 415.601 329.699 415.377C330.108 415.152 330.579 415.048 331.05 415.078C331.522 415.108 331.974 415.271 332.349 415.545C332.723 415.819 333.004 416.193 333.156 416.619C333.307 417.045 333.322 417.504 333.199 417.938C333.077 418.372 332.821 418.762 332.465 419.058C332.109 419.354 331.669 419.543 331.2 419.602C330.572 419.68 329.936 419.517 329.434 419.149C328.931 418.782 328.603 418.239 328.521 417.641Z" fill="#9196C0"/>
<path d="M252.42 396.66C252.359 396.214 252.439 395.761 252.648 395.357C252.858 394.954 253.188 394.619 253.598 394.395C254.008 394.171 254.478 394.067 254.95 394.097C255.422 394.127 255.873 394.289 256.248 394.563C256.623 394.837 256.904 395.211 257.055 395.637C257.206 396.063 257.222 396.522 257.099 396.957C256.976 397.391 256.72 397.781 256.365 398.077C256.009 398.373 255.569 398.562 255.1 398.62C254.471 398.698 253.836 398.535 253.333 398.168C252.831 397.8 252.502 397.258 252.42 396.66Z" fill="white" stroke="#6045E2" stroke-width="2.33685" stroke-miterlimit="10"/>
<path d="M321.745 322.26L322.568 331.247L331.85 330.467L329.084 325.51L321.745 322.26Z" fill="#6045E2"/>
<path d="M330.753 329.751C328.627 329.75 326.583 328.963 325.056 327.556C323.528 326.149 322.635 324.232 322.566 322.21C322.497 320.188 323.257 318.22 324.686 316.721C326.114 315.223 328.099 314.311 330.222 314.18C332.344 314.048 334.437 314.706 336.058 316.016C337.679 317.325 338.701 319.182 338.909 321.196C339.117 323.209 338.493 325.22 337.171 326.804C335.848 328.388 333.93 329.421 331.821 329.684C331.467 329.729 331.11 329.751 330.753 329.751Z" fill="white"/>
<path d="M330.771 314.952C332.685 314.952 334.523 315.661 335.898 316.927C337.273 318.194 338.077 319.92 338.139 321.739C338.201 323.559 337.517 325.33 336.231 326.679C334.945 328.028 333.158 328.848 331.248 328.967C329.338 329.085 327.455 328.492 325.996 327.314C324.536 326.136 323.616 324.464 323.429 322.652C323.242 320.84 323.803 319.03 324.994 317.604C326.184 316.178 327.91 315.249 329.808 315.012C330.127 314.972 330.449 314.952 330.771 314.952ZM330.771 313.395C330.378 313.395 329.986 313.419 329.596 313.467C327.329 313.749 325.259 314.84 323.807 316.52C322.354 318.2 321.627 320.342 321.775 322.513C321.922 324.683 322.931 326.719 324.598 328.208C326.265 329.696 328.465 330.526 330.752 330.528C333.14 330.53 335.43 329.629 337.12 328.024C338.81 326.419 339.761 324.242 339.763 321.97C339.766 319.699 338.82 317.52 337.134 315.911C335.447 314.303 333.158 313.398 330.771 313.395Z" fill="#6045E2"/>
<path d="M374.106 350.916L374.929 359.904L384.21 359.123L381.446 354.166L374.106 350.916Z" fill="#3D2B93"/>
<path d="M383.116 358.406C380.987 358.405 378.942 357.618 377.413 356.209C375.884 354.801 374.99 352.882 374.921 350.858C374.852 348.835 375.613 346.865 377.043 345.365C378.473 343.865 380.46 342.953 382.584 342.821C384.708 342.69 386.803 343.349 388.425 344.659C390.048 345.97 391.071 347.829 391.279 349.844C391.486 351.859 390.862 353.872 389.538 355.457C388.214 357.043 386.294 358.076 384.184 358.339C383.83 358.384 383.473 358.406 383.116 358.406Z" fill="white"/>
<path d="M383.133 343.608C385.047 343.609 386.885 344.318 388.26 345.584C389.634 346.851 390.437 348.576 390.499 350.396C390.561 352.215 389.876 353.986 388.59 355.334C387.305 356.683 385.518 357.502 383.608 357.621C381.699 357.739 379.816 357.146 378.357 355.968C376.898 354.789 375.978 353.118 375.792 351.306C375.605 349.494 376.166 347.684 377.357 346.259C378.547 344.834 380.274 343.905 382.171 343.668C382.49 343.628 382.811 343.608 383.133 343.608ZM383.134 342.051H383.133C382.741 342.051 382.348 342.075 381.959 342.124C379.644 342.413 377.537 343.547 376.084 345.286C374.632 347.026 373.947 349.235 374.175 351.446C374.403 353.657 375.526 355.697 377.306 357.135C379.086 358.573 381.384 359.296 383.715 359.152C386.046 359.007 388.226 358.006 389.795 356.361C391.364 354.715 392.199 352.554 392.124 350.334C392.048 348.113 391.068 346.008 389.391 344.462C387.713 342.916 385.469 342.052 383.134 342.051Z" fill="#3D2B93"/>
<path d="M327.752 321.675C327.586 321.574 327.445 321.44 327.341 321.281C327.236 321.122 327.171 320.943 327.148 320.757C327.121 320.571 327.138 320.382 327.197 320.203C327.256 320.026 327.352 319.863 327.481 319.724C327.617 319.577 327.781 319.456 327.964 319.367C328.37 319.172 328.833 319.114 329.278 319.204C329.479 319.246 329.671 319.323 329.842 319.431C330.004 319.534 330.141 319.668 330.245 319.825C330.402 320.064 330.474 320.345 330.449 320.626C330.424 320.907 330.304 321.172 330.107 321.383C330.342 321.483 330.546 321.642 330.695 321.842C330.845 322.042 330.937 322.276 330.96 322.521C330.991 322.734 330.974 322.951 330.912 323.159C330.851 323.362 330.745 323.551 330.603 323.714C330.452 323.884 330.268 324.024 330.061 324.128C329.59 324.353 329.052 324.42 328.536 324.317C328.308 324.267 328.093 324.177 327.901 324.049C327.719 323.928 327.566 323.77 327.453 323.588C327.336 323.403 327.261 323.197 327.233 322.983C327.195 322.739 327.221 322.49 327.306 322.258C327.396 322.028 327.55 321.827 327.752 321.675ZM328.282 320.722C328.291 320.789 328.315 320.854 328.352 320.912C328.389 320.969 328.436 321.02 328.49 321.063C328.544 321.104 328.606 321.136 328.672 321.155C328.74 321.175 328.811 321.181 328.88 321.172C328.951 321.164 329.02 321.143 329.081 321.109C329.143 321.074 329.196 321.028 329.238 320.973C329.282 320.92 329.314 320.858 329.332 320.792C329.351 320.726 329.355 320.657 329.344 320.59C329.336 320.521 329.314 320.454 329.279 320.394C329.243 320.334 329.195 320.281 329.138 320.238C329.082 320.196 329.018 320.164 328.949 320.146C328.88 320.128 328.808 320.124 328.738 320.134C328.668 320.142 328.601 320.163 328.54 320.197C328.48 320.231 328.427 320.277 328.387 320.331C328.342 320.386 328.311 320.449 328.293 320.516C328.275 320.583 328.271 320.653 328.282 320.722ZM328.389 322.735C328.402 322.829 328.433 322.92 328.481 323.003C328.526 323.082 328.588 323.152 328.663 323.207C328.736 323.26 328.817 323.301 328.904 323.328C328.993 323.354 329.087 323.361 329.179 323.349C329.27 323.338 329.357 323.309 329.435 323.262C329.513 323.215 329.582 323.156 329.639 323.086C329.696 323.015 329.737 322.934 329.76 322.848C329.785 322.754 329.79 322.658 329.776 322.563C329.766 322.469 329.737 322.379 329.691 322.297C329.644 322.214 329.581 322.142 329.505 322.083C329.434 322.025 329.351 321.983 329.261 321.959C329.172 321.934 329.078 321.928 328.986 321.941C328.893 321.951 328.805 321.982 328.726 322.029C328.649 322.077 328.581 322.137 328.526 322.207C328.47 322.28 328.429 322.362 328.405 322.45C328.381 322.543 328.375 322.639 328.389 322.735Z" fill="#573CDA"/>
<path d="M332.429 323.812C331.962 323.871 331.705 323.727 331.658 323.383C331.654 323.198 331.719 323.018 331.841 322.874C331.982 322.672 332.177 322.402 332.424 322.063C332.778 321.576 333.049 321.175 333.236 320.86C333.397 320.636 333.481 320.37 333.477 320.099C333.466 319.973 333.404 319.856 333.304 319.774C333.258 319.738 333.205 319.711 333.147 319.696C333.09 319.681 333.03 319.677 332.971 319.685C332.855 319.702 332.751 319.76 332.678 319.848C332.581 319.967 332.514 320.107 332.485 320.256C332.455 320.415 332.399 320.568 332.319 320.71C332.283 320.762 332.235 320.806 332.178 320.837C332.121 320.868 332.057 320.887 331.991 320.89C331.915 320.902 331.837 320.899 331.761 320.882C331.686 320.864 331.616 320.832 331.554 320.787C331.492 320.739 331.44 320.679 331.402 320.611C331.365 320.543 331.342 320.468 331.335 320.392C331.319 320.24 331.33 320.086 331.368 319.937C331.407 319.765 331.476 319.6 331.573 319.449C331.71 319.231 331.898 319.045 332.122 318.906C332.346 318.768 332.601 318.68 332.867 318.651C333.098 318.619 333.333 318.627 333.561 318.676C333.763 318.72 333.954 318.802 334.123 318.918C334.284 319.029 334.419 319.172 334.518 319.337C334.622 319.509 334.688 319.699 334.712 319.896C334.739 320.095 334.726 320.297 334.673 320.491C334.611 320.711 334.522 320.922 334.407 321.121C334.266 321.367 334.108 321.604 333.934 321.83C333.744 322.082 333.527 322.358 333.284 322.658L334.36 322.525C334.914 322.456 335.214 322.594 335.261 322.937C335.308 323.281 335.055 323.487 334.502 323.555L332.429 323.812Z" fill="#573CDA"/>
<path d="M381.398 351.98L379.586 352.205C379.404 352.239 379.216 352.226 379.041 352.168C378.978 352.141 378.924 352.098 378.885 352.044C378.845 351.989 378.823 351.926 378.819 351.86C378.8 351.743 378.814 351.623 378.859 351.513C378.904 351.41 378.952 351.301 379.005 351.187L380.221 348.696C380.294 348.523 380.406 348.367 380.548 348.239C380.682 348.137 380.844 348.074 381.015 348.059C381.14 348.04 381.267 348.048 381.388 348.082C381.509 348.116 381.621 348.175 381.714 348.255C381.938 348.476 382.07 348.766 382.087 349.072L382.332 350.865C382.366 350.856 382.396 350.849 382.426 350.843C382.452 350.838 382.478 350.833 382.504 350.83C382.672 350.799 382.846 350.827 382.993 350.909C383.052 350.944 383.101 350.991 383.138 351.047C383.175 351.103 383.198 351.166 383.206 351.232C383.253 351.576 383.043 351.776 382.576 351.834L382.467 351.848L382.538 352.363C382.571 352.522 382.539 352.688 382.448 352.825C382.401 352.884 382.341 352.933 382.272 352.969C382.204 353.004 382.128 353.025 382.05 353.031C381.718 353.072 381.523 352.882 381.464 352.461L381.398 351.98ZM381.264 350.997L381.007 349.129L380.058 351.147L381.264 350.997Z" fill="#3D2B93"/>
<path d="M384.362 349.963C384.195 349.863 384.055 349.728 383.95 349.57C383.846 349.411 383.78 349.232 383.758 349.046C383.731 348.86 383.747 348.67 383.807 348.491C383.865 348.315 383.962 348.152 384.09 348.012C384.226 347.866 384.39 347.745 384.574 347.656C384.98 347.46 385.443 347.403 385.888 347.492C386.089 347.534 386.281 347.611 386.452 347.719C386.614 347.823 386.751 347.957 386.855 348.113C387.012 348.352 387.083 348.633 387.058 348.914C387.032 349.195 386.913 349.46 386.716 349.671C386.951 349.772 387.155 349.93 387.305 350.13C387.455 350.33 387.546 350.564 387.57 350.809C387.6 351.022 387.584 351.24 387.522 351.447C387.46 351.651 387.355 351.84 387.212 352.003C387.061 352.172 386.877 352.313 386.67 352.416C386.2 352.642 385.662 352.708 385.146 352.605C384.918 352.556 384.702 352.465 384.51 352.338C384.329 352.215 384.176 352.058 384.062 351.877C383.939 351.678 383.862 351.456 383.837 351.226C383.812 350.997 383.839 350.765 383.916 350.546C384.005 350.316 384.16 350.115 384.362 349.963ZM384.891 349.01C384.9 349.077 384.924 349.142 384.962 349.2C384.998 349.258 385.045 349.309 385.1 349.351C385.154 349.393 385.215 349.424 385.282 349.444C385.349 349.464 385.42 349.469 385.489 349.46C385.56 349.452 385.629 349.431 385.691 349.397C385.752 349.362 385.806 349.316 385.848 349.262C385.892 349.208 385.924 349.146 385.942 349.08C385.96 349.014 385.964 348.946 385.953 348.878C385.945 348.809 385.923 348.743 385.888 348.682C385.852 348.622 385.805 348.569 385.747 348.526C385.692 348.484 385.628 348.452 385.559 348.434C385.49 348.416 385.418 348.412 385.347 348.422C385.277 348.43 385.21 348.452 385.15 348.486C385.089 348.52 385.037 348.566 384.996 348.62C384.952 348.675 384.92 348.738 384.902 348.805C384.884 348.871 384.88 348.941 384.891 349.01ZM384.999 351.023C385.011 351.117 385.042 351.208 385.091 351.291C385.136 351.37 385.198 351.44 385.273 351.495C385.345 351.549 385.426 351.589 385.513 351.616C385.602 351.643 385.696 351.65 385.788 351.638C385.879 351.627 385.966 351.597 386.044 351.55C386.122 351.504 386.191 351.444 386.248 351.374C386.305 351.304 386.346 351.222 386.37 351.136C386.394 351.043 386.399 350.946 386.385 350.851C386.365 350.663 386.268 350.491 386.114 350.371C386.043 350.314 385.96 350.272 385.871 350.247C385.781 350.223 385.687 350.216 385.595 350.229C385.502 350.24 385.414 350.27 385.335 350.317C385.258 350.365 385.19 350.426 385.136 350.496C385.08 350.569 385.038 350.651 385.015 350.738C384.99 350.831 384.985 350.928 384.999 351.023Z" fill="#3D2B93"/>
<path d="M327.141 392.932C326.36 392.931 325.609 392.648 325.04 392.14C324.471 391.632 324.127 390.937 324.077 390.197C324.026 389.456 324.274 388.725 324.77 388.151C325.266 387.578 325.972 387.206 326.746 387.11C326.879 387.093 327.013 387.085 327.147 387.085C327.927 387.086 328.678 387.369 329.247 387.877C329.816 388.385 330.16 389.08 330.21 389.82C330.26 390.561 330.013 391.292 329.517 391.866C329.021 392.439 328.315 392.811 327.541 392.907C327.408 392.924 327.274 392.932 327.141 392.932Z" fill="white"/>
<path d="M327.145 387.735C327.766 387.735 328.362 387.965 328.808 388.376C329.253 388.787 329.514 389.347 329.534 389.937C329.553 390.527 329.331 391.101 328.914 391.538C328.497 391.975 327.917 392.241 327.298 392.279C326.679 392.318 326.068 392.125 325.595 391.743C325.122 391.361 324.824 390.818 324.763 390.231C324.703 389.643 324.885 389.056 325.271 388.594C325.658 388.132 326.218 387.831 326.833 387.754C326.937 387.741 327.041 387.735 327.145 387.735ZM327.145 386.436H327.145C326.15 386.436 325.195 386.812 324.492 387.481C323.788 388.15 323.393 389.058 323.393 390.005C323.393 390.952 323.788 391.86 324.492 392.529C325.195 393.199 326.15 393.575 327.145 393.575C328.14 393.575 329.095 393.199 329.799 392.529C330.502 391.86 330.898 390.952 330.898 390.005C330.898 389.058 330.502 388.15 329.799 387.481C329.095 386.812 328.14 386.436 327.145 386.436Z" fill="#3D2B93"/>
<path d="M376.473 399.475C375.692 399.474 374.941 399.191 374.372 398.683C373.803 398.175 373.459 397.48 373.409 396.739C373.359 395.999 373.606 395.267 374.102 394.694C374.598 394.121 375.305 393.749 376.078 393.653C376.211 393.636 376.345 393.628 376.479 393.628C377.259 393.629 378.01 393.912 378.579 394.42C379.148 394.928 379.492 395.623 379.542 396.363C379.592 397.104 379.345 397.835 378.849 398.408C378.353 398.982 377.647 399.354 376.873 399.45C376.74 399.467 376.607 399.475 376.473 399.475Z" fill="white"/>
<path d="M376.478 394.277C377.085 394.278 377.669 394.499 378.111 394.894C378.553 395.289 378.821 395.829 378.86 396.405C378.899 396.982 378.706 397.55 378.321 397.996C377.935 398.442 377.386 398.731 376.784 398.806C376.68 398.819 376.576 398.826 376.472 398.826C375.839 398.824 375.232 398.583 374.785 398.156C374.338 397.729 374.088 397.151 374.089 396.549C374.089 395.946 374.341 395.369 374.789 394.943C375.237 394.517 375.845 394.278 376.478 394.277ZM376.478 392.979H376.478C375.483 392.979 374.528 393.355 373.825 394.024C373.121 394.693 372.726 395.601 372.726 396.548C372.726 397.495 373.121 398.402 373.825 399.072C374.528 399.741 375.483 400.117 376.478 400.117C377.473 400.117 378.428 399.741 379.131 399.072C379.835 398.402 380.23 397.495 380.23 396.548C380.23 395.601 379.835 394.693 379.131 394.024C378.428 393.355 377.473 392.979 376.478 392.979Z" fill="#6045E2"/>
</svg>
