<svg width="18" height="19" viewBox="0 0 18 19" fill="none" xmlns="http://www.w3.org/2000/svg">
<path d="M16.3455 17.9077C16.5888 18.3385 17.0753 18.5231 17.501 18.3385C17.9266 18.0923 18.1091 17.6 17.9266 17.1692C16.2847 13.7231 12.8185 11.4462 8.98744 11.4462C5.21717 11.4462 1.75095 13.7231 0.10906 17.1692C-0.134182 17.6 0.0482502 18.0923 0.473927 18.3385C0.899601 18.5231 1.4469 18.3385 1.62933 17.9077C2.96717 15.0154 5.82528 13.1692 8.98744 13.1692C12.1496 13.1692 15.0077 15.0154 16.3455 17.9077Z" fill="#573CDA"/>
<path d="M8.98609 0C6.12798 0 3.75636 2.4 3.75636 5.29231C3.75636 8.18462 6.12798 10.5846 8.98609 10.5846C11.905 10.5846 14.2158 8.18462 14.2158 5.29231C14.2158 2.4 11.905 0 8.98609 0ZM8.98609 1.72308C10.932 1.72308 12.5131 3.32308 12.5131 5.29231C12.5131 7.26154 10.932 8.86154 8.98609 8.86154C7.04014 8.86154 5.45906 7.26154 5.45906 5.29231C5.45906 3.32308 7.04014 1.72308 8.98609 1.72308Z" fill="#573CDA"/>
</svg>
