<svg width="226" height="224" viewBox="0 0 226 224" fill="none" xmlns="http://www.w3.org/2000/svg">
<path d="M9.86239 207.391C4.55361 201.77 4.80707 192.909 10.4285 187.6L85.1027 117.079L110.064 143.511L35.3897 214.032C29.7683 219.34 20.9076 219.087 15.5988 213.465L9.86239 207.391Z" fill="white"/>
<circle cx="134.355" cy="91.7732" r="64.8023" transform="rotate(-45 134.355 91.7732)" fill="white"/>
<g opacity="0.4">
<mask id="mask0_232_1928" style="mask-type:alpha" maskUnits="userSpaceOnUse" x="83" y="41" width="102" height="102">
<circle cx="134.117" cy="91.8528" r="50.1871" fill="#C4C4C4"/>
</mask>
<g mask="url(#mask0_232_1928)">
<path d="M138.806 41.6658H204.342L173.333 144.33H103.777L138.806 41.6658Z" fill="#1BC082"/>
<path d="M121.828 41.6658H136.217L101.181 144.33H86.793L121.828 41.6658Z" fill="#1BC082"/>
<path d="M106.234 41.6658H120.567L85.6667 144.33H71.334L106.234 41.6658Z" fill="#1BC082"/>
<path d="M97.3281 41.6658H105.684L70.5526 144.33H62.1758L97.3281 41.6658Z" fill="#1BC082"/>
</g>
</g>
<path d="M101.305 126.601C100.282 125.553 99.3262 124.475 98.4387 123.368L79.419 141.941C78.25 143.083 78.6526 145.39 80.318 147.096C81.9834 148.801 84.281 149.258 85.4498 148.117L104.47 129.543C103.387 128.629 102.332 127.648 101.305 126.601Z" fill="#3D2B93"/>
<path d="M169.414 57.2194C150.451 37.7992 119.24 37.5263 99.7022 56.6101C80.1642 75.6937 79.6982 106.907 98.6613 126.327C117.624 145.748 148.836 146.02 168.373 126.937C187.911 107.853 188.377 76.6395 169.414 57.2194ZM102.746 122.338C85.9718 105.16 86.384 77.5501 103.666 60.6697C120.948 43.7893 148.556 44.0306 165.33 61.2086C182.104 78.3867 181.692 105.997 164.409 122.877C147.127 139.758 119.519 139.516 102.746 122.338Z" fill="#1BC082"/>
<path d="M20.3485 208.11L17.3927 205.044C15.9742 203.573 15.1983 201.598 15.2357 199.555C15.273 197.512 16.1205 195.567 17.5918 194.148L72.5028 140.911C73.9741 139.493 75.9486 138.717 77.992 138.754C80.0353 138.792 81.9802 139.639 83.3987 141.11L86.3545 144.176C87.7729 145.647 88.5488 147.622 88.5115 149.665C88.4742 151.709 87.6266 153.653 86.1554 155.072L31.2444 208.309C30.5159 209.012 29.6561 209.564 28.7143 209.934C27.7725 210.304 26.7669 210.485 25.7552 210.466C24.7434 210.448 23.7452 210.23 22.8175 209.826C21.8898 209.422 21.0508 208.839 20.3485 208.11Z" fill="#573CDA"/>
<path d="M191 91.4998C191 122.704 165.48 148 134 148C102.52 148 77 122.704 77 91.4998C77 60.2957 102.52 34.9998 134 34.9998C165.48 34.9998 191 60.2957 191 91.4998ZM85.7944 91.4998C85.7944 117.889 107.377 139.283 134 139.283C160.623 139.283 182.206 117.889 182.206 91.4998C182.206 65.1101 160.623 43.717 134 43.717C107.377 43.717 85.7944 65.1101 85.7944 91.4998Z" fill="#573CDA"/>
</svg>
