<svg width="245" height="245" viewBox="0 0 245 245" fill="none" xmlns="http://www.w3.org/2000/svg">
<ellipse cx="121" cy="121.5" rx="101" ry="101.5" fill="white"/>
<path d="M183.75 183.75C217.577 149.923 217.577 95.0775 183.75 61.25C149.923 27.4226 95.0774 27.4226 61.25 61.25C27.4226 95.0774 27.4226 149.923 61.25 183.75C95.0774 217.577 149.923 217.577 183.75 183.75Z" fill="#3D2B93"/>
<path d="M122.494 196.427C163.323 196.427 196.421 163.329 196.421 122.5C196.421 81.6708 163.323 48.5724 122.494 48.5724C81.6648 48.5724 48.5664 81.6708 48.5664 122.5C48.5664 163.329 81.6648 196.427 122.494 196.427Z" fill="#573CDA"/>
<path d="M122.499 200.13C79.694 200.13 44.8691 165.306 44.8691 122.5C44.8691 79.6944 79.694 44.8699 122.499 44.8699C165.304 44.8699 200.129 79.6944 200.129 122.5C200.129 165.306 165.304 200.13 122.499 200.13ZM122.499 48.5728C81.7355 48.5728 48.5721 81.7362 48.5721 122.5C48.5721 163.264 81.7355 196.427 122.499 196.427C163.263 196.427 196.426 163.264 196.426 122.5C196.426 81.7362 163.263 48.5728 122.499 48.5728Z" fill="white"/>
<path d="M154.39 154.347C171.991 136.747 171.991 108.21 154.39 90.6092C136.79 73.0084 108.253 73.0084 90.6523 90.6092C73.0515 108.21 73.0515 136.747 90.6523 154.347C108.253 171.948 136.79 171.948 154.39 154.347Z" fill="#3D2B93"/>
<path d="M122.509 171.273C95.6155 171.273 73.7363 149.394 73.7363 122.501C73.7363 95.6074 95.6155 73.7285 122.509 73.7285C149.402 73.7285 171.281 95.6074 171.281 122.501C171.281 149.394 149.402 171.273 122.509 171.273ZM122.509 81.1339C99.6989 81.1339 81.1417 99.6908 81.1417 122.501C81.1417 145.31 99.6989 163.868 122.509 163.868C145.318 163.868 163.876 145.31 163.876 122.501C163.876 99.6908 145.318 81.1339 122.509 81.1339Z" fill="white"/>
<path d="M134.838 134.847C141.657 128.028 141.657 116.972 134.838 110.153C128.019 103.334 116.963 103.334 110.144 110.153C103.325 116.972 103.325 128.028 110.144 134.847C116.963 141.666 128.019 141.666 134.838 134.847Z" fill="url(#paint0_linear_232_1569)"/>
<path d="M122.492 143.664C110.822 143.664 101.328 134.17 101.328 122.5C101.328 110.829 110.822 101.335 122.492 101.335C134.162 101.335 143.656 110.829 143.656 122.5C143.656 134.17 134.162 143.664 122.492 143.664ZM122.492 108.741C114.906 108.741 108.734 114.913 108.734 122.5C108.734 130.087 114.906 136.259 122.492 136.259C130.079 136.259 136.251 130.087 136.251 122.5C136.251 114.913 130.079 108.741 122.492 108.741Z" fill="white"/>
<path d="M135.514 109.716L137.354 111.555L206.997 41.9099L205.158 40.0707L135.514 109.716Z" fill="#2A206A"/>
<path d="M136.817 105.278C137.872 104.223 142.847 109.197 141.791 110.252L123.342 124.756C122.661 125.292 121.778 124.409 122.313 123.727L136.817 105.278Z" fill="#2A206A"/>
<path d="M206.956 41.9512L216.325 42.8824L203.463 55.7447C201.382 57.8259 198.864 59.4191 196.093 60.4094C193.321 61.3996 190.364 61.7623 187.436 61.4712L206.956 41.9512Z" fill="#1BC082"/>
<path d="M205.123 40.1109L204.192 30.7416L191.33 43.6039C189.249 45.685 187.656 48.2022 186.665 50.9738C185.675 53.7454 185.312 56.7022 185.603 59.631L205.123 40.1109Z" fill="url(#paint1_linear_232_1569)"/>
<defs>
<linearGradient id="paint0_linear_232_1569" x1="110.144" y1="110.153" x2="134.838" y2="134.847" gradientUnits="userSpaceOnUse">
<stop stop-color="#1BC082"/>
<stop offset="1" stop-color="#23C89A"/>
</linearGradient>
<linearGradient id="paint1_linear_232_1569" x1="195.315" y1="30.7416" x2="195.315" y2="59.631" gradientUnits="userSpaceOnUse">
<stop stop-color="#1BC082"/>
<stop offset="1" stop-color="#23C89A"/>
</linearGradient>
</defs>
</svg>
