<svg width="250" height="250" viewBox="0 0 250 250" fill="none" xmlns="http://www.w3.org/2000/svg">
<path d="M113.577 10.3638C120.058 4.48422 129.943 4.48423 136.423 10.3638L154.06 26.3652C157.356 29.3557 161.693 30.9343 166.14 30.7622L189.936 29.841C198.68 29.5026 206.252 35.8565 207.437 44.5261L210.662 68.1206C211.265 72.5301 213.573 76.5273 217.09 79.254L235.911 93.8442C242.827 99.2052 244.543 108.94 239.878 116.343L227.182 136.49C224.81 140.256 224.008 144.801 224.95 149.151L229.989 172.426C231.841 180.978 226.898 189.538 218.566 192.211L195.89 199.484C191.653 200.843 188.117 203.81 186.042 207.747L174.942 228.816C170.863 236.557 161.574 239.938 153.474 236.63L131.428 227.625C127.308 225.943 122.692 225.943 118.572 227.625L96.5261 236.63C88.4256 239.938 79.1367 236.557 75.0581 228.816L63.9577 207.747C61.8832 203.81 58.3474 200.843 54.1096 199.484L31.4336 192.211C23.1015 189.538 18.159 180.978 20.0107 172.426L25.0499 149.151C25.9917 144.801 25.1902 140.256 22.8175 136.49L10.1218 116.343C5.45687 108.94 7.17339 99.2052 14.0889 93.8442L32.9099 79.254C36.4272 76.5273 38.7351 72.5301 39.3378 68.1206L42.5628 44.5261C43.7478 35.8565 51.3201 29.5026 60.0637 29.841L83.8598 30.7622C88.307 30.9343 92.6443 29.3557 95.9403 26.3652L113.577 10.3638Z" fill="white"/>
<path d="M114.077 26.3638C120.557 20.4842 130.443 20.4842 136.923 26.3638L150.045 38.2692C153.341 41.2596 157.678 42.8383 162.126 42.6661L179.83 41.9808C188.574 41.6423 196.146 47.9963 197.331 56.6658L199.731 74.2206C200.333 78.6301 202.641 82.6273 206.159 85.354L220.162 96.2094C227.077 101.57 228.794 111.305 224.129 118.708L214.683 133.698C212.31 137.464 211.509 142.009 212.451 146.359L216.2 163.676C218.052 172.228 213.109 180.788 204.777 183.461L187.906 188.872C183.668 190.231 180.132 193.198 178.057 197.136L169.799 212.811C165.72 220.552 156.431 223.933 148.331 220.625L131.928 213.925C127.808 212.243 123.192 212.243 119.072 213.925L102.669 220.625C94.5689 223.933 85.2801 220.552 81.2014 212.811L72.9425 197.136C70.868 193.198 67.3322 190.231 63.0944 188.872L46.223 183.461C37.891 180.788 32.9484 172.228 34.8001 163.676L38.5494 146.359C39.4912 142.009 38.6897 137.464 36.317 133.698L26.8711 118.708C22.2062 111.305 23.9227 101.57 30.8383 96.2094L44.8414 85.354C48.3588 82.6273 50.6666 78.6301 51.2693 74.2206L53.6688 56.6658C54.8538 47.9963 62.4261 41.6423 71.1697 41.9808L88.8745 42.6661C93.3216 42.8383 97.6589 41.2596 100.955 38.2692L114.077 26.3638Z" fill="#AB9DEC"/>
<path d="M114.077 38.3638C120.557 32.4842 130.443 32.4842 136.923 38.3638L146.762 47.2902C150.058 50.2806 154.395 51.8593 158.842 51.6872L172.117 51.1733C180.86 50.8348 188.433 57.1888 189.618 65.8583L191.417 79.0206C192.02 83.4301 194.327 87.4273 197.845 90.154L208.344 98.2932C215.26 103.654 216.976 113.389 212.311 120.792L205.229 132.031C202.856 135.797 202.055 140.342 202.996 144.692L205.808 157.676C207.659 166.228 202.717 174.788 194.385 177.461L181.735 181.518C177.497 182.877 173.961 185.844 171.887 189.782L165.694 201.535C161.616 209.276 152.327 212.657 144.226 209.348L131.928 204.325C127.808 202.643 123.192 202.643 119.072 204.325L106.774 209.348C98.6732 212.657 89.3843 209.276 85.3056 201.535L79.1133 189.782C77.0388 185.844 73.503 182.877 69.2652 181.518L56.6153 177.461C48.2833 174.788 43.3408 166.228 45.1924 157.676L48.0035 144.692C48.9453 140.342 48.1438 135.797 45.7712 132.031L38.6888 120.792C34.0239 113.389 35.7404 103.654 42.6559 98.2932L53.1553 90.154C56.6726 87.4273 58.9804 83.4301 59.5831 79.0206L61.3822 65.8583C62.5672 57.1888 70.1396 50.8348 78.8832 51.1733L92.1579 51.6872C96.605 51.8593 100.942 50.2806 104.238 47.2902L114.077 38.3638Z" fill="#3D2B93"/>
<g clip-path="url(#clip0_959_39056)">
<path d="M113.545 38.4474C120.035 32.5284 129.965 32.5284 136.455 38.4474L146.116 47.2583C149.417 50.2683 153.769 51.8584 158.233 51.6847L171.282 51.1769C180.031 50.8365 187.608 57.1974 188.788 65.8736L190.578 79.0378C191.176 83.4371 193.471 87.4278 196.973 90.1567L207.435 98.3087C214.312 103.668 216.02 113.361 211.389 120.748L204.303 132.051C201.95 135.805 201.155 140.329 202.088 144.66L204.899 157.711C206.738 166.249 201.809 174.791 193.497 177.471L180.98 181.506C176.741 182.873 173.208 185.849 171.14 189.794L165.023 201.465C160.949 209.238 151.627 212.632 143.509 209.299L131.457 204.351C127.32 202.652 122.68 202.652 118.543 204.351L106.491 209.299C98.3726 212.632 89.0514 209.238 84.9773 201.465L78.8601 189.794C76.7924 185.849 73.2589 182.873 69.0196 181.506L56.5031 177.471C48.1911 174.791 43.2619 166.249 45.1008 157.711L47.9119 144.66C48.8447 140.329 48.05 135.805 45.6968 132.051L38.6108 120.748C33.98 113.361 35.6882 103.668 42.5653 98.3087L53.0266 90.1567C56.5287 87.4278 58.8241 83.4371 59.4223 79.0378L61.2124 65.8736C62.3921 57.1974 69.969 50.8365 78.7183 51.1769L91.7671 51.6847C96.2306 51.8584 100.583 50.2683 103.884 47.2583L113.545 38.4474Z" fill="#573CDA"/>
</g>
<path d="M98.5 176C91.1994 176 84.981 174.012 79.8448 170.037C74.7086 166.029 70.7837 160.228 68.0702 152.633C65.3567 145.006 64 135.795 64 125C64 114.27 65.3567 105.107 68.0702 97.5124C70.816 89.885 74.757 84.0675 79.8933 80.0599C85.0618 76.02 91.264 74 98.5 74C105.736 74 111.922 76.02 117.058 80.0599C122.227 84.0675 126.168 89.885 128.881 97.5124C131.627 105.107 133 114.27 133 125C133 135.795 131.643 145.006 128.93 152.633C126.216 160.228 122.291 166.029 117.155 170.037C112.019 174.012 105.801 176 98.5 176ZM98.5 165.335C105.736 165.335 111.357 161.844 115.362 154.863C119.368 147.882 121.371 137.928 121.371 125C121.371 116.403 120.45 109.083 118.609 103.039C116.8 96.9952 114.183 92.3897 110.759 89.2224C107.367 86.0551 103.281 84.4715 98.5 84.4715C91.3287 84.4715 85.724 88.0105 81.6861 95.0884C77.6482 102.134 75.6292 112.105 75.6292 125C75.6292 133.597 76.5337 140.901 78.3427 146.913C80.1517 152.924 82.7521 157.497 86.144 160.632C89.5681 163.767 93.6868 165.335 98.5 165.335Z" fill="#1BC082"/>
<path d="M162.344 167.188V164.878C162.344 163.281 162.664 161.82 163.306 160.494C163.962 159.154 164.91 158.084 166.152 157.286C167.407 156.473 168.928 156.067 170.714 156.067C172.527 156.067 174.048 156.473 175.275 157.286C176.503 158.084 177.431 159.154 178.058 160.494C178.686 161.82 179 163.281 179 164.878V167.188C179 168.785 178.679 170.254 178.037 171.594C177.41 172.92 176.475 173.99 175.233 174.802C174.006 175.601 172.499 176 170.714 176C168.9 176 167.373 175.601 166.131 174.802C164.89 173.99 163.948 172.92 163.306 171.594C162.664 170.254 162.344 168.785 162.344 167.188ZM166.612 164.878V167.188C166.612 168.514 166.919 169.705 167.533 170.76C168.147 171.801 169.207 172.321 170.714 172.321C172.178 172.321 173.211 171.801 173.811 170.76C174.424 169.705 174.731 168.514 174.731 167.188V164.878C174.731 163.552 174.438 162.369 173.852 161.328C173.267 160.273 172.22 159.745 170.714 159.745C169.249 159.745 168.196 160.273 167.554 161.328C166.926 162.369 166.612 163.552 166.612 164.878ZM141 142.122V139.812C141 138.215 141.321 136.753 141.963 135.427C142.618 134.087 143.567 133.018 144.808 132.219C146.064 131.406 147.584 131 149.37 131C151.184 131 152.704 131.406 153.932 132.219C155.159 133.018 156.087 134.087 156.715 135.427C157.343 136.753 157.656 138.215 157.656 139.812V142.122C157.656 143.719 157.336 145.187 156.694 146.528C156.066 147.854 155.131 148.923 153.89 149.736C152.662 150.534 151.156 150.933 149.37 150.933C147.557 150.933 146.029 150.534 144.787 149.736C143.546 148.923 142.604 147.854 141.963 146.528C141.321 145.187 141 143.719 141 142.122ZM145.269 139.812V142.122C145.269 143.448 145.576 144.638 146.189 145.693C146.803 146.734 147.863 147.255 149.37 147.255C150.835 147.255 151.867 146.734 152.467 145.693C153.081 144.638 153.388 143.448 153.388 142.122V139.812C153.388 138.486 153.095 137.302 152.509 136.261C151.923 135.206 150.877 134.679 149.37 134.679C147.905 134.679 146.852 135.206 146.21 136.261C145.583 137.302 145.269 138.486 145.269 139.812ZM142.59 175.401L172.053 131.599H176.824L147.361 175.401H142.59Z" fill="#1BC082"/>
<defs>
<clipPath id="clip0_959_39056">
<rect width="100" height="192" fill="white" transform="translate(25 28)"/>
</clipPath>
</defs>
</svg>
