<svg width="163" height="206" viewBox="0 0 163 206" fill="none" xmlns="http://www.w3.org/2000/svg">
<path d="M105.913 194.585L80.4141 205.622L62.2454 197.667C24.5621 181.167 0.230469 144.03 0.230469 103.015L1.16283 21.6677L81.1257 0.86084L162.463 22.5968L161.53 110.09C161.53 146.778 139.683 179.969 105.913 194.585Z" fill="white"/>
<path d="M102.245 182.826L80.2845 192.575L64.6368 185.548C32.1821 170.974 11.2266 138.173 11.2266 101.946L12.0296 30.0957L80.8489 12.4902L150.948 30.9163L150.145 108.195C150.145 140.6 131.33 169.916 102.245 182.826Z" fill="#3D2B93"/>
<path d="M80.8501 12.4902L79.8418 12.7481V192.375L80.2855 192.575L102.247 182.826C131.331 169.916 150.147 140.6 150.147 108.195L150.95 30.9163L80.8501 12.4902Z" fill="#573CDA"/>
<path d="M116.122 79.8424C107.633 79.8424 101.919 80.1367 102.001 79.921C103.342 76.3245 105.354 73.3128 107.822 71.2117C110.289 69.1106 113.117 68 116 68C118.883 68 121.712 69.1106 124.179 71.2117C126.646 73.3128 128.659 76.3245 130 79.921C130 79.921 124.063 79.8424 116.122 79.8424Z" fill="white"/>
<path d="M115.394 95.3101C100.297 95.3101 88.0156 83.0283 88.0156 67.9319C88.0156 52.8352 100.297 40.5533 115.394 40.5533C130.491 40.5533 142.772 52.8352 142.772 67.9319C142.772 83.0283 130.491 95.3101 115.394 95.3101ZM115.394 41.2493C100.681 41.2493 88.7115 53.2191 88.7115 67.9319C88.7115 82.6446 100.681 94.6142 115.394 94.6142C130.107 94.6142 142.076 82.6446 142.076 67.9319C142.076 53.2191 130.107 41.2493 115.394 41.2493Z" fill="white"/>
<path d="M122.61 57.856C123.256 53.87 120.549 50.1144 116.564 49.4676C112.578 48.8207 108.822 51.5276 108.175 55.5136C107.528 59.4996 110.235 63.2552 114.221 63.902C118.207 64.5489 121.963 61.8419 122.61 57.856Z" fill="white"/>
<path d="M47.8782 147.698C32.7818 147.698 20.5 135.416 20.5 120.32C20.5 105.224 32.7818 92.9419 47.8782 92.9419C62.9746 92.9419 75.2564 105.224 75.2564 120.32C75.2564 135.416 62.9746 147.698 47.8782 147.698ZM47.8782 93.6378C33.1655 93.6378 21.1959 105.607 21.1959 120.32C21.1959 135.033 33.1655 147.002 47.8782 147.002C62.591 147.002 74.5605 135.033 74.5605 120.32C74.5605 105.607 62.591 93.6378 47.8782 93.6378Z" fill="white"/>
<path d="M48.122 131.842C39.6329 131.842 33.9193 132.137 34.0009 131.921C35.3416 128.324 37.3545 125.313 39.8219 123.212C42.2894 121.111 45.1175 120 48.0004 120C50.8834 120 53.7115 121.111 56.179 123.212C58.6464 125.313 60.6593 128.324 62 131.921C62 131.921 56.0634 131.842 48.122 131.842Z" fill="white"/>
<path d="M47.8761 116.385C51.9142 116.385 55.1877 113.111 55.1877 109.073C55.1877 105.035 51.9142 101.762 47.8761 101.762C43.838 101.762 40.5645 105.035 40.5645 109.073C40.5645 113.111 43.838 116.385 47.8761 116.385Z" fill="white"/>
<path d="M27.623 58.3907L35.2801 85.3268L58.8802 70.2551L52.5006 67.8337C54.232 62.2219 57.6575 54.3908 64.5741 47.1916C78.4863 32.7111 94.4942 36.9216 98.6801 36.7363C93.3315 33.3459 75.9869 23.2956 55.3162 35.839C42.8646 43.3948 36.7755 54.3163 34.0343 60.8244L27.623 58.3907Z" fill="#1BC082"/>
<path d="M136.793 131.243L129.136 104.307L105.536 119.378L111.916 121.8C110.184 127.412 106.759 135.243 99.8424 142.442C85.9302 156.922 69.9222 152.712 65.7363 152.897C71.0849 156.288 88.4296 166.338 109.1 153.795C121.552 146.239 127.641 135.317 130.382 128.809L136.793 131.243Z" fill="#1BC082"/>
</svg>
