<svg width="116" height="102" viewBox="0 0 116 102" fill="none" xmlns="http://www.w3.org/2000/svg">
<path d="M101.511 73.9052C99.9226 73.9058 98.3517 74.2348 96.8967 74.8716C95.4418 75.5084 94.1342 76.4393 93.0562 77.6056L67.9061 63.535C68.675 61.9084 69.0519 60.1243 69.0067 58.3257C68.9614 56.5271 68.4953 54.7641 67.6456 53.1782C66.7959 51.5923 65.5863 50.2277 64.1139 49.1937C62.6415 48.1598 60.9472 47.4853 59.1671 47.2245V23.9849C62.0511 23.5526 64.665 22.0459 66.4847 19.767C68.3043 17.4881 69.1951 14.6055 68.9783 11.6974C68.7616 8.7892 67.4534 6.07052 65.3161 4.08654C63.1787 2.10256 60.3703 1 57.4541 1C54.5378 1 51.7294 2.10256 49.5921 4.08654C47.4547 6.07052 46.1465 8.7892 45.9298 11.6974C45.713 14.6055 46.6038 17.4881 48.4234 19.767C50.2431 22.0459 52.857 23.5526 55.741 23.9849V47.2245C53.9116 47.495 52.1741 48.2016 50.6751 49.2847C49.1762 50.3677 47.9597 51.7954 47.1284 53.4474C46.2971 55.0993 45.8753 56.9269 45.8987 58.7761C45.9221 60.6253 46.3899 62.4417 47.2627 64.0721L22.2634 78.0574C20.4004 75.8412 17.7688 74.4109 14.8958 74.0531C12.0228 73.6954 9.12075 74.4366 6.77121 76.1283C4.42167 77.8199 2.79825 80.337 2.22626 83.1751C1.65427 86.0132 2.17597 88.9627 3.68684 91.4323C5.19771 93.902 7.58611 95.7095 10.3734 96.4925C13.1607 97.2755 16.1409 96.9762 18.7168 95.6546C21.2927 94.333 23.2741 92.0867 24.2637 89.366C25.2533 86.6452 25.1782 83.6509 24.0533 80.9832L49.3306 66.8424C50.4361 67.9409 51.753 68.8035 53.2016 69.3782C54.6502 69.9528 56.2004 70.2276 57.7583 70.1856C59.3161 70.1437 60.8493 69.7861 62.2649 69.1344C63.6806 68.4826 64.9492 67.5504 65.994 66.3941L91.1123 80.4462C90.0262 82.7037 89.7037 85.2531 90.1934 87.7099C90.6831 90.1667 91.9585 92.3976 93.8271 94.0661C95.6958 95.7346 98.0564 96.7502 100.553 96.9596C103.049 97.169 105.546 96.5609 107.666 95.2271C109.787 93.8932 111.416 91.9059 112.308 89.565C113.201 87.2241 113.307 84.6566 112.612 82.2497C111.917 79.8429 110.459 77.7272 108.456 76.222C106.454 74.7168 104.016 73.9036 101.511 73.9052ZM13.4005 93.5866C11.7931 93.5865 10.2218 93.1097 8.88531 92.2166C7.54883 91.3234 6.50718 90.054 5.89211 88.5689C5.27704 87.0838 5.11619 85.4497 5.42982 83.8731C5.74346 82.2966 6.51749 80.8484 7.65412 79.7118C8.79076 78.5752 10.2389 77.8011 11.8155 77.4874C13.392 77.1738 15.0262 77.3347 16.5113 77.9498C17.9964 78.5649 19.2658 79.6065 20.1589 80.943C21.0521 82.2795 21.5289 83.8507 21.529 85.4582C21.526 87.6131 20.6686 89.6788 19.1449 91.2025C17.6211 92.7262 15.5554 93.5836 13.4005 93.5866ZM49.3239 12.5708C49.3236 10.9627 49.8001 9.39068 50.6933 8.05348C51.5865 6.71627 52.8561 5.67397 54.3417 5.05837C55.8273 4.44278 57.4621 4.28156 59.0393 4.59509C60.6165 4.90862 62.0652 5.68284 63.2024 6.81981C64.3396 7.95678 65.1141 9.40541 65.4279 10.9826C65.7418 12.5597 65.5808 14.1945 64.9655 15.6802C64.3502 17.1659 63.3082 18.4357 61.9711 19.3292C60.6341 20.2226 59.0621 20.6995 57.4541 20.6995C55.2987 20.6972 53.2323 19.8402 51.7081 18.3163C50.184 16.7924 49.3265 14.7261 49.3239 12.5708ZM57.4541 66.7637C55.8469 66.7631 54.276 66.2859 52.94 65.3925C51.6039 64.4991 50.5628 63.2297 49.9482 61.7446C49.3336 60.2596 49.1731 58.6257 49.4871 57.0494C49.801 55.4732 50.5753 54.0254 51.712 52.8892C52.8487 51.753 54.2967 50.9793 55.8731 50.6659C57.4494 50.3526 59.0833 50.5138 60.5681 51.129C62.0529 51.7442 63.322 52.7858 64.2148 54.1222C65.1077 55.4585 65.5842 57.0296 65.5842 58.6368C65.5815 60.792 64.724 62.858 63.1998 64.3816C61.6755 65.9052 59.6092 66.7619 57.4541 66.7637ZM101.511 93.5866C99.9034 93.5865 98.3321 93.1097 96.9956 92.2166C95.6592 91.3234 94.6175 90.0541 94.0024 88.5689C93.3874 87.0838 93.2265 85.4497 93.5402 83.8731C93.8538 82.2966 94.6278 80.8484 95.7645 79.7118C96.9011 78.5752 98.3492 77.8011 99.9258 77.4874C101.502 77.1738 103.137 77.3347 104.622 77.9498C106.107 78.5649 107.376 79.6065 108.269 80.9429C109.162 82.2794 109.639 83.8507 109.639 85.4582C109.636 87.613 108.779 89.6788 107.255 91.2025C105.731 92.7262 103.666 93.5836 101.511 93.5866Z" fill="#573CDA"/>
<circle cx="57.5" cy="14.5" r="14.5" fill="#1BC082"/>
<circle cx="57.5" cy="58.5" r="12.5" fill="#1BC082"/>
<circle cx="14.5" cy="87.5" r="14.5" fill="#1BC082"/>
<circle cx="101.5" cy="87.5" r="14.5" fill="#1BC082"/>
</svg>
