<svg width="168" height="125" viewBox="0 0 168 125" fill="none" xmlns="http://www.w3.org/2000/svg">
<path d="M64.5955 84.7222C65.3604 87.013 66.8258 89.0054 68.7845 90.4181C70.7433 91.8308 73.0965 92.5923 75.5115 92.5949C77.2591 92.5948 78.9832 92.1928 80.5507 91.4202L90.4753 105.261C89.2023 106.545 88.2502 108.111 87.6965 109.832C87.1428 111.552 87.0031 113.38 87.2888 115.165C87.5744 116.95 88.2774 118.643 89.3404 120.105C90.4035 121.567 91.7966 122.758 93.4066 123.58C95.0166 124.403 96.798 124.834 98.6059 124.838C100.414 124.842 102.197 124.419 103.811 123.604C105.425 122.79 106.823 121.605 107.893 120.148C108.963 118.691 109.674 117.001 109.967 115.217C109.986 115.105 109.992 114.993 110.007 114.881L128.521 113.048C129.007 114.838 129.92 116.484 131.18 117.845C132.441 119.205 134.012 120.241 135.76 120.862C137.508 121.484 139.381 121.673 141.218 121.414C143.055 121.154 144.801 120.454 146.309 119.373C147.816 118.292 149.04 116.862 149.874 115.205C150.709 113.548 151.13 111.714 151.102 109.859C151.073 108.004 150.597 106.184 149.712 104.553C148.827 102.923 147.56 101.53 146.021 100.496L153.699 83.5456C155.957 83.992 158.297 83.7488 160.416 82.8476C162.534 81.9464 164.332 80.4289 165.576 78.4924C166.821 76.5558 167.454 74.2898 167.394 71.9887C167.333 69.6875 166.582 67.4578 165.238 65.5892C164.172 64.1051 162.768 62.8959 161.143 62.0613C159.517 61.2268 157.716 60.7909 155.889 60.7897C154.142 60.7898 152.419 61.1916 150.852 61.9641L140.918 48.1115C142.841 46.193 144.018 43.6522 144.237 40.9448C144.457 38.2373 143.705 35.5402 142.117 33.3366C140.747 31.4223 138.823 29.9751 136.603 29.191C134.384 28.4069 131.977 28.3238 129.709 28.9529C127.441 29.582 125.421 30.8929 123.923 32.7081C122.424 34.5234 121.52 36.7552 121.332 39.1015L103.267 40.8841C102.915 39.5629 102.328 38.3159 101.533 37.203C99.925 34.9543 97.5587 33.3621 94.8698 32.7194C92.1809 32.0768 89.3503 32.4268 86.8989 33.7052L76.9331 19.8019C78.2061 18.5179 79.1581 16.9516 79.7117 15.2303C80.2652 13.509 80.4047 11.6813 80.1188 9.89596C79.8328 8.11059 79.1295 6.41792 78.0661 4.95559C77.0027 3.49326 75.6091 2.30256 73.9988 1.48032C72.3884 0.658084 70.6068 0.227526 68.7986 0.223659C66.9905 0.219793 65.207 0.642738 63.5932 1.45808C61.9793 2.27342 60.5807 3.45813 59.511 4.9159C58.4414 6.37367 57.7308 8.06332 57.4373 9.84744C57.3867 10.1579 57.3568 10.4684 57.3306 10.7789L39.2713 12.5632C38.7848 10.774 37.8725 9.12909 36.6122 7.76903C35.352 6.40897 33.7812 5.37417 32.0341 4.75305C30.2871 4.13194 28.4156 3.94294 26.5796 4.20223C24.7436 4.46152 22.9977 5.16139 21.491 6.24203C19.9842 7.32267 18.7615 8.75198 17.9271 10.4079C17.0928 12.0637 16.6717 13.8969 16.6998 15.7509C16.7278 17.6049 17.2043 19.4246 18.0884 21.0544C18.9725 22.6842 20.238 24.0758 21.7768 25.1104L14.2931 41.6322C12.4991 41.1818 10.6228 41.171 8.82374 41.6007C7.02465 42.0304 5.35584 42.888 3.95905 44.1006C2.56225 45.3132 1.47873 46.845 0.800518 48.5658C0.122301 50.2867 -0.13058 52.1459 0.0633497 53.9854C0.257279 55.8249 0.89229 57.5904 1.91445 59.132C2.93662 60.6736 4.31574 61.9458 5.93469 62.8404C7.55364 63.7351 9.36459 64.2258 11.2137 64.2709C13.0629 64.3161 14.8956 63.9142 16.5563 63.0996L26.4792 76.9392C25.1923 78.2314 24.2316 79.8114 23.6766 81.5486C23.1216 83.2857 22.9883 85.1301 23.2876 86.929C23.5868 88.7279 24.3102 90.4297 25.3978 91.8936C26.4853 93.3575 27.9059 94.5414 29.5418 95.3473C31.1777 96.1532 32.982 96.5579 34.8054 96.5281C36.6289 96.4982 38.419 96.0346 40.0276 95.1756C41.6363 94.3166 43.0173 93.0869 44.0564 91.5882C45.0955 90.0895 45.7627 88.3649 46.003 86.5571L64.5955 84.7222ZM69.2792 85.5638C68.4591 84.4191 67.9701 83.0706 67.866 81.6663C67.7619 80.262 68.0467 78.8561 68.689 77.6029C69.3313 76.3498 70.3064 75.2978 71.5073 74.5623C72.7082 73.8269 74.0884 73.4365 75.4966 73.4339C76.716 73.4351 77.9177 73.7261 79.0025 74.2829C80.0874 74.8396 81.0245 75.6462 81.7365 76.6362C82.3227 77.4541 82.742 78.3795 82.9706 79.3596C83.1991 80.3396 83.2324 81.355 83.0685 82.3479C82.9047 83.3408 82.5468 84.2917 82.0155 85.1463C81.4841 86.0009 80.7896 86.7425 79.9716 87.3287C79.1537 87.9148 78.2283 88.3342 77.2483 88.5628C76.2682 88.7913 75.2528 88.8246 74.2599 88.6607C73.267 88.4969 72.3161 88.139 71.4615 87.6076C70.6069 87.0763 69.8654 86.3818 69.2792 85.5638ZM106.189 114.593C105.894 116.384 104.972 118.012 103.589 119.188C102.205 120.363 100.45 121.009 98.6343 121.011C97.3206 121.012 96.0286 120.676 94.8824 120.034C93.7362 119.392 92.7743 118.466 92.089 117.345C91.4037 116.224 91.018 114.946 90.9689 113.633C90.9199 112.321 91.2091 111.017 91.8089 109.848C92.4087 108.68 93.2988 107.685 94.3939 106.959C95.489 106.233 96.7523 105.801 98.0624 105.704C99.3726 105.608 100.686 105.849 101.876 106.406C103.065 106.963 104.092 107.816 104.857 108.884C105.446 109.7 105.867 110.625 106.095 111.605C106.324 112.585 106.356 113.6 106.189 114.593ZM144.068 116.261C142.771 117.194 141.214 117.695 139.616 117.694C138.397 117.693 137.196 117.402 136.111 116.846C135.026 116.29 134.089 115.484 133.376 114.495C132.493 113.263 131.995 111.797 131.946 110.282C131.896 108.767 132.297 107.271 133.097 105.984C133.897 104.697 135.062 103.676 136.442 103.05C137.823 102.424 139.358 102.222 140.854 102.469C142.35 102.716 143.738 103.401 144.845 104.438C145.951 105.474 146.725 106.815 147.069 108.291C147.413 109.768 147.312 111.313 146.777 112.731C146.243 114.15 145.3 115.378 144.068 116.261ZM162.125 67.8207C162.713 68.6387 163.134 69.5646 163.364 70.5454C163.594 71.5262 163.628 72.5426 163.464 73.5366C163.301 74.5306 162.943 75.4826 162.411 76.3381C161.879 77.1937 161.184 77.936 160.365 78.5227C159.547 79.1093 158.62 79.5288 157.639 79.757C156.658 79.9852 155.641 80.0178 154.648 79.8529C153.654 79.6879 152.702 79.3286 151.848 78.7956C150.993 78.2626 150.252 77.5663 149.666 76.7465C148.846 75.6015 148.358 74.2528 148.254 72.8484C148.15 71.4439 148.436 70.0381 149.079 68.7851C149.722 67.5322 150.697 66.4807 151.899 65.746C153.1 65.0113 154.481 64.6218 155.889 64.6204C157.108 64.621 158.309 64.9116 159.393 65.4681C160.478 66.0245 161.414 66.831 162.125 67.8207ZM128.306 33.808C129.537 32.9235 131.004 32.4242 132.519 32.3732C134.035 32.3222 135.532 32.7218 136.82 33.5216C138.109 34.3213 139.131 35.4852 139.758 36.866C140.385 38.2469 140.588 39.7826 140.342 41.279C140.096 42.7754 139.412 44.1652 138.376 45.2727C137.34 46.3801 135.999 47.1554 134.522 47.5006C133.045 47.8458 131.499 47.7452 130.08 47.2117C128.66 46.6782 127.431 45.7357 126.547 44.5034C125.956 43.6874 125.531 42.7623 125.3 41.7814C125.068 40.8006 125.032 39.7835 125.196 38.789C125.359 37.7945 125.718 36.8422 126.252 35.9872C126.786 35.1323 127.484 34.3916 128.306 33.808ZM103.651 44.6941L121.662 42.9173C122.084 44.5676 122.87 46.1029 123.96 47.4114C125.051 48.7199 126.42 49.7687 127.968 50.4815C129.515 51.1942 131.202 51.553 132.905 51.5316C134.609 51.5103 136.286 51.1094 137.815 50.358L147.749 64.2126C146.507 65.4505 145.568 66.9576 145.003 68.6172C144.438 70.2768 144.262 72.0442 144.491 73.7824C144.719 75.5207 145.344 77.1831 146.318 78.6407C147.292 80.0983 148.589 81.312 150.108 82.1876L142.525 98.9246C140.978 98.5161 139.363 98.4353 137.783 98.6875C136.203 98.9396 134.693 99.5191 133.351 100.389C132.008 101.259 130.861 102.399 129.985 103.738C129.109 105.076 128.522 106.583 128.262 108.162C128.203 108.521 128.163 108.88 128.139 109.236L109.883 111.043C109.534 109.324 108.796 107.708 107.724 106.319C106.653 104.93 105.277 103.805 103.704 103.031C102.13 102.257 100.399 101.854 98.6451 101.854C96.8911 101.853 95.1603 102.255 93.5858 103.028L83.6518 89.172C84.8296 87.9993 85.737 86.5835 86.3105 85.0236C86.884 83.4637 87.1098 81.7972 86.9721 80.1409C86.8344 78.4846 86.3365 76.8784 85.5132 75.4346C84.6899 73.9908 83.5612 72.7443 82.2059 71.7823L89.7515 55.1183C91.3623 55.4722 93.0305 55.4744 94.6422 55.1247C96.254 54.7751 97.7713 54.0819 99.0907 53.0924C100.41 52.1029 101.5 50.8404 102.287 49.391C103.074 47.9417 103.539 46.3396 103.651 44.6941ZM98.4209 39.4344C99.4236 40.8321 99.9271 42.5263 99.8506 44.2447C99.7741 45.9632 99.1221 47.606 97.9992 48.9091C96.8764 50.2122 95.348 51.0999 93.6598 51.4295C91.9715 51.7592 90.2215 51.5116 88.6909 50.7265C87.1604 49.9415 85.9382 48.6647 85.2209 47.1013C84.5037 45.5378 84.3329 43.7786 84.7361 42.1064C85.1393 40.4342 86.093 38.9461 87.444 37.8814C88.795 36.8167 90.4648 36.2371 92.1849 36.2359C93.4037 36.2356 94.6049 36.5256 95.6893 37.0818C96.7738 37.6379 97.7101 38.4444 98.4209 39.4344ZM61.2174 10.4684C61.5132 8.67781 62.4345 7.05019 63.8175 5.87507C65.2005 4.69994 66.9556 4.05352 68.7704 4.05081C70.0843 4.04887 71.3766 4.38473 72.5233 5.02614C73.6699 5.66755 74.6325 6.59298 75.3184 7.71356C76.0044 8.83414 76.3908 10.1122 76.4405 11.4252C76.4902 12.7381 76.2015 14.0418 75.6022 15.211C75.0029 16.3802 74.113 17.3757 73.0181 18.102C71.9232 18.8282 70.66 19.2608 69.3498 19.3582C68.0395 19.4555 66.7262 19.2144 65.536 18.658C64.3458 18.1016 63.3186 17.2486 62.553 16.1808C61.9636 15.3643 61.542 14.439 61.3128 13.4584C61.0835 12.4779 61.0511 11.4616 61.2174 10.4684ZM20.6302 14.3329C20.9174 12.581 21.8032 10.9829 23.1367 9.81103C24.4702 8.63915 26.1688 7.96602 27.9431 7.90634C29.7173 7.84665 31.4573 8.40411 32.8666 9.48372C34.2758 10.5633 35.267 12.0983 35.6712 13.8269C36.0755 15.5555 35.8677 17.3708 35.0834 18.9634C34.299 20.5559 32.9867 21.8272 31.3699 22.5605C29.7532 23.2938 27.9322 23.4437 26.2174 22.9847C24.5025 22.5257 22.9999 21.4862 21.9656 20.0433C21.3768 19.2269 20.9557 18.3019 20.7265 17.3217C20.4972 16.3416 20.4645 15.3257 20.6302 14.3329ZM5.28304 57.2451C4.28267 55.8487 3.78073 54.1566 3.85789 52.4406C3.93504 50.7246 4.5868 49.0844 5.70846 47.7835C6.83011 46.4825 8.35653 45.5964 10.0425 45.2675C11.7284 44.9385 13.476 45.1859 15.0044 45.9698C16.5328 46.7537 17.7533 48.0287 18.4698 49.5899C19.1863 51.151 19.3573 52.9077 18.9551 54.5777C18.553 56.2477 17.6011 57.734 16.2525 58.7978C14.9039 59.8617 13.2368 60.4413 11.5191 60.4435C10.2996 60.4478 9.09696 60.1595 8.01192 59.603C6.92688 59.0465 5.99109 58.2379 5.28304 57.2451ZM39.0954 91.2538C37.8636 92.1373 36.3975 92.6356 34.8825 92.6858C33.3674 92.736 31.8715 92.3358 30.584 91.5358C29.2964 90.7358 28.275 89.5719 27.6489 88.1914C27.0228 86.8108 26.8202 85.2757 27.0666 83.78C27.3131 82.2843 27.9975 80.8952 29.0334 79.7885C30.0693 78.6819 31.4101 77.9072 32.8863 77.5626C34.3625 77.218 35.9077 77.3188 37.3265 77.8524C38.7454 78.386 39.9741 79.3284 40.8574 80.5604C41.4513 81.3755 41.8771 82.3006 42.1102 83.2818C42.3432 84.263 42.3788 85.2808 42.2148 86.2759C42.0509 87.271 41.6906 88.2236 41.1551 89.0781C40.6196 89.9327 39.9194 90.6723 39.0954 91.2538ZM34.6231 73.5312C32.8782 73.5316 31.1568 73.9329 29.5916 74.704L19.6576 60.8513C20.8619 59.6464 21.7819 58.1877 22.3504 56.5819C22.919 54.976 23.1217 53.2634 22.9439 51.5692C22.7661 49.8749 22.2122 48.2418 21.3226 46.7889C20.433 45.3361 19.2302 44.1003 17.802 43.1716L25.2688 26.6835C26.9038 27.1178 28.6145 27.1851 30.2785 26.8805C31.9425 26.5759 33.5185 25.9069 34.8934 24.9214C36.2684 23.936 37.4084 22.6586 38.2315 21.1807C39.0547 19.7029 39.5407 18.0613 39.6547 16.3735L57.6579 14.5966C58.0831 16.2466 58.8704 17.7813 59.9625 19.0892C61.0547 20.3971 62.4244 21.4454 63.9722 22.158C65.5199 22.8706 67.207 23.2297 68.9108 23.2091C70.6146 23.1885 72.2925 22.7889 73.8226 22.0391L83.837 36.0097C82.6888 37.2208 81.8186 38.6678 81.2871 40.2498C80.7557 41.8318 80.5757 43.5107 80.7598 45.1694C80.944 46.8281 81.4877 48.4267 82.3532 49.8536C83.2187 51.2805 84.3851 52.5015 85.771 53.4312L78.2873 69.9529C76.747 69.5674 75.1435 69.5054 73.5781 69.7709C72.0126 70.0364 70.5192 70.6237 69.1922 71.4955C67.8652 72.3673 66.7333 73.5048 65.8681 74.8361C65.0028 76.1675 64.4231 77.6638 64.1654 79.2305C64.0768 79.7924 64.0299 80.3601 64.025 80.9289L45.8796 82.719C45.3536 80.1229 43.9449 77.789 41.8928 76.114C39.8407 74.4391 37.2719 73.5264 34.6231 73.5312Z" fill="#573CDA"/>
<circle cx="34" cy="85" r="12" fill="#1BC082"/>
<circle cx="99" cy="113" r="12" fill="#1BC082"/>
<circle cx="12" cy="53" r="12" fill="#1BC082"/>
<circle cx="28" cy="15" r="12" fill="#1BC082"/>
<circle cx="69" cy="12" r="12" fill="#1BC082"/>
<circle cx="133" cy="40" r="12" fill="#1BC082"/>
<circle cx="92" cy="44" r="12" fill="#1BC082"/>
<circle cx="156" cy="72" r="12" fill="#1BC082"/>
<circle cx="76" cy="81" r="12" fill="#1BC082"/>
<circle cx="140" cy="110" r="12" fill="#1BC082"/>
</svg>
