<svg width="128" height="103" viewBox="0 0 128 103" fill="none" xmlns="http://www.w3.org/2000/svg">
<path d="M15.7004 77.244C18.0149 77.9254 20.0496 79.3344 21.5039 81.2631C22.9583 83.1917 23.7553 85.5379 23.7773 87.9551C24.9671 88.063 26.1572 88.1413 27.3515 88.1836C27.3956 87.0709 27.577 85.968 27.8917 84.9C28.682 82.2562 30.2756 79.9253 32.4504 78.2321C34.6252 76.5388 37.2728 75.5675 40.0246 75.4535C42.7763 75.3395 45.495 76.0884 47.8019 77.596C50.1087 79.1036 51.8889 81.2947 52.8943 83.864C54.2699 83.3353 55.6245 82.7609 56.9582 82.1408C55.4828 78.9357 55.1258 75.3265 55.9447 71.8935C56.7635 68.4605 58.7105 65.4031 61.4728 63.2129C64.235 61.0227 67.652 59.8269 71.1743 59.8178C74.6966 59.8087 78.1197 60.9867 80.8932 63.1625C81.9398 61.8262 82.9315 60.4512 83.8684 59.0374C76.9526 55.5982 71.5928 49.6626 68.8667 42.4243C66.1406 35.186 66.2503 27.1819 69.1739 20.0214C72.0975 12.861 77.618 7.0752 84.6255 3.82768C91.6329 0.580161 99.6074 0.111722 106.945 2.51652C114.284 4.92133 120.441 10.021 124.179 16.7901C127.918 23.5592 128.96 31.4957 127.097 39.0036C125.233 46.5115 120.602 53.034 114.135 57.2594C107.668 61.4848 99.8436 63.0999 92.2363 61.7797C90.9807 61.5634 89.7393 61.2718 88.5186 60.9065C88.3245 60.8472 88.143 60.7628 87.9488 60.7013C86.7024 62.6343 85.3602 64.5037 83.9273 66.3024C85.7805 68.8311 86.8376 71.8569 86.9631 74.9918C87.0887 78.1266 86.2769 81.2276 84.6319 83.897C82.9868 86.5664 80.5836 88.6825 77.7304 89.9741C74.8771 91.2656 71.7039 91.6736 68.6177 91.1458C67.9733 91.0348 67.3362 90.8845 66.7101 90.6955C63.8229 89.8242 61.2493 88.1336 59.3002 85.8282C57.5024 86.676 55.671 87.4499 53.8059 88.1498C53.8783 89.636 53.6985 91.1237 53.2741 92.5497C52.3409 95.6474 50.3121 98.2976 47.5682 100.003C44.8243 101.709 41.5536 102.353 38.3696 101.815C37.8265 101.722 37.2895 101.597 36.7617 101.438C35.0936 100.94 33.5406 100.115 32.1926 99.0116C30.8447 97.9079 29.7285 96.5474 28.9087 95.0086C28.487 94.2231 28.1449 93.3972 27.8873 92.5434C26.2712 92.5031 24.6549 92.3847 23.0429 92.2303C22.1149 94.7061 20.3579 96.782 18.072 98.1036C15.786 99.4252 13.1131 99.9103 10.5098 99.4762C10.0419 99.3971 9.57954 99.2876 9.12576 99.1484C6.22711 98.2747 3.79351 96.283 2.36034 93.6113C0.927177 90.9396 0.611839 87.8067 1.4837 84.902C2.35555 81.9973 4.34315 79.5587 7.00929 78.1225C9.67545 76.6864 12.8017 76.3703 15.7004 77.244ZM92.962 57.5108C99.5746 58.6328 106.365 57.1865 111.951 53.4664C117.537 49.7463 121.497 44.0323 123.025 37.4884C124.554 30.9444 123.535 24.0627 120.177 18.2451C116.819 12.4275 111.374 8.11165 104.951 6.17658C103.899 5.85991 102.83 5.60785 101.748 5.42183C94.8573 4.2602 87.7885 5.88769 82.0949 9.94659C76.4014 14.0055 72.549 20.1636 71.3845 27.0676C70.2201 33.9716 71.8388 41.0564 75.8848 46.7649C79.9309 52.4734 86.0733 56.3386 92.962 57.5108ZM67.9594 86.5513C70.1214 87.2031 72.4277 87.198 74.5868 86.5364C76.7458 85.8747 78.6606 84.5863 80.0889 82.8342C81.5173 81.0821 82.3951 78.9449 82.6114 76.6928C82.8276 74.4408 82.3726 72.175 81.3039 70.1821C80.2351 68.1892 78.6007 66.5587 76.6072 65.4966C74.6136 64.4345 72.3506 63.9887 70.1042 64.2154C67.8579 64.4422 65.729 65.3314 63.987 66.7706C62.2449 68.2097 60.9678 70.1342 60.3172 72.3007C59.4516 75.2059 59.7697 78.3365 61.2019 81.0073C62.6342 83.678 65.0639 85.6714 67.9594 86.5513ZM32.715 92.9578C33.6923 94.7827 35.271 96.2114 37.1819 97.0005C39.0927 97.7896 41.2175 97.8902 43.1942 97.2853C45.1708 96.6803 46.8769 95.4072 48.0217 93.6829C49.1665 91.9586 49.6792 89.8898 49.4724 87.8291C49.2655 85.7684 48.3519 83.8434 46.8874 82.3821C45.4228 80.9208 43.4978 80.0137 41.4405 79.8153C39.3833 79.617 37.3211 80.1397 35.6053 81.2944C33.8896 82.449 32.6265 84.1642 32.0313 86.1475C31.6904 87.2716 31.5753 88.4523 31.6927 89.6213C31.81 90.7902 32.1575 91.9243 32.715 92.9578ZM10.3707 95.0044C12.1726 95.5472 14.1158 95.3506 15.773 94.4576C17.4302 93.5646 18.6654 92.0485 19.2071 90.2429C19.7488 88.4372 19.5525 86.4899 18.6614 84.8293C17.7703 83.1687 16.2574 81.9308 14.4555 81.388C14.1728 81.3041 13.8853 81.2371 13.5947 81.1873C11.8149 80.8859 9.98745 81.2756 8.48444 82.2772C6.98143 83.2788 5.91594 84.8169 5.50497 86.5781C5.09402 88.3394 5.36848 90.1914 6.2725 91.7569C7.17651 93.3225 8.64208 94.4838 10.3707 95.0044Z" fill="#573CDA"/>
<circle cx="12" cy="88" r="12" fill="#1BC082"/>
<circle cx="41" cy="89" r="14" fill="#1BC082"/>
<circle cx="71.5" cy="75.5" r="16.5" fill="#1BC082"/>
<circle cx="96.5" cy="31.5" r="31.5" fill="#1BC082"/>
</svg>
