<svg width="720" height="527" viewBox="0 0 720 527" fill="none" xmlns="http://www.w3.org/2000/svg">
<g filter="url(#filter0_d_232_592)">
<path d="M495.509 420.167L35.2917 296.852L224.8 107.344L685.016 230.659L495.509 420.167Z" fill="url(#paint0_linear_232_592)"/>
<path d="M82.0508 291.684L495.893 402.573" stroke="#2A206A" stroke-linecap="round" stroke-linejoin="round"/>
<path d="M92.8105 280.924L506.653 391.813" stroke="#2A206A" stroke-linecap="round" stroke-linejoin="round"/>
<path d="M103.566 270.166L517.409 381.055" stroke="#2A206A" stroke-linecap="round" stroke-linejoin="round"/>
<path d="M114.328 259.406L528.17 370.295" stroke="#2A206A" stroke-linecap="round" stroke-linejoin="round"/>
<path d="M125.084 248.648L538.926 359.537" stroke="#2A206A" stroke-linecap="round" stroke-linejoin="round"/>
<path d="M135.846 237.89L549.688 348.779" stroke="#2A206A" stroke-linecap="round" stroke-linejoin="round"/>
<path d="M146.602 227.132L560.444 338.021" stroke="#2A206A" stroke-linecap="round" stroke-linejoin="round"/>
<path d="M157.361 216.372L571.204 327.261" stroke="#2A206A" stroke-linecap="round" stroke-linejoin="round"/>
<path d="M168.123 205.612L581.965 316.501" stroke="#2A206A" stroke-linecap="round" stroke-linejoin="round"/>
<path d="M178.879 194.854L592.721 305.743" stroke="#2A206A" stroke-linecap="round" stroke-linejoin="round"/>
<path d="M189.639 184.096L603.481 294.985" stroke="#2A206A" stroke-linecap="round" stroke-linejoin="round"/>
<path d="M200.396 173.338L614.239 284.227" stroke="#2A206A" stroke-linecap="round" stroke-linejoin="round"/>
<path d="M211.156 162.578L624.999 273.467" stroke="#2A206A" stroke-linecap="round" stroke-linejoin="round"/>
<path d="M221.918 151.819L635.76 262.708" stroke="#2A206A" stroke-linecap="round" stroke-linejoin="round"/>
<path d="M232.674 141.061L646.516 251.95" stroke="#2A206A" stroke-linecap="round" stroke-linejoin="round"/>
<path d="M243.434 130.302L657.276 241.191" stroke="#2A206A" stroke-linecap="round" stroke-linejoin="round"/>
<path d="M72.722 288.086C72.1099 287.922 71.8029 287.668 71.8011 287.325C71.8042 286.983 72.019 286.59 72.4455 286.145L72.881 285.7L73.3418 285.248C73.7974 284.811 74.294 284.493 74.8315 284.295C75.3739 284.097 75.9512 284.081 76.5634 284.245C77.1756 284.409 77.4802 284.662 77.4771 285.004C77.4789 285.347 77.2665 285.741 76.84 286.186C76.7453 286.287 76.5966 286.439 76.3938 286.641C76.1946 286.84 76.0446 286.987 75.9437 287.082C75.4881 287.519 74.9891 287.837 74.4467 288.034C73.9091 288.233 73.3342 288.25 72.722 288.086ZM73.0422 287.766C73.46 287.878 73.8772 287.861 74.2937 287.716C74.7186 287.568 75.1245 287.307 75.5112 286.932C75.6192 286.831 75.7639 286.689 75.9453 286.508C76.1267 286.326 76.263 286.187 76.3542 286.089C76.7144 285.717 76.8883 285.398 76.876 285.133C76.8721 284.866 76.6612 284.677 76.2433 284.565C75.8255 284.453 75.4023 284.472 74.9738 284.624C74.5537 284.773 74.1539 285.031 73.7742 285.398L73.3508 285.812L72.9313 286.241C72.564 286.621 72.3841 286.942 72.3915 287.206C72.4074 287.467 72.6243 287.654 73.0422 287.766Z" fill="#2A206A"/>
<path d="M89.2082 265.344C89.1596 265.331 89.1314 265.31 89.1236 265.281C89.1158 265.252 89.1297 265.219 89.1652 265.184L92.3451 262.004L90.3042 262.391C90.2476 262.398 90.2047 262.398 90.1755 262.39C90.1269 262.377 90.1016 262.35 90.0996 262.309L90.0942 262.213C90.0948 262.181 90.1075 262.153 90.1324 262.128C90.168 262.093 90.2201 262.068 90.2887 262.055L92.716 261.596C92.7895 261.584 92.8651 261.589 92.9429 261.61L93.0814 261.647C93.1299 261.66 93.1581 261.681 93.166 261.71C93.1738 261.739 93.1599 261.771 93.1243 261.807L89.6244 265.307C89.5888 265.342 89.5458 265.367 89.4953 265.381C89.4448 265.394 89.3953 265.394 89.3467 265.381L89.2082 265.344ZM92.2919 266.238C91.6797 266.074 91.3727 265.82 91.3709 265.477C91.374 265.135 91.5888 264.742 92.0153 264.297L92.4508 263.852L92.9116 263.401C93.3672 262.963 93.8638 262.646 94.4014 262.447C94.9438 262.249 95.5211 262.233 96.1333 262.397C96.7455 262.561 97.05 262.814 97.0469 263.156C97.0487 263.499 96.8363 263.893 96.4099 264.338C96.3151 264.439 96.1664 264.591 95.9636 264.793C95.7645 264.993 95.6144 265.139 95.5135 265.234C95.0579 265.671 94.5589 265.989 94.0165 266.186C93.4789 266.385 92.9041 266.402 92.2919 266.238ZM92.612 265.918C93.0298 266.03 93.447 266.013 93.8635 265.868C94.2885 265.72 94.6943 265.459 95.0811 265.085C95.1891 264.983 95.3338 264.841 95.5152 264.66C95.6966 264.478 95.8329 264.339 95.924 264.242C96.2842 263.869 96.4582 263.55 96.4458 263.285C96.4419 263.018 96.231 262.829 95.8132 262.717C95.3953 262.605 94.9721 262.625 94.5436 262.776C94.1236 262.925 93.7237 263.183 93.3441 263.55L92.9206 263.964L92.5011 264.393C92.1338 264.773 91.9539 265.094 91.9614 265.358C91.9773 265.619 92.1941 265.806 92.612 265.918Z" fill="#2A206A"/>
<path d="M107.398 243.129C107.35 243.116 107.321 243.095 107.314 243.066C107.306 243.037 107.32 243.005 107.355 242.969L107.435 242.889C107.506 242.818 107.642 242.759 107.841 242.714L111.111 241.838C111.56 241.728 111.892 241.623 112.109 241.523C112.326 241.424 112.52 241.288 112.69 241.118C112.929 240.879 113.021 240.667 112.966 240.481C112.917 240.297 112.72 240.158 112.375 240.066C112.049 239.979 111.72 239.978 111.387 240.065C111.054 240.152 110.75 240.307 110.477 240.531C110.433 240.569 110.381 240.594 110.32 240.604C110.265 240.617 110.22 240.618 110.186 240.609L110.041 240.57C109.992 240.557 109.962 240.538 109.951 240.512C109.948 240.484 109.961 240.456 109.989 240.428C110.173 240.256 110.409 240.1 110.696 239.961C110.983 239.821 111.301 239.728 111.649 239.682C112.001 239.632 112.35 239.653 112.695 239.746C113.215 239.885 113.498 240.092 113.544 240.366C113.59 240.64 113.459 240.931 113.149 241.241C112.936 241.454 112.681 241.629 112.384 241.766C112.087 241.903 111.705 242.029 111.24 242.143L108.265 242.956L110.706 243.61C110.76 243.624 110.79 243.646 110.798 243.675C110.806 243.704 110.79 243.738 110.751 243.778L110.671 243.858C110.636 243.893 110.59 243.917 110.535 243.929C110.484 243.943 110.435 243.943 110.386 243.93L107.398 243.129ZM113.128 244.732C112.516 244.568 112.209 244.315 112.207 243.972C112.21 243.63 112.425 243.236 112.852 242.791L113.287 242.346L113.748 241.895C114.204 241.458 114.7 241.14 115.238 240.941C115.78 240.744 116.358 240.727 116.97 240.891C117.582 241.055 117.886 241.308 117.883 241.65C117.885 241.993 117.673 242.387 117.246 242.832C117.152 242.933 117.003 243.085 116.8 243.288C116.601 243.487 116.451 243.634 116.35 243.729C115.894 244.166 115.395 244.483 114.853 244.68C114.315 244.879 113.741 244.896 113.128 244.732ZM113.448 244.412C113.866 244.524 114.283 244.508 114.7 244.362C115.125 244.214 115.531 243.953 115.918 243.579C116.026 243.477 116.17 243.335 116.352 243.154C116.533 242.973 116.669 242.833 116.76 242.736C117.121 242.363 117.295 242.045 117.282 241.78C117.278 241.513 117.067 241.323 116.65 241.211C116.232 241.099 115.809 241.119 115.38 241.27C114.96 241.419 114.56 241.677 114.181 242.045L113.757 242.459L113.338 242.888C112.97 243.267 112.79 243.589 112.798 243.852C112.814 244.114 113.031 244.3 113.448 244.412Z" fill="#2A206A"/>
<path d="M130.085 222.188C129.735 222.094 129.472 221.969 129.295 221.813C129.123 221.659 129.036 221.494 129.033 221.317C129.031 221.141 129.105 220.971 129.256 220.809C129.288 220.777 129.327 220.756 129.374 220.746C129.421 220.736 129.466 220.736 129.51 220.748L129.612 220.776C129.661 220.789 129.693 220.808 129.709 220.835C129.729 220.859 129.721 220.897 129.686 220.951C129.544 221.179 129.55 221.368 129.702 221.517C129.86 221.667 130.094 221.784 130.405 221.867C130.794 221.972 131.172 221.987 131.541 221.915C131.909 221.842 132.221 221.678 132.478 221.422C132.968 220.931 132.811 220.577 132.004 220.361L131.363 220.189C131.314 220.176 131.286 220.155 131.278 220.126C131.27 220.097 131.284 220.064 131.32 220.029L131.4 219.949C131.439 219.91 131.503 219.873 131.593 219.838L134.391 218.944L132.19 218.355C132.142 218.341 132.113 218.32 132.106 218.291C132.098 218.262 132.112 218.23 132.147 218.194L132.227 218.114C132.263 218.079 132.306 218.054 132.356 218.04C132.41 218.023 132.462 218.021 132.51 218.034L135.229 218.763C135.282 218.777 135.313 218.799 135.321 218.828C135.328 218.857 135.313 218.891 135.274 218.93L135.194 219.01C135.162 219.042 135.108 219.071 135.034 219.096L132.178 220.002L132.324 220.041C132.839 220.179 133.156 220.377 133.274 220.634C133.398 220.892 133.285 221.196 132.937 221.545C132.709 221.772 132.435 221.951 132.113 222.082C131.795 222.208 131.461 222.281 131.11 222.3C130.762 222.315 130.42 222.277 130.085 222.188ZM134.445 223.356C133.832 223.192 133.525 222.938 133.524 222.595C133.527 222.253 133.742 221.859 134.168 221.414L134.604 220.97L135.064 220.518C135.52 220.081 136.017 219.763 136.554 219.564C137.097 219.367 137.674 219.35 138.286 219.514C138.898 219.678 139.203 219.931 139.2 220.273C139.201 220.616 138.989 221.011 138.563 221.455C138.468 221.556 138.319 221.708 138.116 221.911C137.917 222.11 137.767 222.257 137.666 222.352C137.211 222.789 136.712 223.106 136.169 223.304C135.632 223.502 135.057 223.52 134.445 223.356ZM134.765 223.036C135.183 223.148 135.6 223.131 136.016 222.985C136.441 222.838 136.847 222.577 137.234 222.202C137.342 222.1 137.487 221.959 137.668 221.777C137.849 221.596 137.986 221.456 138.077 221.359C138.437 220.987 138.611 220.668 138.599 220.403C138.595 220.136 138.384 219.946 137.966 219.834C137.548 219.722 137.125 219.742 136.696 219.893C136.276 220.042 135.876 220.301 135.497 220.668L135.073 221.082L134.654 221.511C134.287 221.89 134.107 222.212 134.114 222.476C134.13 222.737 134.347 222.924 134.765 223.036Z" fill="#2A206A"/>
<path d="M152.181 200.949C152.132 200.936 152.104 200.915 152.096 200.885C152.089 200.856 152.102 200.824 152.138 200.788L152.981 199.945L150.576 199.301C150.527 199.288 150.499 199.267 150.491 199.238C150.484 199.209 150.497 199.176 150.533 199.141L150.618 199.055C150.672 199.002 150.752 198.956 150.859 198.917L155.395 197.189C155.448 197.168 155.506 197.156 155.568 197.155C155.635 197.15 155.697 197.155 155.755 197.171L156.054 197.251C156.103 197.264 156.131 197.285 156.139 197.314C156.147 197.343 156.133 197.376 156.097 197.411L153.76 199.748L154.424 199.926C154.472 199.939 154.5 199.96 154.508 199.989C154.516 200.018 154.502 200.051 154.466 200.086L154.381 200.172C154.346 200.207 154.303 200.232 154.252 200.245C154.202 200.259 154.152 200.259 154.103 200.246L153.44 200.068L152.597 200.911C152.562 200.947 152.519 200.971 152.468 200.985C152.418 200.998 152.368 200.999 152.319 200.986L152.181 200.949ZM153.301 199.625L155.377 197.55L151.312 199.092L153.301 199.625ZM155.748 201.972C155.136 201.808 154.829 201.554 154.827 201.211C154.83 200.869 155.045 200.476 155.471 200.031L155.907 199.586L156.368 199.134C156.823 198.697 157.32 198.379 157.857 198.181C158.4 197.983 158.977 197.967 159.589 198.131C160.201 198.295 160.506 198.548 160.503 198.89C160.505 199.233 160.292 199.627 159.866 200.072C159.771 200.173 159.622 200.325 159.42 200.527C159.22 200.726 159.07 200.873 158.969 200.968C158.514 201.405 158.015 201.723 157.472 201.92C156.935 202.119 156.36 202.136 155.748 201.972ZM156.068 201.652C156.486 201.764 156.903 201.747 157.319 201.602C157.744 201.454 158.15 201.193 158.537 200.818C158.645 200.717 158.79 200.575 158.971 200.394C159.153 200.212 159.289 200.073 159.38 199.975C159.74 199.603 159.914 199.284 159.902 199.019C159.898 198.752 159.687 198.563 159.269 198.451C158.851 198.339 158.428 198.358 158 198.51C157.58 198.659 157.18 198.917 156.8 199.284L156.377 199.698L155.957 200.127C155.59 200.507 155.41 200.828 155.417 201.092C155.433 201.353 155.65 201.54 156.068 201.652Z" fill="#2A206A"/>
<path d="M172.819 179.455C172.479 179.364 172.229 179.238 172.068 179.078C171.917 178.916 171.847 178.742 171.861 178.556C171.879 178.371 171.969 178.192 172.13 178.019L172.14 178.008C172.169 177.98 172.202 177.962 172.241 177.954C172.288 177.944 172.333 177.945 172.377 177.957L172.515 177.994C172.564 178.007 172.594 178.026 172.605 178.052C172.62 178.074 172.61 178.112 172.575 178.165C172.431 178.402 172.417 178.603 172.534 178.77C172.65 178.937 172.852 179.058 173.139 179.135C173.513 179.235 173.903 179.236 174.31 179.138C174.721 179.04 175.073 178.846 175.364 178.554C175.542 178.376 175.639 178.206 175.654 178.043C175.674 177.882 175.619 177.739 175.491 177.614C175.363 177.49 175.18 177.396 174.942 177.332C174.748 177.28 174.57 177.257 174.41 177.263C174.258 177.268 174.089 177.286 173.903 177.317C173.791 177.337 173.702 177.349 173.636 177.354C173.574 177.36 173.517 177.356 173.463 177.341L173.332 177.306C173.288 177.294 173.26 177.273 173.248 177.243C173.238 177.209 173.252 177.177 173.289 177.146L175.252 175.46C175.296 175.422 175.341 175.396 175.387 175.381C175.437 175.367 175.487 175.367 175.535 175.38L177.911 176.017C177.96 176.03 177.988 176.051 177.996 176.08C178.004 176.109 177.99 176.141 177.954 176.177L177.869 176.262C177.833 176.298 177.79 176.322 177.74 176.336C177.689 176.35 177.64 176.35 177.591 176.337L175.5 175.776L174.141 176.941C174.519 176.889 174.893 176.913 175.262 177.012C175.593 177.1 175.843 177.226 176.013 177.389C176.187 177.553 176.262 177.746 176.236 177.969C176.214 178.189 176.076 178.425 175.824 178.677C175.557 178.944 175.251 179.151 174.907 179.298C174.564 179.445 174.21 179.53 173.847 179.555C173.492 179.577 173.149 179.544 172.819 179.455ZM177.194 180.627C176.581 180.463 176.274 180.21 176.273 179.866C176.276 179.525 176.49 179.131 176.917 178.686L177.352 178.241L177.813 177.79C178.269 177.353 178.765 177.035 179.303 176.836C179.845 176.639 180.423 176.622 181.035 176.786C181.647 176.95 181.952 177.203 181.949 177.545C181.95 177.888 181.738 178.282 181.311 178.727C181.217 178.828 181.068 178.98 180.865 179.183C180.666 179.382 180.516 179.529 180.415 179.623C179.96 180.061 179.461 180.378 178.918 180.575C178.381 180.774 177.806 180.791 177.194 180.627ZM177.514 180.307C177.931 180.419 178.349 180.402 178.765 180.257C179.19 180.109 179.596 179.848 179.983 179.474C180.091 179.372 180.235 179.23 180.417 179.049C180.598 178.868 180.734 178.728 180.826 178.631C181.186 178.258 181.36 177.94 181.347 177.675C181.344 177.408 181.133 177.218 180.715 177.106C180.297 176.994 179.874 177.014 179.445 177.165C179.025 177.314 178.625 177.572 178.246 177.94L177.822 178.354L177.403 178.782C177.035 179.162 176.856 179.484 176.863 179.747C176.879 180.009 177.096 180.195 177.514 180.307Z" fill="#2A206A"/>
<path d="M194.208 158.098C193.834 157.997 193.572 157.853 193.422 157.664C193.272 157.475 193.225 157.266 193.281 157.038C193.337 156.809 193.475 156.585 193.696 156.364C194.005 156.055 194.473 155.781 195.099 155.543L198.013 154.45C198.025 154.444 198.05 154.435 198.087 154.422C198.132 154.407 198.175 154.398 198.215 154.395C198.263 154.39 198.307 154.393 198.346 154.403L198.484 154.441C198.528 154.452 198.549 154.474 198.549 154.505C198.557 154.534 198.544 154.565 198.512 154.597C198.495 154.615 198.459 154.635 198.407 154.657L196.182 155.495C196.357 155.505 196.536 155.535 196.721 155.585C197.095 155.685 197.357 155.83 197.507 156.019C197.66 156.204 197.709 156.411 197.653 156.64C197.597 156.868 197.458 157.093 197.238 157.313C197.017 157.534 196.743 157.722 196.415 157.877C196.087 158.033 195.73 158.134 195.346 158.179C194.961 158.225 194.582 158.198 194.208 158.098ZM194.528 157.778C194.761 157.84 195.013 157.862 195.283 157.845C195.557 157.823 195.826 157.758 196.09 157.648C196.353 157.538 196.583 157.386 196.779 157.19C196.974 156.994 197.081 156.811 197.098 156.64C197.119 156.465 197.065 156.315 196.937 156.191C196.813 156.063 196.634 155.967 196.401 155.905C196.167 155.842 195.914 155.822 195.64 155.843C195.37 155.861 195.102 155.925 194.839 156.034C194.579 156.141 194.351 156.291 194.155 156.487C193.959 156.683 193.851 156.868 193.83 157.043C193.81 157.218 193.861 157.369 193.986 157.497C194.114 157.622 194.295 157.715 194.528 157.778ZM198.522 159.254C197.91 159.09 197.603 158.836 197.602 158.493C197.605 158.151 197.819 157.758 198.246 157.313L198.681 156.868L199.142 156.416C199.598 155.979 200.094 155.661 200.632 155.463C201.174 155.265 201.752 155.248 202.364 155.412C202.976 155.576 203.281 155.829 203.278 156.171C203.279 156.515 203.067 156.909 202.64 157.354C202.546 157.455 202.397 157.606 202.194 157.809C201.995 158.008 201.845 158.155 201.744 158.25C201.289 158.687 200.789 159.004 200.247 159.202C199.71 159.401 199.135 159.418 198.522 159.254ZM198.843 158.934C199.26 159.046 199.678 159.029 200.094 158.883C200.519 158.736 200.925 158.475 201.312 158.1C201.42 157.998 201.564 157.857 201.746 157.675C201.927 157.494 202.063 157.355 202.155 157.257C202.515 156.885 202.689 156.566 202.676 156.301C202.672 156.034 202.462 155.845 202.044 155.733C201.626 155.621 201.203 155.64 200.774 155.792C200.354 155.941 199.954 156.199 199.575 156.566L199.151 156.98L198.732 157.409C198.364 157.789 198.184 158.11 198.192 158.374C198.208 158.635 198.425 158.822 198.843 158.934Z" fill="#2A206A"/>
<path d="M215.568 136.664C215.524 136.652 215.498 136.631 215.49 136.602C215.491 136.571 215.507 136.539 215.539 136.507L215.602 136.463L220.724 133.716L218.239 133.05C218.19 133.037 218.162 133.016 218.154 132.987C218.146 132.957 218.16 132.925 218.196 132.889L218.276 132.809C218.311 132.774 218.354 132.749 218.405 132.736C218.459 132.719 218.51 132.717 218.559 132.73L221.372 133.483C221.426 133.498 221.456 133.52 221.464 133.549C221.472 133.578 221.456 133.612 221.417 133.651L221.337 133.731C221.269 133.799 221.187 133.86 221.089 133.915L216.044 136.622C215.977 136.658 215.916 136.685 215.862 136.702C215.816 136.717 215.769 136.718 215.721 136.705L215.568 136.664ZM220.195 137.971C219.583 137.807 219.276 137.554 219.274 137.21C219.278 136.868 219.492 136.475 219.919 136.03L220.354 135.585L220.815 135.134C221.271 134.697 221.767 134.379 222.305 134.18C222.847 133.982 223.425 133.966 224.037 134.13C224.649 134.294 224.954 134.547 224.95 134.889C224.952 135.232 224.74 135.626 224.313 136.071C224.219 136.172 224.07 136.324 223.867 136.526C223.668 136.726 223.518 136.873 223.417 136.967C222.961 137.404 222.462 137.722 221.92 137.919C221.382 138.118 220.808 138.135 220.195 137.971ZM220.516 137.651C220.933 137.763 221.351 137.746 221.767 137.601C222.192 137.453 222.598 137.192 222.985 136.818C223.093 136.716 223.237 136.574 223.419 136.393C223.6 136.211 223.736 136.072 223.828 135.975C224.188 135.602 224.362 135.283 224.349 135.019C224.345 134.751 224.135 134.562 223.717 134.45C223.299 134.338 222.876 134.358 222.447 134.509C222.027 134.658 221.627 134.916 221.248 135.283L220.824 135.698L220.405 136.126C220.037 136.506 219.857 136.828 219.865 137.091C219.881 137.352 220.098 137.539 220.516 137.651Z" fill="#2A206A"/>
<path d="M153.627 220.102C153.627 220.102 201.462 187.269 244.633 198.836C287.804 210.404 261.114 246.188 305.714 256.128C349.648 265.918 413.41 203.136 449.786 212.882C486.161 222.629 448.202 253.383 493.469 265.512C538.736 277.641 578.738 237.098 609.193 241.954C639.5 246.787 618.601 279.859 618.601 279.859" stroke="#1BC082" stroke-miterlimit="10"/>
<path d="M248.196 199.79C247.37 200.531 246.382 201.066 245.31 201.353C244.239 201.64 243.115 201.671 242.03 201.442C241.624 201.416 241.236 201.263 240.922 201.005C240.607 200.747 240.381 200.397 240.276 200.004C240.171 199.612 240.191 199.195 240.335 198.815C240.478 198.434 240.738 198.108 241.076 197.882C241.902 197.142 242.89 196.606 243.961 196.319C245.033 196.032 246.157 196.002 247.242 196.23C247.648 196.256 248.035 196.409 248.35 196.667C248.665 196.925 248.89 197.275 248.996 197.668C249.101 198.061 249.081 198.477 248.937 198.858C248.793 199.238 248.534 199.565 248.196 199.79V199.79Z" fill="#1BC082"/>
<path d="M307.258 256.538C306.433 257.279 305.444 257.814 304.373 258.101C303.302 258.388 302.178 258.419 301.093 258.19C300.687 258.164 300.299 258.011 299.984 257.753C299.67 257.496 299.444 257.145 299.339 256.753C299.233 256.36 299.254 255.943 299.397 255.563C299.541 255.182 299.8 254.856 300.139 254.63C300.964 253.89 301.953 253.354 303.024 253.067C304.095 252.78 305.219 252.75 306.304 252.978C306.71 253.004 307.098 253.157 307.413 253.415C307.727 253.673 307.953 254.023 308.058 254.416C308.164 254.809 308.143 255.225 308 255.606C307.856 255.986 307.597 256.312 307.258 256.538V256.538Z" fill="#1BC082"/>
<path d="M454.372 214.11C453.546 214.851 452.557 215.387 451.486 215.674C450.415 215.961 449.291 215.991 448.206 215.763C447.8 215.736 447.412 215.584 447.098 215.326C446.783 215.068 446.557 214.718 446.452 214.325C446.347 213.932 446.367 213.516 446.511 213.135C446.654 212.754 446.913 212.428 447.252 212.203C448.077 211.462 449.066 210.926 450.137 210.639C451.209 210.352 452.332 210.322 453.418 210.551C453.824 210.577 454.211 210.729 454.526 210.987C454.84 211.245 455.066 211.595 455.172 211.988C455.277 212.381 455.256 212.797 455.113 213.178C454.969 213.559 454.71 213.885 454.372 214.11V214.11Z" fill="#1BC082"/>
<path d="M495.94 266.172C495.114 266.913 494.126 267.448 493.054 267.735C491.983 268.022 490.859 268.053 489.774 267.824C489.368 267.798 488.981 267.645 488.666 267.387C488.351 267.129 488.125 266.779 488.02 266.386C487.915 265.993 487.935 265.577 488.079 265.197C488.223 264.816 488.482 264.49 488.82 264.264C489.646 263.524 490.634 262.988 491.706 262.701C492.777 262.414 493.901 262.383 494.986 262.612C495.392 262.638 495.78 262.791 496.094 263.049C496.409 263.307 496.635 263.657 496.74 264.05C496.845 264.443 496.825 264.859 496.681 265.24C496.538 265.62 496.278 265.946 495.94 266.172Z" fill="#1BC082"/>
<path d="M613.329 243.06C612.503 243.8 611.514 244.336 610.443 244.623C609.372 244.91 608.248 244.94 607.163 244.712C606.757 244.686 606.369 244.533 606.055 244.275C605.74 244.017 605.514 243.667 605.409 243.274C605.304 242.881 605.324 242.465 605.468 242.084C605.611 241.704 605.87 241.378 606.209 241.152C607.034 240.411 608.023 239.876 609.094 239.589C610.166 239.302 611.289 239.271 612.375 239.5C612.781 239.526 613.168 239.679 613.483 239.937C613.798 240.195 614.023 240.545 614.129 240.938C614.234 241.331 614.213 241.747 614.07 242.127C613.926 242.508 613.667 242.834 613.329 243.06V243.06Z" fill="#1BC082"/>
<g filter="url(#filter1_d_232_592)">
<path d="M114.316 259.412C114.316 259.412 105.849 288.444 152.136 295.851C198.952 303.343 241.774 266.289 284.203 277.66C325.745 288.793 316.591 299.98 352.969 309.73C389.347 319.479 437.456 264.169 482.726 276.301C527.997 288.434 484.446 331.325 512.387 338.813C540.328 346.301 592.738 305.784 592.738 305.784" stroke="#573CDA" stroke-linecap="round" stroke-linejoin="round"/>
<path d="M151.33 296.649C150.505 297.39 149.516 297.926 148.445 298.213C147.374 298.5 146.25 298.53 145.165 298.302C144.759 298.275 144.371 298.123 144.057 297.865C143.742 297.607 143.516 297.257 143.411 296.864C143.306 296.471 143.326 296.055 143.47 295.674C143.613 295.293 143.872 294.967 144.211 294.742C145.036 294.001 146.025 293.466 147.096 293.178C148.167 292.891 149.291 292.861 150.377 293.09C150.783 293.116 151.17 293.269 151.485 293.526C151.799 293.784 152.025 294.134 152.131 294.527C152.236 294.92 152.215 295.336 152.072 295.717C151.928 296.098 151.669 296.424 151.33 296.649Z" fill="#573CDA"/>
<path d="M285.731 278.059C284.905 278.799 283.917 279.335 282.845 279.622C281.774 279.909 280.65 279.939 279.565 279.711C279.159 279.685 278.772 279.532 278.457 279.274C278.142 279.016 277.916 278.666 277.811 278.273C277.706 277.88 277.726 277.464 277.87 277.083C278.013 276.703 278.273 276.377 278.611 276.151C279.437 275.41 280.425 274.875 281.497 274.588C282.568 274.301 283.692 274.27 284.777 274.499C285.183 274.525 285.571 274.678 285.885 274.936C286.2 275.194 286.426 275.544 286.531 275.937C286.636 276.33 286.616 276.746 286.472 277.126C286.329 277.507 286.069 277.833 285.731 278.059V278.059Z" fill="#573CDA"/>
<path d="M357.506 310.97C356.681 311.71 355.692 312.246 354.621 312.533C353.55 312.82 352.426 312.851 351.34 312.622C350.935 312.596 350.547 312.443 350.232 312.185C349.918 311.927 349.692 311.577 349.587 311.184C349.481 310.791 349.502 310.375 349.645 309.994C349.789 309.614 350.048 309.288 350.387 309.062C351.212 308.321 352.201 307.786 353.272 307.499C354.343 307.212 355.467 307.181 356.552 307.41C356.958 307.436 357.346 307.589 357.661 307.847C357.975 308.105 358.201 308.455 358.306 308.848C358.412 309.241 358.391 309.657 358.247 310.037C358.104 310.418 357.845 310.744 357.506 310.97Z" fill="#573CDA"/>
<path d="M485.172 276.933C484.347 277.673 483.358 278.209 482.287 278.496C481.216 278.783 480.092 278.813 479.007 278.585C478.601 278.559 478.213 278.406 477.898 278.148C477.584 277.89 477.358 277.54 477.253 277.147C477.147 276.754 477.168 276.338 477.311 275.957C477.455 275.577 477.714 275.251 478.053 275.025C478.878 274.284 479.867 273.749 480.938 273.462C482.009 273.175 483.133 273.144 484.218 273.373C484.624 273.399 485.012 273.552 485.327 273.81C485.641 274.068 485.867 274.418 485.972 274.811C486.078 275.204 486.057 275.62 485.913 276C485.77 276.381 485.511 276.707 485.172 276.933Z" fill="#573CDA"/>
<path d="M516.463 339.919C515.638 340.66 514.649 341.195 513.578 341.482C512.507 341.769 511.383 341.8 510.298 341.571C509.892 341.545 509.504 341.392 509.189 341.134C508.875 340.876 508.649 340.526 508.544 340.133C508.438 339.74 508.459 339.324 508.602 338.944C508.746 338.563 509.005 338.237 509.344 338.011C510.169 337.271 511.158 336.735 512.229 336.448C513.3 336.161 514.424 336.13 515.51 336.359C515.915 336.385 516.303 336.538 516.618 336.796C516.932 337.054 517.158 337.404 517.263 337.797C517.369 338.19 517.348 338.606 517.205 338.987C517.061 339.367 516.802 339.693 516.463 339.919V339.919Z" fill="#573CDA"/>
</g>
<g filter="url(#filter2_d_232_592)">
<path d="M128.594 245.136C128.594 245.136 154.096 234.635 197.267 246.203C240.437 257.771 293.643 214.688 332.666 229.176C379.143 246.432 295.064 321.482 331.439 331.229C367.815 340.976 405.167 296.418 450.434 308.547C495.702 320.677 462.908 352.814 490.847 360.301C518.786 367.787 560.438 338.023 560.438 338.023" stroke="#1BC082" stroke-linecap="round" stroke-linejoin="round"/>
<path d="M201.137 246.848C200.312 247.589 199.323 248.124 198.252 248.411C197.181 248.698 196.057 248.729 194.971 248.5C194.566 248.474 194.178 248.321 193.863 248.063C193.549 247.805 193.323 247.455 193.218 247.062C193.112 246.669 193.133 246.253 193.276 245.872C193.42 245.492 193.679 245.166 194.018 244.94C194.843 244.199 195.832 243.664 196.903 243.377C197.974 243.09 199.098 243.06 200.183 243.288C200.589 243.314 200.977 243.467 201.292 243.725C201.606 243.983 201.832 244.333 201.937 244.726C202.043 245.119 202.022 245.535 201.879 245.916C201.735 246.296 201.476 246.622 201.137 246.848V246.848Z" fill="url(#paint1_linear_232_592)"/>
<path d="M334.368 229.427C333.542 230.168 332.554 230.703 331.482 230.99C330.411 231.277 329.287 231.308 328.202 231.079C327.796 231.053 327.408 230.9 327.094 230.642C326.779 230.384 326.553 230.034 326.448 229.641C326.343 229.248 326.363 228.832 326.507 228.452C326.65 228.071 326.909 227.745 327.248 227.519C328.073 226.778 329.062 226.243 330.133 225.956C331.205 225.669 332.328 225.638 333.414 225.867C333.82 225.893 334.207 226.046 334.522 226.304C334.837 226.562 335.062 226.912 335.168 227.305C335.273 227.698 335.252 228.114 335.109 228.494C334.965 228.875 334.706 229.201 334.368 229.427V229.427Z" fill="url(#paint2_linear_232_592)"/>
<path d="M336.022 332.457C335.196 333.198 334.208 333.733 333.137 334.02C332.065 334.307 330.941 334.338 329.856 334.109C329.45 334.083 329.063 333.93 328.748 333.672C328.433 333.414 328.207 333.064 328.102 332.671C327.997 332.278 328.017 331.862 328.161 331.482C328.304 331.101 328.564 330.775 328.902 330.549C329.728 329.809 330.716 329.273 331.788 328.986C332.859 328.699 333.983 328.669 335.068 328.897C335.474 328.923 335.862 329.076 336.176 329.334C336.491 329.592 336.717 329.942 336.822 330.335C336.927 330.728 336.907 331.144 336.763 331.525C336.62 331.905 336.36 332.231 336.022 332.457V332.457Z" fill="url(#paint3_linear_232_592)"/>
<path d="M452.907 309.206C452.081 309.947 451.093 310.482 450.021 310.769C448.95 311.057 447.826 311.087 446.741 310.858C446.335 310.832 445.947 310.679 445.633 310.421C445.318 310.163 445.092 309.813 444.987 309.421C444.882 309.028 444.902 308.611 445.046 308.231C445.189 307.85 445.449 307.524 445.787 307.298C446.613 306.558 447.601 306.022 448.672 305.735C449.744 305.448 450.868 305.418 451.953 305.646C452.359 305.672 452.746 305.825 453.061 306.083C453.376 306.341 453.602 306.691 453.707 307.084C453.812 307.477 453.792 307.893 453.648 308.274C453.505 308.654 453.245 308.98 452.907 309.206Z" fill="url(#paint4_linear_232_592)"/>
<path d="M492.093 362.971C494.501 362.325 496.151 360.675 495.779 359.285C495.406 357.895 493.152 357.291 490.745 357.936C488.337 358.581 486.687 360.231 487.059 361.622C487.432 363.012 489.686 363.616 492.093 362.971Z" fill="url(#paint5_linear_232_592)"/>
</g>
</g>
<defs>
<filter id="filter0_d_232_592" x="31.291" y="107.345" width="657.725" height="320.822" filterUnits="userSpaceOnUse" color-interpolation-filters="sRGB">
<feFlood flood-opacity="0" result="BackgroundImageFix"/>
<feColorMatrix in="SourceAlpha" type="matrix" values="0 0 0 0 0 0 0 0 0 0 0 0 0 0 0 0 0 0 127 0" result="hardAlpha"/>
<feOffset dy="4"/>
<feGaussianBlur stdDeviation="2"/>
<feComposite in2="hardAlpha" operator="out"/>
<feColorMatrix type="matrix" values="0 0 0 0 0 0 0 0 0 0 0 0 0 0 0 0 0 0 0.15 0"/>
<feBlend mode="normal" in2="BackgroundImageFix" result="effect1_dropShadow_232_592"/>
<feBlend mode="normal" in="SourceGraphic" in2="effect1_dropShadow_232_592" result="shape"/>
</filter>
<filter id="filter1_d_232_592" x="109.209" y="258.911" width="488.029" height="90.8115" filterUnits="userSpaceOnUse" color-interpolation-filters="sRGB">
<feFlood flood-opacity="0" result="BackgroundImageFix"/>
<feColorMatrix in="SourceAlpha" type="matrix" values="0 0 0 0 0 0 0 0 0 0 0 0 0 0 0 0 0 0 127 0" result="hardAlpha"/>
<feOffset dy="4"/>
<feGaussianBlur stdDeviation="2"/>
<feComposite in2="hardAlpha" operator="out"/>
<feColorMatrix type="matrix" values="0 0 0 0 0 0 0 0 0 0 0 0 0 0 0 0 0 0 0.15 0"/>
<feBlend mode="normal" in2="BackgroundImageFix" result="effect1_dropShadow_232_592"/>
<feBlend mode="normal" in="SourceGraphic" in2="effect1_dropShadow_232_592" result="shape"/>
</filter>
<filter id="filter2_d_232_592" x="124.094" y="225.662" width="440.844" height="145.567" filterUnits="userSpaceOnUse" color-interpolation-filters="sRGB">
<feFlood flood-opacity="0" result="BackgroundImageFix"/>
<feColorMatrix in="SourceAlpha" type="matrix" values="0 0 0 0 0 0 0 0 0 0 0 0 0 0 0 0 0 0 127 0" result="hardAlpha"/>
<feOffset dy="4"/>
<feGaussianBlur stdDeviation="2"/>
<feComposite in2="hardAlpha" operator="out"/>
<feColorMatrix type="matrix" values="0 0 0 0 0 0 0 0 0 0 0 0 0 0 0 0 0 0 0.15 0"/>
<feBlend mode="normal" in2="BackgroundImageFix" result="effect1_dropShadow_232_592"/>
<feBlend mode="normal" in="SourceGraphic" in2="effect1_dropShadow_232_592" result="shape"/>
</filter>
<linearGradient id="paint0_linear_232_592" x1="471.886" y1="35.0531" x2="457.211" y2="429.047" gradientUnits="userSpaceOnUse">
<stop stop-color="#F6F4FF"/>
<stop offset="1" stop-color="#E5DDFA"/>
</linearGradient>
<linearGradient id="paint1_linear_232_592" x1="196.903" y1="243.377" x2="198.252" y2="248.411" gradientUnits="userSpaceOnUse">
<stop stop-color="#1BC082"/>
<stop offset="1" stop-color="#23C89A"/>
</linearGradient>
<linearGradient id="paint2_linear_232_592" x1="330.133" y1="225.956" x2="331.482" y2="230.99" gradientUnits="userSpaceOnUse">
<stop stop-color="#1BC082"/>
<stop offset="1" stop-color="#23C89A"/>
</linearGradient>
<linearGradient id="paint3_linear_232_592" x1="331.788" y1="328.986" x2="333.137" y2="334.02" gradientUnits="userSpaceOnUse">
<stop stop-color="#1BC082"/>
<stop offset="1" stop-color="#23C89A"/>
</linearGradient>
<linearGradient id="paint4_linear_232_592" x1="448.672" y1="305.735" x2="450.021" y2="310.769" gradientUnits="userSpaceOnUse">
<stop stop-color="#1BC082"/>
<stop offset="1" stop-color="#23C89A"/>
</linearGradient>
<linearGradient id="paint5_linear_232_592" x1="490.745" y1="357.936" x2="492.093" y2="362.971" gradientUnits="userSpaceOnUse">
<stop stop-color="#1BC082"/>
<stop offset="1" stop-color="#23C89A"/>
</linearGradient>
</defs>
</svg>
