<svg width="592" height="595" viewBox="0 0 592 595" fill="none" xmlns="http://www.w3.org/2000/svg">
<path d="M504.951 549.585C389.436 609.93 202.15 609.932 86.6365 549.587C-28.8782 489.239 -28.8782 391.4 86.6365 331.054C202.151 270.708 389.438 270.708 504.953 331.052C620.467 391.398 620.467 489.239 504.951 549.585Z" fill="white"/>
<path d="M233.833 89.3664L355.415 163.171C356.127 163.658 356.715 164.306 357.13 165.063C357.545 165.82 357.776 166.664 357.804 167.526L353.348 370.238C353.313 371.821 352.187 372.439 350.833 371.617L229.253 297.812C228.54 297.325 227.953 296.676 227.538 295.92C227.123 295.163 226.892 294.319 226.864 293.457L231.318 90.7454C231.353 89.1618 232.479 88.5445 233.833 89.3664Z" fill="white"/>
<g opacity="0.5">
<path opacity="0.5" d="M351.923 372.694C351.403 372.67 350.899 372.51 350.46 372.231L228.88 298.424C228.06 297.872 227.384 297.131 226.908 296.264C226.432 295.397 226.171 294.429 226.146 293.44L230.601 90.7294C230.549 90.2906 230.629 89.8463 230.831 89.4534C231.033 89.0606 231.348 88.7371 231.736 88.5247C232.123 88.3122 232.565 88.2205 233.005 88.2612C233.445 88.3019 233.863 88.4732 234.205 88.7531L355.786 162.558C356.606 163.11 357.282 163.851 357.758 164.718C358.233 165.585 358.495 166.553 358.52 167.541L354.064 370.254C354.091 370.689 354 371.124 353.8 371.511C353.6 371.899 353.3 372.226 352.93 372.457C352.621 372.624 352.274 372.706 351.923 372.694ZM232.717 89.7191C232.616 89.7143 232.515 89.7362 232.424 89.7827C232.284 89.9007 232.174 90.0518 232.106 90.2226C232.038 90.3933 232.013 90.5783 232.035 90.7609L227.58 293.472C227.61 294.209 227.81 294.929 228.165 295.575C228.519 296.221 229.019 296.777 229.624 297.198L351.204 371.005C351.327 371.152 351.498 371.253 351.687 371.288C351.875 371.324 352.071 371.293 352.239 371.201C352.408 371.108 352.539 370.96 352.61 370.782C352.682 370.603 352.689 370.405 352.63 370.222L357.086 167.51C357.056 166.773 356.856 166.053 356.501 165.406C356.147 164.76 355.647 164.204 355.042 163.783L233.461 89.9792C233.239 89.8307 232.983 89.7412 232.717 89.7191Z" fill="#C0BCD6"/>
</g>
<path d="M245.5 116.891L302.613 151.561C303.487 152.136 304.213 152.908 304.733 153.815C305.252 154.722 305.551 155.739 305.604 156.783C305.564 158.64 304.159 159.313 302.467 158.285L245.352 123.615C244.479 123.041 243.753 122.269 243.233 121.361C242.714 120.454 242.415 119.437 242.362 118.393C242.403 116.536 243.808 115.864 245.5 116.891Z" fill="#37474F"/>
<path d="M245.057 137.063L342.417 196.159C343.29 196.733 344.016 197.505 344.536 198.413C345.055 199.32 345.354 200.337 345.407 201.381C345.367 203.238 343.962 203.91 342.269 202.883L244.909 143.787C244.035 143.213 243.31 142.441 242.79 141.533C242.27 140.626 241.972 139.609 241.919 138.565C241.959 136.708 243.364 136.036 245.057 137.063Z" fill="#C0BCD6"/>
<path d="M244.613 157.236L341.973 216.332C342.847 216.906 343.573 217.678 344.092 218.586C344.612 219.493 344.911 220.51 344.964 221.554C344.923 223.411 343.519 224.083 341.826 223.056L244.466 163.96C243.592 163.386 242.866 162.613 242.347 161.706C241.827 160.799 241.529 159.782 241.475 158.738C241.516 156.881 242.921 156.209 244.613 157.236Z" fill="#C0BCD6"/>
<path d="M244.17 177.409L341.53 236.505C342.403 237.079 343.129 237.852 343.649 238.759C344.169 239.666 344.467 240.683 344.521 241.727C344.48 243.584 343.075 244.256 341.383 243.229L244.022 184.133C243.149 183.559 242.423 182.787 241.903 181.879C241.384 180.972 241.085 179.955 241.032 178.911C241.073 177.054 242.478 176.382 244.17 177.409Z" fill="#C0BCD6"/>
<path d="M243.727 197.582L341.086 256.678C341.96 257.252 342.686 258.024 343.206 258.932C343.725 259.839 344.024 260.856 344.077 261.9C344.037 263.757 342.632 264.429 340.939 263.402L243.579 204.306C242.705 203.732 241.979 202.96 241.46 202.052C240.94 201.145 240.642 200.128 240.588 199.084C240.629 197.227 242.034 196.555 243.727 197.582Z" fill="#C0BCD6"/>
<path d="M243.283 217.755L340.643 276.851C341.517 277.426 342.243 278.198 342.762 279.105C343.282 280.012 343.58 281.029 343.634 282.073C343.593 283.93 342.188 284.603 340.496 283.575L243.136 224.48C242.262 223.905 241.536 223.133 241.017 222.226C240.497 221.318 240.198 220.302 240.145 219.257C240.186 217.401 241.591 216.728 243.283 217.755Z" fill="#C0BCD6"/>
<path d="M242.84 237.928L340.2 297.024C341.073 297.599 341.799 298.371 342.319 299.278C342.838 300.185 343.137 301.202 343.191 302.246C343.15 304.103 341.745 304.776 340.053 303.748L242.692 244.652C241.819 244.078 241.093 243.306 240.573 242.399C240.054 241.491 239.755 240.474 239.702 239.43C239.743 237.573 241.148 236.901 242.84 237.928Z" fill="#C0BCD6"/>
<path d="M242.397 258.102L339.756 317.197C340.63 317.772 341.356 318.544 341.875 319.451C342.395 320.358 342.694 321.375 342.747 322.419C342.707 324.276 341.302 324.949 339.609 323.921L242.249 264.826C241.375 264.251 240.649 263.479 240.13 262.572C239.61 261.665 239.312 260.648 239.258 259.604C239.299 257.747 240.704 257.074 242.397 258.102Z" fill="#C0BCD6"/>
<path d="M351.655 372.689C351.135 372.665 350.63 372.504 350.192 372.223L228.611 298.419C227.791 297.866 227.115 297.126 226.64 296.259C226.164 295.392 225.903 294.424 225.878 293.435L230.332 90.7235C230.279 90.2848 230.359 89.8404 230.562 89.4476C230.764 89.0547 231.079 88.7313 231.466 88.5188C231.854 88.3064 232.296 88.2146 232.736 88.2553C233.176 88.2961 233.594 88.4674 233.935 88.7473L355.518 162.553C356.338 163.105 357.013 163.846 357.489 164.713C357.964 165.58 358.225 166.548 358.25 167.536L353.794 370.247C353.818 370.683 353.726 371.116 353.526 371.504C353.326 371.892 353.027 372.219 352.659 372.452C352.351 372.619 352.005 372.701 351.655 372.689ZM232.448 89.7133C232.346 89.7083 232.245 89.7301 232.155 89.7763C232.014 89.8944 231.905 90.0457 231.837 90.2165C231.769 90.3873 231.744 90.5724 231.765 90.755L227.312 293.467C227.342 294.204 227.542 294.923 227.897 295.57C228.251 296.216 228.75 296.772 229.355 297.194L350.936 370.998C351.059 371.146 351.229 371.247 351.418 371.282C351.607 371.318 351.803 371.287 351.971 371.195C352.139 371.102 352.271 370.954 352.342 370.775C352.413 370.597 352.42 370.399 352.361 370.216L356.817 167.505C356.786 166.768 356.586 166.048 356.232 165.402C355.878 164.755 355.379 164.199 354.774 163.778L233.191 89.9733C232.97 89.8248 232.714 89.7353 232.448 89.7133Z" fill="#C0BCD6"/>
<path d="M216.138 99.0567L337.72 172.861C338.432 173.349 339.02 173.997 339.435 174.754C339.85 175.51 340.08 176.354 340.108 177.217L335.652 379.928C335.618 381.512 334.492 382.129 333.138 381.307L211.558 307.502C210.845 307.015 210.258 306.367 209.843 305.61C209.428 304.854 209.197 304.01 209.169 303.147L213.623 100.436C213.658 98.8523 214.784 98.235 216.138 99.0567Z" fill="white"/>
<path d="M334.229 382.385C333.709 382.361 333.204 382.2 332.766 381.919L211.185 308.115C210.365 307.562 209.689 306.822 209.214 305.955C208.739 305.088 208.478 304.12 208.453 303.132L212.906 100.42C212.854 99.9811 212.934 99.5367 213.136 99.1439C213.338 98.751 213.653 98.4276 214.041 98.2151C214.428 98.0027 214.87 97.9109 215.31 97.9516C215.75 97.9923 216.168 98.1637 216.51 98.4436L338.092 172.249C338.912 172.802 339.588 173.542 340.063 174.409C340.538 175.276 340.799 176.244 340.824 177.232L336.369 379.944C336.392 380.379 336.3 380.813 336.1 381.2C335.901 381.588 335.601 381.915 335.233 382.148C334.926 382.315 334.579 382.397 334.229 382.385ZM215.022 99.4096C214.92 99.4046 214.82 99.4264 214.729 99.4726C214.588 99.5907 214.479 99.742 214.411 99.9128C214.343 100.084 214.318 100.269 214.339 100.451L209.886 303.163C209.916 303.9 210.117 304.62 210.471 305.266C210.825 305.913 211.324 306.469 211.929 306.89L333.51 380.695C333.633 380.842 333.804 380.943 333.992 380.979C334.181 381.014 334.377 380.983 334.545 380.891C334.714 380.798 334.845 380.65 334.916 380.471C334.987 380.293 334.994 380.095 334.935 379.912L339.391 177.201C339.361 176.464 339.16 175.745 338.806 175.098C338.452 174.452 337.953 173.896 337.348 173.474L215.766 99.6696C215.544 99.5211 215.288 99.4316 215.022 99.4096Z" fill="#C0BCD6"/>
<path d="M227.361 146.753L324.721 205.849C325.595 206.424 326.321 207.196 326.84 208.103C327.36 209.01 327.659 210.027 327.712 211.071C327.671 212.928 326.267 213.601 324.574 212.573L227.214 153.478C226.34 152.903 225.614 152.131 225.095 151.224C224.575 150.317 224.277 149.3 224.223 148.256C224.264 146.399 225.669 145.726 227.361 146.753Z" fill="#C0BCD6"/>
<path d="M226.918 166.927L324.278 226.023C325.151 226.597 325.877 227.369 326.397 228.276C326.917 229.184 327.215 230.201 327.269 231.245C327.228 233.102 325.823 233.774 324.131 232.747L226.77 173.651C225.897 173.076 225.171 172.304 224.651 171.397C224.132 170.49 223.833 169.473 223.78 168.429C223.821 166.572 225.226 165.9 226.918 166.927Z" fill="#C0BCD6"/>
<path d="M226.475 187.1L323.834 246.195C324.708 246.77 325.434 247.542 325.954 248.449C326.473 249.357 326.772 250.373 326.825 251.418C326.785 253.274 325.38 253.947 323.687 252.92L226.327 193.824C225.453 193.249 224.727 192.477 224.208 191.57C223.688 190.663 223.39 189.646 223.336 188.602C223.377 186.745 224.782 186.072 226.475 187.1Z" fill="#C0BCD6"/>
<path d="M226.031 207.273L323.391 266.368C324.265 266.943 324.991 267.715 325.51 268.622C326.03 269.529 326.328 270.546 326.382 271.59C326.341 273.447 324.936 274.12 323.244 273.092L225.884 213.997C225.01 213.422 224.284 212.65 223.765 211.743C223.245 210.836 222.946 209.819 222.893 208.774C222.934 206.918 224.339 206.245 226.031 207.273Z" fill="#C0BCD6"/>
<path d="M225.588 227.446L322.948 286.542C323.821 287.116 324.547 287.888 325.067 288.796C325.586 289.703 325.885 290.72 325.939 291.764C325.898 293.621 324.493 294.293 322.801 293.266L225.44 234.17C224.567 233.596 223.841 232.823 223.321 231.916C222.802 231.009 222.503 229.992 222.45 228.948C222.491 227.091 223.896 226.419 225.588 227.446Z" fill="#C0BCD6"/>
<path d="M225.145 247.619L322.504 306.715C323.378 307.289 324.104 308.062 324.623 308.969C325.143 309.876 325.442 310.893 325.495 311.937C325.455 313.794 324.05 314.466 322.357 313.439L224.997 254.343C224.123 253.769 223.397 252.997 222.878 252.089C222.358 251.182 222.06 250.165 222.006 249.121C222.047 247.264 223.452 246.592 225.145 247.619Z" fill="#C0BCD6"/>
<path d="M224.701 267.792L322.061 326.888C322.935 327.462 323.661 328.234 324.18 329.142C324.7 330.049 324.998 331.066 325.052 332.11C325.011 333.967 323.606 334.639 321.914 333.612L224.554 274.516C223.68 273.942 222.954 273.17 222.434 272.262C221.915 271.355 221.616 270.338 221.563 269.294C221.604 267.437 223.009 266.765 224.701 267.792Z" fill="#C0BCD6"/>
<path d="M196.085 110.05L317.667 183.855C318.379 184.342 318.967 184.991 319.382 185.747C319.797 186.504 320.028 187.348 320.056 188.21L315.6 390.922C315.565 392.506 314.439 393.123 313.085 392.301L191.505 318.496C190.792 318.009 190.205 317.361 189.79 316.604C189.375 315.847 189.144 315.003 189.116 314.141L193.57 111.429C193.605 109.846 194.731 109.229 196.085 110.05Z" fill="white"/>
<g opacity="0.5">
<path opacity="0.5" d="M314.175 393.378C313.655 393.354 313.151 393.194 312.712 392.915L191.132 319.108C190.312 318.556 189.636 317.815 189.16 316.948C188.684 316.081 188.423 315.113 188.398 314.124L192.853 111.413C192.801 110.975 192.881 110.53 193.083 110.138C193.285 109.745 193.6 109.421 193.988 109.209C194.375 108.996 194.817 108.905 195.257 108.945C195.697 108.986 196.115 109.157 196.457 109.437L318.038 183.242C318.858 183.794 319.534 184.535 320.01 185.402C320.485 186.269 320.747 187.237 320.772 188.225L316.316 390.938C316.343 391.373 316.252 391.808 316.052 392.196C315.852 392.583 315.552 392.91 315.182 393.141C314.873 393.308 314.526 393.39 314.175 393.378ZM194.969 110.403C194.868 110.398 194.767 110.42 194.676 110.467C194.535 110.585 194.426 110.736 194.358 110.907C194.29 111.077 194.265 111.262 194.287 111.445L189.832 314.156C189.862 314.893 190.062 315.613 190.417 316.259C190.771 316.905 191.271 317.461 191.876 317.882L313.456 391.689C313.579 391.836 313.75 391.937 313.939 391.972C314.127 392.008 314.323 391.977 314.491 391.885C314.66 391.792 314.791 391.644 314.862 391.466C314.933 391.287 314.941 391.089 314.882 390.906L319.338 188.194C319.308 187.457 319.108 186.737 318.753 186.09C318.399 185.444 317.899 184.888 317.294 184.467L195.713 110.663C195.491 110.515 195.235 110.425 194.969 110.403Z" fill="#C0BCD6"/>
</g>
<path d="M207.752 137.575L264.865 172.245C265.739 172.82 266.465 173.592 266.985 174.499C267.504 175.406 267.803 176.423 267.856 177.467C267.816 179.324 266.411 179.997 264.718 178.969L207.604 144.299C206.731 143.725 206.005 142.953 205.485 142.045C204.966 141.138 204.667 140.121 204.614 139.077C204.655 137.22 206.06 136.548 207.752 137.575Z" fill="#37474F"/>
<path d="M207.309 157.747L304.668 216.843C305.542 217.417 306.268 218.19 306.788 219.097C307.307 220.004 307.606 221.021 307.659 222.065C307.619 223.922 306.214 224.594 304.521 223.567L207.161 164.471C206.287 163.897 205.561 163.125 205.042 162.217C204.522 161.31 204.224 160.293 204.17 159.249C204.211 157.392 205.616 156.72 207.309 157.747Z" fill="#C0BCD6"/>
<path d="M206.865 177.92L304.225 237.016C305.099 237.59 305.825 238.362 306.344 239.27C306.864 240.177 307.163 241.194 307.216 242.238C307.175 244.095 305.77 244.767 304.078 243.74L206.718 184.644C205.844 184.07 205.118 183.298 204.599 182.39C204.079 181.483 203.78 180.466 203.727 179.422C203.768 177.565 205.173 176.893 206.865 177.92Z" fill="#C0BCD6"/>
<path d="M206.422 198.093L303.782 257.189C304.655 257.764 305.381 258.536 305.901 259.443C306.42 260.35 306.719 261.367 306.773 262.411C306.732 264.268 305.327 264.941 303.635 263.913L206.274 204.817C205.401 204.243 204.675 203.471 204.155 202.564C203.636 201.656 203.337 200.639 203.284 199.595C203.325 197.739 204.73 197.066 206.422 198.093Z" fill="#C0BCD6"/>
<path d="M205.979 218.266L303.338 277.362C304.212 277.936 304.938 278.709 305.458 279.616C305.977 280.523 306.276 281.54 306.329 282.584C306.289 284.441 304.884 285.113 303.191 284.086L205.831 224.99C204.957 224.416 204.231 223.644 203.712 222.737C203.192 221.829 202.894 220.812 202.84 219.768C202.881 217.911 204.286 217.239 205.979 218.266Z" fill="#C0BCD6"/>
<path d="M205.535 238.44L302.895 297.535C303.769 298.11 304.495 298.882 305.014 299.789C305.534 300.696 305.832 301.713 305.886 302.757C305.845 304.614 304.44 305.287 302.748 304.259L205.388 245.164C204.514 244.589 203.788 243.817 203.268 242.91C202.749 242.003 202.45 240.986 202.397 239.941C202.438 238.085 203.843 237.412 205.535 238.44Z" fill="#C0BCD6"/>
<path d="M205.092 258.612L302.452 317.708C303.325 318.283 304.051 319.055 304.571 319.962C305.09 320.869 305.389 321.886 305.443 322.93C305.402 324.787 303.997 325.46 302.305 324.432L204.944 265.336C204.071 264.762 203.345 263.99 202.825 263.083C202.306 262.175 202.007 261.159 201.954 260.114C201.994 258.258 203.399 257.585 205.092 258.612Z" fill="#C0BCD6"/>
<path d="M204.649 278.786L302.008 337.882C302.882 338.456 303.608 339.228 304.127 340.135C304.647 341.043 304.946 342.059 304.999 343.104C304.959 344.96 303.554 345.633 301.861 344.606L204.501 285.51C203.627 284.935 202.901 284.163 202.382 283.256C201.862 282.349 201.564 281.332 201.51 280.288C201.551 278.431 202.956 277.758 204.649 278.786Z" fill="#C0BCD6"/>
<path d="M314.423 393.385C313.902 393.36 313.398 393.199 312.959 392.918L191.378 319.114C190.559 318.562 189.883 317.821 189.407 316.954C188.932 316.087 188.671 315.119 188.646 314.131L193.099 111.419C193.047 110.98 193.127 110.536 193.329 110.143C193.531 109.75 193.847 109.427 194.234 109.214C194.621 109.002 195.063 108.91 195.503 108.951C195.943 108.991 196.361 109.163 196.703 109.443L318.285 183.248C319.105 183.801 319.781 184.541 320.256 185.408C320.732 186.275 320.993 187.243 321.018 188.232L316.562 390.943C316.586 391.378 316.493 391.812 316.294 392.199C316.094 392.587 315.795 392.914 315.427 393.148C315.119 393.314 314.772 393.396 314.423 393.385ZM195.215 110.409C195.114 110.404 195.013 110.425 194.923 110.472C194.782 110.59 194.672 110.741 194.604 110.912C194.536 111.083 194.512 111.268 194.533 111.45L190.08 314.162C190.11 314.899 190.31 315.619 190.664 316.265C191.019 316.912 191.518 317.468 192.122 317.889L313.704 391.694C313.826 391.841 313.997 391.942 314.186 391.978C314.375 392.013 314.57 391.982 314.739 391.89C314.907 391.797 315.038 391.649 315.109 391.471C315.18 391.292 315.187 391.094 315.128 390.911L319.584 188.2C319.554 187.463 319.354 186.744 318.999 186.097C318.645 185.451 318.146 184.895 317.541 184.473L195.959 110.669C195.737 110.52 195.481 110.431 195.215 110.409Z" fill="#C0BCD6"/>
<path d="M178.391 119.741L299.974 193.546C300.686 194.033 301.274 194.681 301.689 195.438C302.104 196.194 302.334 197.038 302.362 197.901L297.906 400.613C297.871 402.196 296.746 402.813 295.392 401.992L173.811 328.186C173.099 327.699 172.511 327.051 172.096 326.294C171.681 325.538 171.451 324.694 171.423 323.831L175.877 121.12C175.912 119.536 177.038 118.919 178.391 119.741Z" fill="white"/>
<path d="M296.483 403.07C295.963 403.045 295.458 402.884 295.02 402.603L173.439 328.799C172.619 328.247 171.943 327.506 171.468 326.639C170.993 325.772 170.731 324.804 170.707 323.816L175.16 121.104C175.107 120.665 175.188 120.221 175.39 119.828C175.592 119.435 175.907 119.112 176.294 118.899C176.682 118.687 177.124 118.595 177.564 118.636C178.004 118.676 178.422 118.848 178.764 119.128L300.346 192.933C301.166 193.486 301.842 194.226 302.317 195.093C302.792 195.96 303.053 196.928 303.078 197.917L298.622 400.628C298.646 401.063 298.554 401.497 298.354 401.884C298.155 402.272 297.855 402.599 297.487 402.833C297.179 402.999 296.833 403.081 296.483 403.07ZM177.276 120.094C177.174 120.089 177.073 120.11 176.983 120.157C176.842 120.275 176.733 120.426 176.665 120.597C176.597 120.768 176.572 120.953 176.593 121.135L172.14 323.847C172.17 324.584 172.37 325.304 172.725 325.95C173.079 326.597 173.578 327.153 174.183 327.574L295.764 401.379C295.887 401.526 296.058 401.627 296.246 401.663C296.435 401.698 296.631 401.667 296.799 401.575C296.968 401.482 297.099 401.334 297.17 401.156C297.241 400.977 297.248 400.779 297.189 400.596L301.645 197.885C301.615 197.148 301.414 196.429 301.06 195.782C300.706 195.136 300.207 194.58 299.602 194.158L178.019 120.354C177.798 120.205 177.542 120.116 177.276 120.094Z" fill="#C0BCD6"/>
<path d="M190.545 148.711L247.658 183.381C248.532 183.955 249.258 184.728 249.778 185.635C250.297 186.542 250.596 187.559 250.649 188.603C250.609 190.46 249.204 191.132 247.511 190.105L190.397 155.435C189.524 154.861 188.798 154.089 188.278 153.181C187.759 152.274 187.46 151.257 187.407 150.213C187.448 148.356 188.853 147.684 190.545 148.711Z" fill="#23C89A"/>
<path d="M189.998 167.517L247.111 202.187C247.985 202.761 248.711 203.533 249.231 204.44C249.75 205.348 250.049 206.365 250.102 207.409C250.062 209.266 248.657 209.938 246.965 208.911L189.85 174.241C188.977 173.666 188.251 172.894 187.731 171.987C187.212 171.08 186.913 170.063 186.86 169.019C186.901 167.162 188.306 166.489 189.998 167.517Z" fill="#23C89A"/>
<path d="M189.658 189.056L287.018 248.152C287.892 248.726 288.618 249.498 289.137 250.405C289.657 251.313 289.955 252.329 290.009 253.374C289.968 255.23 288.563 255.903 286.871 254.876L189.511 195.78C188.637 195.205 187.911 194.433 187.392 193.526C186.872 192.619 186.573 191.602 186.52 190.558C186.561 188.701 187.966 188.028 189.658 189.056Z" fill="url(#paint0_linear_232_991)"/>
<path d="M189.215 209.229L286.575 268.325C287.448 268.899 288.174 269.671 288.694 270.579C289.213 271.486 289.512 272.503 289.566 273.547C289.525 275.404 288.12 276.076 286.428 275.049L189.067 215.953C188.194 215.379 187.468 214.607 186.948 213.699C186.429 212.792 186.13 211.775 186.077 210.731C186.118 208.874 187.523 208.202 189.215 209.229Z" fill="url(#paint1_linear_232_991)"/>
<path d="M188.772 229.402L286.131 288.498C287.005 289.072 287.731 289.844 288.25 290.752C288.77 291.659 289.069 292.676 289.122 293.72C289.082 295.577 287.677 296.249 285.984 295.222L188.624 236.126C187.75 235.552 187.024 234.779 186.505 233.872C185.985 232.965 185.687 231.948 185.633 230.904C185.674 229.047 187.079 228.375 188.772 229.402Z" fill="url(#paint2_linear_232_991)"/>
<path d="M188.328 249.575L285.688 308.671C286.561 309.246 287.287 310.018 287.807 310.925C288.327 311.832 288.625 312.849 288.679 313.893C288.638 315.75 287.233 316.422 285.541 315.395L188.18 256.299C187.307 255.725 186.581 254.953 186.061 254.046C185.542 253.138 185.243 252.121 185.19 251.077C185.231 249.22 186.636 248.548 188.328 249.575Z" fill="url(#paint3_linear_232_991)"/>
<path d="M187.885 269.749L285.245 328.844C286.118 329.419 286.844 330.191 287.364 331.098C287.883 332.005 288.182 333.022 288.236 334.066C288.195 335.923 286.79 336.596 285.098 335.569L187.737 276.473C186.864 275.898 186.138 275.126 185.618 274.219C185.099 273.312 184.8 272.295 184.747 271.251C184.787 269.394 186.192 268.721 187.885 269.749Z" fill="url(#paint4_linear_232_991)"/>
<path d="M187.442 289.921L284.801 349.017C285.675 349.592 286.401 350.364 286.92 351.271C287.44 352.178 287.739 353.195 287.792 354.239C287.751 356.096 286.347 356.769 284.654 355.741L187.294 296.646C186.42 296.071 185.694 295.299 185.175 294.392C184.655 293.485 184.357 292.468 184.303 291.424C184.344 289.567 185.749 288.894 187.442 289.921Z" fill="url(#paint5_linear_232_991)"/>
<g opacity="0.1">
<path opacity="0.1" d="M537.281 455.095L407.687 542.346C399.526 547.839 382.026 548.965 372.774 545.151C308.968 519.156 120.759 441.48 120.759 441.48C111.463 437.673 110.692 430.218 118.875 424.719L249.837 336.515L537.281 455.095Z" fill="black"/>
</g>
<path d="M508.804 450.038C507.581 456.681 392.217 528.572 392.217 528.572C384.814 533.56 368.949 534.534 360.566 531.122C302.717 507.516 133.514 437.711 133.514 437.711C125.163 434.33 121.709 423.683 129.127 418.692L249.114 341.944C249.114 341.944 520.57 387.282 508.804 450.038Z" fill="#2A206A"/>
<path d="M509.222 444.794L391.738 523.888C384.334 528.873 368.473 529.885 360.087 526.431C302.241 502.863 131.619 432.448 131.619 432.448C123.218 428.998 122.503 422.239 129.918 417.253L248.638 337.297L509.222 444.794Z" fill="#573CDA"/>
<path d="M525.749 282.291C525.585 281.424 525.346 280.572 525.032 279.742C524.903 279.506 524.834 279.259 524.723 278.999C524.389 278.148 523.996 277.32 523.546 276.518C523.527 276.367 523.46 276.225 523.355 276.109C522.962 275.376 522.474 274.706 522.052 274.071C521.757 273.729 521.563 273.44 521.298 273.135C520.805 272.623 520.372 272.085 519.881 271.633C519.768 271.468 519.632 271.318 519.476 271.186C518.865 270.566 518.18 270.011 517.434 269.533C517.255 269.4 517.067 269.277 516.871 269.165C516.128 268.682 515.329 268.274 514.489 267.949L284.509 174.241C283.652 173.91 282.761 173.657 281.849 173.484C281.51 173.459 281.303 173.385 280.978 173.377C280.557 173.323 280.174 173.32 279.791 173.285C279.433 173.289 279.075 173.312 278.719 173.355L277.948 173.433C277.423 173.522 276.907 173.653 276.405 173.824L282.464 171.771C282.801 171.643 283.149 171.542 283.504 171.47L285.293 171.288C285.471 171.267 285.65 171.255 285.829 171.252C286.167 171.256 286.571 171.313 286.986 171.329C287.178 171.354 287.371 171.367 287.565 171.368C287.688 171.402 287.806 171.448 287.919 171.505C288.835 171.616 289.727 171.853 290.563 172.208L520.563 265.915C521.404 266.264 522.204 266.69 522.951 267.186C523.089 267.289 523.284 267.381 523.444 267.483C524.172 268.006 524.864 268.571 525.516 269.174C525.679 269.314 525.786 269.401 525.887 269.508C526.147 269.789 526.465 270.012 526.728 270.335C526.948 270.594 527.153 270.864 527.34 271.145C527.631 271.398 527.875 271.694 528.062 272.021C528.178 272.15 528.283 272.288 528.374 272.433C528.792 273.003 529.145 273.612 529.426 274.25C529.476 274.307 529.531 274.36 529.59 274.407L529.594 274.446C529.985 275.067 530.306 275.724 530.551 276.408C530.677 276.627 530.703 276.876 530.816 277.098C530.877 277.284 530.957 277.492 531.019 277.68C531.138 277.92 531.228 278.17 531.286 278.429C531.498 279.045 531.641 279.632 531.813 280.254C531.825 280.371 531.875 280.483 531.883 280.556L531.895 280.672C532.071 281.552 532.196 282.44 532.269 283.334C532.275 283.387 532.204 283.497 532.206 283.515C532.28 284.662 532.249 285.814 532.113 286.959L508.803 450.038L503.89 453.351L526.058 288.974C526.22 287.823 526.262 286.662 526.182 285.508C526.082 284.527 525.983 283.548 525.821 282.536C525.776 282.461 525.751 282.377 525.749 282.291Z" fill="#2A206A"/>
<path d="M284.51 174.241C277.048 171.159 269.919 175.627 268.752 184.171L248.64 337.297L504.624 447.919L526.059 288.973C527.23 280.41 522.029 271.006 514.489 267.949L284.51 174.241Z" fill="#3D2B93"/>
<path d="M517.984 294.203L274.945 196.524L257.395 328.123L498.174 433.444L517.984 294.203Z" fill="white"/>
<path d="M172.642 405.896L404.564 500.377L473.928 453.59L242.088 359.138L172.642 405.896ZM348.875 471.837L240.833 427.901L250.193 421.594L358.165 465.573L348.875 471.837ZM276.156 404.086L285.713 408.018L276.393 414.288L266.78 410.433L276.156 404.086ZM243.572 400.94L234.005 397.066L243.376 390.712L252.932 394.633L243.572 400.94ZM374.804 454.389L365.22 450.495L374.614 444.202L384.164 448.078L374.804 454.389ZM341.764 430.822L351.329 434.7L342.009 441.055L332.436 437.125L341.764 430.822ZM407.513 467.745L398.003 463.865L407.351 457.556L416.902 461.435L407.513 467.745ZM299.634 423.796L308.998 417.467L318.512 421.39L309.152 427.679L299.634 423.796ZM298.031 413.016L307.628 416.951L298.265 423.219L288.7 419.345L298.031 413.016ZM429.437 476.653L419.889 472.755L429.287 466.462L438.818 470.4L429.437 476.653ZM232.622 396.526L223.084 392.61L232.46 386.277L241.988 390.215L232.622 396.526ZM330.898 426.395L340.422 430.277L331.09 436.585L321.542 432.666L330.898 426.395ZM265.44 409.857L255.892 405.952L265.268 399.662L274.797 403.582L265.44 409.857ZM363.702 439.745L373.207 443.665L363.854 449.957L354.3 446.021L363.702 439.745ZM396.649 463.283L387.084 459.405L396.487 453.133L406.03 457.013L396.649 463.283ZM381.647 485.251L372.114 481.366L381.42 475.043L391.001 478.976L381.647 485.251ZM230.603 409.675L221.013 405.743L230.384 399.471L239.949 403.405L230.603 409.675L230.603 409.675ZM328.781 439.594L338.395 443.502L329.025 449.778L319.491 445.897L328.781 439.594ZM289.129 395.41L298.689 399.289L289.399 405.546L279.828 401.633L289.129 395.41ZM256.577 392.183L247.046 388.242L256.341 381.984L265.909 385.879L256.577 392.183ZM305.545 430.125L296.211 436.407L286.6 432.538L295.989 426.263L305.545 430.125L305.545 430.125ZM312.652 414.996L321.95 408.738L331.561 412.646L322.19 418.919L312.652 414.996ZM263.177 412.858L272.721 416.738L263.412 423.046L253.816 419.129L263.177 412.858ZM217.646 418.444L208.068 414.515L217.431 408.243L226.972 412.124L217.646 418.444ZM354.773 422.103L364.344 426.016L354.966 432.289L345.436 428.369L354.773 422.103ZM394.602 476.474L385.104 472.629L394.385 466.287L403.946 470.247L394.602 476.474ZM361.823 463.143L352.228 459.211L361.586 452.94L371.16 456.877L361.823 463.143ZM387.8 445.672L378.243 441.733L387.556 435.47L397.081 439.352L387.8 445.672ZM420.594 459.023L411.066 455.099L420.347 448.839L429.954 452.713L420.594 459.023ZM311.011 404.259L320.579 408.157L311.27 414.441L301.704 410.567L311.011 404.259ZM383.7 472.094L374.123 468.122L383.451 461.854L393.026 465.731L383.7 472.094ZM409.672 454.606L400.091 450.673L409.424 444.362L418.995 448.278L409.672 454.606ZM317.879 435.178L327.483 439.045L318.104 445.318L308.51 441.39L317.879 435.178ZM278.474 401.094L268.874 397.237L278.217 390.928L287.775 394.828L278.474 401.094ZM343.821 417.629L353.395 421.602L344.094 427.825L334.482 423.895L343.821 417.629ZM252.475 418.588L242.906 414.693L252.195 408.425L261.811 412.319L252.475 418.588ZM285.051 421.791L294.595 425.668L285.28 431.935L275.689 428.063L285.051 421.791ZM239.526 427.339L229.956 423.419L239.235 417.163L248.869 421.069L239.526 427.339ZM350.657 448.527L360.196 452.383L350.911 458.665L341.363 454.792L350.657 448.527ZM376.646 431.009L386.213 434.887L376.877 441.191L367.295 437.301L376.646 431.009ZM403.515 494.182L393.966 490.224L403.291 483.957L412.886 487.849L403.515 494.182ZM206.742 413.965L197.135 410.095L206.432 403.834L216.048 407.706L206.742 413.965ZM219.65 405.201L210.125 401.323L219.447 395.013L229.003 398.93L219.65 405.201ZM416.515 485.383L406.903 481.489L416.261 475.221L425.809 479.119L416.515 485.383ZM245.667 387.747L236.094 383.87L245.426 377.563L254.96 381.444L245.667 387.747ZM370.787 480.824L361.09 476.864L370.469 470.59L380.082 474.499L370.787 480.824ZM442.485 467.892L432.914 464.036L442.211 457.753L451.783 461.669L442.485 467.892ZM221.655 392.018L212.127 388.097L221.505 381.827L231.03 385.702L221.655 392.018ZM352.746 435.332L362.252 439.177L352.896 445.441L343.367 441.601L352.746 435.332ZM385.721 458.806L376.169 454.927L385.564 448.656L395.075 452.539L385.721 458.806ZM254.491 405.4L244.953 401.477L254.288 395.194L263.865 399.088L254.491 405.4ZM287.134 408.554L296.661 412.436L287.291 418.786L277.762 414.869L287.134 408.554ZM418.48 472.2L408.995 468.335L418.355 462.025L427.843 465.928L418.48 472.2ZM310.575 428.271L319.961 421.92L329.435 425.863L320.09 432.077L310.575 428.271ZM431.464 463.425L422.002 459.536L431.293 453.293L440.821 457.153L431.464 463.425ZM208.743 400.782L199.239 396.856L208.53 390.634L218.078 394.513L208.743 400.782ZM405.564 480.948L395.987 477.053L405.35 470.785L414.878 474.684L405.564 480.948ZM274.066 417.338L283.687 421.249L274.349 427.522L264.783 423.641L274.066 417.338ZM267.488 396.644L257.919 392.724L267.301 386.493L276.806 390.359L267.488 396.644ZM300.146 399.818L309.603 403.707L300.345 410.021L290.787 406.128L300.146 399.818ZM359.775 476.317L350.24 472.457L359.52 466.176L369.065 470.095L359.775 476.317ZM195.8 409.515L186.201 405.658L195.56 399.348L205.021 403.258L195.8 409.515ZM372.781 467.578L363.167 463.708L372.515 457.396L382.07 461.313L372.781 467.578ZM241.514 414.132L231.99 410.254L241.353 403.985L250.876 407.843L241.514 414.132ZM398.706 450.094L389.155 446.215L398.537 439.941L408.061 443.823L398.706 450.094ZM392.615 489.702L383.043 485.786L392.339 479.482L401.841 483.388L392.615 489.702ZM365.725 426.556L375.234 430.44L365.92 436.686L356.396 432.821L365.725 426.556ZM228.511 422.853L219.031 418.988L228.343 412.722L237.916 416.577L228.511 422.853ZM323.565 419.474L332.917 413.168L342.453 417.091L333.145 423.393L323.565 419.474ZM316.457 434.582L307.154 440.861L297.614 436.946L306.912 430.684L316.457 434.582ZM234.725 383.29L225.136 379.358L234.481 373.148L244.004 377.026L234.725 383.29ZM339.737 444.007L349.246 447.951L339.963 454.254L330.381 450.317L339.737 444.007ZM325.626 398.405L335.173 402.344L328.721 406.647L319.142 402.735L325.626 398.405ZM394.812 426.6L404.485 430.464L397.998 434.833L388.379 430.926L394.812 426.6ZM260.01 371.669L269.547 375.571L263.108 379.936L253.5 376.059L260.01 371.669ZM300.099 387.987L309.698 391.9L303.105 396.256L293.646 392.346L300.099 387.987ZM285.534 382.077L295.144 385.986L288.614 390.36L279.035 386.441L285.534 382.077ZM434.965 442.904L444.498 446.884L438.043 451.208L428.474 447.313L434.965 442.904ZM449.515 448.896L459.12 452.749L452.657 457.151L443.117 453.235L449.515 448.896ZM412.517 440.765L403.022 436.919L409.464 432.519L418.966 436.406L412.517 440.765ZM248.478 373.973L239 370.087L245.529 365.714L254.993 369.64L248.478 373.973ZM340.244 404.33L349.752 408.21L343.265 412.583L333.729 408.702L340.244 404.33Z" fill="#EBFAFF"/>
<path d="M320.579 408.158L311.27 414.441L301.704 410.566L311.015 404.301L320.579 408.158Z" fill="#3D2B93"/>
<path d="M244.005 377.027L234.725 383.29L225.138 379.357L234.481 373.148L244.005 377.027Z" fill="#3D2B93"/>
<path d="M287.774 394.828L278.474 401.093L268.873 397.238L278.216 390.929L287.774 394.828Z" fill="#3D2B93"/>
<path d="M261.812 412.319L252.476 418.588L242.906 414.693L252.195 408.426L261.812 412.319Z" fill="#3D2B93"/>
<path d="M254.995 369.64L248.48 373.973L239.001 370.087L245.53 365.715L254.995 369.64Z" fill="#3D2B93"/>
<path d="M269.548 375.572L263.107 379.936L253.5 376.06L260.009 371.669L269.548 375.572Z" fill="#3D2B93"/>
<path d="M254.96 381.443L245.667 387.747L236.095 383.871L245.427 377.563L254.96 381.443Z" fill="#3D2B93"/>
<path d="M231.032 385.702L221.655 392.018L212.128 388.097L221.505 381.826L231.032 385.702Z" fill="#3D2B93"/>
<path d="M265.911 385.88L256.579 392.182L247.048 388.242L256.343 381.984L265.911 385.88Z" fill="#3D2B93"/>
<path d="M295.145 385.987L288.614 390.359L279.036 386.44L285.535 382.078L295.145 385.987Z" fill="#3D2B93"/>
<path d="M241.987 390.214L232.622 396.525L223.084 392.61L232.46 386.277L241.987 390.214Z" fill="#3D2B93"/>
<path d="M218.079 394.514L208.743 400.782L199.239 396.856L208.53 390.634L218.079 394.514Z" fill="#3D2B93"/>
<path d="M276.806 390.359L267.487 396.643L257.919 392.723L267.302 386.494L276.806 390.359Z" fill="#3D2B93"/>
<path d="M252.933 394.633L243.574 400.94L234.006 397.065L243.376 390.712L252.933 394.633Z" fill="#3D2B93"/>
<path d="M309.698 391.899L303.105 396.255L293.646 392.346L300.099 387.986L309.698 391.899Z" fill="#3D2B93"/>
<path d="M229.005 398.93L219.652 405.202L210.127 401.323L219.448 395.013L229.005 398.93Z" fill="#3D2B93"/>
<path d="M205.023 403.257L195.801 409.514L186.202 405.659L195.561 399.348L205.023 403.257Z" fill="#3D2B93"/>
<path d="M263.866 399.088L254.493 405.4L244.954 401.477L254.29 395.194L263.866 399.088Z" fill="#3D2B93"/>
<path d="M239.95 403.406L230.603 409.675L221.013 405.743L230.384 399.471L239.95 403.406Z" fill="#3D2B93"/>
<path d="M298.688 399.289L289.399 405.547L279.827 401.633L289.128 395.411L298.688 399.289Z" fill="#3D2B93"/>
<path d="M274.798 403.581L265.441 409.857L255.892 405.952L265.269 399.661L274.798 403.581Z" fill="#3D2B93"/>
<path d="M250.877 407.843L241.514 414.132L231.991 410.254L241.354 403.985L250.877 407.843Z" fill="#3D2B93"/>
<path d="M335.173 402.344L328.72 406.648L319.142 402.736L325.626 398.404L335.173 402.344Z" fill="#3D2B93"/>
<path d="M309.604 403.708L300.346 410.02L290.788 406.128L300.147 399.818L309.604 403.708Z" fill="#3D2B93"/>
<path d="M285.713 408.018L276.394 414.289L266.779 410.433L276.155 404.086L285.713 408.018Z" fill="#3D2B93"/>
<path d="M237.917 416.578L228.511 422.854L219.031 418.988L228.343 412.722L237.917 416.578Z" fill="#3D2B93"/>
<path d="M349.753 408.211L343.265 412.583L333.728 408.703L340.243 404.33L349.753 408.211Z" fill="#3D2B93"/>
<path d="M296.663 412.435L287.292 418.787L277.763 414.868L287.136 408.554L296.663 412.435Z" fill="#3D2B93"/>
<path d="M272.722 416.737L263.414 423.046L253.818 419.129L263.177 412.858L272.722 416.737Z" fill="#3D2B93"/>
<path d="M331.561 412.646L322.191 418.92L312.651 414.997L321.949 408.738L331.561 412.646Z" fill="#3D2B93"/>
<path d="M248.87 421.069L239.528 427.34L229.958 423.42L239.236 417.163L248.87 421.069Z" fill="#3D2B93"/>
<path d="M283.686 421.25L274.349 427.522L264.783 423.642L274.066 417.339L283.686 421.25Z" fill="#3D2B93"/>
<path d="M342.454 417.09L333.146 423.392L323.566 419.473L332.917 413.167L342.454 417.09Z" fill="#3D2B93"/>
<path d="M318.513 421.39L309.152 427.679L299.634 423.795L308.999 417.468L318.513 421.39Z" fill="#3D2B93"/>
<path d="M294.596 425.667L285.28 431.936L275.689 428.063L285.052 421.792L294.596 425.667Z" fill="#3D2B93"/>
<path d="M353.395 421.603L344.094 427.826L334.484 423.896L343.823 417.629L353.395 421.603Z" fill="#3D2B93"/>
<path d="M329.434 425.864L320.089 432.077L310.575 428.271L319.962 421.92L329.434 425.864Z" fill="#3D2B93"/>
<path d="M305.544 430.124L296.21 436.407L286.601 432.538L295.989 426.262L305.544 430.124Z" fill="#3D2B93"/>
<path d="M364.344 426.016L354.966 432.29L345.437 428.37L354.773 422.103L364.344 426.016Z" fill="#3D2B93"/>
<path d="M340.423 430.277L331.091 436.585L321.543 432.667L330.897 426.395L340.423 430.277Z" fill="#3D2B93"/>
<path d="M316.456 434.582L307.153 440.861L297.612 436.945L306.909 430.685L316.456 434.582Z" fill="#3D2B93"/>
<path d="M375.235 430.441L365.921 436.685L356.397 432.822L365.726 426.557L375.235 430.441Z" fill="#3D2B93"/>
<path d="M404.487 430.464L397.999 434.834L388.379 430.927L394.812 426.6L404.487 430.464Z" fill="#3D2B93"/>
<path d="M351.331 434.701L342.01 441.056L332.439 437.126L341.765 430.822L351.331 434.701Z" fill="#3D2B93"/>
<path d="M327.483 439.045L318.104 445.317L308.51 441.391L317.878 435.177L327.483 439.045Z" fill="#3D2B93"/>
<path d="M386.214 434.887L376.878 441.192L367.297 437.3L376.646 431.009L386.214 434.887Z" fill="#3D2B93"/>
<path d="M362.253 439.176L352.897 445.441L343.366 441.603L352.747 435.331L362.253 439.176Z" fill="#3D2B93"/>
<path d="M418.966 436.406L412.516 440.765L403.02 436.919L409.464 432.519L418.966 436.406Z" fill="#3D2B93"/>
<path d="M338.395 443.502L329.023 449.777L319.49 445.897L328.781 439.594L338.395 443.502Z" fill="#3D2B93"/>
<path d="M397.081 439.352L387.8 445.671L378.241 441.734L387.556 435.469L397.081 439.352Z" fill="#3D2B93"/>
<path d="M373.208 443.665L363.855 449.957L354.3 446.021L363.704 439.746L373.208 443.665Z" fill="#3D2B93"/>
<path d="M349.245 447.951L339.962 454.253L330.382 450.317L339.737 444.008L349.245 447.951Z" fill="#3D2B93"/>
<path d="M408.062 443.824L398.706 450.094L389.156 446.214L398.538 439.941L408.062 443.824Z" fill="#3D2B93"/>
<path d="M384.164 448.078L374.806 454.388L365.22 450.495L374.614 444.203L384.164 448.078Z" fill="#3D2B93"/>
<path d="M360.196 452.384L350.91 458.665L341.362 454.792L350.657 448.527L360.196 452.384Z" fill="#3D2B93"/>
<path d="M444.499 446.884L438.044 451.208L428.474 447.313L434.966 442.903L444.499 446.884Z" fill="#3D2B93"/>
<path d="M418.997 448.279L409.673 454.606L400.092 450.673L409.425 444.363L418.997 448.279Z" fill="#3D2B93"/>
<path d="M395.077 452.538L385.724 458.807L376.171 454.927L385.565 448.656L395.077 452.538Z" fill="#3D2B93"/>
<path d="M429.954 452.713L420.595 459.024L411.066 455.1L420.347 448.839L429.954 452.713Z" fill="#3D2B93"/>
<path d="M459.12 452.749L452.657 457.151L443.116 453.235L449.515 448.896L459.12 452.749Z" fill="#3D2B93"/>
<path d="M406.03 457.013L396.65 463.284L387.085 459.405L396.487 453.134L406.03 457.013Z" fill="#3D2B93"/>
<path d="M382.071 461.313L372.782 467.578L363.168 463.708L372.515 457.395L382.071 461.313Z" fill="#3D2B93"/>
<path d="M440.821 457.153L431.462 463.426L422.001 459.537L431.292 453.293L440.821 457.153Z" fill="#3D2B93"/>
<path d="M358.164 465.573L348.875 471.838L240.833 427.901L250.192 421.594L358.164 465.573Z" fill="#3D2B93"/>
<path d="M416.901 461.436L407.511 467.746L398.002 463.865L407.351 457.556L416.901 461.436Z" fill="#3D2B93"/>
<path d="M393.026 465.731L383.7 472.094L374.123 468.123L383.45 461.853L393.026 465.731Z" fill="#3D2B93"/>
<path d="M451.784 461.668L442.487 467.891L432.915 464.035L442.212 457.752L451.784 461.668Z" fill="#3D2B93"/>
<path d="M369.065 470.094L359.774 476.317L350.239 472.456L359.521 466.175L369.065 470.094Z" fill="#3D2B93"/>
<path d="M427.842 465.928L418.48 472.201L408.995 468.336L418.354 462.025L427.842 465.928Z" fill="#3D2B93"/>
<path d="M403.946 470.247L394.603 476.475L385.105 472.629L394.386 466.288L403.946 470.247Z" fill="#3D2B93"/>
<path d="M380.083 474.499L370.788 480.824L361.092 476.863L370.47 470.591L380.083 474.499Z" fill="#3D2B93"/>
<path d="M438.819 470.401L429.439 476.654L419.89 472.755L429.288 466.462L438.819 470.401Z" fill="#3D2B93"/>
<path d="M414.88 474.684L405.565 480.948L395.987 477.053L405.351 470.785L414.88 474.684Z" fill="#3D2B93"/>
<path d="M391.001 478.977L381.646 485.251L372.115 481.367L381.419 475.044L391.001 478.977Z" fill="#3D2B93"/>
<path d="M425.809 479.119L416.515 485.383L406.904 481.489L416.261 475.22L425.809 479.119Z" fill="#3D2B93"/>
<path d="M401.841 483.387L392.616 489.702L383.044 485.786L392.341 479.482L401.841 483.387Z" fill="#3D2B93"/>
<path d="M412.885 487.849L403.515 494.182L393.966 490.224L403.29 483.957L412.885 487.849Z" fill="#3D2B93"/>
<path d="M307.628 416.95L298.265 423.22L288.699 419.345L298.031 413.017L307.628 416.95Z" fill="#3D2B93"/>
<path d="M371.159 456.877L361.823 463.142L352.228 459.212L361.585 452.94L371.159 456.877Z" fill="#3D2B93"/>
<path d="M226.974 412.125L217.647 418.444L208.07 414.514L217.433 408.243L226.974 412.125Z" fill="#3D2B93"/>
<path d="M216.048 407.707L206.743 413.967L197.136 410.096L206.433 403.835L216.048 407.707Z" fill="#3D2B93"/>
<path d="M297.201 461.207C300.504 462.54 300.824 465.263 297.82 467.277L278.29 480.386C276.603 481.404 274.687 482.045 272.695 482.257C270.704 482.47 268.695 482.248 266.83 481.61L237.232 469.549C233.976 468.173 233.67 465.427 236.608 463.42L256.105 450.296C257.809 449.299 259.733 448.675 261.727 448.472C263.721 448.269 265.732 448.492 267.602 449.125L297.201 461.207Z" fill="#72B5D3"/>
<path d="M297.292 462.09C300.598 463.461 300.921 466.202 297.909 468.143L278.383 481.29C276.7 482.319 274.782 482.965 272.787 483.175C270.793 483.385 268.782 483.152 266.921 482.497L237.323 470.433C234.071 469.094 233.761 466.314 236.699 464.306L256.198 451.201C257.894 450.186 259.819 449.551 261.817 449.347C263.815 449.144 265.829 449.378 267.695 450.03L297.292 462.09Z" fill="#2A206A"/>
<path d="M469.721 289.476C468.565 288.942 467.23 289.714 467.115 290.981C467.045 291.757 467.47 292.492 468.177 292.818L498.998 307.049C500.152 307.582 501.485 306.812 501.6 305.546C501.67 304.772 501.246 304.037 500.54 303.711L469.721 289.476Z" fill="url(#paint6_linear_232_991)"/>
<path d="M468.796 299.961C467.642 299.428 466.308 300.199 466.193 301.465C466.123 302.24 466.548 302.975 467.254 303.301L498.069 317.533C499.225 318.067 500.561 317.295 500.674 316.026C500.744 315.251 500.319 314.516 499.613 314.19L468.796 299.961Z" fill="url(#paint7_linear_232_991)"/>
<path d="M467.877 310.445C466.722 309.911 465.386 310.683 465.272 311.951C465.202 312.726 465.627 313.461 466.333 313.788L497.148 328.021C498.303 328.555 499.638 327.783 499.752 326.516C499.822 325.742 499.398 325.006 498.691 324.68L467.877 310.445Z" fill="url(#paint8_linear_232_991)"/>
<g opacity="0.1">
<path opacity="0.1" d="M454.678 545.034L466.421 549.858C466.785 550.006 467.188 550.063 467.587 550.022C467.987 549.981 468.369 549.845 468.697 549.626L479.317 542.517C479.643 542.299 479.902 542.007 480.068 541.67C480.235 541.333 480.303 540.963 480.267 540.598C480.23 540.232 480.09 539.883 479.86 539.586C479.63 539.289 479.319 539.054 478.957 538.905L467.212 534.081C466.847 533.933 466.445 533.876 466.045 533.916C465.646 533.956 465.263 534.092 464.935 534.309L454.316 541.422C453.99 541.64 453.731 541.932 453.564 542.269C453.397 542.605 453.329 542.975 453.366 543.341C453.402 543.707 453.543 544.056 453.773 544.353C454.004 544.65 454.316 544.885 454.678 545.034Z" fill="black"/>
</g>
<path opacity="0.03333" d="M405.111 40.4339C405.617 45.4078 407.714 50.1071 411.137 53.9375C414.561 57.7678 419.156 60.5573 424.343 61.953C429.531 63.3487 435.076 63.288 440.279 61.7787C445.481 60.2693 450.108 57.379 453.572 53.4733C457.037 49.5675 459.184 44.8218 459.743 39.8362C460.301 34.8506 459.246 29.849 456.711 25.4639C454.175 21.0788 450.273 17.5072 445.498 15.2007C440.723 12.8941 435.29 11.9563 429.885 12.5057C422.637 13.2434 415.955 16.6 411.309 21.8374C406.664 27.0747 404.434 33.7639 405.111 40.4339Z" fill="#DEF4FF"/>
<path opacity="0.06667" d="M410.196 40.2358C410.608 44.2903 412.317 48.121 415.108 51.2434C417.898 54.3659 421.644 56.6398 425.872 57.7778C430.1 58.9157 434.621 58.8666 438.862 57.6365C443.103 56.4064 446.874 54.0506 449.698 50.8671C452.522 47.6836 454.273 43.8153 454.729 39.7513C455.185 35.6873 454.325 31.6103 452.259 28.0356C450.192 24.461 447.012 21.5494 443.12 19.6689C439.227 17.7884 434.798 17.0236 430.392 17.471C424.484 18.0721 419.037 20.808 415.25 25.077C411.463 29.346 409.645 34.7987 410.196 40.2358Z" fill="#DEF4FF"/>
<path opacity="0.1" d="M415.279 40.0385C415.598 43.1735 416.919 46.1354 419.077 48.5497C421.234 50.964 424.131 52.7223 427.4 53.6023C430.669 54.4822 434.165 54.4442 437.444 53.4932C440.723 52.5422 443.639 50.7208 445.823 48.2593C448.007 45.7979 449.361 42.8069 449.713 39.6646C450.066 36.5223 449.401 33.3699 447.804 30.6058C446.206 27.8418 443.747 25.5903 440.738 24.1361C437.729 22.6819 434.304 22.0902 430.897 22.436C426.328 22.9002 422.116 25.0155 419.187 28.3165C416.259 31.6176 414.853 35.8341 415.279 40.0385Z" fill="#DEF4FF"/>
<path opacity="0.13333" d="M420.364 39.8418C420.589 42.0573 421.523 44.1506 423.048 45.8569C424.572 47.5631 426.619 48.8058 428.93 49.4278C431.24 50.0498 433.71 50.0232 436.028 49.3513C438.345 48.6794 440.406 47.3923 441.949 45.653C443.493 43.9136 444.45 41.8 444.7 39.5793C444.949 37.3587 444.48 35.1308 443.351 33.1772C442.222 31.2237 440.485 29.6324 438.358 28.6044C436.232 27.5764 433.812 27.1579 431.404 27.4019C429.805 27.564 428.251 28.0144 426.831 28.7273C425.411 29.4402 424.152 30.4018 423.127 31.5569C422.102 32.7121 421.33 34.0383 420.856 35.4599C420.382 36.8814 420.215 38.3704 420.364 39.8418Z" fill="#DEF4FF"/>
<path opacity="0.16667" d="M425.447 39.6442C425.579 40.9402 426.125 42.1647 427.017 43.1629C427.908 44.1611 429.106 44.8883 430.457 45.2524C431.808 45.6164 433.253 45.6012 434.609 45.2084C435.965 44.8157 437.17 44.0632 438.074 43.046C438.977 42.0287 439.537 40.7925 439.684 39.4936C439.83 38.1946 439.556 36.8913 438.897 35.7483C438.237 34.6053 437.221 33.674 435.977 33.0721C434.734 32.4702 433.318 32.2247 431.91 32.3667C430.974 32.461 430.064 32.7241 429.233 33.141C428.402 33.5579 427.665 34.1203 427.065 34.7961C426.465 35.472 426.013 36.248 425.735 37.0799C425.458 37.9117 425.36 38.7831 425.447 39.6442Z" fill="#DEF4FF"/>
<path opacity="0.2" d="M430.53 39.4465C430.568 39.8231 430.727 40.1789 430.985 40.4692C431.244 40.7595 431.592 40.9711 431.984 41.0773C432.377 41.1836 432.796 41.1796 433.19 41.0661C433.585 40.9525 433.935 40.7344 434.198 40.4393C434.461 40.1442 434.625 39.7853 434.668 39.408C434.711 39.0306 434.633 38.6518 434.442 38.3193C434.251 37.9868 433.957 37.7156 433.596 37.5399C433.235 37.3642 432.824 37.2919 432.415 37.3321C432.142 37.3588 431.877 37.4348 431.635 37.5556C431.393 37.6764 431.178 37.8397 431.003 38.0361C430.828 38.2325 430.696 38.4582 430.615 38.7003C430.534 38.9423 430.505 39.1959 430.53 39.4465Z" fill="#DEF4FF"/>
<path d="M386.015 296.818L359.371 346.25L323.73 331.501L350.377 282.068L386.015 296.818Z" fill="#573CDA"/>
<path d="M332.901 290.243L312.502 328.114L276.355 314.159L296.749 276.288L332.901 290.243Z" fill="#573CDA"/>
<path d="M480.419 329.383L451.461 383.173L415.266 369.449L444.23 315.662L480.419 329.383Z" fill="#3D2B93"/>
<path d="M425.603 324.561L404.771 363.243L368.482 349.553L389.314 310.876L425.603 324.561Z" fill="#573CDA"/>
<path d="M375.12 334.553L375.436 328.571L430.2 325.695L429.885 331.678L375.12 334.553Z" fill="#23C89A"/>
<path d="M426.357 323.609L426.673 317.627L473.563 328.117L473.246 334.097L426.357 323.609Z" fill="#23C89A"/>
<path d="M364.814 309.743L365.129 303.761L375.435 328.571L375.119 334.553L364.814 309.743Z" fill="#23C89A"/>
<path d="M288.393 313.766L288.711 307.785L365.132 303.761L364.817 309.743L288.393 313.766Z" fill="#23C89A"/>
<path d="M426.358 323.609L473.247 334.097L437.881 349.949L433.998 341.057L367.544 344.914L357.764 321.453L292.22 323.167L288.391 313.766L364.814 309.743L375.119 334.553L429.883 331.678L426.358 323.609Z" fill="#1BC082"/>
<defs>
<linearGradient id="paint0_linear_232_991" x1="238.974" y1="189.691" x2="237.555" y2="254.24" gradientUnits="userSpaceOnUse">
<stop stop-color="#C0BCD6"/>
<stop offset="1" stop-color="#D5D5D5"/>
</linearGradient>
<linearGradient id="paint1_linear_232_991" x1="238.531" y1="209.864" x2="237.112" y2="274.414" gradientUnits="userSpaceOnUse">
<stop stop-color="#C0BCD6"/>
<stop offset="1" stop-color="#D5D5D5"/>
</linearGradient>
<linearGradient id="paint2_linear_232_991" x1="238.087" y1="230.037" x2="236.668" y2="294.586" gradientUnits="userSpaceOnUse">
<stop stop-color="#C0BCD6"/>
<stop offset="1" stop-color="#D5D5D5"/>
</linearGradient>
<linearGradient id="paint3_linear_232_991" x1="237.644" y1="250.211" x2="236.225" y2="314.76" gradientUnits="userSpaceOnUse">
<stop stop-color="#C0BCD6"/>
<stop offset="1" stop-color="#D5D5D5"/>
</linearGradient>
<linearGradient id="paint4_linear_232_991" x1="237.201" y1="270.384" x2="235.782" y2="334.933" gradientUnits="userSpaceOnUse">
<stop stop-color="#C0BCD6"/>
<stop offset="1" stop-color="#D5D5D5"/>
</linearGradient>
<linearGradient id="paint5_linear_232_991" x1="236.757" y1="290.557" x2="235.338" y2="355.106" gradientUnits="userSpaceOnUse">
<stop stop-color="#C0BCD6"/>
<stop offset="1" stop-color="#D5D5D5"/>
</linearGradient>
<linearGradient id="paint6_linear_232_991" x1="483.187" y1="286.768" x2="485.528" y2="309.756" gradientUnits="userSpaceOnUse">
<stop stop-color="#C0BCD6"/>
<stop offset="1" stop-color="#D5D5D5"/>
</linearGradient>
<linearGradient id="paint7_linear_232_991" x1="482.263" y1="297.254" x2="484.604" y2="320.242" gradientUnits="userSpaceOnUse">
<stop stop-color="#C0BCD6"/>
<stop offset="1" stop-color="#D5D5D5"/>
</linearGradient>
<linearGradient id="paint8_linear_232_991" x1="481.341" y1="307.737" x2="483.683" y2="330.729" gradientUnits="userSpaceOnUse">
<stop stop-color="#C0BCD6"/>
<stop offset="1" stop-color="#D5D5D5"/>
</linearGradient>
</defs>
</svg>
