<svg width="591" height="525" viewBox="0 0 591 525" fill="none" xmlns="http://www.w3.org/2000/svg">
<g clip-path="url(#clip0_232_1212)">
<path d="M504.449 479.795C389.049 540.068 201.948 540.069 86.55 479.797C-28.85 419.523 -28.85 321.802 86.55 261.529C201.95 201.256 389.051 201.256 504.451 261.528C619.85 321.8 619.85 419.523 504.449 479.795Z" fill="white"/>
<path d="M449.425 10.8797L448.701 10.3724C448.047 9.96499 447.306 9.71748 446.538 9.64999C445.771 9.5825 444.998 9.69693 444.283 9.98399L312.829 71.1996C312.149 71.5622 311.564 72.08 311.122 72.7109C310.68 73.3419 310.392 74.0682 310.283 74.8309L294.938 249.165C294.912 249.935 295.068 250.701 295.394 251.399C295.719 252.097 296.204 252.709 296.811 253.185L297.535 253.692C298.189 254.1 298.93 254.347 299.698 254.415C300.465 254.482 301.238 254.368 301.953 254.081L433.406 192.865C434.086 192.502 434.671 191.985 435.113 191.354C435.555 190.723 435.843 189.996 435.952 189.234L451.297 14.8994C451.323 14.1294 451.167 13.3641 450.841 12.6657C450.516 11.9672 450.031 11.3553 449.425 10.8797Z" fill="#FAFAFA"/>
<path d="M302.609 161.995L310.28 74.8296C310.374 74.063 310.663 73.3333 311.118 72.7096L317.884 77.4518L302.358 253.887L301.951 254.076C301.236 254.363 300.464 254.478 299.696 254.41C298.929 254.343 298.188 254.096 297.534 253.688L296.81 253.181C296.204 252.705 295.719 252.093 295.393 251.395C295.068 250.696 294.912 249.931 294.938 249.161L302.609 161.995Z" fill="#C0BCD6"/>
<path d="M449.2 13.4302L317.747 74.6458C317.067 75.0084 316.482 75.5262 316.039 76.1571C315.597 76.788 315.31 77.5143 315.201 78.2771L299.857 252.611C299.733 254.02 300.671 254.678 301.953 254.081L433.406 192.865C434.086 192.502 434.671 191.985 435.113 191.354C435.555 190.723 435.843 189.996 435.952 189.234L451.297 14.8996C451.421 13.491 450.482 12.8332 449.2 13.4302Z" fill="#F5F5F5"/>
<path d="M431.815 32.9981L333.021 79.0044C332.341 79.367 331.756 79.8848 331.314 80.5158C330.872 81.1467 330.584 81.8731 330.475 82.6358L329.872 89.4978C329.748 90.9064 330.686 91.5643 331.968 90.9672L430.762 44.9609C431.442 44.5983 432.027 44.0805 432.469 43.4495C432.912 42.8186 433.199 42.0922 433.308 41.3295L433.912 34.4675C434.036 33.0589 433.097 32.4011 431.815 32.9981Z" fill="url(#paint0_linear_232_1212)"/>
<path d="M406.552 92.1894C401.751 88.8251 402.584 79.3576 408.413 71.0431C414.242 62.7285 422.859 58.7156 427.66 62.0798C432.461 65.4441 431.628 74.9116 425.799 83.2262C419.97 91.5407 411.353 95.5537 406.552 92.1894Z" fill="url(#paint1_linear_232_1212)"/>
<path d="M417.895 66.9736C420.532 65.7453 422.464 67.0988 422.209 69.9958C421.984 71.5647 421.393 73.0588 420.484 74.3567C419.574 75.6545 418.371 76.7197 416.972 77.4656C414.335 78.6935 412.404 77.3404 412.659 74.443C412.883 72.8741 413.474 71.3801 414.384 70.0823C415.294 68.7845 416.497 67.7194 417.895 66.9736Z" fill="#1BC082"/>
<path d="M415.598 79.4965L418.306 78.2353C422.638 76.2174 425.811 78.441 425.392 83.2011L425.335 83.8484C422.872 87.3316 419.594 90.1601 415.788 92.0879C412.236 93.7419 409.145 93.736 406.938 92.4163L406.995 91.7686C407.363 89.191 408.334 86.7364 409.829 84.6042C411.323 82.472 413.3 80.7221 415.598 79.4965Z" fill="#1BC082"/>
<path d="M425.444 99.0785L404.027 109.052C403.196 109.476 402.476 110.091 401.926 110.845C401.376 111.599 401.012 112.472 400.862 113.394C400.717 115.045 401.898 115.78 403.501 115.033L424.917 105.06C425.749 104.635 426.469 104.021 427.018 103.267C427.568 102.513 427.933 101.639 428.082 100.718C428.228 99.0662 427.046 98.3323 425.444 99.0785Z" fill="url(#paint2_linear_232_1212)"/>
<path d="M424.393 111.033L402.976 121.007C402.145 121.431 401.425 122.045 400.875 122.8C400.325 123.554 399.961 124.427 399.811 125.348C399.666 127 400.847 127.734 402.45 126.988L423.867 117.014C424.698 116.59 425.418 115.976 425.968 115.221C426.518 114.467 426.882 113.594 427.031 112.673C427.177 111.021 425.996 110.287 424.393 111.033Z" fill="url(#paint3_linear_232_1212)"/>
<path d="M423.34 122.988L401.923 132.962C401.092 133.386 400.372 134 399.822 134.755C399.273 135.509 398.908 136.382 398.759 137.303C398.613 138.955 399.795 139.689 401.397 138.943L422.814 128.97C423.645 128.545 424.365 127.931 424.915 127.177C425.465 126.422 425.829 125.549 425.979 124.628C426.124 122.976 424.943 122.242 423.34 122.988Z" fill="url(#paint4_linear_232_1212)"/>
<path d="M422.29 134.943L400.873 144.916C400.041 145.341 399.321 145.955 398.772 146.709C398.222 147.464 397.857 148.337 397.708 149.258C397.563 150.91 398.744 151.644 400.346 150.897L421.763 140.924C422.595 140.5 423.314 139.885 423.864 139.131C424.414 138.377 424.778 137.504 424.928 136.582C425.073 134.931 423.892 134.197 422.29 134.943Z" fill="url(#paint5_linear_232_1212)"/>
<path d="M420.71 152.892L399.293 162.865C398.443 163.318 397.712 163.965 397.159 164.754C396.606 165.543 396.247 166.451 396.111 167.404L395.093 178.972C394.938 180.732 396.111 181.555 397.713 180.808L419.13 170.835C419.98 170.382 420.711 169.735 421.264 168.946C421.817 168.157 422.176 167.25 422.312 166.296L423.33 154.728C423.485 152.968 422.312 152.145 420.71 152.892Z" fill="#1BC082"/>
<path d="M386.102 71.4907L332.02 96.6774C331.189 97.1019 330.469 97.7161 329.919 98.4705C329.369 99.2249 329.005 100.098 328.855 101.019C328.71 102.671 329.891 103.405 331.494 102.659L385.575 77.4722C386.407 77.0477 387.127 76.4335 387.677 75.6791C388.226 74.9247 388.591 74.0515 388.74 73.1302C388.886 71.4783 387.705 70.7444 386.102 71.4907Z" fill="#1BC082"/>
<path d="M385.051 83.4535L330.97 108.639C330.139 109.064 329.419 109.678 328.869 110.432C328.319 111.187 327.955 112.06 327.805 112.981C327.66 114.633 328.841 115.367 330.444 114.621L384.525 89.4351C385.356 89.0106 386.076 88.3964 386.626 87.642C387.176 86.8876 387.54 86.0144 387.69 85.0931C387.835 83.4412 386.654 82.7073 385.051 83.4535Z" fill="#1BC082"/>
<path d="M383.999 95.4159L329.918 120.602C329.086 121.026 328.366 121.64 327.816 122.395C327.267 123.149 326.902 124.022 326.753 124.944C326.607 126.595 327.788 127.329 329.391 126.583L383.472 101.397C384.303 100.973 385.023 100.359 385.573 99.6044C386.123 98.85 386.487 97.9768 386.637 97.0555C386.782 95.4036 385.601 94.6697 383.999 95.4159Z" fill="#1BC082"/>
<path d="M155.312 408.025L126.456 387.803C124.94 386.614 123.727 385.084 122.913 383.338C122.1 381.592 121.71 379.679 121.775 377.754L136.974 205.088C137.246 203.181 137.964 201.365 139.07 199.788C140.176 198.21 141.638 196.916 143.338 196.009L360.377 94.9391C362.164 94.2215 364.096 93.9354 366.015 94.1041C367.935 94.2729 369.787 94.8916 371.422 95.9102L400.278 116.132C401.793 117.321 403.007 118.851 403.82 120.597C404.633 122.343 405.023 124.256 404.958 126.181L389.76 298.847C389.487 300.754 388.769 302.569 387.663 304.147C386.557 305.724 385.095 307.019 383.395 307.925L166.357 408.996C164.57 409.714 162.638 410 160.719 409.831C158.799 409.662 156.947 409.044 155.312 408.025Z" fill="#573CDA"/>
<path d="M136.972 205.084C137.208 203.168 137.93 201.344 139.069 199.785L181.788 229.723L165.998 409.12C164.25 409.757 162.38 409.989 160.529 409.798C158.679 409.608 156.895 409 155.314 408.021L126.451 387.794C124.938 386.605 123.726 385.076 122.913 383.331C122.101 381.587 121.711 379.675 121.775 377.751L136.972 205.084Z" fill="#19104E"/>
<path d="M182.678 223.578L399.716 122.508C402.921 121.016 405.268 122.661 404.958 126.182L389.759 298.847C389.487 300.754 388.769 302.57 387.663 304.147C386.557 305.724 385.095 307.019 383.395 307.925L166.358 408.996C163.153 410.489 160.806 408.844 161.116 405.323L176.313 232.657C176.586 230.75 177.304 228.934 178.41 227.357C179.516 225.779 180.978 224.485 182.678 223.578Z" fill="#2A206A"/>
<path d="M165.473 211.522C163.773 212.429 162.311 213.723 161.205 215.301C160.099 216.878 159.381 218.694 159.108 220.601L143.349 399.642L138.43 396.195L154.191 217.155C154.463 215.248 155.182 213.432 156.287 211.855C157.393 210.277 158.855 208.983 160.555 208.076L383.397 104.303L388.313 107.75L165.473 211.522Z" fill="#3D2B93"/>
<path d="M160.55 208.08L383.04 104.47L388.132 107.835L165.467 211.526C163.746 212.401 162.277 213.702 161.2 215.304L156.283 211.858C157.36 210.256 158.829 208.955 160.55 208.08Z" fill="#3D2B93"/>
<path d="M195.071 183.388L198.903 181.603C199.797 181.244 200.763 181.101 201.723 181.186C202.683 181.27 203.609 181.579 204.426 182.089L217.723 191.407L220.121 190.904L219.857 193.894C219.795 194.235 219.644 194.553 219.418 194.815C219.193 195.078 218.901 195.275 218.574 195.388L213.488 197.756C212.594 198.115 211.628 198.258 210.669 198.173C209.709 198.089 208.783 197.779 207.966 197.27L193.538 187.159C193.236 186.991 192.983 186.746 192.807 186.448C192.631 186.15 192.537 185.811 192.535 185.465L192.535 185.465L192.798 182.474L195.071 183.388Z" fill="#2A206A"/>
<path d="M194.082 180.984L199.167 178.616C200.061 178.257 201.027 178.114 201.986 178.198C202.946 178.282 203.872 178.591 204.689 179.101L219.116 189.21C219.44 189.352 219.711 189.591 219.891 189.895C220.07 190.199 220.151 190.552 220.12 190.904C220.088 191.256 219.948 191.589 219.717 191.857C219.487 192.125 219.178 192.314 218.835 192.398L213.75 194.766C212.856 195.125 211.89 195.268 210.93 195.184C209.971 195.1 209.044 194.79 208.227 194.281L193.801 184.172C193.477 184.03 193.207 183.79 193.027 183.486C192.847 183.182 192.767 182.83 192.798 182.478C192.829 182.126 192.969 181.793 193.2 181.525C193.43 181.257 193.739 181.068 194.082 180.984Z" fill="#3D2B93"/>
<path d="M325.725 122.559L329.557 120.774C330.452 120.415 331.418 120.272 332.377 120.357C333.337 120.441 334.263 120.75 335.081 121.26L348.377 130.578L350.775 130.074L350.512 133.065C350.45 133.406 350.298 133.724 350.072 133.986C349.847 134.249 349.555 134.446 349.228 134.559L344.143 136.927C343.249 137.285 342.283 137.429 341.323 137.344C340.364 137.26 339.437 136.95 338.62 136.441L324.193 126.33C323.89 126.162 323.638 125.917 323.461 125.619C323.285 125.321 323.191 124.982 323.19 124.636L323.189 124.636L323.452 121.645L325.725 122.559Z" fill="#2A206A"/>
<path d="M324.736 120.155L329.821 117.787C330.715 117.428 331.681 117.285 332.64 117.369C333.6 117.453 334.526 117.762 335.344 118.271L349.771 128.38C350.094 128.522 350.365 128.762 350.545 129.066C350.725 129.37 350.805 129.723 350.774 130.075C350.743 130.427 350.602 130.76 350.372 131.028C350.141 131.296 349.833 131.485 349.49 131.568L344.404 133.937C343.51 134.296 342.544 134.439 341.584 134.355C340.625 134.27 339.699 133.961 338.881 133.452L324.455 123.343C324.132 123.201 323.861 122.961 323.681 122.657C323.501 122.353 323.421 122.001 323.452 121.649C323.483 121.297 323.623 120.963 323.854 120.695C324.084 120.427 324.393 120.238 324.736 120.155Z" fill="#3D2B93"/>
<path d="M285.571 118.307L283.992 136.249L293.821 143.14L296.228 115.788C296.353 114.372 295.42 113.725 294.134 114.319L285.571 118.307Z" fill="#263238"/>
<path d="M229.577 132.557L226.642 165.903L233.94 171.03L239.383 168.488L241.791 141.135C241.901 140.374 242.189 139.648 242.63 139.017C243.072 138.387 243.655 137.868 244.333 137.504L285.571 118.307L294.135 114.318C295.421 113.724 296.353 114.371 296.229 115.787L293.821 143.14L299.276 140.599L302.21 107.266C302.222 107.12 302.222 106.974 302.21 106.829C302.168 106.132 301.978 105.453 301.654 104.835C301.329 104.217 300.877 103.675 300.327 103.245L297.217 101.057C296.563 100.651 295.823 100.404 295.057 100.337C294.29 100.27 293.519 100.383 292.804 100.669L232.12 128.925C231.441 129.289 230.857 129.807 230.415 130.438C229.974 131.069 229.686 131.794 229.577 132.557Z" fill="#573CDA"/>
<path d="M236.875 137.683L233.94 171.029L239.383 168.488L241.79 141.135C241.901 140.373 242.188 139.648 242.63 139.017C243.071 138.387 243.654 137.868 244.333 137.504L285.57 118.306L294.134 114.317C295.42 113.724 296.353 114.371 296.228 115.787L293.821 143.14L299.275 140.599L302.209 107.266C302.222 107.12 302.222 106.974 302.209 106.829C302.113 105.728 301.242 105.266 300.102 105.795L239.419 134.052C238.741 134.417 238.159 134.936 237.717 135.566C237.276 136.197 236.987 136.922 236.875 137.683Z" fill="#2A206A"/>
<path d="M129.652 466.22L124.735 462.773L143.06 313.895C143.198 312.942 143.558 312.035 144.111 311.247C144.664 310.458 145.394 309.811 146.243 309.356L249.318 261.354C251.126 260.396 252.596 258.904 253.528 257.082L257.407 248.426C258.339 246.608 259.818 245.127 261.636 244.194L310.153 222.399C311.759 221.678 312.946 222.522 312.792 224.276L298.693 384.44C298.555 385.393 298.195 386.3 297.642 387.088C297.09 387.877 296.36 388.525 295.511 388.979L129.652 466.22Z" fill="#1BC082"/>
<path opacity="0.2" d="M129.652 466.22L124.735 462.773L143.06 313.895C143.198 312.942 143.558 312.035 144.111 311.247C144.664 310.458 145.394 309.811 146.243 309.356L249.318 261.354C251.126 260.396 252.596 258.904 253.528 257.082L257.407 248.426C258.339 246.608 259.818 245.127 261.636 244.194L310.153 222.399C311.759 221.678 312.946 222.522 312.792 224.276L298.693 384.44C298.555 385.393 298.195 386.3 297.642 387.088C297.09 387.877 296.36 388.525 295.511 388.979L129.652 466.22Z" fill="black"/>
<path d="M227.409 219.937L112.29 273.548C111.61 273.911 111.025 274.429 110.583 275.06C110.14 275.691 109.853 276.417 109.744 277.18L93.8717 457.496C93.7477 458.904 94.6865 459.562 95.9685 458.965L211.086 405.353C211.766 404.99 212.351 404.472 212.793 403.841C213.236 403.21 213.523 402.484 213.632 401.721L229.506 221.406C229.63 219.997 228.691 219.34 227.409 219.937Z" fill="white"/>
<g opacity="0.5">
<path opacity="0.5" d="M94.8958 459.816C95.3595 459.845 95.8228 459.752 96.2397 459.547L211.356 405.932C212.138 405.522 212.81 404.931 213.317 404.208C213.824 403.485 214.151 402.652 214.269 401.777L230.144 221.461C230.233 221.077 230.206 220.675 230.065 220.306C229.924 219.938 229.676 219.62 229.353 219.394C229.03 219.167 228.646 219.043 228.252 219.036C227.857 219.029 227.47 219.14 227.139 219.355L112.022 272.969C111.24 273.378 110.568 273.97 110.061 274.692C109.554 275.415 109.228 276.249 109.109 277.123L93.2348 457.441C93.1683 457.825 93.2067 458.219 93.3458 458.583C93.485 458.946 93.7198 459.266 94.0255 459.507C94.2831 459.685 94.5834 459.792 94.8958 459.816ZM228.365 220.358C228.456 220.363 228.543 220.393 228.619 220.443C228.732 220.561 228.814 220.706 228.858 220.864C228.902 221.022 228.905 221.189 228.869 221.349L212.994 401.665C212.896 402.316 212.648 402.935 212.27 403.474C211.892 404.013 211.394 404.457 210.815 404.771L95.6993 458.387C95.5756 458.506 95.4144 458.578 95.2433 458.591C95.0723 458.604 94.9019 458.558 94.7614 458.459C94.6209 458.361 94.519 458.217 94.4732 458.051C94.4274 457.886 94.4404 457.71 94.5101 457.553L110.384 277.236C110.483 276.585 110.731 275.965 111.109 275.426C111.487 274.887 111.984 274.443 112.563 274.128L227.68 220.516C227.891 220.406 228.127 220.351 228.365 220.358Z" fill="#C0BCD6"/>
</g>
<path d="M214.362 243.223L160.281 268.409C159.45 268.833 158.73 269.448 158.18 270.202C157.63 270.956 157.266 271.83 157.116 272.751C156.97 274.403 158.151 275.137 159.754 274.39L213.835 249.204C214.667 248.78 215.387 248.165 215.936 247.411C216.486 246.657 216.851 245.783 217 244.862C217.146 243.21 215.964 242.476 214.362 243.223Z" fill="url(#paint6_linear_232_1212)"/>
<path d="M212.782 261.164L120.592 304.094C119.761 304.518 119.041 305.133 118.491 305.887C117.941 306.641 117.577 307.514 117.427 308.436C117.282 310.088 118.463 310.822 120.065 310.075L212.255 267.146C213.087 266.721 213.806 266.107 214.356 265.353C214.906 264.598 215.271 263.725 215.42 262.804C215.565 261.152 214.384 260.418 212.782 261.164Z" fill="url(#paint7_linear_232_1212)"/>
<path d="M211.204 279.108L119.014 322.038C118.183 322.462 117.463 323.076 116.913 323.831C116.363 324.585 115.999 325.458 115.849 326.38C115.703 328.031 116.884 328.766 118.487 328.019L210.677 285.089C211.508 284.665 212.228 284.051 212.778 283.296C213.328 282.542 213.692 281.669 213.842 280.747C213.987 279.096 212.806 278.362 211.204 279.108Z" fill="url(#paint8_linear_232_1212)"/>
<path d="M209.625 297.052L117.436 339.982C116.605 340.406 115.885 341.02 115.335 341.775C114.785 342.529 114.42 343.402 114.271 344.324C114.125 345.975 115.306 346.709 116.909 345.963L209.099 303.033C209.93 302.609 210.65 301.995 211.2 301.24C211.75 300.486 212.114 299.613 212.264 298.691C212.409 297.039 211.228 296.305 209.625 297.052Z" fill="url(#paint9_linear_232_1212)"/>
<path d="M208.045 314.996L115.856 357.926C115.025 358.35 114.305 358.965 113.755 359.719C113.205 360.473 112.84 361.347 112.691 362.268C112.545 363.92 113.726 364.654 115.329 363.907L207.519 320.978C208.35 320.553 209.07 319.939 209.62 319.185C210.17 318.43 210.534 317.557 210.684 316.636C210.829 314.984 209.648 314.25 208.045 314.996Z" fill="url(#paint10_linear_232_1212)"/>
<path d="M206.467 332.94L114.278 375.87C113.446 376.294 112.727 376.908 112.177 377.663C111.627 378.417 111.262 379.29 111.113 380.212C110.967 381.863 112.148 382.598 113.751 381.851L205.941 338.921C206.772 338.497 207.492 337.883 208.042 337.128C208.592 336.374 208.956 335.501 209.106 334.579C209.251 332.928 208.07 332.194 206.467 332.94Z" fill="url(#paint11_linear_232_1212)"/>
<path d="M204.887 350.884L112.698 393.814C111.866 394.238 111.147 394.852 110.597 395.607C110.047 396.361 109.682 397.234 109.532 398.156C109.387 399.807 110.568 400.541 112.171 399.795L204.361 356.865C205.192 356.441 205.912 355.827 206.462 355.072C207.012 354.318 207.376 353.445 207.525 352.523C207.671 350.872 206.49 350.137 204.887 350.884Z" fill="url(#paint12_linear_232_1212)"/>
<path d="M203.309 368.828L111.12 411.757C110.288 412.182 109.568 412.796 109.019 413.55C108.469 414.305 108.104 415.178 107.954 416.099C107.809 417.751 108.99 418.485 110.593 417.739L202.782 374.809C203.614 374.385 204.334 373.77 204.884 373.016C205.433 372.262 205.798 371.388 205.947 370.467C206.093 368.815 204.912 368.081 203.309 368.828Z" fill="url(#paint13_linear_232_1212)"/>
<path d="M242.165 230.264L127.047 283.877C126.367 284.24 125.782 284.758 125.34 285.389C124.898 286.02 124.61 286.746 124.501 287.509L108.628 467.825C108.504 469.234 109.442 469.892 110.724 469.295L225.841 415.681C226.521 415.318 227.105 414.801 227.548 414.17C227.99 413.539 228.277 412.812 228.386 412.05L244.262 231.734C244.386 230.325 243.447 229.667 242.165 230.264Z" fill="white"/>
<path d="M109.65 470.145C110.114 470.174 110.578 470.081 110.994 469.874L226.111 416.261C226.893 415.851 227.565 415.26 228.072 414.537C228.579 413.814 228.905 412.981 229.024 412.106L244.9 231.79C244.989 231.405 244.962 231.003 244.821 230.635C244.68 230.266 244.432 229.949 244.109 229.722C243.786 229.496 243.402 229.371 243.008 229.364C242.613 229.358 242.226 229.469 241.895 229.684L126.777 283.298C125.995 283.708 125.323 284.299 124.816 285.022C124.31 285.745 123.983 286.578 123.864 287.453L107.991 467.769C107.927 468.153 107.967 468.547 108.106 468.91C108.245 469.274 108.479 469.593 108.783 469.836C109.039 470.014 109.339 470.121 109.65 470.145ZM243.121 230.686C243.211 230.692 243.299 230.721 243.374 230.771C243.488 230.889 243.57 231.034 243.614 231.193C243.658 231.351 243.661 231.517 243.625 231.677L227.749 411.994C227.65 412.645 227.402 413.264 227.024 413.803C226.646 414.342 226.149 414.787 225.571 415.102L110.454 468.715C110.33 468.834 110.169 468.906 109.998 468.92C109.827 468.933 109.657 468.886 109.516 468.788C109.376 468.689 109.274 468.545 109.228 468.379C109.183 468.214 109.196 468.038 109.266 467.881L125.14 287.565C125.239 286.914 125.487 286.295 125.864 285.756C126.242 285.217 126.739 284.772 127.317 284.457L242.435 230.844C242.647 230.734 242.883 230.68 243.121 230.686Z" fill="url(#paint14_linear_232_1212)"/>
<path d="M193.403 269.166L139.322 294.352C138.491 294.776 137.771 295.39 137.221 296.145C136.671 296.899 136.307 297.772 136.157 298.694C136.011 300.346 137.192 301.08 138.795 300.333L192.876 275.147C193.708 274.723 194.428 274.108 194.977 273.354C195.527 272.6 195.892 271.726 196.041 270.805C196.187 269.153 195.005 268.419 193.403 269.166Z" fill="url(#paint15_linear_232_1212)"/>
<path d="M227.539 271.493L135.35 314.422C134.519 314.847 133.799 315.461 133.249 316.216C132.699 316.97 132.334 317.843 132.185 318.765C132.039 320.416 133.22 321.15 134.823 320.404L227.013 277.474C227.844 277.05 228.564 276.436 229.114 275.681C229.664 274.927 230.028 274.054 230.178 273.132C230.323 271.48 229.142 270.746 227.539 271.493Z" fill="url(#paint16_linear_232_1212)"/>
<path d="M225.961 289.436L133.772 332.366C132.941 332.791 132.221 333.405 131.671 334.159C131.121 334.914 130.756 335.787 130.607 336.708C130.461 338.36 131.642 339.094 133.245 338.348L225.435 295.418C226.266 294.994 226.986 294.379 227.536 293.625C228.086 292.871 228.45 291.997 228.6 291.076C228.745 289.424 227.564 288.69 225.961 289.436Z" fill="url(#paint17_linear_232_1212)"/>
<path d="M224.381 307.381L132.192 350.311C131.361 350.735 130.641 351.349 130.091 352.104C129.541 352.858 129.176 353.731 129.027 354.653C128.881 356.304 130.062 357.038 131.665 356.292L223.855 313.362C224.686 312.938 225.406 312.324 225.956 311.569C226.506 310.815 226.87 309.942 227.02 309.02C227.165 307.369 225.984 306.635 224.381 307.381Z" fill="url(#paint18_linear_232_1212)"/>
<path d="M222.803 325.325L130.614 368.255C129.782 368.679 129.063 369.293 128.513 370.048C127.963 370.802 127.598 371.675 127.449 372.596C127.303 374.248 128.484 374.982 130.087 374.236L222.277 331.306C223.108 330.882 223.828 330.268 224.378 329.513C224.928 328.759 225.292 327.886 225.442 326.964C225.587 325.312 224.406 324.578 222.803 325.325Z" fill="url(#paint19_linear_232_1212)"/>
<path d="M221.225 343.268L129.036 386.198C128.204 386.623 127.484 387.237 126.935 387.991C126.385 388.746 126.02 389.619 125.87 390.54C125.725 392.192 126.906 392.926 128.509 392.18L220.698 349.25C221.53 348.826 222.25 348.211 222.8 347.457C223.349 346.703 223.714 345.829 223.863 344.908C224.009 343.256 222.828 342.522 221.225 343.268Z" fill="url(#paint20_linear_232_1212)"/>
<path d="M219.645 361.213L127.456 404.143C126.624 404.567 125.904 405.181 125.354 405.936C124.805 406.69 124.44 407.563 124.29 408.485C124.145 410.136 125.326 410.87 126.928 410.124L219.118 367.194C219.95 366.77 220.67 366.156 221.22 365.401C221.769 364.647 222.134 363.774 222.283 362.852C222.429 361.201 221.248 360.467 219.645 361.213Z" fill="url(#paint21_linear_232_1212)"/>
<path d="M218.067 379.157L125.878 422.087C125.046 422.511 124.326 423.125 123.776 423.88C123.226 424.634 122.862 425.507 122.712 426.429C122.567 428.08 123.748 428.814 125.35 428.068L217.54 385.138C218.372 384.714 219.092 384.1 219.641 383.345C220.191 382.591 220.556 381.718 220.705 380.796C220.851 379.144 219.669 378.41 218.067 379.157Z" fill="url(#paint22_linear_232_1212)"/>
<path d="M129.653 466.218L167.074 331.021C167.717 329.12 169.06 327.534 170.829 326.586L333.79 250.699C335.386 249.955 336.307 250.735 335.838 252.432L299.27 384.545C298.627 386.446 297.285 388.032 295.515 388.98L129.653 466.218Z" fill="#1BC082"/>
<path d="M532.178 316.492C513.354 302.761 498.4 284.4 488.764 263.189C479.128 241.977 475.138 218.636 477.181 195.427L481.169 150.127C481.292 148.724 480.349 148.063 479.072 148.657L358.505 204.805C357.826 205.169 357.242 205.687 356.799 206.318C356.357 206.949 356.069 207.675 355.959 208.437L351.971 253.738C349.937 276.848 353.884 300.091 363.434 321.234C372.983 342.376 387.813 360.705 406.497 374.458C407.27 375.018 408.179 375.361 409.13 375.45C410.08 375.54 411.037 375.372 411.901 374.965L531.94 319.062C532.214 318.992 532.46 318.839 532.643 318.624C532.826 318.409 532.939 318.142 532.965 317.861C532.991 317.579 532.929 317.297 532.788 317.052C532.647 316.806 532.434 316.611 532.178 316.492Z" fill="white"/>
<path d="M409.089 376.091C410.147 376.183 411.21 375.995 412.172 375.544L532.212 319.642C532.575 319.508 532.895 319.278 533.139 318.978C533.384 318.678 533.543 318.318 533.601 317.936C533.618 317.545 533.529 317.158 533.346 316.813C533.162 316.468 532.889 316.179 532.556 315.975C513.873 302.262 499.027 283.98 489.443 262.881C479.858 241.782 475.856 218.575 477.82 195.484L481.807 150.183C481.896 149.799 481.867 149.397 481.726 149.029C481.585 148.662 481.337 148.345 481.014 148.118C480.692 147.892 480.309 147.768 479.915 147.76C479.521 147.753 479.134 147.863 478.803 148.077L358.235 204.225C357.453 204.635 356.781 205.226 356.274 205.949C355.767 206.672 355.441 207.506 355.322 208.381L351.334 253.682C349.367 276.893 353.368 300.221 362.956 321.45C372.545 342.679 387.403 361.103 406.119 374.973C406.988 375.612 408.015 375.998 409.089 376.091ZM531.801 317.008C532.159 317.271 532.351 317.564 532.327 317.811C532.303 318.055 532.065 318.299 531.671 318.483L411.631 374.385C410.872 374.744 410.03 374.893 409.194 374.815C408.358 374.737 407.557 374.436 406.878 373.943C388.338 360.204 373.62 341.952 364.122 320.923C354.624 299.895 350.661 276.786 352.61 253.794L356.597 208.493C356.696 207.842 356.944 207.223 357.322 206.684C357.7 206.145 358.197 205.7 358.776 205.386L479.343 149.238C479.467 149.119 479.628 149.048 479.799 149.035C479.969 149.022 480.139 149.069 480.279 149.167C480.419 149.265 480.521 149.409 480.567 149.573C480.613 149.738 480.601 149.914 480.532 150.071L476.544 195.371C474.562 218.682 478.602 242.11 488.278 263.41C497.954 284.709 512.94 303.165 531.801 317.008Z" fill="#C0BCD6"/>
<path d="M461.631 171.344L429.326 186.39C428.494 186.814 427.775 187.428 427.225 188.183C426.675 188.937 426.31 189.81 426.161 190.732C426.016 192.383 427.197 193.117 428.799 192.371L461.105 177.326C461.936 176.901 462.656 176.287 463.206 175.533C463.756 174.778 464.12 173.905 464.27 172.984C464.415 171.332 463.234 170.598 461.631 171.344Z" fill="url(#paint23_linear_232_1212)"/>
<path d="M369.158 239.722C369.012 241.373 370.194 242.107 371.796 241.361L404.095 226.324C404.926 225.9 405.646 225.286 406.196 224.531C406.746 223.777 407.11 222.904 407.26 221.983C407.405 220.331 406.224 219.597 404.621 220.343L372.323 235.38C371.491 235.805 370.772 236.419 370.222 237.173C369.672 237.927 369.307 238.8 369.158 239.722Z" fill="url(#paint24_linear_232_1212)"/>
<path d="M368.044 266.312C368.143 267.85 369.551 268.49 371.154 267.743L457.878 227.356C458.667 226.981 459.337 226.397 459.814 225.666C460.292 224.936 460.558 224.088 460.584 223.215C460.491 221.674 459.15 221.028 457.547 221.775L370.795 262.173C370.001 262.544 369.324 263.127 368.839 263.857C368.354 264.587 368.079 265.436 368.044 266.312Z" fill="url(#paint25_linear_232_1212)"/>
<path d="M370.048 282.598C370.32 284.056 371.871 284.628 373.473 283.882L460.2 243.482C460.962 243.147 461.602 242.584 462.029 241.87C462.457 241.155 462.651 240.326 462.585 239.496C462.315 238.039 460.827 237.457 459.225 238.204L372.486 278.603C371.717 278.937 371.07 279.499 370.634 280.215C370.198 280.93 369.993 281.762 370.048 282.598Z" fill="url(#paint26_linear_232_1212)"/>
<path d="M373.86 298.029C374.289 299.411 375.961 299.92 377.563 299.174L464.302 258.787C465.043 258.488 465.658 257.94 466.039 257.238C466.421 256.535 466.546 255.722 466.393 254.937C466.258 254.598 466.05 254.292 465.782 254.042C465.515 253.793 465.196 253.605 464.848 253.493C464.5 253.382 464.132 253.348 463.769 253.396C463.406 253.443 463.059 253.57 462.751 253.767L376.012 294.167C375.264 294.465 374.642 295.012 374.25 295.716C373.858 296.419 373.72 297.236 373.86 298.029Z" fill="url(#paint27_linear_232_1212)"/>
<path d="M379.356 312.681C379.753 313.341 380.395 313.818 381.142 314.007C381.889 314.196 382.681 314.082 383.344 313.69L470.068 273.314C470.793 273.049 471.388 272.515 471.729 271.822C472.069 271.129 472.128 270.331 471.894 269.595C471.707 269.267 471.456 268.979 471.157 268.748C470.857 268.518 470.514 268.349 470.149 268.252C469.784 268.155 469.403 268.132 469.028 268.184C468.654 268.236 468.293 268.362 467.968 268.554L381.23 308.941C380.498 309.207 379.897 309.742 379.548 310.438C379.2 311.133 379.131 311.936 379.356 312.681Z" fill="url(#paint28_linear_232_1212)"/>
<path d="M427.333 313.29C427.848 313.908 428.561 314.329 429.352 314.483C430.142 314.637 430.961 314.514 431.671 314.134L480.307 291.486C480.657 291.377 480.978 291.192 481.249 290.945C481.519 290.697 481.731 290.393 481.871 290.054C482.01 289.715 482.073 289.35 482.055 288.984C482.037 288.618 481.938 288.26 481.766 287.937C481.263 287.314 480.56 286.887 479.776 286.727C478.992 286.567 478.177 286.685 477.47 287.061L428.833 309.72C427.231 310.467 426.55 312.07 427.333 313.29Z" fill="url(#paint29_linear_232_1212)"/>
<path d="M415.892 343.255C420.619 348.989 431.053 350.351 438.574 346.849C446.094 343.347 447.849 336.313 443.123 330.582C438.396 324.851 429 322.63 421.48 326.128C413.96 329.627 411.164 337.521 415.892 343.255Z" fill="#1BC082"/>
<path opacity="0.2" d="M415.892 343.255C420.619 348.989 431.053 350.351 438.574 346.849C446.094 343.347 447.849 336.313 443.123 330.582C438.396 324.851 429 322.63 421.48 326.128C413.96 329.627 411.164 337.521 415.892 343.255Z" fill="black"/>
<path d="M416.032 341.657C420.759 347.391 431.194 348.753 438.714 345.251C446.234 341.749 447.99 334.715 443.263 328.984C438.536 323.253 429.141 321.033 421.62 324.531C414.1 328.029 411.305 335.923 416.032 341.657Z" fill="#1BC082"/>
<path d="M428.016 343.252C431.119 343.549 434.246 343.038 437.094 341.769C439.756 340.529 441.472 338.747 441.923 336.753C442.078 335.8 442.012 334.824 441.731 333.901C441.449 332.978 440.96 332.132 440.3 331.427C437.844 328.681 434.411 327.005 430.735 326.757C428.17 326.513 425.586 326.946 423.241 328.013C421.921 328.548 420.737 329.374 419.778 330.428C418.819 331.482 418.109 332.738 417.7 334.103C417.497 334.997 417.508 335.927 417.734 336.815C417.959 337.704 418.392 338.526 418.997 339.215C421.361 341.686 424.598 343.135 428.016 343.252Z" fill="#1BC082"/>
<path opacity="0.3" d="M428.016 343.252C431.119 343.549 434.246 343.038 437.094 341.769C439.756 340.529 441.472 338.747 441.923 336.753C442.078 335.8 442.012 334.824 441.731 333.901C441.449 332.978 440.96 332.132 440.3 331.427C437.844 328.681 434.411 327.005 430.735 326.757C428.17 326.513 425.586 326.946 423.241 328.013C421.921 328.548 420.737 329.374 419.778 330.428C418.819 331.482 418.109 332.738 417.7 334.103C417.497 334.997 417.508 335.927 417.734 336.815C417.959 337.704 418.392 338.526 418.997 339.215C421.361 341.686 424.598 343.135 428.016 343.252Z" fill="black"/>
<path d="M423.1 329.621C425.446 328.554 428.029 328.121 430.594 328.365C434.27 328.613 437.703 330.289 440.159 333.036C441.11 334.117 441.71 335.46 441.882 336.889C441.491 338.004 440.86 339.019 440.032 339.863C439.205 340.706 438.202 341.357 437.094 341.769C434.247 343.038 431.12 343.549 428.017 343.252C424.598 343.135 421.362 341.686 418.998 339.215C418.148 338.225 417.646 336.985 417.568 335.683C417.981 334.324 418.691 333.075 419.649 332.026C420.606 330.977 421.785 330.156 423.1 329.621Z" fill="#1BC082"/>
<path opacity="0.2" d="M423.1 329.621C425.446 328.554 428.029 328.121 430.594 328.365C434.27 328.613 437.703 330.289 440.159 333.036C441.11 334.117 441.71 335.46 441.882 336.889C441.491 338.004 440.86 339.019 440.032 339.863C439.205 340.706 438.202 341.357 437.094 341.769C434.247 343.038 431.12 343.549 428.017 343.252C424.598 343.135 421.362 341.686 418.998 339.215C418.148 338.225 417.646 336.985 417.568 335.683C417.981 334.324 418.691 333.075 419.649 332.026C420.606 330.977 421.785 330.156 423.1 329.621Z" fill="black"/>
</g>
<defs>
<linearGradient id="paint0_linear_232_1212" x1="384.833" y1="28.5634" x2="378.957" y2="95.4025" gradientUnits="userSpaceOnUse">
<stop stop-color="#C0BCD6"/>
<stop offset="1" stop-color="#D5D5D5"/>
</linearGradient>
<linearGradient id="paint1_linear_232_1212" x1="427.66" y1="62.0798" x2="406.558" y2="92.194" gradientUnits="userSpaceOnUse">
<stop stop-color="#C0BCD6"/>
<stop offset="1" stop-color="#D5D5D5"/>
</linearGradient>
<linearGradient id="paint2_linear_232_1212" x1="415.288" y1="97.7836" x2="413.658" y2="116.328" gradientUnits="userSpaceOnUse">
<stop stop-color="#C0BCD6"/>
<stop offset="1" stop-color="#D5D5D5"/>
</linearGradient>
<linearGradient id="paint3_linear_232_1212" x1="414.238" y1="109.738" x2="412.607" y2="128.283" gradientUnits="userSpaceOnUse">
<stop stop-color="#C0BCD6"/>
<stop offset="1" stop-color="#D5D5D5"/>
</linearGradient>
<linearGradient id="paint4_linear_232_1212" x1="413.185" y1="121.693" x2="411.554" y2="140.238" gradientUnits="userSpaceOnUse">
<stop stop-color="#C0BCD6"/>
<stop offset="1" stop-color="#D5D5D5"/>
</linearGradient>
<linearGradient id="paint5_linear_232_1212" x1="412.134" y1="133.648" x2="410.504" y2="152.193" gradientUnits="userSpaceOnUse">
<stop stop-color="#C0BCD6"/>
<stop offset="1" stop-color="#D5D5D5"/>
</linearGradient>
<linearGradient id="paint6_linear_232_1212" x1="188.664" y1="240.562" x2="185.457" y2="277.052" gradientUnits="userSpaceOnUse">
<stop stop-color="#C0BCD6"/>
<stop offset="1" stop-color="#D5D5D5"/>
</linearGradient>
<linearGradient id="paint7_linear_232_1212" x1="168.951" y1="256.909" x2="163.903" y2="314.331" gradientUnits="userSpaceOnUse">
<stop stop-color="#C0BCD6"/>
<stop offset="1" stop-color="#D5D5D5"/>
</linearGradient>
<linearGradient id="paint8_linear_232_1212" x1="167.373" y1="274.853" x2="162.325" y2="332.275" gradientUnits="userSpaceOnUse">
<stop stop-color="#C0BCD6"/>
<stop offset="1" stop-color="#D5D5D5"/>
</linearGradient>
<linearGradient id="paint9_linear_232_1212" x1="165.795" y1="292.797" x2="160.747" y2="350.219" gradientUnits="userSpaceOnUse">
<stop stop-color="#C0BCD6"/>
<stop offset="1" stop-color="#D5D5D5"/>
</linearGradient>
<linearGradient id="paint10_linear_232_1212" x1="164.215" y1="310.741" x2="159.167" y2="368.163" gradientUnits="userSpaceOnUse">
<stop stop-color="#C0BCD6"/>
<stop offset="1" stop-color="#D5D5D5"/>
</linearGradient>
<linearGradient id="paint11_linear_232_1212" x1="162.637" y1="328.685" x2="157.589" y2="386.107" gradientUnits="userSpaceOnUse">
<stop stop-color="#C0BCD6"/>
<stop offset="1" stop-color="#D5D5D5"/>
</linearGradient>
<linearGradient id="paint12_linear_232_1212" x1="161.057" y1="346.629" x2="156.009" y2="404.051" gradientUnits="userSpaceOnUse">
<stop stop-color="#C0BCD6"/>
<stop offset="1" stop-color="#D5D5D5"/>
</linearGradient>
<linearGradient id="paint13_linear_232_1212" x1="159.478" y1="364.573" x2="154.431" y2="421.994" gradientUnits="userSpaceOnUse">
<stop stop-color="#C0BCD6"/>
<stop offset="1" stop-color="#D5D5D5"/>
</linearGradient>
<linearGradient id="paint14_linear_232_1212" x1="187.482" y1="224.479" x2="165.456" y2="475.051" gradientUnits="userSpaceOnUse">
<stop stop-color="#C0BCD6"/>
<stop offset="1" stop-color="#D5D5D5"/>
</linearGradient>
<linearGradient id="paint15_linear_232_1212" x1="167.705" y1="266.505" x2="164.498" y2="302.995" gradientUnits="userSpaceOnUse">
<stop stop-color="#C0BCD6"/>
<stop offset="1" stop-color="#D5D5D5"/>
</linearGradient>
<linearGradient id="paint16_linear_232_1212" x1="183.709" y1="267.238" x2="178.661" y2="324.66" gradientUnits="userSpaceOnUse">
<stop stop-color="#C0BCD6"/>
<stop offset="1" stop-color="#D5D5D5"/>
</linearGradient>
<linearGradient id="paint17_linear_232_1212" x1="182.131" y1="285.182" x2="177.083" y2="342.603" gradientUnits="userSpaceOnUse">
<stop stop-color="#C0BCD6"/>
<stop offset="1" stop-color="#D5D5D5"/>
</linearGradient>
<linearGradient id="paint18_linear_232_1212" x1="180.551" y1="303.126" x2="175.503" y2="360.548" gradientUnits="userSpaceOnUse">
<stop stop-color="#C0BCD6"/>
<stop offset="1" stop-color="#D5D5D5"/>
</linearGradient>
<linearGradient id="paint19_linear_232_1212" x1="178.973" y1="321.07" x2="173.925" y2="378.492" gradientUnits="userSpaceOnUse">
<stop stop-color="#C0BCD6"/>
<stop offset="1" stop-color="#D5D5D5"/>
</linearGradient>
<linearGradient id="paint20_linear_232_1212" x1="177.394" y1="339.014" x2="172.347" y2="396.435" gradientUnits="userSpaceOnUse">
<stop stop-color="#C0BCD6"/>
<stop offset="1" stop-color="#D5D5D5"/>
</linearGradient>
<linearGradient id="paint21_linear_232_1212" x1="175.814" y1="356.958" x2="170.767" y2="414.38" gradientUnits="userSpaceOnUse">
<stop stop-color="#C0BCD6"/>
<stop offset="1" stop-color="#D5D5D5"/>
</linearGradient>
<linearGradient id="paint22_linear_232_1212" x1="174.236" y1="374.902" x2="169.189" y2="432.324" gradientUnits="userSpaceOnUse">
<stop stop-color="#C0BCD6"/>
<stop offset="1" stop-color="#D5D5D5"/>
</linearGradient>
<linearGradient id="paint23_linear_232_1212" x1="446.295" y1="169.594" x2="444.139" y2="194.122" gradientUnits="userSpaceOnUse">
<stop stop-color="#C0BCD6"/>
<stop offset="1" stop-color="#D5D5D5"/>
</linearGradient>
<linearGradient id="paint24_linear_232_1212" x1="389.288" y1="218.593" x2="387.133" y2="243.111" gradientUnits="userSpaceOnUse">
<stop stop-color="#C0BCD6"/>
<stop offset="1" stop-color="#D5D5D5"/>
</linearGradient>
<linearGradient id="paint25_linear_232_1212" x1="416.693" y1="217.753" x2="411.945" y2="271.763" gradientUnits="userSpaceOnUse">
<stop stop-color="#C0BCD6"/>
<stop offset="1" stop-color="#D5D5D5"/>
</linearGradient>
<linearGradient id="paint26_linear_232_1212" x1="418.685" y1="234.185" x2="413.963" y2="287.901" gradientUnits="userSpaceOnUse">
<stop stop-color="#C0BCD6"/>
<stop offset="1" stop-color="#D5D5D5"/>
</linearGradient>
<linearGradient id="paint27_linear_232_1212" x1="422.491" y1="249.708" x2="417.788" y2="303.195" gradientUnits="userSpaceOnUse">
<stop stop-color="#C0BCD6"/>
<stop offset="1" stop-color="#D5D5D5"/>
</linearGradient>
<linearGradient id="paint28_linear_232_1212" x1="427.976" y1="264.503" x2="423.295" y2="317.75" gradientUnits="userSpaceOnUse">
<stop stop-color="#C0BCD6"/>
<stop offset="1" stop-color="#D5D5D5"/>
</linearGradient>
<linearGradient id="paint29_linear_232_1212" x1="455.946" y1="284.61" x2="453.134" y2="316.593" gradientUnits="userSpaceOnUse">
<stop stop-color="#C0BCD6"/>
<stop offset="1" stop-color="#D5D5D5"/>
</linearGradient>
<clipPath id="clip0_232_1212">
<rect width="591" height="525" fill="white" transform="matrix(-1 0 0 1 591 0)"/>
</clipPath>
</defs>
</svg>
