<svg width="733" height="766" viewBox="0 0 733 766" fill="none" xmlns="http://www.w3.org/2000/svg">
<path d="M576.485 282.013C576.485 282.013 718.686 344.113 675.063 423.929C623.776 517.766 597.467 498.804 540.64 551.574C436.852 647.952 376.338 654.176 229.985 560.325C123.529 506.775 113.245 492.559 79.1578 461.986C25.8521 387.599 62.5113 358.393 129.235 295.624C195.96 232.856 131.835 187.732 203.362 149.916C274.889 112.1 576.485 282.013 576.485 282.013Z" fill="#F6F4FF"/>
<path d="M309.376 178.305C309.35 173.064 302.832 168.802 294.816 168.785C286.8 168.769 280.322 173.004 280.347 178.245C280.37 183.042 285.837 187.007 292.907 187.66L292.919 190.317C291.579 190.549 290.59 191.339 290.595 192.29L290.638 201.358C290.643 202.493 292.056 203.417 293.792 203.42L296.171 203.425C297.907 203.429 299.311 202.511 299.305 201.376L299.262 192.308C299.257 191.357 298.261 190.562 296.918 190.325L296.905 187.668C303.97 187.045 309.398 183.101 309.376 178.305Z" fill="white"/>
<path d="M485.079 549.329L233.061 384.459C223.304 378.08 215.395 360.966 215.395 346.234V86.6125C215.395 71.8803 223.304 65.1089 233.061 71.488L485.079 236.358C494.836 242.737 502.746 259.851 502.746 274.583V534.205C502.746 548.937 494.836 555.708 485.079 549.329Z" fill="#F6F4FF"/>
<path d="M492.064 232.27L240.045 67.4011C236.185 64.8772 232.614 64.4115 229.708 65.6829C229.338 65.8448 222.434 69.8836 222.087 70.101L222.07 70.113C225.08 68.4576 228.898 68.767 233.06 71.4882L485.078 236.358C494.835 242.737 502.745 259.851 502.745 274.583V534.205C502.745 543.398 499.664 549.49 494.976 551.222C495.531 551.193 496.068 550.987 496.523 550.626C496.747 550.48 504.071 545.989 504.284 545.819C507.64 543.158 509.73 537.689 509.73 530.117V270.496C509.73 255.764 501.82 238.65 492.064 232.27Z" fill="#3D2B93"/>
<path d="M490.085 233.346L238.067 68.4761C234.207 65.9521 230.636 65.4866 227.73 66.7578C227.36 66.9197 222.434 69.8834 222.087 70.1008L222.07 70.1128C225.08 68.4574 228.898 68.7668 233.06 71.488L485.078 236.358L490.085 233.346Z" fill="#3D2B93"/>
<g style="mix-blend-mode:screen">
<path d="M485.927 235.878L233.909 71.0085C229.908 68.3922 226.23 68.0194 223.269 69.4685C226.254 69.0882 229.264 69.8865 231.79 71.7285L483.808 236.598C493.565 242.977 501.474 260.091 501.474 274.824V534.445C501.474 543.136 498.71 549.024 494.449 551.109C499.899 550.13 503.594 543.789 503.594 533.725V274.104C503.594 259.371 495.684 242.257 485.927 235.878Z" fill="white"/>
</g>
<path d="M225.316 109.696V346.234C225.316 357.788 230.173 369.08 238.025 374.731L487.354 537.822C487.447 537.883 487.589 537.975 487.767 538.09C488.281 538.422 488.863 538.595 489.455 538.593C490.046 538.59 490.627 538.412 491.139 538.075C491.651 537.739 492.075 537.257 492.371 536.676C492.666 536.096 492.822 535.437 492.823 534.767V284.697L225.316 109.696Z" fill="#2A206A"/>
<path d="M492.466 535.961C492.288 535.847 492.146 535.755 492.053 535.694L242.724 372.602C234.872 366.952 230.015 355.66 230.015 344.105V112.77L225.316 109.696V346.234C225.316 357.788 230.173 369.08 238.025 374.731L487.354 537.822C487.447 537.883 487.589 537.975 487.767 538.09C488.197 538.366 488.674 538.532 489.167 538.576C489.659 538.62 490.154 538.541 490.617 538.344C491.079 538.148 491.498 537.839 491.843 537.439C492.189 537.039 492.452 536.558 492.616 536.03C492.566 536.001 492.515 535.993 492.466 535.961Z" fill="#212650"/>
<path d="M478.79 256.294C478.884 258.199 479.374 260.051 480.218 261.701C481.063 263.351 482.24 264.753 483.652 265.791C486.337 267.547 488.514 266.142 488.514 262.652C488.42 260.748 487.931 258.896 487.086 257.245C486.241 255.595 485.065 254.194 483.652 253.155C480.967 251.4 478.79 252.805 478.79 256.294Z" fill="#A4A4A4"/>
<path d="M466.248 248.045C466.342 249.949 466.832 251.801 467.676 253.452C468.521 255.102 469.697 256.503 471.11 257.542C473.795 259.297 475.972 257.892 475.972 254.402C475.878 252.498 475.389 250.646 474.544 248.996C473.699 247.346 472.523 245.944 471.11 244.906C468.425 243.15 466.248 244.555 466.248 248.045Z" fill="#1BC082"/>
<path d="M453.708 239.795C453.802 241.7 454.291 243.552 455.136 245.202C455.981 246.852 457.157 248.254 458.57 249.292C461.255 251.048 463.432 249.643 463.432 246.153C463.338 244.249 462.848 242.396 462.004 240.746C461.159 239.096 459.983 237.695 458.57 236.656C455.885 234.901 453.708 236.306 453.708 239.795Z" fill="#573CDA"/>
<path d="M389.756 231.91L371.469 219.954C369.622 218.746 368.124 219.713 368.124 222.114C368.189 223.424 368.525 224.699 369.107 225.834C369.688 226.969 370.497 227.933 371.469 228.648L389.756 240.604C391.603 241.812 393.101 240.845 393.101 238.444C393.036 237.134 392.7 235.86 392.118 234.724C391.537 233.589 390.728 232.625 389.756 231.91ZM419.862 251.594L401.575 239.638C399.728 238.43 398.23 239.397 398.23 241.798C398.295 243.108 398.632 244.382 399.213 245.518C399.794 246.653 400.603 247.617 401.575 248.332L419.862 260.288C421.709 261.496 423.207 260.529 423.207 258.128C423.142 256.818 422.806 255.543 422.224 254.408C421.643 253.273 420.834 252.309 419.862 251.594ZM449.968 271.278L431.681 259.322C429.834 258.114 428.336 259.081 428.336 261.481C428.401 262.792 428.738 264.066 429.319 265.201C429.9 266.337 430.709 267.301 431.681 268.015L449.968 279.971C451.816 281.179 453.313 280.213 453.313 277.812C453.248 276.502 452.912 275.227 452.33 274.092C451.749 272.957 450.94 271.992 449.968 271.278ZM480.074 290.962L461.787 279.005C459.94 277.797 458.442 278.765 458.442 281.165C458.507 282.475 458.844 283.75 459.425 284.885C460.006 286.02 460.815 286.984 461.787 287.699L480.074 299.655C481.922 300.863 483.419 299.896 483.419 297.495C483.354 296.185 483.018 294.911 482.437 293.775C481.855 292.64 481.046 291.676 480.074 290.962Z" fill="#A08DFC"/>
<path d="M317.195 248.999V338.121L325.803 332.414V243.039L317.195 248.999Z" fill="#917AFF"/>
<path d="M317.228 248.999V338.121L145.524 226.615V137.24L317.228 248.999Z" fill="#A08DFC"/>
<path d="M145.524 137.239L317.228 248.998L325.803 243.039L154.045 131.369L145.524 137.239Z" fill="#917AFF"/>
<path opacity="0.7" d="M145.524 137.24L317.228 248.999L325.803 243.039L317.204 247.642L145.524 137.24Z" fill="white"/>
<path d="M292.08 305.796V302.013L237.89 267.127V270.91L292.08 305.796Z" fill="white"/>
<path d="M214.423 196.743V200.527L305.513 259.539V255.755L214.423 196.743Z" fill="white"/>
<path d="M246.496 249.165L214.423 228.193V231.979L246.496 252.948V249.165Z" fill="white"/>
<path d="M268.201 279.081V282.865L281.45 290.983V287.199L268.201 279.081Z" fill="white"/>
<path d="M266.144 246.285L214.423 212.469V216.252L266.144 250.07V246.285Z" fill="white"/>
<path d="M233.367 232.718L214.423 220.331V224.116L233.367 236.502V232.718Z" fill="white"/>
<path d="M228.552 256.941L264.911 280.714V276.93L228.552 253.157V256.941Z" fill="white"/>
<path d="M236.656 234.868V238.652L287.704 271.485V267.7L236.656 234.868Z" fill="white"/>
<path d="M249.785 251.315V255.099L275.308 271.787V268.003L249.785 251.315Z" fill="white"/>
<path d="M225.261 251.008L214.423 243.921V247.704L225.261 254.791V251.008Z" fill="white"/>
<path d="M269.434 252.22L305.512 275.264V271.48L269.434 248.437V252.22Z" fill="white"/>
<path d="M290.996 273.635L305.514 283.126V279.343L290.996 269.852V273.635Z" fill="white"/>
<path d="M214.423 208.389L305.513 267.401V263.618L214.423 204.606V208.389Z" fill="white"/>
<path d="M278.598 273.937L305.513 290.991V287.206L278.598 270.154V273.937Z" fill="white"/>
<path d="M234.601 264.976L214.423 251.783V255.567L234.601 268.76V264.976Z" fill="white"/>
<path d="M295.372 307.949L305.514 314.579V310.795L295.372 304.163V307.949Z" fill="white"/>
<path d="M284.738 293.133L305.512 306.716V302.932L284.738 289.35V293.133Z" fill="white"/>
<path d="M214.423 239.841L305.513 298.853V295.068L214.423 236.058V239.841Z" fill="white"/>
<path d="M195.39 181.777L165.444 162.16C160.208 158.737 155.964 162.37 155.964 170.276V209.529C155.964 217.434 160.208 226.618 165.444 230.041L195.39 249.658C200.625 253.081 204.87 249.447 204.87 241.542V202.289C204.87 194.383 200.625 185.2 195.39 181.777Z" fill="#EFECFF"/>
<path d="M199.09 246.465L169.144 226.848C163.909 223.425 159.664 214.242 159.664 206.337V167.083C159.603 164.963 160.006 162.858 160.837 160.957C157.931 161.503 155.964 164.897 155.964 170.276V209.53C155.964 217.435 160.208 226.618 165.443 230.041L195.39 249.658C198.97 251.999 202.085 251.037 203.697 247.669C202.085 247.887 200.455 247.461 199.09 246.465Z" fill="#D5D1E8"/>
<path d="M172.128 192.754L142.182 173.137C136.946 169.713 132.702 173.347 132.702 181.252V220.506C132.702 228.411 136.946 237.594 142.182 241.017L172.128 260.634C177.364 264.058 181.608 260.424 181.608 252.519V213.265C181.608 205.36 177.364 196.177 172.128 192.754Z" fill="#573CDA"/>
<path d="M177.013 189.51L147.067 169.893C146.213 169.218 145.223 168.797 144.188 168.671C143.153 168.544 142.106 168.715 141.145 169.167L141.093 169.104L135.912 172.548L135.931 172.62C136.914 172.049 138.018 171.794 139.12 171.885C140.223 171.976 141.282 172.409 142.181 173.136L172.128 192.753C177.363 196.176 181.608 205.359 181.608 213.265V252.518C181.608 256.361 180.599 259.182 178.968 260.686L181.857 258.532C183.345 257.672 184.577 256.336 185.401 254.691C186.225 253.045 186.605 251.162 186.492 249.275V210.021C186.492 202.116 182.248 192.932 177.013 189.51Z" fill="#3D2B93"/>
<path opacity="0.7" d="M172.661 192.25L142.715 172.633C140.114 170.933 137.76 170.977 136.047 172.417C136.968 172.09 137.942 172.002 138.897 172.161C139.852 172.321 140.763 172.722 141.562 173.336L171.508 192.953C176.743 196.377 180.988 205.56 180.988 213.465V252.719C180.988 256.697 179.911 259.591 178.176 261.05C180.573 260.02 182.141 256.811 182.141 252.016V212.762C182.141 204.857 177.897 195.674 172.661 192.25Z" fill="white"/>
<path d="M140.646 183.968V228.903L173.121 250.144V205.21L140.646 183.968ZM171.04 246.062L142.728 227.541V188.052L171.04 206.57V246.062Z" fill="white"/>
<path d="M165.987 213.199C165.987 216.143 164.15 217.329 161.884 215.848C160.693 214.971 159.7 213.789 158.987 212.397C158.275 211.004 157.862 209.441 157.782 207.835C157.782 204.891 159.619 203.705 161.884 205.186C163.076 206.063 164.069 207.245 164.782 208.637C165.494 210.029 165.907 211.592 165.987 213.199Z" fill="white"/>
<path d="M141.735 216.964L150.191 204.59L158.777 229.191L165.02 223.446L171.916 244.66L171.784 246.808L141.865 228.688L141.735 216.964Z" fill="white"/>
<path d="M529.393 414.705V523.544L538.001 517.838V408.745L529.393 414.705Z" fill="#917AFF"/>
<path d="M529.425 414.705V523.544L341.51 401.512V292.421L529.425 414.705Z" fill="#A08DFC"/>
<path d="M341.51 292.421L529.425 414.705L538.001 408.746L350.029 286.551L341.51 292.421Z" fill="#917AFF"/>
<path opacity="0.7" d="M341.51 292.421L529.425 414.705L538.001 408.746L529.402 413.348L341.51 292.421Z" fill="white"/>
<path d="M509.509 483.727C520.953 476.151 520.836 451.813 509.248 429.366C497.661 406.919 478.99 394.864 467.547 402.44C456.103 410.016 456.22 434.354 467.808 456.801C479.395 479.248 498.066 491.303 509.509 483.727Z" fill="#F6F4FF"/>
<path d="M491.347 478.609C475.061 467.961 461.859 442.174 461.859 421.011C461.859 413.115 463.698 406.981 466.848 402.943C462.002 406.603 459.039 413.784 459.039 423.805C459.039 444.967 472.241 470.755 488.527 481.403C498.737 488.078 507.733 487.216 513.026 480.432C507.638 484.501 499.921 484.216 491.347 478.609Z" fill="white"/>
<path d="M459.519 428.935C459.906 412.939 470.173 406.58 482.769 414.815C489.253 419.055 495.122 426.361 499.348 434.7L503.995 433.377C498.701 422.503 491.147 412.913 482.769 407.435C466.917 397.071 454.005 405.264 453.812 425.677L457.529 429.5L459.519 428.935Z" fill="#3D2B93"/>
<path d="M494.443 478.849C490.324 479.068 486.247 477.841 482.768 475.335C470.837 467.535 460.985 449.368 459.649 433.447L453.963 430.202C453.972 430.318 452.063 430.756 452.072 430.873C453.717 450.69 467.913 473.003 482.768 482.716C488.162 486.243 491.813 488.097 496.143 487.576C496.325 487.554 497.906 487.044 498.085 487.016L494.443 478.849Z" fill="#3D2B93"/>
<path d="M501.548 439.536C504.345 446.012 505.882 453.094 506.055 460.301C506.055 469.862 502.616 476.138 497.271 478.193L500.871 486.264C507.488 483.687 511.735 475.874 511.735 464.014C511.528 455.064 509.629 446.268 506.166 438.22L501.548 439.536Z" fill="#3D2B93"/>
<path d="M490.763 452.796C489.147 451.212 487.769 449.342 486.68 447.259C486.005 445.979 486.028 444.591 486.685 444.158C487.601 443.541 488.328 442.623 488.77 441.525C489.485 441.749 490.373 441.45 490.373 440.339C490.374 439.229 490.005 438.16 489.339 437.346C489.382 434.702 488.795 432.093 487.64 429.795C486.484 427.497 484.803 425.594 482.772 424.286C481.613 423.349 480.202 422.899 478.781 423.012C478.556 423.061 476.602 423.644 476.411 423.751C475.076 424.503 476.305 426.128 476.206 428.759C475.614 428.611 475.172 429.266 475.172 430.4C475.34 431.677 475.91 432.843 476.775 433.683C477.292 435.551 477.991 437.348 478.859 439.041C479.517 440.333 479.54 441.753 478.865 442.15C477.58 442.822 476.113 442.892 474.782 442.347C474.231 442.139 473.639 442.112 473.076 442.27C472.932 442.315 471.177 442.83 471.046 442.904C470.13 443.421 471.175 444.177 471.175 445.938V450.941C471.201 451.47 471.337 451.985 471.572 452.444C471.807 452.902 472.134 453.291 472.526 453.58L491.46 467.771C491.788 467.986 493.647 467.237 493.881 467.138C494.048 467.045 494.184 466.896 494.272 466.711C494.36 466.526 494.394 466.314 494.37 466.106V461.103C494.288 459.516 493.927 457.963 493.308 456.537C492.689 455.11 491.823 453.838 490.763 452.796Z" fill="#3D2B93"/>
<path d="M458.245 429.347C458.632 413.351 468.899 406.992 481.495 415.228C487.98 419.467 493.848 426.773 498.075 435.112L502.721 433.789C497.428 422.915 489.874 413.325 481.495 407.847C465.644 397.483 452.732 405.676 452.538 426.089L458.245 429.347Z" fill="white"/>
<path d="M493.17 479.261C489.052 479.48 484.974 478.253 481.495 475.748C469.564 467.947 459.713 449.78 458.376 433.86L452.69 430.614C454.218 450.513 466.553 473.359 481.495 483.128C487.117 486.803 492.366 488.137 496.813 487.428L493.17 479.261Z" fill="white"/>
<path d="M500.275 439.947C503.072 446.424 504.609 453.505 504.782 460.712C504.782 470.274 501.342 476.549 495.997 478.604L499.597 486.676C506.214 484.098 510.461 476.285 510.461 464.426C510.255 455.476 508.356 446.68 504.892 438.632L500.275 439.947Z" fill="white"/>
<path d="M489.491 453.208C487.876 451.624 486.497 449.754 485.408 447.671C484.733 446.391 484.756 445.003 485.413 444.57C486.329 443.953 487.056 443.035 487.498 441.937C488.213 442.161 489.101 441.862 489.101 440.751C489.102 439.641 488.733 438.572 488.067 437.758C488.111 435.114 487.523 432.505 486.368 430.207C485.212 427.909 483.531 426.006 481.5 424.698C476.572 421.476 475.109 424.548 474.934 429.171C474.342 429.023 473.9 429.678 473.9 430.812C474.068 432.089 474.638 433.255 475.503 434.095C476.02 435.963 476.719 437.76 477.587 439.453C478.245 440.745 478.268 442.165 477.593 442.562C476.308 443.234 474.841 443.304 473.51 442.759C471.441 442.051 469.903 443.464 469.903 446.35V451.353C469.929 451.882 470.065 452.397 470.3 452.855C470.535 453.314 470.862 453.703 471.254 453.992L491.747 467.39C492.493 467.878 493.098 467.487 493.098 466.518V461.515C493.016 459.928 492.655 458.375 492.036 456.949C491.417 455.522 490.551 454.25 489.491 453.208Z" fill="white"/>
<path d="M457.519 429.553C457.905 413.557 468.173 407.198 480.769 415.434C487.253 419.673 493.122 426.979 497.348 435.319L501.995 433.995C496.701 423.121 489.147 413.531 480.769 408.053C464.917 397.689 452.005 405.882 451.812 426.295L457.519 429.553Z" fill="#573CDA"/>
<path d="M492.444 479.467C488.325 479.686 484.248 478.459 480.769 475.953C468.838 468.153 458.986 449.986 457.65 434.066L451.964 430.82C453.491 450.719 465.826 473.564 480.769 483.334C486.39 487.009 491.639 488.342 496.087 487.634L492.444 479.467Z" fill="#573CDA"/>
<path d="M499.549 440.153C502.346 446.63 503.883 453.711 504.056 460.919C504.056 470.48 500.617 476.756 495.271 478.81L498.872 486.882C505.489 484.305 509.736 476.492 509.736 464.632C509.529 455.682 507.63 446.886 504.167 438.838L499.549 440.153Z" fill="#573CDA"/>
<path d="M488.763 453.414C487.147 451.83 485.768 449.96 484.679 447.877C484.004 446.597 484.028 445.209 484.685 444.776C485.601 444.159 486.328 443.24 486.769 442.142C487.485 442.366 488.373 442.068 488.373 440.957C488.374 439.847 488.005 438.778 487.339 437.964C487.382 435.32 486.795 432.711 485.639 430.413C484.484 428.115 482.802 426.212 480.772 424.904C475.844 421.682 474.38 424.754 474.205 429.377C473.614 429.228 473.172 429.884 473.172 431.018C473.34 432.295 473.909 433.461 474.775 434.301C475.292 436.169 475.991 437.966 476.859 439.659C477.516 440.951 477.54 442.371 476.865 442.768C475.579 443.439 474.112 443.51 472.781 442.965C470.713 442.257 469.175 443.67 469.175 446.556V451.559C469.201 452.088 469.337 452.603 469.572 453.061C469.806 453.52 470.133 453.909 470.526 454.198L491.018 467.596C491.764 468.084 492.369 467.693 492.369 466.724V461.721C492.288 460.134 491.927 458.581 491.308 457.154C490.688 455.728 489.823 454.456 488.763 453.414Z" fill="#573CDA"/>
<path d="M342.554 387.359V432.935L349.304 428.735V382.905L342.554 387.359Z" fill="#3D2B93"/>
<path d="M342.585 387.359V432.935L193.653 335.565V289.736L342.585 387.359Z" fill="#573CDA"/>
<path d="M193.655 289.736L342.587 387.359L349.304 382.905L200.318 285.371L193.655 289.736Z" fill="#3D2B93"/>
<path opacity="0.7" d="M193.653 289.736L342.585 387.359L349.302 382.905L342.723 386.162L193.653 289.736Z" fill="white"/>
<path d="M335.013 419.134L201.002 330.562V303.709L335.013 392.28V419.134Z" fill="white"/>
<path d="M206.617 311.298L209.327 313.07L210.58 327.729L210.631 327.762L211.961 314.792L215.029 316.798L216.359 331.507L216.41 331.54L217.663 318.52L220.092 320.108L218.277 338.143L214.774 335.853L213.495 323.371L213.444 323.337L212.165 334.148L208.432 331.707L206.617 311.298Z" fill="#573CDA"/>
<path d="M222.659 321.859L225.369 323.631L226.622 338.29L226.673 338.323L228.003 325.353L231.071 327.359L232.401 342.068L232.452 342.101L233.705 329.081L236.134 330.669L234.319 348.704L230.816 346.414L229.537 333.932L229.486 333.898L228.208 344.709L224.474 342.268L222.659 321.859Z" fill="#573CDA"/>
<path d="M238.831 332.274L241.541 334.046L242.794 348.705L242.845 348.738L244.175 335.768L247.243 337.774L248.573 352.483L248.624 352.517L249.877 339.496L252.306 341.084L250.491 359.119L246.987 356.829L245.709 344.347L245.658 344.313L244.379 355.124L240.646 352.683L238.831 332.274Z" fill="#573CDA"/>
<path d="M261.268 152.806V184.587L265.501 181.948V149.918L261.268 152.806Z" fill="#23C89A"/>
<path d="M261.297 152.806V184.587L236.314 168.243V136.214L261.297 152.806Z" fill="#1BC082"/>
<path d="M236.314 136.213L261.297 152.805L265.499 149.917L240.461 133.413L236.314 136.213Z" fill="#23C89A"/>
<path d="M236.314 136.214L261.297 152.806L265.499 149.918L261.085 151.275L236.314 136.214Z" fill="white"/>
<path d="M283.235 142.205V193.669L290.09 189.394V137.529L283.235 142.205Z" fill="#3D2B93"/>
<path d="M242.829 115.336L283.285 142.205L290.089 137.529L249.545 110.802L242.829 115.336Z" fill="#3D2B93"/>
<path opacity="0.7" d="M242.829 115.336L283.285 142.205L290.088 137.529L283.468 141.1L242.829 115.336Z" fill="white"/>
<path d="M242.829 115.336V136.681L264.239 150.901V181.208L283.285 193.668V142.203L242.829 115.336Z" fill="#573CDA"/>
<path d="M369.712 266.477V302.008L374.443 299.056V263.249L369.712 266.477Z" fill="#3D2B93"/>
<path d="M369.744 266.478V302.009L341.813 283.734V247.927L369.744 266.478Z" fill="#573CDA"/>
<path d="M341.815 247.926L369.746 266.477L374.443 263.249L346.452 244.797L341.815 247.926Z" fill="#3D2B93"/>
<path opacity="0.7" d="M341.813 247.927L369.744 266.478L374.441 263.25L369.507 264.765L341.813 247.927Z" fill="white"/>
<path d="M405.94 290.026V325.557L410.672 322.605V286.798L405.94 290.026Z" fill="#3D2B93"/>
<path d="M405.974 290.026V325.557L378.044 307.283V271.475L405.974 290.026Z" fill="#573CDA"/>
<path d="M378.045 271.475L405.975 290.026L410.672 286.798L382.682 268.346L378.045 271.475Z" fill="#3D2B93"/>
<path opacity="0.7" d="M378.044 271.475L405.974 290.026L410.672 286.798L405.737 288.313L378.044 271.475Z" fill="white"/>
<path d="M442.661 314.427V349.958L447.392 347.006V311.199L442.661 314.427Z" fill="#3D2B93"/>
<path d="M442.695 314.428V349.959L414.765 331.684V295.877L442.695 314.428Z" fill="#573CDA"/>
<path d="M414.767 295.877L442.697 314.427L447.394 311.199L419.403 292.748L414.767 295.877Z" fill="#3D2B93"/>
<path opacity="0.7" d="M414.765 295.877L442.695 314.428L447.392 311.2L442.458 312.715L414.765 295.877Z" fill="white"/>
<path d="M478.584 337.021V372.552L483.315 369.6V333.793L478.584 337.021Z" fill="#3D2B93"/>
<path d="M478.618 337.022V372.553L450.688 354.278V318.471L478.618 337.022Z" fill="#573CDA"/>
<path d="M450.689 318.47L478.62 337.021L483.317 333.793L455.326 315.341L450.689 318.47Z" fill="#3D2B93"/>
<path opacity="0.7" d="M450.688 318.471L478.618 337.022L483.315 333.793L478.381 335.308L450.688 318.471Z" fill="white"/>
<path d="M434.42 329.153C433.398 328.15 432.525 326.967 431.836 325.649C431.409 324.839 431.424 323.96 431.84 323.686C432.419 323.296 432.88 322.715 433.159 322.02C433.612 322.162 434.174 321.973 434.174 321.27C434.174 320.568 433.941 319.891 433.519 319.376C433.547 317.703 433.175 316.052 432.444 314.598C431.713 313.143 430.649 311.939 429.364 311.112C426.245 309.073 425.319 311.017 425.209 313.942C424.835 313.848 424.554 314.263 424.554 314.98C424.661 315.789 425.021 316.526 425.569 317.058C425.896 318.24 426.338 319.377 426.888 320.448C427.304 321.266 427.319 322.164 426.891 322.416C426.078 322.841 425.15 322.886 424.308 322.541C422.998 322.092 422.025 322.987 422.025 324.813V327.979C422.042 328.314 422.128 328.639 422.277 328.929C422.425 329.22 422.632 329.466 422.88 329.649L435.848 338.127C436.32 338.436 436.703 338.188 436.703 337.575V334.409C436.651 333.405 436.423 332.422 436.031 331.52C435.639 330.617 435.091 329.812 434.42 329.153Z" fill="white"/>
<path d="M455.882 352.009L460.409 354.968V345.777L455.882 342.817V352.009ZM463.049 356.695L467.576 359.655V342.804L463.049 339.844V356.695ZM470.217 336.871V361.381L474.744 364.341V339.83L470.217 336.871Z" fill="white"/>
<path d="M399.72 304.102C399.716 303.616 399.686 303.131 399.629 302.649L401.768 302.343C401.54 301.091 401.215 299.864 400.799 298.676L398.362 297.842C397.934 296.805 397.427 295.814 396.845 294.879L397.429 292.094C396.724 291.091 395.943 290.159 395.095 289.309L393.783 291.23C393.441 290.933 393.083 290.66 392.711 290.412C392.366 290.188 392.008 289.993 391.639 289.828L390.327 286.192C389.57 285.943 388.779 285.853 387.993 285.925L388.577 289.473C388.004 289.642 387.481 289.98 387.06 290.453L384.624 288.101C384.173 288.826 383.844 289.639 383.654 290.5L385.793 293.603C385.734 294.044 385.704 294.49 385.702 294.937C385.706 295.423 385.736 295.908 385.793 296.389L383.654 296.696C383.882 297.947 384.207 299.174 384.624 300.362L387.06 301.197C387.488 302.233 387.995 303.224 388.577 304.159L387.993 306.944C388.698 307.947 389.479 308.879 390.327 309.729L391.639 307.808C391.981 308.105 392.339 308.379 392.711 308.627C393.056 308.85 393.414 309.045 393.783 309.21L395.095 312.847C395.852 313.095 396.643 313.186 397.429 313.113L396.845 309.565C397.418 309.396 397.942 309.058 398.362 308.586L400.799 310.937C401.249 310.212 401.578 309.399 401.768 308.538L399.629 305.436C399.688 304.994 399.718 304.548 399.72 304.102ZM392.711 303.177C391.893 302.576 391.212 301.764 390.723 300.809C390.234 299.854 389.951 298.781 389.896 297.679C389.896 295.658 391.156 294.845 392.711 295.861C393.529 296.463 394.21 297.274 394.699 298.229C395.188 299.185 395.471 300.257 395.526 301.36C395.526 303.38 394.266 304.193 392.711 303.177Z" fill="white"/>
<path d="M346.992 262.058L355.983 277.967L364.973 273.814L364.98 273.827C364.705 273.351 364.341 272.95 363.913 272.65L348.052 262.28C347.897 262.162 347.722 262.082 347.538 262.044C347.355 262.007 347.166 262.012 346.984 262.061L346.992 262.058Z" fill="white"/>
<path d="M365 273.863L355.982 279.686L353.428 274.699L346.991 277.672L346.963 277.625L352.948 273.761L346.964 262.071C346.736 262.181 346.547 262.373 346.425 262.616C346.303 262.86 346.255 263.142 346.289 263.419V275.586C346.323 276.276 346.5 276.947 346.806 277.546C347.112 278.144 347.539 278.652 348.051 279.028L363.912 289.398C364.885 290.035 365.675 289.525 365.675 288.26V276.094C365.643 275.293 365.408 274.518 365 273.863ZM364.972 289.428L358.534 278.037L359.015 277.727L365 289.417L364.972 289.428Z" fill="white"/>
<path d="M229.049 370.364V415.94L235.403 411.846V366.017L229.049 370.364Z" fill="#917AFF"/>
<path d="M229.081 370.364V415.94L121 345.296V299.466L229.081 370.364Z" fill="#A08DFC"/>
<path d="M121 299.466L229.081 370.364L235.404 366.017L127.266 295.21L121 299.466Z" fill="#917AFF"/>
<path opacity="0.7" d="M121 299.466L229.081 370.364L235.404 366.017L228.824 369.007L121 299.466Z" fill="white"/>
<path d="M162.765 334.305L143.007 321.386C141.794 320.594 140.811 321.229 140.811 322.804V337.96C140.854 338.82 141.075 339.656 141.456 340.401C141.838 341.146 142.369 341.779 143.007 342.248L155.356 350.322L161.531 362.383V354.359L162.765 355.166C163.978 355.959 164.961 355.325 164.961 353.749V338.593C164.918 337.733 164.697 336.897 164.316 336.152C163.934 335.407 163.403 334.774 162.765 334.305ZM148.836 337.142C148.193 337.557 147.151 336.875 146.508 335.619C145.865 334.363 145.865 333.009 146.508 332.594C147.151 332.178 148.193 332.86 148.836 334.116C149.479 335.372 149.479 336.727 148.836 337.142ZM154.188 340.64C153.545 341.056 152.502 340.374 151.859 339.118C151.216 337.862 151.216 336.507 151.859 336.092C152.502 335.677 153.545 336.359 154.188 337.615C154.831 338.87 154.831 340.225 154.188 340.64ZM159.539 344.139C158.896 344.554 157.854 343.873 157.211 342.617C156.567 341.361 156.568 340.006 157.211 339.591C157.853 339.176 158.896 339.857 159.539 341.113C160.182 342.369 160.182 343.724 159.539 344.139ZM139.165 336.883V324.58L131.618 319.646C130.406 318.854 129.423 319.488 129.423 321.064V336.22C129.465 337.08 129.686 337.916 130.068 338.661C130.449 339.406 130.98 340.039 131.618 340.508L132.853 341.315V349.339L139.028 345.352L151.377 353.426C152.589 354.219 153.572 353.584 153.572 352.009V351.295L143.007 344.388C141.891 343.566 140.962 342.458 140.295 341.155C139.627 339.851 139.24 338.388 139.165 336.883Z" fill="white"/>
<path d="M169.459 341.929V345.713L221.093 379.473V375.689L169.459 341.929Z" fill="white"/>
<path d="M204.762 380.758L169.459 357.654V361.438L204.762 384.542V380.758Z" fill="white"/>
<path d="M169.459 353.575L221.093 387.336V383.552L169.459 349.792V353.575Z" fill="white"/>
<path opacity="0.2" d="M301.073 465.638L267.509 444.298C270.407 441.891 272.108 439.028 272.108 435.946C272.108 427.444 259.294 420.551 243.487 420.551C227.68 420.551 214.867 427.444 214.867 435.946C214.867 444.448 227.68 451.341 243.487 451.341C246.633 451.343 249.773 451.054 252.877 450.476L289.02 473.462C290.461 474.202 292.036 474.548 293.617 474.474C295.198 474.4 296.742 473.907 298.124 473.034C301.109 471.318 304.655 468.032 301.073 465.638Z" fill="#A4A4A4"/>
<path d="M300.957 461.44C301.677 462.954 301.985 464.677 301.842 466.39C301.698 468.103 301.109 469.729 300.149 471.063C299.189 472.396 297.901 473.378 296.449 473.883C294.996 474.388 293.444 474.394 291.989 473.9C290.533 473.406 289.24 472.434 288.272 471.108C287.304 469.782 286.705 468.16 286.551 466.448C286.397 464.736 286.695 463.011 287.407 461.491C288.118 459.971 289.212 458.724 290.55 457.908C291.438 457.366 292.412 457.027 293.415 456.912C294.419 456.796 295.433 456.905 296.399 457.233C297.366 457.561 298.265 458.101 299.047 458.823C299.829 459.545 300.478 460.434 300.957 461.44Z" fill="#2A206A"/>
<path d="M276.648 406.737L260.017 416.885L284.826 468.715L284.829 468.713C284.84 468.738 284.85 468.765 284.862 468.79C286.303 471.819 291.194 472.002 295.787 469.2C300.379 466.397 302.934 461.67 301.493 458.642C301.481 458.616 301.467 458.593 301.454 458.568L301.457 458.566L276.648 406.737Z" fill="#573CDA"/>
<path d="M276.666 406.774C278.108 409.803 275.553 414.53 270.96 417.332C266.367 420.135 261.476 419.951 260.035 416.923C258.594 413.894 261.149 409.167 265.741 406.365C270.334 403.562 275.225 403.746 276.666 406.774Z" fill="#3D2B93"/>
<path d="M265.757 392.986L255.864 399.023L262.898 413.806L262.9 413.805L262.92 413.851C263.777 415.652 266.686 415.761 269.418 414.095C272.15 412.428 273.67 409.616 272.812 407.815L272.789 407.771L272.791 407.77L265.757 392.986Z" fill="#2A206A"/>
<path d="M237.83 274.156C225.514 266.104 214.344 265.181 206.171 270.193C205.942 270.333 194.213 277.744 193.844 278.386C202.161 271.281 214.473 271.389 228.213 280.373C253.26 296.749 273.565 336.409 273.565 368.957C273.565 385.564 268.276 397.107 259.771 402.258C260.545 401.991 261.288 401.621 261.984 401.156C262.226 401.003 270.224 395.515 270.461 395.351C278.336 389.9 283.181 378.639 283.181 362.74C283.181 330.193 262.877 290.532 237.83 274.156Z" fill="#23C89A"/>
<path d="M228.214 280.373C203.167 263.997 182.862 277.107 182.862 309.654C182.862 342.202 203.167 381.862 228.214 398.238C253.261 414.614 273.565 401.504 273.565 368.957C273.565 336.409 253.261 296.749 228.214 280.373ZM227.533 390.466C206.279 376.57 189.048 342.914 189.048 315.294C189.048 287.674 206.279 276.55 227.533 290.446C248.788 304.343 266.018 337.999 266.018 365.618C266.018 393.238 248.788 404.363 227.533 390.466Z" fill="#1BC082"/>
<path d="M235.501 385.425C214.246 371.529 197.016 337.873 197.016 310.254C197.016 298.987 199.885 290.468 204.723 285.27C195.219 288.162 189.05 298.773 189.05 315.295C189.05 342.914 206.28 376.57 227.535 390.466C240.119 398.694 251.291 398.148 258.313 390.603C251.929 392.546 244.041 391.009 235.501 385.425Z" fill="#23DEAA"/>
<g style="mix-blend-mode:screen">
<path d="M230.39 279.141C218.383 271.291 207.474 270.233 199.361 274.827C206.924 272.431 218.048 273.727 228.213 280.373C253.26 296.749 273.565 336.409 273.565 368.957C273.565 385.902 266.312 398.056 257.5 403.045C268.572 399.539 275.741 387.063 275.741 367.725C275.741 335.177 255.437 295.517 230.39 279.141Z" fill="white"/>
</g>
</svg>
