<svg width="34" height="34" viewBox="0 0 34 34" fill="none" xmlns="http://www.w3.org/2000/svg">
<path fill-rule="evenodd" clip-rule="evenodd" d="M17 0C7.61116 0 0 7.61116 0 17C0 26.3888 7.61116 34 17 34C26.3888 34 34 26.3888 34 17C34 7.61116 26.3888 0 17 0ZM14.765 23.5736L15.0627 19.3856L22.733 12.4983C23.0667 12.2028 22.661 12.0393 22.2147 12.3348L12.7325 18.2681L8.65024 16.9983C7.76224 16.7231 7.74574 16.1156 8.83549 15.6926L24.803 9.57935C25.5425 9.3041 26.189 9.74285 25.9482 10.8648L25.9475 10.8656L23.231 23.5946C23.0262 24.4931 22.4915 24.7158 21.7325 24.2928L17.594 21.2621L15.5967 23.1708C15.3755 23.3906 15.191 23.5736 14.765 23.5736Z" fill="#1BC082"/>
</svg>
