<svg width="720" height="528" viewBox="0 0 720 528" fill="none" xmlns="http://www.w3.org/2000/svg">
<g filter="url(#filter0_d_232_654)">
<path d="M495.557 420.443L35.3405 297.129L224.848 107.621L685.065 230.936L495.557 420.443Z" fill="#573CDA"/>
<g opacity="0.5">
<path d="M82.0938 291.963L495.936 402.852" stroke="#2A206A" stroke-linecap="round" stroke-linejoin="round"/>
<path d="M92.8535 281.203L506.696 392.092" stroke="#2A206A" stroke-linecap="round" stroke-linejoin="round"/>
<path d="M103.609 270.445L517.452 381.334" stroke="#2A206A" stroke-linecap="round" stroke-linejoin="round"/>
<path d="M114.371 259.686L528.214 370.574" stroke="#2A206A" stroke-linecap="round" stroke-linejoin="round"/>
<path d="M125.127 248.928L538.969 359.817" stroke="#2A206A" stroke-linecap="round" stroke-linejoin="round"/>
<path d="M135.889 238.169L549.731 349.058" stroke="#2A206A" stroke-linecap="round" stroke-linejoin="round"/>
<path d="M146.645 227.411L560.487 338.3" stroke="#2A206A" stroke-linecap="round" stroke-linejoin="round"/>
<path d="M157.404 216.651L571.247 327.54" stroke="#2A206A" stroke-linecap="round" stroke-linejoin="round"/>
<path d="M168.166 205.892L582.008 316.781" stroke="#2A206A" stroke-linecap="round" stroke-linejoin="round"/>
<path d="M178.922 195.134L592.764 306.023" stroke="#2A206A" stroke-linecap="round" stroke-linejoin="round"/>
<path d="M189.682 184.375L603.524 295.264" stroke="#2A206A" stroke-linecap="round" stroke-linejoin="round"/>
<path d="M200.439 173.617L614.282 284.506" stroke="#2A206A" stroke-linecap="round" stroke-linejoin="round"/>
<path d="M211.199 162.857L625.042 273.746" stroke="#2A206A" stroke-linecap="round" stroke-linejoin="round"/>
<path d="M221.961 152.099L635.803 262.988" stroke="#2A206A" stroke-linecap="round" stroke-linejoin="round"/>
<path d="M232.717 141.34L646.559 252.229" stroke="#2A206A" stroke-linecap="round" stroke-linejoin="round"/>
<path d="M243.477 130.581L657.319 241.47" stroke="#2A206A" stroke-linecap="round" stroke-linejoin="round"/>
</g>
<path d="M72.7611 288.362C72.1489 288.198 71.8419 287.945 71.8402 287.601C71.8433 287.26 72.058 286.866 72.4845 286.421L72.9201 285.976L73.3808 285.525C73.8365 285.088 74.3331 284.77 74.8706 284.571C75.413 284.374 75.9903 284.357 76.6025 284.521C77.2147 284.685 77.5192 284.938 77.5161 285.28C77.5179 285.623 77.3056 286.017 76.8791 286.462C76.7844 286.563 76.6356 286.715 76.4329 286.918C76.2337 287.117 76.0837 287.264 75.9828 287.359C75.5271 287.796 75.0281 288.113 74.4857 288.31C73.9482 288.509 73.3733 288.526 72.7611 288.362ZM73.0812 288.042C73.4991 288.154 73.9163 288.137 74.3328 287.992C74.7577 287.844 75.1636 287.583 75.5503 287.209C75.6583 287.107 75.803 286.965 75.9844 286.784C76.1658 286.603 76.3021 286.463 76.3933 286.366C76.7535 285.993 76.9274 285.675 76.915 285.41C76.9111 285.143 76.7002 284.953 76.2824 284.841C75.8645 284.729 75.4414 284.749 75.0129 284.9C74.5928 285.049 74.1929 285.307 73.8133 285.675L73.3899 286.089L72.9703 286.518C72.603 286.897 72.4231 287.219 72.4306 287.482C72.4465 287.744 72.6634 287.93 73.0812 288.042Z" fill="#C0BCD6"/>
<path d="M89.2473 265.622C89.1987 265.609 89.1705 265.587 89.1627 265.558C89.1549 265.529 89.1687 265.497 89.2043 265.461L92.3841 262.281L90.3433 262.668C90.2866 262.675 90.2437 262.675 90.2146 262.667C90.166 262.654 90.1407 262.627 90.1387 262.586L90.1332 262.49C90.1338 262.459 90.1466 262.43 90.1715 262.406C90.2071 262.37 90.2592 262.346 90.3278 262.332L92.7551 261.873C92.8286 261.862 92.9042 261.866 92.9819 261.887L93.1204 261.924C93.169 261.937 93.1972 261.958 93.205 261.987C93.2128 262.016 93.1989 262.049 93.1634 262.084L89.6634 265.584C89.6279 265.62 89.5848 265.644 89.5344 265.658C89.4839 265.671 89.4343 265.672 89.3857 265.659L89.2473 265.622ZM92.3309 266.515C91.7187 266.351 91.4118 266.098 91.41 265.755C91.4131 265.413 91.6279 265.019 92.0543 264.574L92.4899 264.129L92.9507 263.678C93.4063 263.241 93.9029 262.923 94.4404 262.724C94.9828 262.527 95.5601 262.51 96.1723 262.674C96.7845 262.838 97.0891 263.091 97.086 263.433C97.0877 263.776 96.8754 264.17 96.4489 264.615C96.3542 264.716 96.2054 264.868 96.0027 265.071C95.8035 265.27 95.6535 265.417 95.5526 265.512C95.097 265.949 94.598 266.266 94.0555 266.463C93.518 266.662 92.9431 266.679 92.3309 266.515ZM92.6511 266.195C93.0689 266.307 93.4861 266.291 93.9026 266.145C94.3275 265.997 94.7334 265.736 95.1201 265.362C95.2281 265.26 95.3728 265.118 95.5542 264.937C95.7356 264.756 95.8719 264.616 95.9631 264.519C96.3233 264.146 96.4972 263.828 96.4849 263.563C96.4809 263.296 96.2701 263.106 95.8522 262.994C95.4344 262.882 95.0112 262.902 94.5827 263.053C94.1626 263.202 93.7628 263.46 93.3831 263.828L92.9597 264.242L92.5402 264.671C92.1729 265.05 91.9929 265.372 92.0004 265.635C92.0163 265.897 92.2332 266.083 92.6511 266.195Z" fill="#C0BCD6"/>
<path d="M107.437 243.407C107.389 243.394 107.36 243.373 107.353 243.344C107.345 243.314 107.359 243.282 107.394 243.246L107.474 243.166C107.545 243.095 107.681 243.037 107.881 242.991L111.15 242.115C111.599 242.005 111.931 241.901 112.148 241.801C112.365 241.701 112.559 241.566 112.729 241.395C112.968 241.157 113.06 240.945 113.005 240.759C112.956 240.574 112.759 240.436 112.414 240.343C112.088 240.256 111.759 240.256 111.426 240.342C111.093 240.429 110.789 240.584 110.516 240.809C110.472 240.846 110.42 240.871 110.36 240.882C110.304 240.894 110.259 240.896 110.225 240.886L110.08 240.847C110.031 240.834 110.001 240.815 109.99 240.789C109.987 240.762 110 240.733 110.028 240.705C110.212 240.533 110.448 240.378 110.735 240.238C111.022 240.099 111.34 240.006 111.689 239.959C112.04 239.909 112.389 239.931 112.734 240.023C113.254 240.162 113.537 240.369 113.583 240.643C113.63 240.917 113.498 241.209 113.189 241.518C112.975 241.731 112.72 241.907 112.423 242.043C112.126 242.18 111.745 242.306 111.279 242.42L108.304 243.233L110.745 243.887C110.799 243.902 110.829 243.923 110.837 243.952C110.845 243.982 110.829 244.016 110.79 244.055L110.71 244.135C110.675 244.171 110.629 244.194 110.574 244.207C110.523 244.22 110.474 244.22 110.425 244.207L107.437 243.407ZM113.167 245.01C112.555 244.846 112.248 244.592 112.246 244.249C112.25 243.907 112.464 243.514 112.891 243.069L113.326 242.624L113.787 242.172C114.243 241.735 114.739 241.417 115.277 241.218C115.819 241.021 116.397 241.004 117.009 241.168C117.621 241.332 117.926 241.585 117.922 241.927C117.924 242.271 117.712 242.665 117.285 243.11C117.191 243.21 117.042 243.362 116.839 243.565C116.64 243.764 116.49 243.911 116.389 244.006C115.933 244.443 115.434 244.76 114.892 244.958C114.354 245.156 113.78 245.174 113.167 245.01ZM113.487 244.69C113.905 244.802 114.323 244.785 114.739 244.639C115.164 244.492 115.57 244.231 115.957 243.856C116.065 243.754 116.209 243.613 116.391 243.431C116.572 243.25 116.708 243.111 116.8 243.013C117.16 242.641 117.334 242.322 117.321 242.057C117.317 241.79 117.107 241.6 116.689 241.489C116.271 241.377 115.848 241.396 115.419 241.547C114.999 241.696 114.599 241.955 114.22 242.322L113.796 242.736L113.377 243.165C113.009 243.545 112.829 243.866 112.837 244.13C112.853 244.391 113.07 244.578 113.487 244.69Z" fill="#C0BCD6"/>
<path d="M130.124 222.464C129.774 222.37 129.511 222.246 129.334 222.09C129.162 221.935 129.075 221.77 129.072 221.594C129.07 221.417 129.144 221.248 129.295 221.085C129.327 221.053 129.366 221.032 129.413 221.022C129.46 221.012 129.505 221.013 129.549 221.025L129.651 221.052C129.7 221.065 129.732 221.085 129.748 221.112C129.768 221.135 129.76 221.174 129.725 221.227C129.583 221.455 129.589 221.644 129.742 221.793C129.899 221.944 130.133 222.061 130.444 222.144C130.833 222.248 131.212 222.264 131.58 222.191C131.948 222.118 132.261 221.954 132.517 221.698C133.007 221.207 132.85 220.854 132.043 220.637L131.402 220.466C131.353 220.453 131.325 220.432 131.317 220.402C131.309 220.373 131.323 220.341 131.359 220.305L131.439 220.225C131.478 220.186 131.542 220.149 131.632 220.115L134.43 219.221L132.229 218.631C132.181 218.618 132.152 218.597 132.145 218.568C132.137 218.538 132.151 218.506 132.186 218.471L132.266 218.391C132.302 218.355 132.345 218.33 132.395 218.317C132.449 218.3 132.501 218.298 132.549 218.311L135.268 219.039C135.321 219.053 135.352 219.075 135.36 219.104C135.368 219.133 135.352 219.168 135.313 219.207L135.233 219.287C135.201 219.319 135.147 219.347 135.073 219.373L132.217 220.278L132.363 220.317C132.878 220.455 133.195 220.653 133.314 220.91C133.437 221.169 133.324 221.472 132.976 221.821C132.748 222.049 132.474 222.228 132.152 222.358C131.835 222.485 131.5 222.557 131.149 222.576C130.801 222.591 130.459 222.554 130.124 222.464ZM134.484 223.632C133.871 223.468 133.565 223.214 133.563 222.871C133.566 222.529 133.781 222.136 134.207 221.691L134.643 221.246L135.103 220.795C135.559 220.357 136.056 220.039 136.593 219.841C137.136 219.643 137.713 219.627 138.325 219.791C138.937 219.955 139.242 220.208 139.239 220.55C139.24 220.893 139.028 221.287 138.602 221.732C138.507 221.833 138.358 221.985 138.155 222.187C137.956 222.386 137.806 222.533 137.705 222.628C137.25 223.065 136.751 223.383 136.208 223.58C135.671 223.779 135.096 223.796 134.484 223.632ZM134.804 223.312C135.222 223.424 135.639 223.407 136.055 223.262C136.48 223.114 136.886 222.853 137.273 222.478C137.381 222.377 137.526 222.235 137.707 222.054C137.888 221.872 138.025 221.733 138.116 221.636C138.476 221.263 138.65 220.944 138.638 220.679C138.634 220.412 138.423 220.223 138.005 220.111C137.587 219.999 137.164 220.018 136.735 220.17C136.315 220.319 135.916 220.577 135.536 220.944L135.112 221.358L134.693 221.787C134.326 222.167 134.146 222.488 134.153 222.752C134.169 223.013 134.386 223.2 134.804 223.312Z" fill="#C0BCD6"/>
<path d="M152.22 201.226C152.172 201.213 152.143 201.192 152.135 201.163C152.128 201.134 152.142 201.101 152.177 201.066L153.02 200.223L150.615 199.578C150.566 199.565 150.538 199.544 150.53 199.515C150.523 199.486 150.537 199.453 150.572 199.418L150.657 199.333C150.711 199.279 150.791 199.233 150.898 199.194L155.434 197.467C155.487 197.445 155.545 197.433 155.607 197.432C155.674 197.427 155.736 197.433 155.794 197.448L156.093 197.528C156.142 197.541 156.17 197.563 156.178 197.592C156.186 197.621 156.172 197.653 156.136 197.689L153.799 200.026L154.463 200.203C154.511 200.216 154.539 200.237 154.547 200.267C154.555 200.296 154.541 200.328 154.506 200.364L154.42 200.449C154.385 200.485 154.342 200.509 154.291 200.523C154.241 200.536 154.191 200.536 154.142 200.523L153.479 200.346L152.636 201.189C152.601 201.224 152.558 201.249 152.507 201.262C152.457 201.276 152.407 201.276 152.359 201.263L152.22 201.226ZM153.34 199.903L155.416 197.827L151.351 199.369L153.34 199.903ZM155.787 202.249C155.175 202.085 154.868 201.832 154.866 201.488C154.869 201.147 155.084 200.753 155.51 200.308L155.946 199.863L156.407 199.412C156.862 198.975 157.359 198.657 157.896 198.458C158.439 198.261 159.016 198.244 159.628 198.408C160.24 198.572 160.545 198.825 160.542 199.167C160.544 199.51 160.331 199.904 159.905 200.349C159.81 200.45 159.661 200.602 159.459 200.805C159.259 201.004 159.109 201.151 159.009 201.245C158.553 201.683 158.054 202 157.511 202.197C156.974 202.396 156.399 202.413 155.787 202.249ZM156.107 201.929C156.525 202.041 156.942 202.024 157.359 201.879C157.783 201.731 158.189 201.47 158.576 201.096C158.684 200.994 158.829 200.852 159.01 200.671C159.192 200.489 159.328 200.35 159.419 200.253C159.779 199.88 159.953 199.562 159.941 199.297C159.937 199.03 159.726 198.84 159.308 198.728C158.89 198.616 158.467 198.636 158.039 198.787C157.619 198.936 157.219 199.194 156.839 199.562L156.416 199.976L155.996 200.404C155.629 200.784 155.449 201.106 155.456 201.369C155.472 201.631 155.689 201.817 156.107 201.929Z" fill="#C0BCD6"/>
<path d="M172.858 179.733C172.518 179.641 172.268 179.516 172.107 179.356C171.956 179.193 171.886 179.019 171.9 178.833C171.918 178.649 172.008 178.47 172.169 178.296L172.179 178.286C172.208 178.257 172.241 178.239 172.28 178.231C172.327 178.221 172.372 178.222 172.416 178.234L172.554 178.271C172.603 178.284 172.633 178.303 172.644 178.329C172.659 178.351 172.649 178.389 172.614 178.443C172.47 178.679 172.456 178.881 172.573 179.047C172.69 179.214 172.891 179.336 173.178 179.412C173.552 179.513 173.942 179.513 174.349 179.415C174.76 179.318 175.112 179.123 175.404 178.832C175.581 178.654 175.678 178.483 175.693 178.321C175.713 178.159 175.659 178.016 175.53 177.892C175.402 177.767 175.219 177.673 174.981 177.609C174.787 177.557 174.609 177.534 174.449 177.541C174.297 177.545 174.128 177.563 173.942 177.595C173.83 177.614 173.741 177.626 173.675 177.631C173.613 177.637 173.556 177.633 173.502 177.619L173.371 177.584C173.327 177.572 173.299 177.551 173.287 177.52C173.277 177.486 173.291 177.454 173.328 177.423L175.291 175.737C175.335 175.699 175.38 175.673 175.426 175.658C175.476 175.645 175.526 175.644 175.575 175.657L177.95 176.294C177.999 176.307 178.027 176.328 178.035 176.357C178.043 176.386 178.029 176.419 177.993 176.454L177.908 176.54C177.872 176.575 177.829 176.6 177.779 176.613C177.728 176.627 177.679 176.627 177.63 176.614L175.539 176.054L174.18 177.218C174.558 177.167 174.932 177.19 175.301 177.289C175.632 177.377 175.882 177.503 176.052 177.666C176.227 177.83 176.301 178.024 176.275 178.247C176.253 178.466 176.115 178.702 175.863 178.955C175.596 179.221 175.291 179.428 174.947 179.575C174.603 179.722 174.249 179.808 173.886 179.832C173.531 179.854 173.188 179.821 172.858 179.733ZM177.233 180.905C176.62 180.741 176.313 180.487 176.312 180.144C176.315 179.802 176.53 179.408 176.956 178.963L177.392 178.519L177.852 178.067C178.308 177.63 178.805 177.312 179.342 177.113C179.884 176.916 180.462 176.899 181.074 177.063C181.686 177.227 181.991 177.48 181.988 177.822C181.989 178.165 181.777 178.56 181.351 179.004C181.256 179.105 181.107 179.257 180.904 179.46C180.705 179.659 180.555 179.806 180.454 179.901C179.999 180.338 179.5 180.655 178.957 180.853C178.42 181.051 177.845 181.069 177.233 180.905ZM177.553 180.585C177.971 180.697 178.388 180.68 178.804 180.534C179.229 180.387 179.635 180.126 180.022 179.751C180.13 179.649 180.274 179.508 180.456 179.326C180.637 179.145 180.774 179.005 180.865 178.908C181.225 178.536 181.399 178.217 181.386 177.952C181.383 177.685 181.172 177.495 180.754 177.383C180.336 177.271 179.913 177.291 179.484 177.442C179.064 177.591 178.664 177.85 178.285 178.217L177.861 178.631L177.442 179.06C177.074 179.439 176.895 179.761 176.902 180.025C176.918 180.286 177.135 180.473 177.553 180.585Z" fill="#C0BCD6"/>
<path d="M194.247 158.375C193.873 158.275 193.611 158.13 193.461 157.941C193.311 157.752 193.264 157.544 193.32 157.315C193.376 157.086 193.514 156.862 193.735 156.641C194.044 156.332 194.512 156.058 195.138 155.82L198.052 154.727C198.064 154.721 198.089 154.712 198.126 154.699C198.171 154.685 198.214 154.676 198.254 154.673C198.302 154.668 198.346 154.67 198.385 154.681L198.523 154.718C198.567 154.73 198.588 154.751 198.588 154.783C198.596 154.812 198.584 154.842 198.552 154.874C198.534 154.892 198.498 154.912 198.446 154.934L196.221 155.772C196.396 155.783 196.575 155.813 196.76 155.862C197.134 155.962 197.396 156.107 197.546 156.296C197.699 156.481 197.748 156.688 197.692 156.917C197.636 157.145 197.497 157.37 197.277 157.59C197.056 157.811 196.782 157.999 196.454 158.155C196.126 158.31 195.77 158.411 195.385 158.457C195 158.503 194.621 158.475 194.247 158.375ZM194.567 158.055C194.8 158.117 195.052 158.14 195.322 158.122C195.596 158.101 195.865 158.035 196.129 157.925C196.392 157.816 196.622 157.663 196.818 157.467C197.013 157.272 197.12 157.088 197.137 156.917C197.158 156.742 197.104 156.593 196.976 156.468C196.852 156.34 196.673 156.245 196.44 156.182C196.206 156.12 195.953 156.099 195.679 156.121C195.409 156.138 195.142 156.202 194.878 156.312C194.618 156.418 194.39 156.569 194.194 156.764C193.998 156.96 193.89 157.145 193.869 157.32C193.849 157.495 193.9 157.646 194.025 157.774C194.153 157.899 194.334 157.992 194.567 158.055ZM198.562 159.531C197.949 159.367 197.642 159.114 197.641 158.77C197.644 158.428 197.858 158.035 198.285 157.59L198.72 157.145L199.181 156.694C199.637 156.257 200.133 155.939 200.671 155.74C201.213 155.542 201.791 155.526 202.403 155.69C203.015 155.854 203.32 156.107 203.317 156.449C203.318 156.792 203.106 157.186 202.68 157.631C202.585 157.732 202.436 157.884 202.233 158.086C202.034 158.286 201.884 158.433 201.783 158.527C201.328 158.964 200.829 159.282 200.286 159.479C199.749 159.678 199.174 159.695 198.562 159.531ZM198.882 159.211C199.3 159.323 199.717 159.306 200.133 159.161C200.558 159.013 200.964 158.752 201.351 158.378C201.459 158.276 201.603 158.134 201.785 157.953C201.966 157.771 202.103 157.632 202.194 157.535C202.554 157.162 202.728 156.843 202.715 156.579C202.712 156.311 202.501 156.122 202.083 156.01C201.665 155.898 201.242 155.918 200.813 156.069C200.393 156.218 199.993 156.476 199.614 156.843L199.19 157.258L198.771 157.686C198.403 158.066 198.224 158.388 198.231 158.651C198.247 158.912 198.464 159.099 198.882 159.211Z" fill="#C0BCD6"/>
<path d="M215.607 136.94C215.563 136.928 215.537 136.908 215.529 136.879C215.53 136.847 215.546 136.816 215.578 136.784L215.641 136.739L220.763 133.992L218.278 133.326C218.229 133.313 218.201 133.292 218.193 133.263C218.185 133.234 218.199 133.201 218.235 133.166L218.315 133.086C218.351 133.05 218.394 133.026 218.444 133.012C218.498 132.995 218.549 132.993 218.598 133.006L221.411 133.76C221.465 133.774 221.495 133.796 221.503 133.825C221.511 133.854 221.495 133.888 221.456 133.927L221.376 134.008C221.308 134.075 221.226 134.136 221.128 134.191L216.083 136.898C216.016 136.935 215.955 136.961 215.901 136.978C215.855 136.993 215.808 136.994 215.76 136.981L215.607 136.94ZM220.234 138.248C219.622 138.084 219.315 137.83 219.314 137.487C219.317 137.145 219.531 136.751 219.958 136.306L220.393 135.862L220.854 135.41C221.31 134.973 221.806 134.655 222.344 134.456C222.886 134.259 223.464 134.242 224.076 134.406C224.688 134.57 224.993 134.823 224.99 135.165C224.991 135.508 224.779 135.902 224.352 136.347C224.258 136.448 224.109 136.6 223.906 136.803C223.707 137.002 223.557 137.149 223.456 137.244C223 137.681 222.501 137.998 221.959 138.196C221.422 138.394 220.847 138.412 220.234 138.248ZM220.555 137.927C220.972 138.039 221.39 138.023 221.806 137.877C222.231 137.729 222.637 137.468 223.024 137.094C223.132 136.992 223.276 136.851 223.458 136.669C223.639 136.488 223.775 136.348 223.867 136.251C224.227 135.879 224.401 135.56 224.388 135.295C224.384 135.028 224.174 134.838 223.756 134.726C223.338 134.614 222.915 134.634 222.486 134.785C222.066 134.934 221.666 135.192 221.287 135.56L220.863 135.974L220.444 136.403C220.076 136.782 219.896 137.104 219.904 137.368C219.92 137.629 220.137 137.815 220.555 137.927Z" fill="#C0BCD6"/>
<g filter="url(#filter1_d_232_654)">
<path d="M170.042 230.956L161.317 228.617L122.575 267.36L131.3 269.697L170.042 230.956Z" fill="url(#paint0_linear_232_654)"/>
<path d="M187.477 229.574L178.752 227.236L160.218 245.77L168.943 248.109L187.477 229.574Z" fill="url(#paint1_linear_232_654)"/>
<path d="M280.807 216.501L272.082 214.164L227.108 259.138L235.832 261.475L280.807 216.501Z" fill="url(#paint2_linear_232_654)"/>
<path d="M245.221 219.984L236.497 217.646L201.527 252.616L210.251 254.953L245.221 219.984Z" fill="url(#paint3_linear_232_654)"/>
<path d="M379.114 230.56L370.39 228.223L317.467 281.146L326.191 283.485L379.114 230.56Z" fill="url(#paint4_linear_232_654)"/>
<path d="M204.16 228.942L195.434 226.605L181.536 240.504L190.26 242.841L204.16 228.942Z" fill="url(#paint5_linear_232_654)"/>
<path d="M288.303 257.165L279.578 254.828L270.158 264.249L278.883 266.586L288.303 257.165Z" fill="url(#paint6_linear_232_654)"/>
<path d="M341.597 235.974L332.872 233.637L303.192 263.317L311.916 265.655L341.597 235.974Z" fill="url(#paint7_linear_232_654)"/>
<path d="M318.24 243.279L309.516 240.942L288.02 262.437L296.744 264.776L318.24 243.279Z" fill="url(#paint8_linear_232_654)"/>
<path d="M485.346 284.852L476.622 282.514L420.763 338.37L429.489 340.709L485.346 284.852Z" fill="url(#paint9_linear_232_654)"/>
<path d="M523.108 263.142L514.384 260.803L458.527 316.66L467.251 318.997L523.108 263.142Z" fill="url(#paint10_linear_232_654)"/>
<path d="M514.774 303.58L506.048 301.241L490.599 316.691L499.323 319.029L514.774 303.58Z" fill="url(#paint11_linear_232_654)"/>
<path d="M539.042 295.363L530.316 293.026L509.06 314.282L517.784 316.619L539.042 295.363Z" fill="url(#paint12_linear_232_654)"/>
<path d="M585.441 281.068L576.715 278.731L541.264 314.183L549.988 316.522L585.441 281.068Z" fill="url(#paint13_linear_232_654)"/>
<path d="M629.83 252.73L621.106 250.393L565.804 305.694L574.53 308.031L629.83 252.73Z" fill="url(#paint14_linear_232_654)"/>
<path d="M546.323 304.133L537.598 301.795L528.364 311.028L537.088 313.367L546.323 304.133Z" fill="url(#paint15_linear_232_654)"/>
<path d="M397.884 259.944L389.159 257.607L349.132 297.635L357.856 299.972L397.884 259.944Z" fill="url(#paint16_linear_232_654)"/>
<path d="M440.055 233.826L431.331 231.487L367.835 294.983L376.56 297.321L440.055 233.826Z" fill="url(#paint17_linear_232_654)"/>
<path d="M215.156 233.998L206.43 231.659L179.664 258.426L188.388 260.763L215.156 233.998Z" fill="url(#paint18_linear_232_654)"/>
<path d="M284.239 245.175L275.513 242.838L233.785 284.566L242.509 286.904L284.239 245.175Z" fill="url(#paint19_linear_232_654)"/>
<path d="M347.596 246.025L338.872 243.686L297.143 285.415L305.869 287.754L347.596 246.025Z" fill="url(#paint20_linear_232_654)"/>
<path d="M359.019 266.709L350.293 264.372L322.9 291.765L331.624 294.104L359.019 266.709Z" fill="url(#paint21_linear_232_654)"/>
<path d="M276.18 237.184L267.454 234.845L235.423 266.878L244.147 269.215L276.18 237.184Z" fill="url(#paint22_linear_232_654)"/>
<path d="M229.442 251.817L220.718 249.479L211.296 258.9L220.022 261.237L229.442 251.817Z" fill="url(#paint23_linear_232_654)"/>
<path d="M362.08 279.702L353.356 277.365L331.86 298.86L340.584 301.199L362.08 279.702Z" fill="url(#paint24_linear_232_654)"/>
<path d="M431.715 322.429L422.99 320.091L401.494 341.586L410.22 343.925L431.715 322.429Z" fill="url(#paint25_linear_232_654)"/>
<path d="M507.47 294.833L498.744 292.494L467.845 323.395L476.57 325.732L507.47 294.833Z" fill="url(#paint26_linear_232_654)"/>
<path d="M621.302 277.314L612.576 274.977L577.123 310.429L585.848 312.766L621.302 277.314Z" fill="url(#paint27_linear_232_654)"/>
<path d="M470.307 235.682L461.583 233.344L405.358 289.568L414.084 291.906L470.307 235.682Z" fill="url(#paint28_linear_232_654)"/>
<path d="M459.792 262.249L451.068 259.911L404.897 306.081L413.621 308.419L459.792 262.249Z" fill="url(#paint29_linear_232_654)"/>
<path d="M441.381 296.712L432.656 294.374L397.579 329.45L406.305 331.789L441.381 296.712Z" fill="url(#paint30_linear_232_654)"/>
<path d="M467.32 222.618L458.596 220.281L382.69 296.185L391.416 298.523L467.32 222.618Z" fill="url(#paint31_linear_232_654)"/>
<path d="M138.252 246.693L129.527 244.356L98.7977 275.085L107.522 277.423L138.252 246.693Z" fill="url(#paint32_linear_232_654)"/>
</g>
<path d="M415.707 343.403C413.768 345.143 411.445 346.402 408.928 347.076C406.41 347.751 403.77 347.823 401.22 347.285C396.6 346.047 395.597 342.302 398.979 338.921C400.918 337.18 403.241 335.922 405.758 335.247C408.275 334.573 410.916 334.501 413.466 335.038C418.086 336.276 419.089 340.021 415.707 343.403Z" stroke="#C0BCD6" stroke-width="0.75" stroke-linecap="round" stroke-linejoin="round"/>
<path d="M631.12 255.205C629.422 256.729 627.389 257.83 625.186 258.421C622.982 259.011 620.67 259.074 618.438 258.604C614.394 257.52 613.516 254.242 616.476 251.281C618.174 249.758 620.208 248.656 622.411 248.066C624.615 247.475 626.926 247.413 629.159 247.883C633.202 248.967 634.081 252.245 631.12 255.205Z" stroke="#1BC082" stroke-width="0.75" stroke-miterlimit="10"/>
</g>
<defs>
<filter id="filter0_d_232_654" x="31.3398" y="107.621" width="657.725" height="320.822" filterUnits="userSpaceOnUse" color-interpolation-filters="sRGB">
<feFlood flood-opacity="0" result="BackgroundImageFix"/>
<feColorMatrix in="SourceAlpha" type="matrix" values="0 0 0 0 0 0 0 0 0 0 0 0 0 0 0 0 0 0 127 0" result="hardAlpha"/>
<feOffset dy="4"/>
<feGaussianBlur stdDeviation="2"/>
<feComposite in2="hardAlpha" operator="out"/>
<feColorMatrix type="matrix" values="0 0 0 0 0 0 0 0 0 0 0 0 0 0 0 0 0 0 0.2 0"/>
<feBlend mode="normal" in2="BackgroundImageFix" result="effect1_dropShadow_232_654"/>
<feBlend mode="normal" in="SourceGraphic" in2="effect1_dropShadow_232_654" result="shape"/>
</filter>
<filter id="filter1_d_232_654" x="94.7969" y="131" width="539.033" height="287.672" filterUnits="userSpaceOnUse" color-interpolation-filters="sRGB">
<feFlood flood-opacity="0" result="BackgroundImageFix"/>
<feColorMatrix in="SourceAlpha" type="matrix" values="0 0 0 0 0 0 0 0 0 0 0 0 0 0 0 0 0 0 127 0" result="hardAlpha"/>
<feOffset dy="4"/>
<feGaussianBlur stdDeviation="2"/>
<feComposite in2="hardAlpha" operator="out"/>
<feColorMatrix type="matrix" values="0 0 0 0 0 0 0 0 0 0 0 0 0 0 0 0 0 0 0.15 0"/>
<feBlend mode="normal" in2="BackgroundImageFix" result="effect1_dropShadow_232_654"/>
<feBlend mode="normal" in="SourceGraphic" in2="effect1_dropShadow_232_654" result="shape"/>
</filter>
<linearGradient id="paint0_linear_232_654" x1="142.179" y1="233.746" x2="150.438" y2="264.57" gradientUnits="userSpaceOnUse">
<stop stop-color="#1BC082"/>
<stop offset="1" stop-color="#23C89A"/>
</linearGradient>
<linearGradient id="paint1_linear_232_654" x1="171.567" y1="229.162" x2="176.128" y2="246.183" gradientUnits="userSpaceOnUse">
<stop stop-color="#1BC082"/>
<stop offset="1" stop-color="#23C89A"/>
</linearGradient>
<linearGradient id="paint2_linear_232_654" x1="249.258" y1="220.279" x2="258.657" y2="255.359" gradientUnits="userSpaceOnUse">
<stop stop-color="#1BC082"/>
<stop offset="1" stop-color="#23C89A"/>
</linearGradient>
<linearGradient id="paint3_linear_232_654" x1="219.589" y1="222.177" x2="227.158" y2="250.423" gradientUnits="userSpaceOnUse">
<stop stop-color="#1BC082"/>
<stop offset="1" stop-color="#23C89A"/>
</linearGradient>
<linearGradient id="paint4_linear_232_654" x1="342.863" y1="235.599" x2="353.718" y2="276.109" gradientUnits="userSpaceOnUse">
<stop stop-color="#1BC082"/>
<stop offset="1" stop-color="#23C89A"/>
</linearGradient>
<linearGradient id="paint5_linear_232_654" x1="190.992" y1="227.796" x2="194.704" y2="241.65" gradientUnits="userSpaceOnUse">
<stop stop-color="#1BC082"/>
<stop offset="1" stop-color="#23C89A"/>
</linearGradient>
<linearGradient id="paint6_linear_232_654" x1="277.784" y1="255.309" x2="280.677" y2="266.105" gradientUnits="userSpaceOnUse">
<stop stop-color="#1BC082"/>
<stop offset="1" stop-color="#23C89A"/>
</linearGradient>
<linearGradient id="paint7_linear_232_654" x1="319.094" y1="237.328" x2="325.695" y2="261.963" gradientUnits="userSpaceOnUse">
<stop stop-color="#1BC082"/>
<stop offset="1" stop-color="#23C89A"/>
</linearGradient>
<linearGradient id="paint8_linear_232_654" x1="300.579" y1="243.337" x2="305.681" y2="262.381" gradientUnits="userSpaceOnUse">
<stop stop-color="#1BC082"/>
<stop offset="1" stop-color="#23C89A"/>
</linearGradient>
<linearGradient id="paint9_linear_232_654" x1="447.359" y1="290.355" x2="458.75" y2="332.868" gradientUnits="userSpaceOnUse">
<stop stop-color="#1BC082"/>
<stop offset="1" stop-color="#23C89A"/>
</linearGradient>
<linearGradient id="paint10_linear_232_654" x1="485.122" y1="268.644" x2="496.513" y2="311.157" gradientUnits="userSpaceOnUse">
<stop stop-color="#1BC082"/>
<stop offset="1" stop-color="#23C89A"/>
</linearGradient>
<linearGradient id="paint11_linear_232_654" x1="500.688" y1="302.678" x2="504.684" y2="317.592" gradientUnits="userSpaceOnUse">
<stop stop-color="#1BC082"/>
<stop offset="1" stop-color="#23C89A"/>
</linearGradient>
<linearGradient id="paint12_linear_232_654" x1="521.521" y1="295.382" x2="526.58" y2="314.262" gradientUnits="userSpaceOnUse">
<stop stop-color="#1BC082"/>
<stop offset="1" stop-color="#23C89A"/>
</linearGradient>
<linearGradient id="paint13_linear_232_654" x1="559.524" y1="283.337" x2="567.181" y2="311.915" gradientUnits="userSpaceOnUse">
<stop stop-color="#1BC082"/>
<stop offset="1" stop-color="#23C89A"/>
</linearGradient>
<linearGradient id="paint14_linear_232_654" x1="592.173" y1="258.146" x2="603.462" y2="300.279" gradientUnits="userSpaceOnUse">
<stop stop-color="#1BC082"/>
<stop offset="1" stop-color="#23C89A"/>
</linearGradient>
<linearGradient id="paint15_linear_232_654" x1="535.914" y1="302.246" x2="538.773" y2="312.916" gradientUnits="userSpaceOnUse">
<stop stop-color="#1BC082"/>
<stop offset="1" stop-color="#23C89A"/>
</linearGradient>
<linearGradient id="paint16_linear_232_654" x1="369.261" y1="262.939" x2="377.755" y2="294.64" gradientUnits="userSpaceOnUse">
<stop stop-color="#1BC082"/>
<stop offset="1" stop-color="#23C89A"/>
</linearGradient>
<linearGradient id="paint17_linear_232_654" x1="397.55" y1="240.538" x2="410.34" y2="288.27" gradientUnits="userSpaceOnUse">
<stop stop-color="#1BC082"/>
<stop offset="1" stop-color="#23C89A"/>
</linearGradient>
<linearGradient id="paint18_linear_232_654" x1="194.376" y1="234.889" x2="200.443" y2="257.533" gradientUnits="userSpaceOnUse">
<stop stop-color="#F6F4FF"/>
<stop offset="1" stop-color="#ECE7FB"/>
</linearGradient>
<linearGradient id="paint19_linear_232_654" x1="254.609" y1="248.439" x2="263.415" y2="281.302" gradientUnits="userSpaceOnUse">
<stop stop-color="#F6F4FF"/>
<stop offset="1" stop-color="#ECE7FB"/>
</linearGradient>
<linearGradient id="paint20_linear_232_654" x1="317.967" y1="249.288" x2="326.773" y2="282.152" gradientUnits="userSpaceOnUse">
<stop stop-color="#F6F4FF"/>
<stop offset="1" stop-color="#ECE7FB"/>
</linearGradient>
<linearGradient id="paint21_linear_232_654" x1="337.868" y1="267.702" x2="344.051" y2="290.774" gradientUnits="userSpaceOnUse">
<stop stop-color="#F6F4FF"/>
<stop offset="1" stop-color="#ECE7FB"/>
</linearGradient>
<linearGradient id="paint22_linear_232_654" x1="252.286" y1="238.91" x2="259.317" y2="265.151" gradientUnits="userSpaceOnUse">
<stop stop-color="#F6F4FF"/>
<stop offset="1" stop-color="#ECE7FB"/>
</linearGradient>
<linearGradient id="paint23_linear_232_654" x1="218.923" y1="249.96" x2="221.815" y2="260.757" gradientUnits="userSpaceOnUse">
<stop stop-color="#F6F4FF"/>
<stop offset="1" stop-color="#ECE7FB"/>
</linearGradient>
<linearGradient id="paint24_linear_232_654" x1="344.418" y1="279.76" x2="349.521" y2="298.804" gradientUnits="userSpaceOnUse">
<stop stop-color="#F6F4FF"/>
<stop offset="1" stop-color="#ECE7FB"/>
</linearGradient>
<linearGradient id="paint25_linear_232_654" x1="414.053" y1="322.486" x2="419.156" y2="341.53" gradientUnits="userSpaceOnUse">
<stop stop-color="#F6F4FF"/>
<stop offset="1" stop-color="#ECE7FB"/>
</linearGradient>
<linearGradient id="paint26_linear_232_654" x1="484.245" y1="296.379" x2="491.069" y2="321.847" gradientUnits="userSpaceOnUse">
<stop stop-color="#F6F4FF"/>
<stop offset="1" stop-color="#ECE7FB"/>
</linearGradient>
<linearGradient id="paint27_linear_232_654" x1="595.384" y1="279.583" x2="603.041" y2="308.159" gradientUnits="userSpaceOnUse">
<stop stop-color="#F6F4FF"/>
<stop offset="1" stop-color="#ECE7FB"/>
</linearGradient>
<linearGradient id="paint28_linear_232_654" x1="432.103" y1="241.243" x2="443.562" y2="284.007" gradientUnits="userSpaceOnUse">
<stop stop-color="#F6F4FF"/>
<stop offset="1" stop-color="#ECE7FB"/>
</linearGradient>
<linearGradient id="paint29_linear_232_654" x1="427.535" y1="266.217" x2="437.154" y2="302.113" gradientUnits="userSpaceOnUse">
<stop stop-color="#F6F4FF"/>
<stop offset="1" stop-color="#ECE7FB"/>
</linearGradient>
<linearGradient id="paint30_linear_232_654" x1="415.686" y1="298.921" x2="423.274" y2="327.242" gradientUnits="userSpaceOnUse">
<stop stop-color="#F6F4FF"/>
<stop offset="1" stop-color="#ECE7FB"/>
</linearGradient>
<linearGradient id="paint31_linear_232_654" x1="417.475" y1="231.299" x2="432.535" y2="287.506" gradientUnits="userSpaceOnUse">
<stop stop-color="#1BC082"/>
<stop offset="1" stop-color="#23C89A"/>
</linearGradient>
<linearGradient id="paint32_linear_232_654" x1="115.129" y1="248.214" x2="121.921" y2="273.565" gradientUnits="userSpaceOnUse">
<stop stop-color="#1BC082"/>
<stop offset="1" stop-color="#23C89A"/>
</linearGradient>
</defs>
</svg>
