<svg width="17" height="17" viewBox="0 0 17 17" fill="none" xmlns="http://www.w3.org/2000/svg">
<path d="M0.240009 5.41748C0.131376 5.53443 0.0818064 5.69451 0.105359 5.85236C0.128914 6.01021 0.223016 6.14873 0.361061 6.22889L5.89756 9.43349L11.8532 5.04689L7.46866 11.0061L10.6697 16.5375C10.7375 16.6555 10.8485 16.7425 10.9793 16.7802C11.1099 16.8179 11.2502 16.8034 11.3704 16.7398C11.4907 16.6761 11.5816 16.5682 11.6239 16.4389L16.8739 0.686846C16.9146 0.563213 16.9078 0.428915 16.8549 0.309986C16.8022 0.191042 16.707 0.0958853 16.5881 0.0431513C16.4691 -0.00969972 16.3348 -0.0164977 16.2112 0.024167L0.459128 5.27447C0.374987 5.30271 0.299402 5.35181 0.239519 5.4172L0.240009 5.41748Z" fill="white"/>
</svg>
